<svg width="58" height="46" viewBox="0 0 58 46" fill="none" xmlns="http://www.w3.org/2000/svg">
<path d="M14.4802 1.16553C13.2749 1.16553 12.2114 1.9527 11.8588 3.10528L0.120236 41.5095C-0.134277 42.3385 0.0202486 43.2402 0.536547 43.9383C1.05466 44.6382 1.87093 45.0473 2.73991 45.0473H7.23934C8.47191 45.0473 9.55178 44.2274 9.88083 43.0403L12.4514 33.7614H25.0189L27.8204 43.1039C28.1676 44.2656 29.2348 45.0564 30.4455 45.0564H35.3667C36.2375 45.0564 37.0574 44.6401 37.5737 43.9456C38.09 43.2384 38.2427 42.3367 37.9864 41.5023L26.0733 3.09438C25.717 1.94725 24.6572 1.16553 23.4555 1.16553H14.4802ZM13.8821 26.3078C13.8821 26.3078 16.4382 16.5745 17.7853 11.4006C17.8744 11.057 18.1816 10.817 18.5361 10.8134C18.8906 10.8098 19.2033 11.0425 19.2996 11.3824L23.5864 26.3078H13.8821Z" fill="white"/>
<path d="M49.0777 8.96433V1.67797C49.0777 0.750815 48.3269 0 47.3979 0H44.471C43.5438 0 42.793 0.750815 42.793 1.67797V8.96433H35.9739C35.0449 8.96433 34.2959 9.71514 34.2959 10.6423V13.3383C34.2959 14.2655 35.0449 15.0163 35.9739 15.0163H42.793V22.3008C42.793 23.228 43.5438 23.977 44.471 23.977H47.3979C48.3269 23.977 49.0777 23.2262 49.0777 22.3008V15.0163H55.8968C56.824 15.0163 57.5748 14.2655 57.5748 13.3383V10.6423C57.5748 9.71514 56.824 8.96433 55.8968 8.96433H49.0777Z" fill="white"/>
</svg>
