<svg width="44" height="34" viewBox="0 0 44 34" fill="none" xmlns="http://www.w3.org/2000/svg">
<path d="M12.0016 21.4712C12.1397 22.1474 13.7892 22.4193 13.7892 22.4193L15.0124 21.731C15.5244 25.9639 15.9787 29.419 16.1308 29.7202C16.5431 30.5323 19.5679 29.45 19.8423 28.0958C19.9541 27.5487 19.4124 23.8578 18.7292 19.6559L23.0033 17.2676C23.0033 17.2676 23.1903 16.6636 21.8605 16.8976C21.3957 16.9802 20.0397 17.4775 18.4775 18.121C17.5165 12.3223 16.4051 6.16915 16.4051 6.16915C16.4051 6.16915 30.975 21.7345 31.6635 21.7345C32.352 21.7345 33.313 21.6003 32.9006 20.382C32.4883 19.1638 16.4051 4.00452 16.4051 4.00452C16.4051 4.00452 13.6564 3.86859 13.1077 5.08684C13.1077 5.08684 13.9657 12.9194 14.7765 19.754C13.1672 20.5265 11.9492 21.2131 12.0016 21.4712Z" fill="#1D1D1D"/>
<path d="M43.9923 17.2313C43.9746 16.5334 43.905 15.8378 43.7842 15.1502C43.5448 13.7745 43.1049 12.441 42.4783 11.192C42.1722 10.573 41.8221 9.97666 41.4305 9.40751C41.0473 8.84056 40.6278 8.29888 40.1745 7.78583C39.7291 7.27404 39.2527 6.78973 38.7482 6.33559C37.7518 5.4407 36.6735 4.64066 35.5274 3.94594C30.975 1.19115 25.7205 -0.0722429 20.5177 0.00318364C19.2166 0.0391383 17.9204 0.177855 16.6414 0.418029C15.3608 0.652538 14.1088 1.02144 12.9061 1.51857C11.7107 2.01824 10.582 2.66372 9.54599 3.44024C8.5216 4.20427 7.58665 5.0806 6.75875 6.05274C6.744 6.06859 6.7358 6.08941 6.7358 6.11102C6.7358 6.13264 6.744 6.15346 6.75875 6.16931C6.76675 6.17734 6.77627 6.18372 6.78675 6.18807C6.79723 6.19242 6.80848 6.19466 6.81983 6.19466C6.83119 6.19466 6.84243 6.19242 6.85292 6.18807C6.8634 6.18372 6.87291 6.17734 6.88091 6.16931C7.74807 5.26409 8.71478 4.45904 9.76277 3.76937C10.8023 3.06761 11.9244 2.4959 13.104 2.06713C15.4663 1.21001 17.9971 0.886016 20.5022 0.910016C23.0182 0.947579 25.5179 1.32001 27.9348 2.01742C30.3546 2.702 32.6627 3.73086 34.7876 5.07219C36.8918 6.42473 38.7895 8.13554 40.1659 10.2149C40.5121 10.7332 40.8203 11.2758 41.0881 11.8383C41.6314 12.959 42.0076 14.1527 42.2047 15.3816C42.3036 15.9957 42.357 16.6163 42.3647 17.2382C42.3711 17.8596 42.3377 18.4809 42.2649 19.0981C42.2185 19.405 42.1755 19.7118 42.1153 20.0169L42.0103 20.4695L41.9587 20.6958L41.8916 20.9186C41.5419 22.1119 41.0147 23.2461 40.3277 24.2837C38.9512 26.3579 36.995 28.019 34.8306 29.255C32.6449 30.4848 30.2719 31.3499 27.8058 31.8161C25.3393 32.2926 22.8197 32.4367 20.3147 32.2446C19.9998 32.2309 19.6884 32.188 19.377 32.1606C19.2204 32.1435 19.0639 32.1298 18.909 32.1109L18.4445 32.0406C18.1348 31.9892 17.8234 31.9549 17.5171 31.8898L16.6052 31.7166C16.4514 31.686 16.2992 31.6477 16.1493 31.6018L15.6968 31.4766C15.394 31.3926 15.0912 31.3138 14.797 31.2058L13.9075 30.9024L13.0352 30.551C12.8907 30.491 12.7444 30.4344 12.6016 30.371L12.1766 30.1738C11.8945 30.0367 11.6072 29.9115 11.3302 29.7658C10.7813 29.4624 10.2221 29.1778 9.69911 28.8316L9.30167 28.583L9.10209 28.4579L8.91112 28.3224L8.14549 27.7739C7.88913 27.5922 7.65342 27.3847 7.40739 27.191L7.04264 26.8962C6.91876 26.8002 6.80865 26.687 6.69854 26.5842L6.01033 25.9499L5.35654 25.2694C5.24987 25.1545 5.13803 25.0465 5.03652 24.9265L4.73543 24.5665L4.43434 24.2065C4.33627 24.0848 4.2296 23.97 4.14358 23.8397L3.59645 23.0786L3.45881 22.8883L3.33666 22.6877L3.08546 22.2883C2.76134 21.7544 2.46446 21.2046 2.19596 20.6409C1.67071 19.508 1.30536 18.3081 1.11032 17.0753C0.928202 15.8403 0.934582 14.585 1.12924 13.352C1.32561 12.1165 1.68848 10.9131 2.208 9.77435C2.73172 8.63754 3.37722 7.56046 4.13325 6.56187C5.66074 4.5671 7.51024 2.83905 9.6062 1.44829C9.62475 1.43633 9.63785 1.4176 9.64267 1.39612C9.6475 1.37464 9.64367 1.35213 9.63201 1.33343C9.62024 1.31426 9.60138 1.30047 9.57949 1.29502C9.55761 1.28957 9.53446 1.2929 9.51501 1.30429C8.41771 1.95361 7.37252 2.68664 6.38885 3.49681C5.40084 4.3198 4.49035 5.23099 3.66872 6.21902C2.83239 7.21977 2.1137 8.31256 1.52668 9.47608C0.928552 10.6597 0.493909 11.9185 0.234576 13.2183C-0.0183551 14.5408 -0.0670919 15.8941 0.0900525 17.2313C0.260157 18.5719 0.615661 19.8826 1.14645 21.1261C1.6827 22.3526 2.34887 23.5186 3.13364 24.6042C3.22482 24.7448 3.33494 24.87 3.43645 25.0019L3.74958 25.3945L4.06099 25.7854C4.16767 25.9139 4.28466 26.0339 4.39477 26.1574L5.07265 26.8945L5.79355 27.5802C5.9157 27.6933 6.03098 27.815 6.1583 27.923L6.54025 28.2453C6.79661 28.4561 7.04264 28.6824 7.30932 28.8813L8.10936 29.4881L8.31066 29.6373L8.51712 29.7744L8.9352 30.0487C9.48233 30.431 10.0742 30.7344 10.6557 31.0772C10.9482 31.2349 11.251 31.3738 11.5487 31.5246L11.9977 31.7441C12.1491 31.8143 12.304 31.8761 12.4571 31.9412L13.3793 32.3286L14.3238 32.6715C14.637 32.7915 14.9587 32.8806 15.2804 32.9749L15.7622 33.1155C15.9222 33.1635 16.0839 33.2097 16.2491 33.244L17.2298 33.4686C17.5584 33.544 17.8939 33.5869 18.226 33.64L18.7249 33.7223C18.897 33.7463 19.0535 33.7617 19.217 33.7823C19.5456 33.8166 19.8742 33.8663 20.2046 33.8869C21.5252 34.0077 22.853 34.0318 24.1772 33.9589C25.5055 33.8913 26.8276 33.7338 28.1344 33.4874C30.786 33.0016 33.3394 32.0848 35.6926 30.7738C38.0411 29.4213 40.1866 27.5819 41.735 25.2368C42.5085 24.0543 43.0995 22.7628 43.4882 21.4055L43.5622 21.1518L43.6224 20.8929L43.7377 20.3786C43.8048 20.0358 43.853 19.6792 43.9098 19.3312C43.9874 18.6341 44.015 17.9323 43.9923 17.2313Z" fill="#1D1D1D"/>
<path d="M24.0648 8.27836C24.1122 8.40152 24.1871 8.5057 24.2807 8.57887C24.3743 8.65203 24.483 8.69119 24.594 8.69181C24.6841 8.69253 24.773 8.66702 24.8535 8.61739L27.213 7.19718L28.7585 8.80965C28.817 8.87544 28.8857 8.92608 28.9605 8.95855C29.0353 8.99102 29.1146 9.00464 29.1938 8.99861C29.273 8.99258 29.3504 8.96701 29.4213 8.92344C29.4923 8.87986 29.5553 8.81918 29.6067 8.74503C29.6581 8.67087 29.6968 8.58476 29.7204 8.49185C29.744 8.39894 29.7521 8.30114 29.7442 8.2043C29.7363 8.10747 29.7125 8.01358 29.6743 7.92827C29.6361 7.84296 29.5843 7.76797 29.522 7.70779L28.3658 6.50051L29.6686 5.71288C29.7389 5.66999 29.8016 5.61054 29.8531 5.53793C29.9046 5.46531 29.944 5.38096 29.969 5.28968C29.9939 5.1984 30.004 5.10198 29.9986 5.00594C29.9932 4.90989 29.9724 4.81609 29.9374 4.7299C29.9024 4.6437 29.854 4.5668 29.7948 4.50358C29.7356 4.44037 29.6668 4.39207 29.5924 4.36145C29.518 4.33083 29.4394 4.31849 29.3611 4.32514C29.2828 4.33178 29.2063 4.35728 29.136 4.40017L27.3748 5.46481L26.1378 4.17277C26.0187 4.04831 25.8641 3.987 25.7081 4.00231C25.5522 4.01762 25.4075 4.10831 25.3061 4.25443C25.2046 4.40054 25.1546 4.59011 25.1671 4.78144C25.1796 4.97276 25.2535 5.15016 25.3726 5.27462L26.2153 6.16148L24.321 7.30468C24.1817 7.39214 24.0765 7.54386 24.0285 7.72645C23.9805 7.90904 23.9935 8.10757 24.0648 8.27836Z" fill="#1D1D1D"/>
</svg>
