<svg width="49" height="50" viewBox="0 0 49 50" fill="none" xmlns="http://www.w3.org/2000/svg">
<path d="M41.1469 36.2278L26.451 46.7759C25.8296 47.224 25.0849 47.4649 24.3211 47.4649C23.5573 47.4649 22.8126 47.224 22.1912 46.7759L7.56053 36.2278C7.08626 35.8841 6.69986 35.4313 6.43327 34.9071C6.16668 34.3828 6.02754 33.8021 6.02734 33.2129V5.42325C6.02734 4.44139 6.4136 3.49967 7.10125 2.80498C7.78891 2.11029 8.72173 1.71943 9.6948 1.71826H39.017C39.9897 1.72059 40.9219 2.11182 41.6093 2.80626C42.2967 3.5007 42.6833 4.44174 42.6845 5.42325V33.2129C42.6845 33.8026 42.545 34.3839 42.2776 34.9082C42.0101 35.4326 41.6225 35.885 41.1469 36.2278Z" fill="url(#paint0_linear_535_3989)"/>
<g opacity="0.3">
<path opacity="0.2" d="M40.071 5.42346C40.071 5.14021 39.9595 4.86856 39.761 4.66827C39.5625 4.46799 39.2933 4.35547 39.0126 4.35547H9.6947C9.55591 4.35547 9.41849 4.38312 9.29032 4.43685C9.16215 4.49057 9.04575 4.56931 8.94782 4.66854C8.84988 4.76777 8.77233 4.88554 8.71962 5.01509C8.6669 5.14464 8.64006 5.28341 8.64063 5.42346V26.77H40.071V5.42346Z" fill="black"/>
</g>
<path opacity="0.35" d="M8.64074 26.77V33.2175C8.63829 33.3885 8.67657 33.5576 8.75237 33.7105C8.82816 33.8635 8.93926 33.9959 9.0763 34.0965L23.7026 44.6445C23.8823 44.7725 24.0967 44.8415 24.3167 44.8423C24.5369 44.8427 24.7516 44.7735 24.9309 44.6445L39.6355 34.0789C39.7731 33.9788 39.8846 33.8466 39.9605 33.6935C40.0363 33.5404 40.0743 33.371 40.0711 33.1999V26.77H8.64074Z" fill="black"/>
<path d="M25.4957 37.8011L25.4434 37.6473C25.3408 37.35 25.1761 37.0784 24.9604 36.8509C24.7448 36.6234 24.4832 36.4454 24.1934 36.3288C24.4832 36.2122 24.7448 36.0341 24.9604 35.8066C25.1761 35.5791 25.3408 35.3076 25.4434 35.0103L25.4957 34.8564L25.548 35.0103C25.651 35.308 25.8164 35.5799 26.0329 35.8074C26.2493 36.0349 26.5118 36.2127 26.8024 36.3288C26.5118 36.4448 26.2493 36.6227 26.0329 36.8502C25.8164 37.0777 25.651 37.3495 25.548 37.6473L25.4957 37.8011Z" fill="white"/>
<path d="M30.8757 11.9104L30.8409 11.8005C30.77 11.5909 30.6557 11.399 30.5055 11.2375C30.3552 11.0761 30.1726 10.9489 29.9697 10.8644C30.1729 10.7804 30.3558 10.6533 30.5061 10.4918C30.6564 10.3303 30.7706 10.1381 30.8409 9.92823L30.8757 9.82275L30.9105 9.92823C30.9809 10.1381 31.095 10.3303 31.2453 10.4918C31.3956 10.6533 31.5785 10.7804 31.7817 10.8644C31.5788 10.9489 31.3962 11.0761 31.2459 11.2375C31.0957 11.399 30.9814 11.5909 30.9105 11.8005L30.8757 11.9104Z" fill="white"/>
<path d="M40.4792 22.6428L40.4444 22.5373C40.3746 22.3272 40.2606 22.1347 40.1102 21.9731C39.9599 21.8116 39.7767 21.6847 39.5732 21.6012C39.7763 21.5169 39.959 21.3898 40.1093 21.2283C40.2596 21.0669 40.3738 20.8748 40.4444 20.6651L40.4792 20.5552L40.5184 20.6651C40.589 20.8748 40.7032 21.0669 40.8535 21.2283C41.0037 21.3898 41.1865 21.5169 41.3895 21.6012C41.1861 21.6847 41.0029 21.8116 40.8525 21.9731C40.7022 22.1347 40.5882 22.3272 40.5184 22.5373L40.4792 22.6428Z" fill="white"/>
<path d="M7.9343 22.9284L7.89945 22.823C7.82914 22.6131 7.71498 22.4209 7.56469 22.2594C7.4144 22.0979 7.23149 21.9708 7.02832 21.8868C7.23149 21.8028 7.4144 21.6758 7.56469 21.5143C7.71498 21.3528 7.82914 21.1606 7.89945 20.9507L7.9343 20.8452L7.9735 20.9507C8.04329 21.1608 8.15727 21.3533 8.30762 21.5149C8.45797 21.6764 8.64116 21.8033 8.84463 21.8868C8.64116 21.9703 8.45797 22.0972 8.30762 22.2588C8.15727 22.4204 8.04329 22.6128 7.9735 22.823L7.9343 22.9284Z" fill="white"/>
<path opacity="0.3" d="M11.8061 17.1271C12.1116 17.1271 12.3593 16.8772 12.3593 16.5689C12.3593 16.2606 12.1116 16.0107 11.8061 16.0107C11.5006 16.0107 11.2529 16.2606 11.2529 16.5689C11.2529 16.8772 11.5006 17.1271 11.8061 17.1271Z" fill="white"/>
<path opacity="0.3" d="M17.7338 11.4225C18.0393 11.4225 18.287 11.1726 18.287 10.8643C18.287 10.5561 18.0393 10.3062 17.7338 10.3062C17.4283 10.3062 17.1807 10.5561 17.1807 10.8643C17.1807 11.1726 17.4283 11.4225 17.7338 11.4225Z" fill="white"/>
<path opacity="0.3" d="M37.1518 17.2545C37.4573 17.2545 37.705 17.0046 37.705 16.6963C37.705 16.3881 37.4573 16.1382 37.1518 16.1382C36.8463 16.1382 36.5986 16.3881 36.5986 16.6963C36.5986 17.0046 36.8463 17.2545 37.1518 17.2545Z" fill="white"/>
<path opacity="0.3" d="M33.1791 30.3868C33.4847 30.3868 33.7323 30.1369 33.7323 29.8287C33.7323 29.5204 33.4847 29.2705 33.1791 29.2705C32.8736 29.2705 32.626 29.5204 32.626 29.8287C32.626 30.1369 32.8736 30.3868 33.1791 30.3868Z" fill="white"/>
<path opacity="0.3" d="M14.9946 29.8287C15.3001 29.8287 15.5477 29.5788 15.5477 29.2706C15.5477 28.9623 15.3001 28.7124 14.9946 28.7124C14.6891 28.7124 14.4414 28.9623 14.4414 29.2706C14.4414 29.5788 14.6891 29.8287 14.9946 29.8287Z" fill="white"/>
<path opacity="0.3" d="M22.0161 36.3111C22.3216 36.3111 22.5692 36.0612 22.5692 35.753C22.5692 35.4447 22.3216 35.1948 22.0161 35.1948C21.7106 35.1948 21.4629 35.4447 21.4629 35.753C21.4629 36.0612 21.7106 36.3111 22.0161 36.3111Z" fill="white"/>
<path d="M24.3076 32.9798C27.9352 32.9798 30.8759 32.4288 30.8759 31.7492C30.8759 31.0695 27.9352 30.5186 24.3076 30.5186C20.68 30.5186 17.7393 31.0695 17.7393 31.7492C17.7393 32.4288 20.68 32.9798 24.3076 32.9798Z" fill="black"/>
<path d="M30.0524 13.3298C29.4489 13.3265 28.8638 13.1197 28.3903 12.7422C27.9167 12.3647 27.5819 11.8382 27.439 11.2466H21.2496C21.1061 11.8379 20.7711 12.3639 20.2977 12.7413C19.8242 13.1186 19.2395 13.3258 18.6362 13.3298H14.8643V17.6457C14.8648 20.7035 15.761 23.693 17.4404 26.2383C19.1198 28.7837 21.5073 30.7713 24.3029 31.9515H24.3334C27.1407 30.7764 29.5394 28.7874 31.2258 26.2361C32.9122 23.6848 33.8105 20.686 33.807 17.6193V13.3298H30.0524Z" fill="#3577FF"/>
<path d="M24.3078 29.8417C22.0443 28.7268 20.1374 26.9918 18.8049 24.8351C17.4724 22.6784 16.7681 20.187 16.7725 17.6455V15.2546H18.6193C19.3817 15.2555 20.1325 15.0657 20.8044 14.7022C21.4763 14.3386 22.0485 13.8127 22.4697 13.1714H26.2025C26.6231 13.8132 27.1951 14.3396 27.8672 14.7032C28.5392 15.0668 29.2903 15.2563 30.0528 15.2546H31.8996V17.6191C31.9048 20.1714 31.1948 22.6731 29.8515 24.8358C28.5083 26.9984 26.5864 28.7337 24.3078 29.8417Z" fill="#1B59F8"/>
<path d="M15.4912 25.3547H9.85938L11.7018 22.3265L9.85938 19.2983H15.4912V25.3547Z" fill="url(#paint1_linear_535_3989)"/>
<path d="M13.3916 23.9746L15.491 25.3546V23.9746H13.3916Z" fill="#FFCE51"/>
<path d="M33.1797 25.3547H38.8115L36.9691 22.3265L38.8115 19.2983H33.1797V25.3547Z" fill="url(#paint2_linear_535_3989)"/>
<path d="M35.2835 23.9746L33.1797 25.3546V23.9746H35.2835Z" fill="#FFCE51"/>
<path d="M35.1834 17.918H13.3877V23.9743H35.1834V17.918Z" fill="#FF3E13"/>
<path d="M24.2939 5.96826V8.98763" stroke="white" stroke-width="1.2306" stroke-miterlimit="10"/>
<path d="M20.4834 7.21631L21.703 9.62917" stroke="white" stroke-width="1.2306" stroke-miterlimit="10"/>
<path d="M28.1049 7.21631L26.8896 9.62917" stroke="white" stroke-width="1.2306" stroke-miterlimit="10"/>
<path d="M24.2806 26.3874C27.314 26.3874 29.773 23.9061 29.773 20.8453C29.773 17.7845 27.314 15.3032 24.2806 15.3032C21.2471 15.3032 18.7881 17.7845 18.7881 20.8453C18.7881 23.9061 21.2471 26.3874 24.2806 26.3874Z" fill="url(#paint3_linear_535_3989)"/>
<path d="M21.7031 20.9773L23.3104 22.6034L26.7949 19.0874" stroke="white" stroke-width="1.66747" stroke-miterlimit="10"/>
<path d="M36.7523 13.9394L36.6739 13.7153C36.5246 13.2724 36.2823 12.8672 35.9636 12.5274C35.6448 12.1876 35.2572 11.9212 34.8271 11.7463C35.2571 11.57 35.6444 11.3026 35.963 10.9621C36.2817 10.6217 36.5241 10.2161 36.6739 9.77297L36.7523 9.54883L36.8264 9.77297C36.9762 10.2161 37.2187 10.6217 37.5373 10.9621C37.8559 11.3026 38.2433 11.57 38.6732 11.7463C38.2431 11.9212 37.8555 12.1876 37.5368 12.5274C37.2181 12.8672 36.9758 13.2724 36.8264 13.7153L36.7523 13.9394Z" fill="#FFCE51"/>
<path opacity="0.3" d="M32.3799 36.9098C32.7407 36.9098 33.0333 36.6147 33.0333 36.2506C33.0333 35.8865 32.7407 35.5913 32.3799 35.5913C32.0191 35.5913 31.7266 35.8865 31.7266 36.2506C31.7266 36.6147 32.0191 36.9098 32.3799 36.9098Z" fill="white"/>
<path d="M37.9337 30.6424L37.8814 30.4974C37.7855 30.2093 37.6287 29.9458 37.4219 29.7249C37.2151 29.5041 36.9632 29.3313 36.6836 29.2184C36.9624 29.1043 37.2137 28.931 37.4203 28.7104C37.627 28.4897 37.7842 28.2268 37.8814 27.9395L37.9337 27.79L37.9816 27.9395C38.0795 28.2264 38.237 28.4889 38.4436 28.7095C38.6502 28.93 38.901 29.1036 39.1794 29.2184C38.9003 29.332 38.6487 29.5051 38.442 29.7259C38.2353 29.9466 38.0782 30.2098 37.9816 30.4974L37.9337 30.6424Z" fill="white"/>
<path d="M11.1416 15.0444L11.0588 14.8071C10.9017 14.3408 10.6469 13.9142 10.3116 13.5562C9.97642 13.1982 9.56869 12.9173 9.11621 12.7327C9.56809 12.5482 9.97541 12.2679 10.3106 11.9108C10.6457 11.5536 10.9009 11.128 11.0588 10.6626L11.1416 10.4253L11.22 10.6626C11.3794 11.1278 11.6356 11.5533 11.9714 11.9103C12.3072 12.2673 12.7149 12.5477 13.167 12.7327C12.7143 12.9178 12.3062 13.1988 11.9704 13.5567C11.6345 13.9145 11.3786 14.3409 11.22 14.8071L11.1416 15.0444Z" fill="#FFCE51"/>
<path d="M31.3302 7.83669L31.2866 7.70924C31.2024 7.46055 31.0663 7.233 30.8875 7.04193C30.7086 6.85087 30.4912 6.70074 30.25 6.6017C30.4919 6.50414 30.7101 6.35509 30.8898 6.16472C31.0694 5.97435 31.2063 5.74713 31.291 5.49855L31.3346 5.37109L31.3781 5.49855C31.4624 5.7467 31.5985 5.97365 31.7774 6.16399C31.9563 6.35434 32.1737 6.50362 32.4148 6.6017C32.1735 6.70074 31.9561 6.85087 31.7773 7.04193C31.5985 7.233 31.4623 7.46055 31.3781 7.70924L31.3302 7.83669Z" fill="white"/>
<path d="M16.3732 7.83669L16.3296 7.70924C16.2454 7.46055 16.1093 7.233 15.9304 7.04193C15.7516 6.85087 15.5342 6.70074 15.293 6.6017C15.5341 6.50362 15.7514 6.35434 15.9303 6.16399C16.1092 5.97365 16.2454 5.7467 16.3296 5.49855L16.3732 5.37109L16.4167 5.49855C16.5002 5.74711 16.6361 5.97446 16.8151 6.1649C16.994 6.35535 17.2118 6.50437 17.4534 6.6017C17.2117 6.69999 16.9939 6.84986 16.815 7.04103C16.636 7.2322 16.5002 7.46014 16.4167 7.70924L16.3732 7.83669Z" fill="white"/>
<path d="M10.3148 30.2421L10.2451 30.0399C10.1122 29.6446 9.89626 29.2829 9.61211 28.9795C9.32797 28.6761 8.98227 28.4382 8.59863 28.2819C8.98167 28.1247 9.32683 27.8864 9.61085 27.5832C9.89487 27.2799 10.1111 26.9187 10.2451 26.5239L10.3148 26.3218L10.3801 26.5239C10.515 26.9189 10.7321 27.2801 11.0168 27.5833C11.3016 27.8865 11.6473 28.1247 12.0309 28.2819C11.6466 28.4379 11.3002 28.6757 11.0153 28.9791C10.7304 29.2825 10.5137 29.6443 10.3801 30.0399L10.3148 30.2421Z" fill="white"/>
<path opacity="0.3" d="M20.1026 38.8693C20.4634 38.8693 20.7559 38.5741 20.7559 38.21C20.7559 37.8459 20.4634 37.5508 20.1026 37.5508C19.7417 37.5508 19.4492 37.8459 19.4492 38.21C19.4492 38.5741 19.7417 38.8693 20.1026 38.8693Z" fill="white"/>
<path d="M16.0512 37.7641L15.9728 37.54C15.8234 37.0971 15.5811 36.6919 15.2624 36.3521C14.9437 36.0123 14.556 35.7459 14.126 35.571C14.5559 35.3947 14.9433 35.1273 15.2619 34.7868C15.5805 34.4464 15.8229 34.0409 15.9728 33.5977L16.0512 33.3735L16.1252 33.5977C16.2751 34.0409 16.5175 34.4464 16.8361 34.7868C17.1547 35.1273 17.5421 35.3947 17.972 35.571C17.5419 35.7459 17.1543 36.0123 16.8356 36.3521C16.5169 36.6919 16.2746 37.0971 16.1252 37.54L16.0512 37.7641Z" fill="#FFCE51"/>
<path d="M34.978 35.9738L34.9209 35.8106C34.8121 35.4881 34.6357 35.1931 34.4036 34.9457C34.1716 34.6982 33.8893 34.5043 33.5762 34.3769C33.8892 34.2486 34.1713 34.0538 34.4033 33.8059C34.6353 33.558 34.8118 33.2628 34.9209 32.9401L34.978 32.7769L35.0319 32.9401C35.141 33.2628 35.3175 33.558 35.5495 33.8059C35.7815 34.0538 36.0636 34.2486 36.3766 34.3769C36.0635 34.5043 35.7812 34.6982 35.5492 34.9457C35.3171 35.1931 35.1407 35.4881 35.0319 35.8106L34.978 35.9738Z" fill="#FFCE51"/>
<path d="M25.4957 37.7532L25.4434 37.5994C25.3408 37.3021 25.1761 37.0305 24.9604 36.8031C24.7448 36.5756 24.4832 36.3975 24.1934 36.2809C24.4832 36.1643 24.7448 35.9863 24.9604 35.7588C25.1761 35.5313 25.3408 35.2597 25.4434 34.9624L25.4957 34.8086L25.548 34.9624C25.651 35.2601 25.8164 35.532 26.0329 35.7595C26.2493 35.987 26.5118 36.1648 26.8024 36.2809C26.5118 36.397 26.2493 36.5748 26.0329 36.8023C25.8164 37.0298 25.651 37.3017 25.548 37.5994L25.4957 37.7532Z" fill="white"/>
<path d="M30.8757 11.862L30.8409 11.7522C30.77 11.5426 30.6557 11.3506 30.5055 11.1892C30.3552 11.0277 30.1726 10.9005 29.9697 10.816C30.1729 10.732 30.3558 10.605 30.5061 10.4435C30.6564 10.282 30.7706 10.0898 30.8409 9.87989L30.8757 9.77441L30.9105 9.87989C30.9809 10.0898 31.095 10.282 31.2453 10.4435C31.3956 10.605 31.5785 10.732 31.7817 10.816C31.5788 10.9005 31.3962 11.0277 31.2459 11.1892C31.0957 11.3506 30.9814 11.5426 30.9105 11.7522L30.8757 11.862Z" fill="white"/>
<path d="M40.4792 22.5945L40.4444 22.489C40.3746 22.2788 40.2606 22.0864 40.1102 21.9248C39.9599 21.7632 39.7767 21.6363 39.5732 21.5528C39.7763 21.4686 39.959 21.3415 40.1093 21.18C40.2596 21.0185 40.3738 20.8265 40.4444 20.6167L40.4792 20.5068L40.5184 20.6167C40.589 20.8265 40.7032 21.0185 40.8535 21.18C41.0037 21.3415 41.1865 21.4686 41.3895 21.5528C41.1861 21.6363 41.0029 21.7632 40.8525 21.9248C40.7022 22.0864 40.5882 22.2788 40.5184 22.489L40.4792 22.5945Z" fill="white"/>
<path d="M7.9343 22.8801L7.89945 22.7746C7.82914 22.5647 7.71498 22.3726 7.56469 22.2111C7.4144 22.0495 7.23149 21.9225 7.02832 21.8385C7.23149 21.7545 7.4144 21.6274 7.56469 21.4659C7.71498 21.3044 7.82914 21.1122 7.89945 20.9024L7.9343 20.7969L7.9735 20.9024C8.04329 21.1125 8.15727 21.305 8.30762 21.4665C8.45797 21.6281 8.64116 21.755 8.84463 21.8385C8.64116 21.922 8.45797 22.0489 8.30762 22.2104C8.15727 22.372 8.04329 22.5645 7.9735 22.7746L7.9343 22.8801Z" fill="white"/>
<path opacity="0.3" d="M37.1518 17.2062C37.4573 17.2062 37.705 16.9563 37.705 16.648C37.705 16.3397 37.4573 16.0898 37.1518 16.0898C36.8463 16.0898 36.5986 16.3397 36.5986 16.648C36.5986 16.9563 36.8463 17.2062 37.1518 17.2062Z" fill="white"/>
<path opacity="0.3" d="M14.9946 29.7804C15.3001 29.7804 15.5477 29.5305 15.5477 29.2222C15.5477 28.914 15.3001 28.6641 14.9946 28.6641C14.6891 28.6641 14.4414 28.914 14.4414 29.2222C14.4414 29.5305 14.6891 29.7804 14.9946 29.7804Z" fill="white"/>
<path d="M24.2939 5.91992V8.93929" stroke="white" stroke-width="1.2306" stroke-miterlimit="10"/>
<path d="M20.4834 7.16797L21.703 9.58083" stroke="white" stroke-width="1.2306" stroke-miterlimit="10"/>
<path d="M28.1049 7.16797L26.8896 9.58083" stroke="white" stroke-width="1.2306" stroke-miterlimit="10"/>
<defs>
<linearGradient id="paint0_linear_535_3989" x1="24.3559" y1="47.4615" x2="24.3559" y2="1.71826" gradientUnits="userSpaceOnUse">
<stop stop-color="#FF7201"/>
<stop offset="1" stop-color="#FFA901"/>
</linearGradient>
<linearGradient id="paint1_linear_535_3989" x1="9.85938" y1="22.3265" x2="15.4912" y2="22.3265" gradientUnits="userSpaceOnUse">
<stop stop-color="#FFCE51"/>
<stop offset="1" stop-color="#FF3E13"/>
</linearGradient>
<linearGradient id="paint2_linear_535_3989" x1="-111.885" y1="372.866" x2="-184.705" y2="372.866" gradientUnits="userSpaceOnUse">
<stop stop-color="#FFCE51"/>
<stop offset="1" stop-color="#FF3E13"/>
</linearGradient>
<linearGradient id="paint3_linear_535_3989" x1="18.7924" y1="20.8453" x2="29.773" y2="20.8453" gradientUnits="userSpaceOnUse">
<stop stop-color="#7FDD53"/>
<stop offset="1" stop-color="#2FEA9B"/>
</linearGradient>
</defs>
</svg>
