<svg width="24" height="27" viewBox="0 0 24 27" fill="none" xmlns="http://www.w3.org/2000/svg">
<path d="M16.7004 3.60614C16.9999 2.80014 17.1868 2.10544 17.1868 1.44588C17.1868 1.33575 17.1497 1.26312 17.1497 1.153C17.1497 1.04288 17.1125 0.896439 17.0742 0.75C15.2017 1.153 13.8923 1.95783 13.068 3.12933C12.2438 4.26453 11.8329 5.61879 11.7945 7.1933C12.469 7.11949 13.0297 7.01054 13.4418 6.90042C14.0037 6.71767 14.6027 6.35098 15.2017 5.80155C15.8762 5.14199 16.3997 4.33716 16.6992 3.60497L16.7004 3.60614ZM14.5656 7.2671C13.4418 7.63379 12.6559 7.78022 12.2438 7.78022C11.9072 7.78022 11.1955 7.63379 10.0346 7.34091C8.91091 7.01171 7.97525 6.82779 7.15222 6.82779C5.31805 6.82779 3.78219 7.5963 2.54703 9.13449C1.34901 10.6727 0.75 12.6127 0.75 15.0283C0.75 17.6279 1.5359 20.2638 3.1089 22.9724C4.71904 25.6821 6.36631 27 7.97645 27C8.50118 27 9.17447 26.8172 10.1101 26.4869C10.9715 26.1577 11.7203 25.9738 12.3935 25.9738C13.0668 25.9738 13.8911 26.1202 14.8267 26.4494C15.8007 26.7786 16.5495 26.925 17.1102 26.925C18.4951 26.925 19.8812 25.9 21.2661 23.8861C21.7153 23.2266 22.1275 22.5319 22.4641 21.8723C22.7636 21.2502 23.026 20.5907 23.25 19.9686C22.2389 19.6757 21.3775 18.9798 20.6671 17.9548C19.9554 16.8934 19.5817 15.7219 19.5817 14.4403C19.5817 13.2324 19.9183 12.1699 20.5928 11.1823C21.0049 10.6692 21.6411 10.0108 22.4653 9.3149C22.2029 8.98571 21.9034 8.65534 21.6411 8.39995C21.3416 8.14339 21.0792 7.92432 20.8168 7.74039C19.7686 7.08083 18.6077 6.71532 17.3354 6.71532C16.5866 6.71532 15.651 6.93557 14.5644 7.26476L14.5656 7.2671Z" fill="black"/>
</svg>
