<svg width="284" height="57" viewBox="0 0 284 57" fill="none" xmlns="http://www.w3.org/2000/svg">
<rect x="0.5" y="0.5" width="283" height="56" rx="3.5" fill="white" stroke="white"/>
<path d="M18.5 33.5L25.5 29L18.5 24.5V33.5ZM21 39C19.6167 39 18.3167 38.7373 17.1 38.212C15.8833 37.6873 14.825 36.975 13.925 36.075C13.025 35.175 12.3127 34.1167 11.788 32.9C11.2627 31.6833 11 30.3833 11 29C11 27.6167 11.2627 26.3167 11.788 25.1C12.3127 23.8833 13.025 22.825 13.925 21.925C14.825 21.025 15.8833 20.3123 17.1 19.787C18.3167 19.2623 19.6167 19 21 19C22.3833 19 23.6833 19.2623 24.9 19.787C26.1167 20.3123 27.175 21.025 28.075 21.925C28.975 22.825 29.6873 23.8833 30.212 25.1C30.7373 26.3167 31 27.6167 31 29C31 30.3833 30.7373 31.6833 30.212 32.9C29.6873 34.1167 28.975 35.175 28.075 36.075C27.175 36.975 26.1167 37.6873 24.9 38.212C23.6833 38.7373 22.3833 39 21 39Z" fill="#2BA9E0"/>
<path d="M31.5069 27.9464L38.5006 28.3129L40.4929 24.9033L40.9535 24.1155L41.2788 24.9681L43.2751 30.1805L45.5534 23.4577L45.9965 22.1475L46.3881 23.474L48.4656 30.521L49.704 25.629L50.0159 24.3977L50.5292 25.559L52.4562 29.9193L53.6814 26.3863L54.0474 25.3323L54.4964 26.3544L56.3637 30.6057L57.6749 28.9167L57.8071 28.7476L58.0215 28.7471L62.1917 28.744L58.5497 27.0067L57.8187 24.6626L56.645 28.3512L53.7988 21.9162L52.2495 26.4793L50.0703 19.2984L48.4127 26.2584L46.3129 17.0613L43.3181 26.3276L41.1218 21.9695L38.4237 26.1904L31.5069 27.9464ZM31.3687 28.8168L37.5144 29.9582L38.9087 33.5247L40.5797 28.8898L42.6374 37.7443L45.8496 28.2031L48.4381 37.7561L50.6246 30.5329L52.3484 35.5158L54.2368 30.2691L55.6819 34.8738L58.1421 31.5801L62.3302 29.6193L58.2356 29.623L56.6046 31.7237L56.1536 32.3054L55.8575 31.6317L54.1433 27.7287L52.9192 31.2565L52.5544 32.3074L52.1052 31.2895L50.2425 27.0745L48.9235 32.2871L48.53 33.8377L48.0775 32.3038L45.9392 25.0493L43.7154 31.6106L43.3265 32.7615L42.8913 31.6268L40.7881 26.1333L39.1219 28.9853L38.9863 29.2165L38.7204 29.2013L31.3687 28.8167L31.3687 28.8168Z" fill="#2BA9E0"/>
<path d="M61.5069 27.9464L68.5006 28.3129L70.4929 24.9033L70.9535 24.1155L71.2788 24.9681L73.2751 30.1805L75.5534 23.4577L75.9965 22.1475L76.3881 23.474L78.4656 30.521L79.704 25.629L80.0159 24.3977L80.5292 25.559L82.4562 29.9193L83.6814 26.3863L84.0474 25.3323L84.4964 26.3544L86.3637 30.6057L87.6749 28.9167L87.8071 28.7476L88.0215 28.7471L92.1917 28.744L88.5497 27.0067L87.8187 24.6626L86.645 28.3512L83.7988 21.9162L82.2495 26.4793L80.0703 19.2984L78.4127 26.2584L76.3129 17.0613L73.3181 26.3276L71.1218 21.9695L68.4237 26.1904L61.5069 27.9464ZM61.3687 28.8168L67.5144 29.9582L68.9087 33.5247L70.5797 28.8898L72.6374 37.7443L75.8496 28.2031L78.4381 37.7561L80.6246 30.5329L82.3484 35.5158L84.2368 30.2691L85.6819 34.8738L88.1421 31.5801L92.3302 29.6193L88.2356 29.623L86.6046 31.7237L86.1536 32.3054L85.8575 31.6317L84.1433 27.7287L82.9192 31.2565L82.5544 32.3074L82.1052 31.2895L80.2425 27.0745L78.9235 32.2871L78.53 33.8377L78.0775 32.3038L75.9392 25.0493L73.7154 31.6106L73.3265 32.7615L72.8913 31.6268L70.7881 26.1333L69.1219 28.9853L68.9863 29.2165L68.7204 29.2013L61.3687 28.8167L61.3687 28.8168Z" fill="#2BA9E0"/>
<path d="M91.5069 27.9464L98.5006 28.3129L100.493 24.9033L100.954 24.1155L101.279 24.9681L103.275 30.1805L105.553 23.4577L105.997 22.1475L106.388 23.474L108.466 30.521L109.704 25.629L110.016 24.3977L110.529 25.559L112.456 29.9193L113.681 26.3863L114.047 25.3323L114.496 26.3544L116.364 30.6057L117.675 28.9167L117.807 28.7476L118.022 28.7471L122.192 28.744L118.55 27.0067L117.819 24.6626L116.645 28.3512L113.799 21.9162L112.25 26.4793L110.07 19.2984L108.413 26.2584L106.313 17.0613L103.318 26.3276L101.122 21.9695L98.4237 26.1904L91.5069 27.9464ZM91.3687 28.8168L97.5144 29.9582L98.9087 33.5247L100.58 28.8898L102.637 37.7443L105.85 28.2031L108.438 37.7561L110.625 30.5329L112.348 35.5158L114.237 30.2691L115.682 34.8738L118.142 31.5801L122.33 29.6193L118.236 29.623L116.605 31.7237L116.154 32.3054L115.858 31.6317L114.143 27.7287L112.919 31.2565L112.554 32.3074L112.105 31.2895L110.242 27.0745L108.923 32.2871L108.53 33.8377L108.078 32.3038L105.939 25.0493L103.715 31.6106L103.327 32.7615L102.891 31.6268L100.788 26.1333L99.1219 28.9853L98.9863 29.2165L98.7204 29.2013L91.3687 28.8167L91.3687 28.8168Z" fill="#2BA9E0"/>
<path d="M121.507 27.9464L128.501 28.3129L130.493 24.9033L130.954 24.1155L131.279 24.9681L133.275 30.1805L135.553 23.4577L135.997 22.1475L136.388 23.474L138.466 30.521L139.704 25.629L140.016 24.3977L140.529 25.559L142.456 29.9193L143.681 26.3863L144.047 25.3323L144.496 26.3544L146.364 30.6057L147.675 28.9167L147.807 28.7476L148.022 28.7471L152.192 28.744L148.55 27.0067L147.819 24.6626L146.645 28.3512L143.799 21.9162L142.25 26.4793L140.07 19.2984L138.413 26.2584L136.313 17.0613L133.318 26.3276L131.122 21.9695L128.424 26.1904L121.507 27.9464ZM121.369 28.8168L127.514 29.9582L128.909 33.5247L130.58 28.8898L132.637 37.7443L135.85 28.2031L138.438 37.7561L140.625 30.5329L142.348 35.5158L144.237 30.2691L145.682 34.8738L148.142 31.5801L152.33 29.6193L148.236 29.623L146.605 31.7237L146.154 32.3054L145.858 31.6317L144.143 27.7287L142.919 31.2565L142.554 32.3074L142.105 31.2895L140.242 27.0745L138.923 32.2871L138.53 33.8377L138.078 32.3038L135.939 25.0493L133.715 31.6106L133.327 32.7615L132.891 31.6268L130.788 26.1333L129.122 28.9853L128.986 29.2165L128.72 29.2013L121.369 28.8167L121.369 28.8168Z" fill="#2BA9E0"/>
<path d="M151.507 27.9464L158.501 28.3129L160.493 24.9033L160.954 24.1155L161.279 24.9681L163.275 30.1805L165.553 23.4577L165.997 22.1475L166.388 23.474L168.466 30.521L169.704 25.629L170.016 24.3977L170.529 25.559L172.456 29.9193L173.681 26.3863L174.047 25.3323L174.496 26.3544L176.364 30.6057L177.675 28.9167L177.807 28.7476L178.022 28.7471L182.192 28.744L178.55 27.0067L177.819 24.6626L176.645 28.3512L173.799 21.9162L172.25 26.4793L170.07 19.2984L168.413 26.2584L166.313 17.0613L163.318 26.3276L161.122 21.9695L158.424 26.1904L151.507 27.9464ZM151.369 28.8168L157.514 29.9582L158.909 33.5247L160.58 28.8898L162.637 37.7443L165.85 28.2031L168.438 37.7561L170.625 30.5329L172.348 35.5158L174.237 30.2691L175.682 34.8738L178.142 31.5801L182.33 29.6193L178.236 29.623L176.605 31.7237L176.154 32.3054L175.858 31.6317L174.143 27.7287L172.919 31.2565L172.554 32.3074L172.105 31.2895L170.242 27.0745L168.923 32.2871L168.53 33.8377L168.078 32.3038L165.939 25.0493L163.715 31.6106L163.327 32.7615L162.891 31.6268L160.788 26.1333L159.122 28.9853L158.986 29.2165L158.72 29.2013L151.369 28.8167L151.369 28.8168Z" fill="#2BA9E0"/>
<path d="M181.507 27.9464L188.501 28.3129L190.493 24.9033L190.954 24.1155L191.279 24.9681L193.275 30.1805L195.553 23.4577L195.997 22.1475L196.388 23.474L198.466 30.521L199.704 25.629L200.016 24.3977L200.529 25.559L202.456 29.9193L203.681 26.3863L204.047 25.3323L204.496 26.3544L206.364 30.6057L207.675 28.9167L207.807 28.7476L208.022 28.7471L212.192 28.744L208.55 27.0067L207.819 24.6626L206.645 28.3512L203.799 21.9162L202.25 26.4793L200.07 19.2984L198.413 26.2584L196.313 17.0613L193.318 26.3276L191.122 21.9695L188.424 26.1904L181.507 27.9464ZM181.369 28.8168L187.514 29.9582L188.909 33.5247L190.58 28.8898L192.637 37.7443L195.85 28.2031L198.438 37.7561L200.625 30.5329L202.348 35.5158L204.237 30.2691L205.682 34.8738L208.142 31.5801L212.33 29.6193L208.236 29.623L206.605 31.7237L206.154 32.3054L205.858 31.6317L204.143 27.7287L202.919 31.2565L202.554 32.3074L202.105 31.2895L200.242 27.0745L198.923 32.2871L198.53 33.8377L198.078 32.3038L195.939 25.0493L193.715 31.6106L193.327 32.7615L192.891 31.6268L190.788 26.1333L189.122 28.9853L188.986 29.2165L188.72 29.2013L181.369 28.8167L181.369 28.8168Z" fill="#2BA9E0"/>
<path d="M211.507 27.9464L218.501 28.3129L220.493 24.9033L220.954 24.1155L221.279 24.9681L223.275 30.1805L225.553 23.4577L225.997 22.1475L226.388 23.474L228.466 30.521L229.704 25.629L230.016 24.3977L230.529 25.559L232.456 29.9193L233.681 26.3863L234.047 25.3323L234.496 26.3544L236.364 30.6057L237.675 28.9167L237.807 28.7476L238.022 28.7471L242.192 28.744L238.55 27.0067L237.819 24.6626L236.645 28.3512L233.799 21.9162L232.25 26.4793L230.07 19.2984L228.413 26.2584L226.313 17.0613L223.318 26.3276L221.122 21.9695L218.424 26.1904L211.507 27.9464ZM211.369 28.8168L217.514 29.9582L218.909 33.5247L220.58 28.8898L222.637 37.7443L225.85 28.2031L228.438 37.7561L230.625 30.5329L232.348 35.5158L234.237 30.2691L235.682 34.8738L238.142 31.5801L242.33 29.6193L238.236 29.623L236.605 31.7237L236.154 32.3054L235.858 31.6317L234.143 27.7287L232.919 31.2565L232.554 32.3074L232.105 31.2895L230.242 27.0745L228.923 32.2871L228.53 33.8377L228.078 32.3038L225.939 25.0493L223.715 31.6106L223.327 32.7615L222.891 31.6268L220.788 26.1333L219.122 28.9853L218.986 29.2165L218.72 29.2013L211.369 28.8167L211.369 28.8168Z" fill="#2BA9E0"/>
<path d="M241.507 27.9464L248.501 28.3129L250.493 24.9033L250.954 24.1155L251.279 24.9681L253.275 30.1805L255.553 23.4577L255.997 22.1475L256.388 23.474L258.466 30.521L259.704 25.629L260.016 24.3977L260.529 25.559L262.456 29.9193L263.681 26.3863L264.047 25.3323L264.496 26.3544L266.364 30.6057L267.675 28.9167L267.807 28.7476L268.022 28.7471L272.192 28.744L268.55 27.0067L267.819 24.6626L266.645 28.3512L263.799 21.9162L262.25 26.4793L260.07 19.2984L258.413 26.2584L256.313 17.0613L253.318 26.3276L251.122 21.9695L248.424 26.1904L241.507 27.9464ZM241.369 28.8168L247.514 29.9582L248.909 33.5247L250.58 28.8898L252.637 37.7443L255.85 28.2031L258.438 37.7561L260.625 30.5329L262.348 35.5158L264.237 30.2691L265.682 34.8738L268.142 31.5801L272.33 29.6193L268.236 29.623L266.605 31.7237L266.154 32.3054L265.858 31.6317L264.143 27.7287L262.919 31.2565L262.554 32.3074L262.105 31.2895L260.242 27.0745L258.923 32.2871L258.53 33.8377L258.078 32.3038L255.939 25.0493L253.715 31.6106L253.327 32.7615L252.891 31.6268L250.788 26.1333L249.122 28.9853L248.986 29.2165L248.72 29.2013L241.369 28.8167L241.369 28.8168Z" fill="#2BA9E0"/>
</svg>
