<svg width="31" height="31" viewBox="0 0 31 31" fill="none" xmlns="http://www.w3.org/2000/svg">
<path d="M0.951172 15.4987C0.951172 7.43356 7.54791 0.895508 15.613 0.895508C23.6781 0.895508 30.2749 7.43356 30.2749 15.4987C30.2749 23.5638 23.6781 30.1018 15.613 30.1018C7.54791 30.1018 0.951172 23.5638 0.951172 15.4987Z" fill="url(#paint0_linear_531_2345)"/>
<path d="M2.33069 15.4987C2.33069 8.20264 8.30259 2.27503 15.613 2.27503C22.9234 2.27503 28.8953 8.20264 28.8953 15.4987C28.8953 22.7947 22.9234 28.7223 15.613 28.7223C8.30259 28.7223 2.33069 22.7947 2.33069 15.4987Z" stroke="white" stroke-opacity="0.2" stroke-width="2.75904"/>
<path d="M4.37598 15.6779C4.37598 9.39773 9.51277 4.30664 15.7929 4.30664C22.0731 4.30664 27.2099 9.39773 27.2099 15.6779C27.2099 21.9581 22.0731 27.0492 15.7929 27.0492C9.51277 27.0492 4.37598 21.9581 4.37598 15.6779Z" fill="url(#paint1_linear_531_2345)"/>
<path d="M19.4466 12.8112C17.395 13.9226 15.7431 15.6427 14.4906 17.6112C9.77494 25.0222 11.0201 29.7388 6.31052 26.8583C2.0418 23.3826 -0.858131 16.7679 2.20806 9.57667C6.21683 0.174796 20.1735 -3.00624 27.5471 7.04772C29.2227 9.40839 24.0454 10.3201 19.4466 12.8112Z" fill="url(#paint2_linear_531_2345)" fill-opacity="0.5"/>
<path d="M18.0771 12.7622C18.0771 12.7622 15.4885 13.1803 13.9775 14.5245C12.4665 15.8686 12.0786 19.0895 12.0786 19.0895C12.0786 19.0895 11.6907 15.8686 10.1797 14.5245C8.66867 13.1803 6.6602 12.7367 6.6602 12.7367C6.6602 12.7367 8.66867 12.4902 10.1797 11.1461C11.6907 9.80193 12.0786 6.58105 12.0786 6.58105C12.0786 6.58105 12.4665 9.80193 13.9775 11.1461C15.4885 12.4902 18.0771 12.7622 18.0771 12.7622Z" fill="white"/>
<defs>
<linearGradient id="paint0_linear_531_2345" x1="25.9046" y1="34.584" x2="-3.02834" y2="-0.134384" gradientUnits="userSpaceOnUse">
<stop offset="0.0625" stop-color="#97766F"/>
<stop offset="1" stop-color="#DACFB3"/>
</linearGradient>
<linearGradient id="paint1_linear_531_2345" x1="23.8069" y1="30.5394" x2="1.27718" y2="3.50468" gradientUnits="userSpaceOnUse">
<stop offset="0.0625" stop-color="#97766F"/>
<stop offset="1" stop-color="#DACFB3"/>
</linearGradient>
<linearGradient id="paint2_linear_531_2345" x1="-4.37968" y1="-0.7345" x2="17.7488" y2="38.8925" gradientUnits="userSpaceOnUse">
<stop stop-color="white"/>
<stop offset="1" stop-color="white" stop-opacity="0"/>
</linearGradient>
</defs>
</svg>
