<svg width="17" height="18" viewBox="0 0 17 18" fill="none" xmlns="http://www.w3.org/2000/svg">
<path d="M15.9375 1.82268L11.6838 1.8227V0.763916C11.6838 0.4704 11.446 0.232666 11.1525 0.232666C10.859 0.232666 10.6213 0.4704 10.6213 0.763916V1.82243H6.37128V0.763916C6.37128 0.4704 6.13355 0.232666 5.84003 0.232666C5.54652 0.232666 5.30878 0.4704 5.30878 0.763916V1.82243H1.0625C0.475734 1.82243 0 2.29817 0 2.88493V16.1662C0 16.7529 0.475734 17.2287 1.0625 17.2287H15.9375C16.5243 17.2287 17 16.7529 17 16.1662V2.88493C17 2.29841 16.5243 1.82268 15.9375 1.82268ZM15.9375 16.1662H1.0625V2.88493H5.30878V3.42017C5.30878 3.71367 5.54652 3.95142 5.84003 3.95142C6.13355 3.95142 6.37128 3.71367 6.37128 3.42017V2.8852H10.6213V3.42043C10.6213 3.71395 10.859 3.95168 11.1525 3.95168C11.446 3.95168 11.6838 3.71395 11.6838 3.42043V2.8852H15.9375V16.1662ZM12.2188 8.72893H13.2812C13.5745 8.72893 13.8125 8.49093 13.8125 8.19768V7.13518C13.8125 6.84193 13.5745 6.60393 13.2812 6.60393H12.2188C11.9255 6.60393 11.6875 6.84193 11.6875 7.13518V8.19768C11.6875 8.49093 11.9255 8.72893 12.2188 8.72893ZM12.2188 12.9787H13.2812C13.5745 12.9787 13.8125 12.7409 13.8125 12.4474V11.3849C13.8125 11.0917 13.5745 10.8537 13.2812 10.8537H12.2188C11.9255 10.8537 11.6875 11.0917 11.6875 11.3849V12.4474C11.6875 12.7412 11.9255 12.9787 12.2188 12.9787ZM9.03125 10.8537H7.96875C7.6755 10.8537 7.4375 11.0917 7.4375 11.3849V12.4474C7.4375 12.7409 7.6755 12.9787 7.96875 12.9787H9.03125C9.3245 12.9787 9.5625 12.7409 9.5625 12.4474V11.3849C9.5625 11.0919 9.3245 10.8537 9.03125 10.8537ZM9.03125 6.60393H7.96875C7.6755 6.60393 7.4375 6.84193 7.4375 7.13518V8.19768C7.4375 8.49093 7.6755 8.72893 7.96875 8.72893H9.03125C9.3245 8.72893 9.5625 8.49093 9.5625 8.19768V7.13518C9.5625 6.84166 9.3245 6.60393 9.03125 6.60393ZM4.78125 6.60393H3.71875C3.4255 6.60393 3.1875 6.84193 3.1875 7.13518V8.19768C3.1875 8.49093 3.4255 8.72893 3.71875 8.72893H4.78125C5.0745 8.72893 5.3125 8.49093 5.3125 8.19768V7.13518C5.3125 6.84166 5.0745 6.60393 4.78125 6.60393ZM4.78125 10.8537H3.71875C3.4255 10.8537 3.1875 11.0917 3.1875 11.3849V12.4474C3.1875 12.7409 3.4255 12.9787 3.71875 12.9787H4.78125C5.0745 12.9787 5.3125 12.7409 5.3125 12.4474V11.3849C5.3125 11.0919 5.0745 10.8537 4.78125 10.8537Z" fill="white"/>
</svg>
