<svg width="84" height="88" viewBox="0 0 84 88" fill="none" xmlns="http://www.w3.org/2000/svg">
<path d="M31.2837 56.9881C31.1762 56.9171 31.093 56.815 31.0452 56.6954C30.9974 56.5759 30.9872 56.4446 31.0161 56.3191L37.4451 27.8598C37.524 27.5853 37.6984 27.348 37.9369 27.1908L76.2037 5.11377C76.3214 5.05438 76.4515 5.02344 76.5834 5.02344C76.7152 5.02344 76.8453 5.05438 76.963 5.11377C77.0704 5.18498 77.1537 5.28696 77.202 5.40635C77.2504 5.52574 77.2615 5.65695 77.234 5.78278L70.7915 34.2153C70.7151 34.491 70.5401 34.7291 70.2998 34.8843L32.043 56.9613C31.9273 57.0249 31.7984 57.0605 31.6665 57.0651C31.5346 57.0698 31.4035 57.0434 31.2837 56.9881Z" fill="#EE811D"/>
<path opacity="0.8" d="M31.2837 56.9881C31.1762 56.9171 31.093 56.815 31.0452 56.6954C30.9974 56.5759 30.9872 56.4446 31.0161 56.3191L37.4451 27.8598C37.524 27.5853 37.6984 27.348 37.9369 27.1908L76.2037 5.11377C76.3214 5.05438 76.4515 5.02344 76.5834 5.02344C76.7152 5.02344 76.8453 5.05438 76.963 5.11377C77.0704 5.18498 77.1537 5.28696 77.202 5.40635C77.2504 5.52574 77.2615 5.65695 77.234 5.78278L70.7915 34.2153C70.7151 34.491 70.5401 34.7291 70.2998 34.8843L32.043 56.9613C31.9273 57.0249 31.7984 57.0605 31.6665 57.0651C31.5346 57.0698 31.4035 57.0434 31.2837 56.9881Z" fill="white"/>
<path d="M38.181 28.2913L31.7519 56.7572C31.695 57.0014 31.8288 57.0917 32.0429 56.9747L70.3097 34.8843C70.5501 34.729 70.7251 34.491 70.8014 34.2153L77.2339 5.74928C77.2874 5.50509 77.157 5.41478 76.9395 5.5352L38.6794 27.6223C38.4378 27.7776 38.2607 28.0153 38.181 28.2913Z" fill="#EE811D"/>
<path opacity="0.6" d="M38.181 28.2913L31.7519 56.7572C31.695 57.0014 31.8288 57.0917 32.0429 56.9747L70.3097 34.8843C70.5501 34.729 70.7251 34.491 70.8014 34.2153L77.2339 5.74928C77.2874 5.50509 77.157 5.41478 76.9395 5.5352L38.6794 27.6223C38.4378 27.7776 38.2607 28.0153 38.181 28.2913Z" fill="white"/>
<path opacity="0.05" d="M38.181 28.2913L31.7519 56.7572C31.695 57.0014 31.8288 57.0917 32.0429 56.9747L70.3097 34.8843C70.5501 34.729 70.7251 34.491 70.8014 34.2153L77.2339 5.74928C77.2874 5.50509 77.157 5.41478 76.9395 5.5352L38.6794 27.6223C38.4378 27.7776 38.2607 28.0153 38.181 28.2913Z" fill="white"/>
<path d="M77.7022 5.51509C77.5828 5.45746 77.4514 5.42894 77.3189 5.43184C77.1863 5.43475 77.0563 5.46901 76.9395 5.53182L38.6794 27.6222C38.5676 27.6923 38.4773 27.7918 38.4183 27.9098C38.3593 28.0278 38.3339 28.1598 38.3449 28.2912L43.3624 63.5509C43.3867 63.6853 43.4373 63.8137 43.5114 63.9285C43.5855 64.0433 43.6815 64.1423 43.7939 64.2199C43.9122 64.2793 44.0428 64.3103 44.1752 64.3103C44.3077 64.3103 44.4382 64.2793 44.5566 64.2199L82.8334 42.1128C82.9447 42.0421 83.0346 41.9425 83.0935 41.8247C83.1524 41.7068 83.1782 41.5751 83.1679 41.4438L78.1504 6.1774C78.1233 6.04283 78.0697 5.91499 77.9927 5.8013C77.9158 5.68761 77.817 5.59032 77.7022 5.51509Z" fill="#EE811D"/>
<path opacity="0.8" d="M77.7022 5.51509C77.5828 5.45746 77.4514 5.42894 77.3189 5.43184C77.1863 5.43475 77.0563 5.46901 76.9395 5.53182L38.6794 27.6222C38.5676 27.6923 38.4773 27.7918 38.4183 27.9098C38.3593 28.0278 38.3339 28.1598 38.3449 28.2912L43.3624 63.5509C43.3867 63.6853 43.4373 63.8137 43.5114 63.9285C43.5855 64.0433 43.6815 64.1423 43.7939 64.2199C43.9122 64.2793 44.0428 64.3103 44.1752 64.3103C44.3077 64.3103 44.4382 64.2793 44.5566 64.2199L82.8334 42.1128C82.9447 42.0421 83.0346 41.9425 83.0935 41.8247C83.1524 41.7068 83.1782 41.5751 83.1679 41.4438L78.1504 6.1774C78.1233 6.04283 78.0697 5.91499 77.9927 5.8013C77.9158 5.68761 77.817 5.59032 77.7022 5.51509Z" fill="white"/>
<path d="M39.0842 28.723L44.1017 63.9827C44.1031 64.0352 44.1188 64.0864 44.1472 64.1307C44.1757 64.1749 44.2157 64.2105 44.2629 64.2337C44.3101 64.2568 44.3628 64.2665 44.4152 64.2617C44.4676 64.257 44.5176 64.238 44.56 64.2068L82.8335 42.113C82.9447 42.0424 83.0346 41.9428 83.0936 41.8249C83.1525 41.7071 83.1782 41.5754 83.168 41.444L78.1505 6.17767C78.1497 6.12486 78.1343 6.07331 78.1059 6.0288C78.0774 5.98428 78.0372 5.94856 77.9896 5.92564C77.942 5.90272 77.889 5.8935 77.8365 5.89902C77.784 5.90454 77.734 5.92458 77.6922 5.9569L39.4287 28.0339C39.3121 28.1046 39.2179 28.2068 39.157 28.3287C39.096 28.4506 39.0708 28.5873 39.0842 28.723Z" fill="#EE811D"/>
<path opacity="0.95" d="M39.0842 28.723L44.1017 63.9827C44.1031 64.0352 44.1188 64.0864 44.1472 64.1307C44.1757 64.1749 44.2157 64.2105 44.2629 64.2337C44.3101 64.2568 44.3628 64.2665 44.4152 64.2617C44.4676 64.257 44.5176 64.238 44.56 64.2068L82.8335 42.113C82.9447 42.0424 83.0346 41.9428 83.0936 41.8249C83.1525 41.7071 83.1782 41.5754 83.168 41.444L78.1505 6.17767C78.1497 6.12486 78.1343 6.07331 78.1059 6.0288C78.0774 5.98428 78.0372 5.94856 77.9896 5.92564C77.942 5.90272 77.889 5.8935 77.8365 5.89902C77.784 5.90454 77.734 5.92458 77.6922 5.9569L39.4287 28.0339C39.3121 28.1046 39.2179 28.2068 39.157 28.3287C39.096 28.4506 39.0708 28.5873 39.0842 28.723Z" fill="white"/>
<path d="M41.8705 53.0043L37.3782 55.5967C37.2866 55.5773 37.1921 55.5773 37.1005 55.5967L31.7987 56.6169L41.5795 50.9404L41.8705 53.0043Z" fill="#EE811D"/>
<path opacity="0.5" d="M41.8705 53.0043L37.3782 55.5967C37.2866 55.5773 37.1921 55.5773 37.1005 55.5967L31.7987 56.6169L41.5795 50.9404L41.8705 53.0043Z" fill="white"/>
<path opacity="0.2" d="M41.8705 53.0043L37.3782 55.5967C37.2866 55.5773 37.1921 55.5773 37.1005 55.5967L31.7987 56.6169L41.5795 50.9404L41.8705 53.0043Z" fill="white"/>
<path d="M43.3357 63.2836L37.8164 55.8443C37.7101 55.7131 37.5629 55.6212 37.3983 55.5834L41.8706 53.0044L43.3357 63.2836Z" fill="#EE811D"/>
<path opacity="0.6" d="M43.3357 63.2836L37.8164 55.8443C37.7101 55.7131 37.5629 55.6212 37.3983 55.5834L41.8706 53.0044L43.3357 63.2836Z" fill="white"/>
<path opacity="0.1" d="M43.3357 63.2836L37.8164 55.8443C37.7101 55.7131 37.5629 55.6212 37.3983 55.5834L41.8706 53.0044L43.3357 63.2836Z" fill="white"/>
<path d="M43.1651 63.6312L37.8131 56.6904C37.7238 56.5877 37.6115 56.5076 37.4854 56.4565C37.3593 56.4053 37.2229 56.3846 37.0873 56.396L32.0898 57.1185C31.8093 57.1487 31.526 57.0976 31.2737 56.9713C31.0696 56.8543 31.1031 56.7205 31.3506 56.6736L37.0906 55.5664C37.224 55.5477 37.36 55.5637 37.4854 55.613C37.6108 55.6622 37.7214 55.7429 37.8064 55.8474L43.8977 64.0494C44.0449 64.2534 44.0014 64.3203 43.7973 64.2032C43.5574 64.0476 43.344 63.8545 43.1651 63.6312Z" fill="#EE811D"/>
<path opacity="0.8" d="M43.1651 63.6312L37.8131 56.6904C37.7238 56.5877 37.6115 56.5076 37.4854 56.4565C37.3593 56.4053 37.2229 56.3846 37.0873 56.396L32.0898 57.1185C31.8093 57.1487 31.526 57.0976 31.2737 56.9713C31.0696 56.8543 31.1031 56.7205 31.3506 56.6736L37.0906 55.5664C37.224 55.5477 37.36 55.5637 37.4854 55.613C37.6108 55.6622 37.7214 55.7429 37.8064 55.8474L43.8977 64.0494C44.0449 64.2534 44.0014 64.3203 43.7973 64.2032C43.5574 64.0476 43.344 63.8545 43.1651 63.6312Z" fill="white"/>
<path d="M77.2439 5.60551C77.2434 5.50346 77.2179 5.4031 77.1694 5.31327C77.121 5.22343 77.0513 5.14689 76.9663 5.09038C76.8479 5.03095 76.7174 5 76.585 5C76.4525 5 76.3219 5.03095 76.2036 5.09038L37.9368 27.1908C37.699 27.3487 37.5247 27.5857 37.4451 27.8598L36.5386 31.8738L37.2745 32.2986L76.324 9.75331L77.2339 5.73931C77.2385 5.69259 77.2385 5.64554 77.2339 5.59882L77.2439 5.60551Z" fill="#EE811D"/>
<path opacity="0.6" d="M77.2339 5.7461C77.2874 5.50192 77.157 5.4116 76.9395 5.53202L38.6794 27.6224C38.4391 27.7784 38.2632 28.016 38.1843 28.2914L37.2778 32.3054L76.3274 9.76011L77.2339 5.7461Z" fill="white"/>
<path opacity="0.5" d="M38.375 27.9032C38.2851 28.0179 38.2202 28.15 38.1843 28.2912L37.2745 32.3052L36.5386 31.8737L37.4451 27.8597C37.4829 27.7186 37.5489 27.5866 37.6391 27.4717L38.375 27.9032Z" fill="white"/>
<path opacity="0.2" d="M77.244 5.60554C77.2272 5.46839 77.1068 5.4316 76.9396 5.53195L38.6794 27.6223C38.5612 27.6948 38.4588 27.7904 38.3784 27.9033L37.6425 27.4785C37.7226 27.3665 37.8237 27.271 37.9402 27.1975L76.2037 5.11382C76.322 5.05439 76.4526 5.02344 76.585 5.02344C76.7174 5.02344 76.848 5.05439 76.9663 5.11382C77.0481 5.16808 77.1159 5.24091 77.1641 5.32637C77.2124 5.41183 77.2397 5.50749 77.244 5.60554Z" fill="white"/>
<path d="M78.1806 6.51538L78.1338 6.18088V6.1307C78.0708 5.8874 77.9224 5.67488 77.7156 5.53195C77.5962 5.47431 77.4649 5.44578 77.3323 5.44869C77.1997 5.4516 77.0697 5.48586 76.953 5.54867L38.6794 27.6223C38.5627 27.6933 38.4705 27.7984 38.4152 27.9234C38.3571 28.0392 38.3338 28.1693 38.3483 28.298L39.0708 33.349L39.8067 33.7772L78.8596 11.2318L78.1806 6.51538Z" fill="#EE811D"/>
<path opacity="0.4" d="M78.8562 11.2319L39.8033 33.7772L39.0842 28.7229C39.0687 28.5945 39.0908 28.4644 39.1477 28.3483C39.2058 28.2251 39.2974 28.1208 39.412 28.0472L77.6788 5.97019C77.7147 5.94214 77.757 5.92336 77.8019 5.91552C77.8468 5.90767 77.893 5.91101 77.9363 5.92522C77.9796 5.93944 78.0187 5.9641 78.0502 5.99703C78.0817 6.02996 78.1047 6.07014 78.117 6.11403V6.11737V6.16755L78.1638 6.50205L78.8562 11.2319Z" fill="white"/>
<path opacity="0.5" d="M39.8034 33.7771L39.0675 33.3489L38.345 28.298C38.3306 28.1693 38.3538 28.0391 38.4119 27.9233L39.1511 28.3482C39.093 28.4639 39.0698 28.5941 39.0842 28.7228L39.8034 33.7771Z" fill="white"/>
<path opacity="0.3" d="M78.1204 6.11727C78.11 6.07169 78.0883 6.02948 78.0573 5.99453C78.0262 5.95958 77.9869 5.93304 77.9428 5.91736C77.8988 5.90168 77.8515 5.89737 77.8054 5.90483C77.7592 5.9123 77.7157 5.93129 77.6789 5.96006L39.412 28.0371C39.2965 28.1086 39.2055 28.2136 39.1511 28.3381L38.4119 27.9133C38.4671 27.7883 38.5594 27.6833 38.6761 27.6123L76.9396 5.53524C77.0564 5.47243 77.1864 5.43817 77.3189 5.43526C77.4515 5.43235 77.5829 5.46089 77.7023 5.51852C77.9119 5.6585 78.0612 5.87225 78.1204 6.11727Z" fill="white"/>
<g opacity="0.2">
<path d="M42.5931 28.763C42.5768 28.5237 42.6261 28.2844 42.7358 28.071C42.8454 27.8576 43.0112 27.6782 43.2153 27.5521C43.6234 27.318 44.0014 27.4785 44.0649 27.9134C44.0813 28.1531 44.0316 28.3927 43.9214 28.6062C43.8111 28.8197 43.6444 28.9989 43.4394 29.1243C43.3665 29.1858 43.2779 29.2259 43.1836 29.24C43.0892 29.2541 42.9928 29.2418 42.905 29.2043C42.8172 29.1669 42.7416 29.1058 42.6866 29.0279C42.6315 28.9499 42.5992 28.8582 42.5931 28.763Z" fill="white"/>
<path d="M47.7544 25.7861C47.7373 25.5463 47.7866 25.3064 47.897 25.0927C48.0073 24.8791 48.1744 24.7 48.3799 24.5752C48.7847 24.3377 49.166 24.5016 49.2262 24.9331C49.2432 25.173 49.1942 25.413 49.0845 25.627C48.9748 25.841 48.8087 26.021 48.6041 26.1474C48.196 26.3815 47.8146 26.2209 47.7544 25.7861Z" fill="white"/>
<path d="M52.9091 22.8089C52.892 22.5695 52.941 22.3299 53.0507 22.1164C53.1604 21.9029 53.3266 21.7236 53.5312 21.598C53.9393 21.3639 54.3173 21.5244 54.3809 21.9593C54.3947 22.1987 54.3439 22.4373 54.2339 22.6504C54.1238 22.8634 53.9586 23.0429 53.7554 23.1702C53.3506 23.4043 52.9693 23.2438 52.9091 22.8089Z" fill="white"/>
<path d="M63.2217 16.8548C63.2046 16.6154 63.2536 16.3758 63.3633 16.1623C63.473 15.9488 63.6393 15.7695 63.8439 15.6439C64.252 15.4098 64.6299 15.5703 64.6935 16.0052C64.7095 16.2449 64.6597 16.4844 64.5494 16.6978C64.4392 16.9112 64.2727 17.0904 64.068 17.2161C63.6632 17.4502 63.2819 17.2897 63.2217 16.8548Z" fill="white"/>
<path d="M68.383 13.8744C68.3658 13.6345 68.4152 13.3946 68.5255 13.181C68.6359 12.9674 68.803 12.7883 69.0085 12.6635C69.4132 12.4293 69.7946 12.5899 69.8548 13.0247C69.8718 13.2642 69.8228 13.5037 69.7131 13.7172C69.6034 13.9308 69.4372 14.1101 69.2326 14.2356C68.8245 14.4798 68.4499 14.3092 68.383 13.8744Z" fill="white"/>
<path d="M73.5377 10.8973C73.5214 10.658 73.5707 10.4187 73.6804 10.2053C73.79 9.99192 73.9558 9.81251 74.1599 9.68641C74.568 9.45226 74.946 9.61282 75.0095 10.0477C75.0259 10.2874 74.9762 10.527 74.8659 10.7405C74.7557 10.954 74.589 11.1332 74.384 11.2586C73.9793 11.4927 73.5979 11.3322 73.5377 10.8973Z" fill="white"/>
</g>
<path d="M44.1552 27.2108C44.1555 27.36 44.1421 27.5089 44.115 27.6556C44.1 27.7313 44.081 27.8061 44.0581 27.8798C43.968 28.2238 43.7472 28.519 43.4427 28.7026C43.2445 28.817 43.0192 28.876 42.7904 28.8732H42.6098L42.5897 28.7762C42.5696 28.5738 42.603 28.3696 42.6867 28.1842C42.8278 28.2052 42.972 28.1806 43.0981 28.1139C43.1974 28.0378 43.2788 27.9408 43.3366 27.8299C43.3944 27.7189 43.4272 27.5967 43.4326 27.4717C43.4341 27.4606 43.4341 27.4493 43.4326 27.4382C43.4365 27.3658 43.4365 27.2932 43.4326 27.2208C43.4016 26.5147 43.1618 25.8337 42.7436 25.264C42.5997 25.06 42.4361 24.8706 42.2552 24.6987C42.1054 24.5582 41.9405 24.4348 41.7635 24.3307C41.6279 24.2303 41.4691 24.1657 41.3019 24.1429C41.1347 24.1201 40.9644 24.1398 40.8068 24.2003C40.6733 24.3045 40.5692 24.4416 40.5047 24.5982C40.4402 24.7547 40.4175 24.9254 40.4389 25.0934C40.4411 25.2986 40.4669 25.5029 40.5158 25.7022L39.897 26.0601V26.0199C39.8097 25.7187 39.7635 25.407 39.7598 25.0934C39.7339 24.8033 39.7868 24.5116 39.9127 24.2491C40.0387 23.9865 40.2332 23.7628 40.4757 23.6015C40.9339 23.3373 41.5159 23.3841 42.1247 23.732C42.406 23.8984 42.6618 24.1045 42.8841 24.3441C43.0559 24.5229 43.2114 24.7165 43.349 24.9228C43.8322 25.592 44.1121 26.3864 44.1552 27.2108Z" fill="#37474F"/>
<path d="M49.3166 24.2305C49.3171 24.3798 49.3036 24.5287 49.2764 24.6754C49.2641 24.7535 49.2462 24.8307 49.2229 24.9062C49.1291 25.2477 48.9075 25.54 48.6041 25.7224C48.4059 25.8368 48.1806 25.8957 47.9518 25.893H47.7745C47.7643 25.8615 47.7576 25.829 47.7544 25.796C47.7317 25.5938 47.764 25.3892 47.8481 25.2039C47.9892 25.225 48.1334 25.2004 48.2595 25.1337C48.3597 25.0584 48.4417 24.9616 48.4996 24.8505C48.5575 24.7394 48.5897 24.6167 48.594 24.4914C48.5955 24.4815 48.5955 24.4713 48.594 24.4613C48.5996 24.3879 48.5996 24.3141 48.594 24.2406C48.5305 23.2823 48.1104 22.3825 47.4166 21.7184C47.2675 21.5772 47.1025 21.4537 46.9249 21.3505C46.7889 21.2506 46.63 21.1866 46.4628 21.1644C46.2956 21.1422 46.1255 21.1625 45.9682 21.2234C45.835 21.3271 45.731 21.4636 45.6665 21.6196C45.602 21.7756 45.5792 21.9457 45.6003 22.1132C45.6025 22.3184 45.6283 22.5226 45.6772 22.7219L45.0584 23.0799V23.0397C44.9721 22.7383 44.9271 22.4266 44.9246 22.1132C44.8983 21.8234 44.9506 21.5319 45.076 21.2694C45.2014 21.0069 45.3952 20.783 45.637 20.6213C46.0953 20.357 46.6807 20.4039 47.2861 20.7517C47.5674 20.9181 47.8232 21.1243 48.0455 21.3639C48.2157 21.544 48.3712 21.7375 48.5104 21.9426C48.9949 22.6111 49.275 23.4059 49.3166 24.2305Z" fill="#37474F"/>
<path d="M54.4678 21.2535C54.4676 21.4036 54.4553 21.5535 54.431 21.7017C54.4172 21.7787 54.3982 21.8547 54.3741 21.9292C54.2851 22.272 54.0637 22.5655 53.7586 22.7453C53.5607 22.8607 53.3354 22.9208 53.1064 22.9193C53.0474 22.9243 52.9881 22.9243 52.9291 22.9193C52.9189 22.8878 52.9121 22.8552 52.909 22.8223C52.8862 22.6201 52.9186 22.4155 53.0027 22.2302C53.1427 22.2535 53.2866 22.2288 53.4108 22.16C53.5111 22.0848 53.5932 21.9881 53.6511 21.8769C53.709 21.7658 53.7412 21.643 53.7453 21.5177C53.7469 21.5078 53.7469 21.4976 53.7453 21.4876C53.7509 21.4141 53.7509 21.3403 53.7453 21.2668C53.7125 20.5621 53.4729 19.8827 53.0562 19.3134C52.9132 19.1087 52.7495 18.9193 52.5678 18.7481C52.4181 18.6065 52.2532 18.482 52.0761 18.3768C51.9402 18.2769 51.7813 18.2129 51.614 18.1907C51.4468 18.1684 51.2767 18.1887 51.1194 18.2497C50.9857 18.3536 50.8814 18.4907 50.8168 18.6474C50.7523 18.804 50.7298 18.9748 50.7515 19.1428C50.7537 19.348 50.7795 19.5523 50.8284 19.7516L50.2062 20.1095V20.066C50.1191 19.7658 50.073 19.4553 50.0691 19.1428C50.0691 18.4437 50.3233 17.9152 50.7816 17.6509C51.2398 17.3866 51.8252 17.4301 52.4307 17.7814C52.7123 17.9473 52.9691 18.1523 53.1933 18.3901C53.3635 18.5703 53.519 18.7638 53.6583 18.9688C54.1422 19.6367 54.4233 20.4299 54.4678 21.2535Z" fill="#37474F"/>
<path d="M64.7704 15.3092C64.7719 15.4583 64.7596 15.6073 64.7336 15.7541C64.7186 15.8319 64.6996 15.909 64.6768 15.9849C64.583 16.3264 64.3614 16.6186 64.0579 16.8011C63.8605 16.9143 63.6366 16.9732 63.409 16.9717C63.35 16.9768 63.2907 16.9768 63.2317 16.9717C63.2204 16.938 63.2125 16.9033 63.2083 16.868C63.1863 16.6683 63.2175 16.4664 63.2986 16.2826C63.4405 16.3054 63.5859 16.282 63.7134 16.2157C63.8194 16.1387 63.9062 16.0382 63.9671 15.9222C64.0281 15.8062 64.0614 15.6777 64.0646 15.5467C64.0628 15.539 64.0628 15.531 64.0646 15.5233C64.0685 15.4509 64.0685 15.3783 64.0646 15.3059C64.0323 14.5974 63.7914 13.9144 63.3722 13.3424C63.2282 13.1375 63.0634 12.9481 62.8805 12.777C62.7327 12.639 62.5701 12.5178 62.3955 12.4158C62.2598 12.3154 62.1011 12.2507 61.9339 12.2279C61.7666 12.2051 61.5964 12.2249 61.4388 12.2853C61.3064 12.3903 61.2033 12.5277 61.1395 12.6841C61.0756 12.8405 61.0531 13.0108 61.0742 13.1784C61.0753 13.3802 61.1 13.5812 61.1478 13.7772L60.5557 14.1452V14.1117C60.4686 13.8115 60.4225 13.501 60.4186 13.1885C60.4186 12.4894 60.6728 11.9609 61.1311 11.6966C61.3923 11.5681 61.6833 11.5124 61.9735 11.5353C62.2637 11.5583 62.5424 11.6591 62.7802 11.8271C63.061 11.99 63.3158 12.1941 63.5361 12.4325C63.7072 12.6128 63.8638 12.8063 64.0044 13.0112C64.4744 13.6881 64.7403 14.4857 64.7704 15.3092Z" fill="#37474F"/>
<path d="M69.9485 12.3288C69.9489 12.4791 69.9355 12.6292 69.9084 12.777C69.8917 12.8573 69.8749 12.9309 69.8515 13.0078C69.7617 13.3494 69.5404 13.6416 69.236 13.8207C69.033 13.938 68.8015 13.997 68.567 13.9913C68.508 13.9946 68.4488 13.9946 68.3898 13.9913C68.3784 13.9564 68.3706 13.9206 68.3663 13.8842C68.3438 13.6856 68.375 13.4846 68.4567 13.3022C68.5989 13.3257 68.7449 13.301 68.8714 13.232C68.978 13.1555 69.0652 13.0551 69.1262 12.939C69.1872 12.8229 69.2202 12.6941 69.2227 12.563C69.2245 12.5553 69.2245 12.5472 69.2227 12.5395C69.2266 12.4671 69.2266 12.3945 69.2227 12.3221C69.1913 11.614 68.949 10.9314 68.5269 10.3619C68.3839 10.1563 68.2203 9.96572 68.0385 9.79329C67.8901 9.65601 67.7275 9.5349 67.5535 9.43203C67.4176 9.33214 67.2587 9.26813 67.0915 9.24592C66.9242 9.2237 66.7541 9.24399 66.5968 9.30492C66.4626 9.40844 66.3579 9.54546 66.2933 9.70222C66.2287 9.85898 66.2065 10.03 66.2289 10.198C66.2319 10.3986 66.2565 10.5982 66.3025 10.7934L65.6837 11.1547V11.1213C65.5966 10.8211 65.5504 10.5105 65.5465 10.198C65.5465 9.49892 65.8007 8.96707 66.2623 8.70616C66.7239 8.44525 67.306 8.48539 67.9081 8.83327C68.1968 9.00287 68.4584 9.21485 68.6841 9.46213C68.8554 9.64222 69.012 9.83573 69.1524 10.0408C69.6322 10.7111 69.9086 11.5055 69.9485 12.3288Z" fill="#37474F"/>
<path d="M75.0998 9.35179C75.1002 9.50211 75.0868 9.65215 75.0597 9.80002C75.0458 9.87561 75.0279 9.95041 75.0062 10.0241C74.9143 10.3682 74.6924 10.6632 74.3874 10.847C74.1884 10.9592 73.9634 11.0169 73.7351 11.0143H73.5611C73.5498 10.9794 73.542 10.9436 73.5377 10.9072C73.5157 10.7086 73.5469 10.5078 73.628 10.3252C73.7703 10.347 73.9157 10.3223 74.0428 10.2549C74.1461 10.1765 74.23 10.0754 74.288 9.9594C74.346 9.8434 74.3766 9.71562 74.3773 9.58594C74.3789 9.57934 74.3789 9.57247 74.3773 9.56587C74.3828 9.49238 74.3828 9.41858 74.3773 9.3451C74.3465 8.6374 74.1055 7.95494 73.6849 7.38492C73.5408 7.18016 73.376 6.99074 73.1932 6.81962C73.0469 6.6803 72.8853 6.55798 72.7115 6.45501C72.5756 6.35513 72.4167 6.29112 72.2495 6.2689C72.0822 6.24669 71.9121 6.26698 71.7548 6.32791C71.6206 6.43144 71.5159 6.56845 71.4513 6.72521C71.3867 6.88197 71.3645 7.05296 71.3869 7.22102C71.388 7.42279 71.4127 7.62374 71.4605 7.81978L70.8383 8.17769V8.14424C70.7512 7.84408 70.7051 7.53354 70.7012 7.22102C70.7012 6.52192 70.9554 5.9934 71.4136 5.72915C71.6748 5.60084 71.9655 5.54495 72.2556 5.56731C72.5456 5.58967 72.8244 5.68945 73.0627 5.85626C73.3416 6.0206 73.5951 6.22454 73.8154 6.4617C73.9885 6.6414 74.1452 6.83619 74.2837 7.04374C74.7747 7.71716 75.0584 8.51936 75.0998 9.35179Z" fill="#37474F"/>
<path d="M40.6563 39.7146L79.7026 17.1894L78.8563 11.2319L39.8033 33.7605L40.6563 39.7146Z" fill="#EE811D"/>
<g opacity="0.65">
<path d="M40.6563 39.7146L79.7026 17.1894L78.8563 11.2319L39.8033 33.7605L40.6563 39.7146Z" fill="white"/>
</g>
<path d="M43.7338 41.1596C43.7839 41.4941 44.0883 41.6011 44.4028 41.4105L47.333 39.738C47.4951 39.6422 47.6281 39.5041 47.7176 39.3385C47.8072 39.173 47.85 38.9861 47.8414 38.798C47.7946 38.4635 47.4902 38.3565 47.1724 38.5472L44.2422 40.2197C44.0804 40.3157 43.9476 40.4538 43.8581 40.6194C43.7685 40.7849 43.7256 40.9716 43.7338 41.1596Z" fill="#EE811D"/>
<path d="M48.6777 38.3063C48.7245 38.6408 49.0289 38.7479 49.3467 38.5572L52.2769 36.8847C52.4399 36.7897 52.5737 36.6518 52.6639 36.4861C52.7542 36.3204 52.7973 36.1332 52.7887 35.9448C52.7419 35.6103 52.4542 35.5032 52.1197 35.6939L49.1895 37.3664C49.0265 37.4614 48.8927 37.5993 48.8025 37.765C48.7123 37.9307 48.6691 38.1179 48.6777 38.3063Z" fill="#EE811D"/>
<path d="M53.6215 35.4531C53.6684 35.7876 53.9727 35.8946 54.2905 35.7039L57.2207 34.0314C57.3833 33.9362 57.5167 33.7983 57.6064 33.6325C57.696 33.4668 57.7385 33.2797 57.7292 33.0915C57.6824 32.757 57.378 32.6499 57.0602 32.8406L54.13 34.5131C53.9676 34.6086 53.8344 34.7466 53.7448 34.9123C53.6552 35.0779 53.6126 35.2649 53.6215 35.4531Z" fill="#EE811D"/>
<path d="M58.5621 32.5997C58.6089 32.9342 58.9133 33.0412 59.2311 32.8506L62.1613 31.158C62.3236 31.0633 62.4569 30.926 62.5465 30.7608C62.6362 30.5957 62.6788 30.4091 62.6697 30.2214C62.6229 29.8869 62.3185 29.7799 62.0007 29.9672L59.0839 31.6597C58.9188 31.7532 58.7827 31.8904 58.6907 32.0563C58.5986 32.2221 58.5541 32.4102 58.5621 32.5997Z" fill="#EE811D"/>
<path d="M63.506 29.7431C63.5529 30.0776 63.8405 30.1846 64.175 29.9973L67.1052 28.3047C67.2677 28.2099 67.4012 28.0726 67.4914 27.9076C67.5816 27.7425 67.625 27.556 67.617 27.3681C67.5702 27.0336 67.2658 26.9266 66.948 27.1139L64.0178 28.8065C63.8551 28.901 63.7214 29.0382 63.6312 29.2033C63.541 29.3684 63.4977 29.5551 63.506 29.7431Z" fill="#EE811D"/>
<path d="M68.45 26.8897C68.4968 27.2242 68.8012 27.3312 69.119 27.1439L72.0492 25.4514C72.2115 25.3559 72.3447 25.2178 72.4343 25.0522C72.5239 24.8865 72.5665 24.6995 72.5576 24.5114C72.5108 24.1769 72.2064 24.0699 71.8886 24.2605L68.9584 25.9531C68.7963 26.048 68.6633 26.1855 68.5737 26.3506C68.4841 26.5156 68.4413 26.7021 68.45 26.8897Z" fill="#EE811D"/>
<path d="M73.3905 24.0366C73.4373 24.3711 73.7417 24.4781 74.0595 24.2874L76.9897 22.6149C77.1529 22.5202 77.287 22.3824 77.3772 22.2166C77.4675 22.0509 77.5105 21.8635 77.5015 21.675C77.4547 21.3405 77.167 21.2334 76.8325 21.4241L73.9023 23.1167C73.7419 23.2096 73.6097 23.3441 73.5196 23.5061C73.4294 23.668 73.3849 23.8513 73.3905 24.0366Z" fill="#EE811D"/>
<g opacity="0.17">
<path d="M80.7596 41.1931C80.7223 41.1964 80.6851 41.186 80.6549 41.1638C80.6247 41.1416 80.6037 41.1092 80.5957 41.0726L78.2073 24.4011C78.2059 24.3835 78.2082 24.3657 78.2142 24.3491C78.2202 24.3324 78.2297 24.3172 78.2421 24.3045C78.2544 24.2918 78.2694 24.2819 78.2859 24.2755C78.3024 24.2691 78.3201 24.2663 78.3378 24.2673C78.3752 24.2653 78.4123 24.2761 78.4427 24.298C78.4731 24.3199 78.4951 24.3516 78.505 24.3878L80.89 41.0593C80.8915 41.0769 80.8891 41.0947 80.8832 41.1114C80.8772 41.128 80.8677 41.1432 80.8553 41.1559C80.8429 41.1686 80.828 41.1785 80.8115 41.1849C80.795 41.1913 80.7772 41.1941 80.7596 41.1931Z" fill="#EE811D"/>
<path d="M75.809 44.0496C75.7717 44.0529 75.7345 44.0425 75.7043 44.0203C75.6742 43.9982 75.6531 43.9658 75.6451 43.9292L73.2568 27.2577C73.2553 27.24 73.2577 27.2223 73.2636 27.2056C73.2696 27.1889 73.2791 27.1737 73.2915 27.161C73.3039 27.1484 73.3188 27.1385 73.3353 27.1321C73.3518 27.1257 73.3695 27.1229 73.3872 27.1239C73.4245 27.1206 73.4617 27.131 73.4919 27.1532C73.5221 27.1753 73.5431 27.2077 73.5511 27.2443L75.9462 43.9158C75.9478 43.9341 75.9453 43.9525 75.9389 43.9697C75.9325 43.9868 75.9224 44.0024 75.9093 44.0152C75.8962 44.028 75.8804 44.0377 75.863 44.0437C75.8457 44.0496 75.8272 44.0517 75.809 44.0496Z" fill="#EE811D"/>
<path d="M70.8717 46.9029C70.8342 46.9057 70.7968 46.8951 70.7663 46.8731C70.7357 46.8511 70.7138 46.819 70.7045 46.7825L68.3195 30.111C68.3181 30.0936 68.3203 30.0762 68.3261 30.0598C68.3319 30.0433 68.3411 30.0283 68.3531 30.0157C68.3651 30.003 68.3797 29.9931 68.3958 29.9865C68.4119 29.9798 68.4292 29.9767 68.4466 29.9772C68.4843 29.9738 68.522 29.9841 68.5527 30.0062C68.5835 30.0283 68.6052 30.0608 68.6139 30.0976L71.0022 46.7691C71.0037 46.7868 71.0013 46.8045 70.9953 46.8212C70.9893 46.8379 70.9798 46.8531 70.9675 46.8658C70.9551 46.8784 70.9402 46.8883 70.9237 46.8947C70.9071 46.9012 70.8894 46.9039 70.8717 46.9029Z" fill="#EE811D"/>
<path d="M65.9278 49.7596C65.8898 49.7622 65.8521 49.7512 65.8215 49.7285C65.7908 49.7058 65.7692 49.673 65.7606 49.6359L63.3723 32.9644C63.3713 32.947 63.374 32.9296 63.3802 32.9133C63.3864 32.897 63.396 32.8823 63.4083 32.87C63.4206 32.8576 63.4354 32.8481 63.4517 32.8419C63.4679 32.8356 63.4853 32.8329 63.5027 32.8339C63.5404 32.8305 63.5781 32.8408 63.6088 32.8629C63.6396 32.885 63.6613 32.9175 63.67 32.9543L66.055 49.6258C66.0564 49.6432 66.0541 49.6606 66.0483 49.6771C66.0425 49.6935 66.0333 49.7085 66.0213 49.7212C66.0093 49.7338 65.9948 49.7437 65.9787 49.7504C65.9626 49.757 65.9453 49.7601 65.9278 49.7596Z" fill="#EE811D"/>
<path d="M60.9839 52.6127C60.9462 52.6161 60.9086 52.6058 60.8778 52.5837C60.8471 52.5616 60.8254 52.5291 60.8167 52.4923L58.415 35.8208C58.4135 35.8031 58.4159 35.7853 58.4218 35.7687C58.4278 35.752 58.4373 35.7368 58.4497 35.7241C58.4621 35.7114 58.477 35.7015 58.4935 35.6951C58.51 35.6887 58.5277 35.6859 58.5454 35.6869C58.583 35.6842 58.6204 35.6948 58.6509 35.7168C58.6815 35.7388 58.7034 35.7709 58.7127 35.8074L61.0977 52.4789C61.099 52.4951 61.0972 52.5115 61.0922 52.5271C61.0872 52.5426 61.0792 52.557 61.0686 52.5694C61.0581 52.5819 61.0451 52.5921 61.0306 52.5995C61.0161 52.6069 61.0002 52.6114 60.9839 52.6127Z" fill="#EE811D"/>
<path d="M56.0366 55.4695C55.999 55.472 55.9617 55.4608 55.9317 55.4381C55.9016 55.4154 55.8806 55.3826 55.8727 55.3458L53.4844 38.6743C53.4844 38.604 53.5312 38.5472 53.6148 38.5438C53.6521 38.5405 53.6893 38.5509 53.7195 38.5731C53.7497 38.5952 53.7707 38.6277 53.7787 38.6642L56.1671 55.3357C56.1685 55.3534 56.1662 55.3711 56.1602 55.3878C56.1542 55.4045 56.1447 55.4197 56.1323 55.4324C56.12 55.445 56.105 55.4549 56.0885 55.4613C56.072 55.4678 56.0543 55.4706 56.0366 55.4695Z" fill="#EE811D"/>
<path d="M51.0928 58.3228C51.0552 58.3255 51.0179 58.315 50.9873 58.293C50.9567 58.271 50.9349 58.2389 50.9256 58.2024L48.5406 41.5309C48.5391 41.5132 48.5415 41.4955 48.5474 41.4788C48.5534 41.4621 48.5629 41.4469 48.5753 41.4342C48.5877 41.4216 48.6026 41.4117 48.6191 41.4053C48.6357 41.3989 48.6533 41.3961 48.671 41.3971C48.7083 41.3938 48.7455 41.4042 48.7757 41.4264C48.8059 41.4485 48.8269 41.4809 48.8349 41.5175L51.2233 58.189C51.2247 58.2067 51.2224 58.2244 51.2164 58.2411C51.2104 58.2578 51.2009 58.273 51.1885 58.2856C51.1762 58.2983 51.1612 58.3082 51.1447 58.3146C51.1282 58.321 51.1105 58.3238 51.0928 58.3228Z" fill="#EE811D"/>
<path d="M46.1488 61.1761C46.1111 61.1795 46.0734 61.1692 46.0427 61.1471C46.0119 61.125 45.9902 61.0925 45.9815 61.0557L43.5932 44.3842C43.5923 44.3666 43.595 44.3491 43.6012 44.3327C43.6073 44.3162 43.6169 44.3013 43.6291 44.2887C43.6414 44.2761 43.6561 44.2662 43.6724 44.2596C43.6886 44.253 43.7061 44.2499 43.7236 44.2504C43.7617 44.2478 43.7994 44.2588 43.83 44.2815C43.8607 44.3042 43.8822 44.337 43.8909 44.3741L46.2792 61.0456C46.2802 61.063 46.2775 61.0804 46.2713 61.0967C46.2651 61.1129 46.2555 61.1277 46.2432 61.14C46.2309 61.1523 46.2161 61.1619 46.1998 61.1681C46.1836 61.1743 46.1662 61.1771 46.1488 61.1761Z" fill="#EE811D"/>
<path d="M44.366 48.6725C44.3403 48.675 44.3143 48.6712 44.2903 48.6612C44.2664 48.6513 44.2453 48.6356 44.2289 48.6156C44.217 48.6034 44.2081 48.5885 44.203 48.5723C44.1978 48.5561 44.1964 48.5388 44.199 48.522C44.2016 48.5051 44.2081 48.4891 44.2179 48.4752C44.2277 48.4612 44.2407 48.4498 44.2557 48.4417L78.8697 28.4553C78.9038 28.4377 78.9428 28.4321 78.9804 28.4394C79.018 28.4467 79.0521 28.4664 79.0771 28.4954C79.0889 28.5079 79.0975 28.5229 79.1025 28.5393C79.1074 28.5557 79.1084 28.573 79.1055 28.5899C79.1026 28.6068 79.0958 28.6227 79.0857 28.6365C79.0755 28.6503 79.0623 28.6616 79.047 28.6694L44.4296 48.6524C44.4103 48.6641 44.3885 48.671 44.366 48.6725Z" fill="#EE811D"/>
<path d="M44.9546 52.8403C44.9289 52.842 44.9032 52.8378 44.8794 52.8279C44.8556 52.8181 44.8344 52.8029 44.8175 52.7835C44.8058 52.771 44.7971 52.756 44.7921 52.7396C44.7872 52.7232 44.7862 52.7058 44.7891 52.689C44.792 52.6721 44.7988 52.6561 44.809 52.6423C44.8191 52.6285 44.8324 52.6173 44.8476 52.6095L79.4583 32.6231C79.4929 32.6053 79.5324 32.5996 79.5706 32.6068C79.6088 32.6141 79.6435 32.634 79.6691 32.6633C79.6802 32.676 79.6883 32.6911 79.6929 32.7074C79.6974 32.7236 79.6983 32.7407 79.6954 32.7574C79.6925 32.7741 79.686 32.7899 79.6762 32.8037C79.6664 32.8175 79.6537 32.8289 79.639 32.8372L45.0349 52.8202C45.011 52.8355 44.9829 52.8425 44.9546 52.8403Z" fill="#EE811D"/>
<path d="M45.5501 57.0082C45.5244 57.0099 45.4987 57.0057 45.4749 56.9958C45.4511 56.9859 45.4299 56.9707 45.413 56.9513C45.4012 56.9385 45.3925 56.9232 45.3876 56.9066C45.3827 56.8899 45.3816 56.8724 45.3845 56.8553C45.3874 56.8382 45.3942 56.8219 45.4044 56.8079C45.4145 56.7938 45.4277 56.7822 45.4431 56.774L80.0572 36.791C80.0912 36.7734 80.1302 36.7678 80.1678 36.7751C80.2054 36.7824 80.2395 36.8021 80.2645 36.8311C80.2763 36.8436 80.2849 36.8586 80.2899 36.875C80.2948 36.8914 80.2958 36.9087 80.2929 36.9256C80.29 36.9425 80.2832 36.9584 80.2731 36.9722C80.2629 36.986 80.2497 36.9973 80.2344 37.0051L45.6237 56.9881C45.6014 57.0013 45.576 57.0082 45.5501 57.0082Z" fill="#EE811D"/>
<path d="M46.1488 61.176C46.1236 61.1827 46.0971 61.1827 46.0719 61.176C46.0486 61.1679 46.0279 61.1537 46.012 61.1349C45.9962 61.1161 45.9856 61.0933 45.9816 61.069L43.5933 44.3975C43.5915 44.3748 43.5962 44.352 43.6069 44.3319C43.6175 44.3118 43.6337 44.2951 43.6535 44.2838L78.2642 24.3007C78.2876 24.2892 78.3134 24.2832 78.3395 24.2832C78.3656 24.2832 78.3913 24.2892 78.4147 24.3007C78.4371 24.3093 78.457 24.3233 78.4727 24.3414C78.4885 24.3594 78.4996 24.3811 78.505 24.4044L80.89 41.0759C80.893 41.0984 80.8891 41.1212 80.879 41.1415C80.8688 41.1617 80.8529 41.1785 80.8332 41.1896L46.2191 61.156C46.1982 61.1696 46.1737 61.1766 46.1488 61.176ZM43.901 44.451L46.2425 60.8415L80.5823 41.0157L78.2408 24.6252L43.901 44.451Z" fill="#EE811D"/>
</g>
<g opacity="0.17">
<path d="M80.7596 41.1931C80.7223 41.1964 80.6851 41.186 80.6549 41.1638C80.6247 41.1416 80.6037 41.1092 80.5957 41.0726L78.2073 24.4011C78.2059 24.3835 78.2082 24.3657 78.2142 24.3491C78.2202 24.3324 78.2297 24.3172 78.2421 24.3045C78.2544 24.2918 78.2694 24.2819 78.2859 24.2755C78.3024 24.2691 78.3201 24.2663 78.3378 24.2673C78.3752 24.2653 78.4123 24.2761 78.4427 24.298C78.4731 24.3199 78.4951 24.3516 78.505 24.3878L80.89 41.0593C80.8915 41.0769 80.8891 41.0947 80.8832 41.1114C80.8772 41.128 80.8677 41.1432 80.8553 41.1559C80.8429 41.1686 80.828 41.1785 80.8115 41.1849C80.795 41.1913 80.7772 41.1941 80.7596 41.1931Z" fill="white"/>
<path d="M75.809 44.0496C75.7717 44.0529 75.7345 44.0425 75.7043 44.0203C75.6742 43.9982 75.6531 43.9658 75.6451 43.9292L73.2568 27.2577C73.2553 27.24 73.2577 27.2223 73.2636 27.2056C73.2696 27.1889 73.2791 27.1737 73.2915 27.161C73.3039 27.1484 73.3188 27.1385 73.3353 27.1321C73.3518 27.1257 73.3695 27.1229 73.3872 27.1239C73.4245 27.1206 73.4617 27.131 73.4919 27.1532C73.5221 27.1753 73.5431 27.2077 73.5511 27.2443L75.9462 43.9158C75.9478 43.9341 75.9453 43.9525 75.9389 43.9697C75.9325 43.9868 75.9224 44.0024 75.9093 44.0152C75.8962 44.028 75.8804 44.0377 75.863 44.0437C75.8457 44.0496 75.8272 44.0517 75.809 44.0496Z" fill="white"/>
<path d="M70.8717 46.9029C70.8342 46.9057 70.7968 46.8951 70.7663 46.8731C70.7357 46.8511 70.7138 46.819 70.7045 46.7825L68.3195 30.111C68.3181 30.0936 68.3203 30.0762 68.3261 30.0598C68.3319 30.0433 68.3411 30.0283 68.3531 30.0157C68.3651 30.003 68.3797 29.9931 68.3958 29.9865C68.4119 29.9798 68.4292 29.9767 68.4466 29.9772C68.4843 29.9738 68.522 29.9841 68.5527 30.0062C68.5835 30.0283 68.6052 30.0608 68.6139 30.0976L71.0022 46.7691C71.0037 46.7868 71.0013 46.8045 70.9953 46.8212C70.9893 46.8379 70.9798 46.8531 70.9675 46.8658C70.9551 46.8784 70.9402 46.8883 70.9237 46.8947C70.9071 46.9012 70.8894 46.9039 70.8717 46.9029Z" fill="white"/>
<path d="M65.9278 49.7596C65.8898 49.7622 65.8521 49.7512 65.8215 49.7285C65.7908 49.7058 65.7692 49.673 65.7606 49.6359L63.3723 32.9644C63.3713 32.947 63.374 32.9296 63.3802 32.9133C63.3864 32.897 63.396 32.8823 63.4083 32.87C63.4206 32.8576 63.4354 32.8481 63.4517 32.8419C63.4679 32.8356 63.4853 32.8329 63.5027 32.8339C63.5404 32.8305 63.5781 32.8408 63.6088 32.8629C63.6396 32.885 63.6613 32.9175 63.67 32.9543L66.055 49.6258C66.0564 49.6432 66.0541 49.6606 66.0483 49.6771C66.0425 49.6935 66.0333 49.7085 66.0213 49.7212C66.0093 49.7338 65.9948 49.7437 65.9787 49.7504C65.9626 49.757 65.9453 49.7601 65.9278 49.7596Z" fill="white"/>
<path d="M60.9839 52.6127C60.9462 52.6161 60.9086 52.6058 60.8778 52.5837C60.8471 52.5616 60.8254 52.5291 60.8167 52.4923L58.415 35.8208C58.4135 35.8031 58.4159 35.7853 58.4218 35.7687C58.4278 35.752 58.4373 35.7368 58.4497 35.7241C58.4621 35.7114 58.477 35.7015 58.4935 35.6951C58.51 35.6887 58.5277 35.6859 58.5454 35.6869C58.583 35.6842 58.6204 35.6948 58.6509 35.7168C58.6815 35.7388 58.7034 35.7709 58.7127 35.8074L61.0977 52.4789C61.099 52.4951 61.0972 52.5115 61.0922 52.5271C61.0872 52.5426 61.0792 52.557 61.0686 52.5694C61.0581 52.5819 61.0451 52.5921 61.0306 52.5995C61.0161 52.6069 61.0002 52.6114 60.9839 52.6127Z" fill="white"/>
<path d="M56.0366 55.4695C55.999 55.472 55.9617 55.4608 55.9317 55.4381C55.9016 55.4154 55.8806 55.3826 55.8727 55.3458L53.4844 38.6743C53.4844 38.604 53.5312 38.5472 53.6148 38.5438C53.6521 38.5405 53.6893 38.5509 53.7195 38.5731C53.7497 38.5952 53.7707 38.6277 53.7787 38.6642L56.1671 55.3357C56.1685 55.3534 56.1662 55.3711 56.1602 55.3878C56.1542 55.4045 56.1447 55.4197 56.1323 55.4324C56.12 55.445 56.105 55.4549 56.0885 55.4613C56.072 55.4678 56.0543 55.4706 56.0366 55.4695Z" fill="white"/>
<path d="M51.0928 58.3228C51.0552 58.3255 51.0179 58.315 50.9873 58.293C50.9567 58.271 50.9349 58.2389 50.9256 58.2024L48.5406 41.5309C48.5391 41.5132 48.5415 41.4955 48.5474 41.4788C48.5534 41.4621 48.5629 41.4469 48.5753 41.4342C48.5877 41.4216 48.6026 41.4117 48.6191 41.4053C48.6357 41.3989 48.6533 41.3961 48.671 41.3971C48.7083 41.3938 48.7455 41.4042 48.7757 41.4264C48.8059 41.4485 48.8269 41.4809 48.8349 41.5175L51.2233 58.189C51.2247 58.2067 51.2224 58.2244 51.2164 58.2411C51.2104 58.2578 51.2009 58.273 51.1885 58.2856C51.1762 58.2983 51.1612 58.3082 51.1447 58.3146C51.1282 58.321 51.1105 58.3238 51.0928 58.3228Z" fill="white"/>
<path d="M46.1488 61.1761C46.1111 61.1795 46.0734 61.1692 46.0427 61.1471C46.0119 61.125 45.9902 61.0925 45.9815 61.0557L43.5932 44.3842C43.5923 44.3666 43.595 44.3491 43.6012 44.3327C43.6073 44.3162 43.6169 44.3013 43.6291 44.2887C43.6414 44.2761 43.6561 44.2662 43.6724 44.2596C43.6886 44.253 43.7061 44.2499 43.7236 44.2504C43.7617 44.2478 43.7994 44.2588 43.83 44.2815C43.8607 44.3042 43.8822 44.337 43.8909 44.3741L46.2792 61.0456C46.2802 61.063 46.2775 61.0804 46.2713 61.0967C46.2651 61.1129 46.2555 61.1277 46.2432 61.14C46.2309 61.1523 46.2161 61.1619 46.1998 61.1681C46.1836 61.1743 46.1662 61.1771 46.1488 61.1761Z" fill="white"/>
<path d="M44.366 48.6725C44.3403 48.675 44.3143 48.6712 44.2903 48.6612C44.2664 48.6513 44.2453 48.6356 44.2289 48.6156C44.217 48.6034 44.2081 48.5885 44.203 48.5723C44.1978 48.5561 44.1964 48.5388 44.199 48.522C44.2016 48.5051 44.2081 48.4891 44.2179 48.4752C44.2277 48.4612 44.2407 48.4498 44.2557 48.4417L78.8697 28.4553C78.9038 28.4377 78.9428 28.4321 78.9804 28.4394C79.018 28.4467 79.0521 28.4664 79.0771 28.4954C79.0889 28.5079 79.0975 28.5229 79.1025 28.5393C79.1074 28.5557 79.1084 28.573 79.1055 28.5899C79.1026 28.6068 79.0958 28.6227 79.0857 28.6365C79.0755 28.6503 79.0623 28.6616 79.047 28.6694L44.4296 48.6524C44.4103 48.6641 44.3885 48.671 44.366 48.6725Z" fill="white"/>
<path d="M44.9546 52.8403C44.9289 52.842 44.9032 52.8378 44.8794 52.8279C44.8556 52.8181 44.8344 52.8029 44.8175 52.7835C44.8058 52.771 44.7971 52.756 44.7921 52.7396C44.7872 52.7232 44.7862 52.7058 44.7891 52.689C44.792 52.6721 44.7988 52.6561 44.809 52.6423C44.8191 52.6285 44.8324 52.6173 44.8476 52.6095L79.4583 32.6231C79.4929 32.6053 79.5324 32.5996 79.5706 32.6068C79.6088 32.6141 79.6435 32.634 79.6691 32.6633C79.6802 32.676 79.6883 32.6911 79.6929 32.7074C79.6974 32.7236 79.6983 32.7407 79.6954 32.7574C79.6925 32.7741 79.686 32.7899 79.6762 32.8037C79.6664 32.8175 79.6537 32.8289 79.639 32.8372L45.0349 52.8202C45.011 52.8355 44.9829 52.8425 44.9546 52.8403Z" fill="white"/>
<path d="M45.5501 57.0082C45.5244 57.0099 45.4987 57.0057 45.4749 56.9958C45.4511 56.9859 45.4299 56.9707 45.413 56.9513C45.4012 56.9385 45.3925 56.9232 45.3876 56.9066C45.3827 56.8899 45.3816 56.8724 45.3845 56.8553C45.3874 56.8382 45.3942 56.8219 45.4044 56.8079C45.4145 56.7938 45.4277 56.7822 45.4431 56.774L80.0572 36.791C80.0912 36.7734 80.1302 36.7678 80.1678 36.7751C80.2054 36.7824 80.2395 36.8021 80.2645 36.8311C80.2763 36.8436 80.2849 36.8586 80.2899 36.875C80.2948 36.8914 80.2958 36.9087 80.2929 36.9256C80.29 36.9425 80.2832 36.9584 80.2731 36.9722C80.2629 36.986 80.2497 36.9973 80.2344 37.0051L45.6237 56.9881C45.6014 57.0013 45.576 57.0082 45.5501 57.0082Z" fill="white"/>
<path d="M46.1488 61.176C46.1236 61.1827 46.0971 61.1827 46.0719 61.176C46.0486 61.1679 46.0279 61.1537 46.012 61.1349C45.9962 61.1161 45.9856 61.0933 45.9816 61.069L43.5933 44.3975C43.5915 44.3748 43.5962 44.352 43.6069 44.3319C43.6175 44.3118 43.6337 44.2951 43.6535 44.2838L78.2642 24.3007C78.2876 24.2892 78.3134 24.2832 78.3395 24.2832C78.3656 24.2832 78.3913 24.2892 78.4147 24.3007C78.4371 24.3093 78.457 24.3233 78.4727 24.3414C78.4885 24.3594 78.4996 24.3811 78.505 24.4044L80.89 41.0759C80.893 41.0984 80.8891 41.1212 80.879 41.1415C80.8688 41.1617 80.8529 41.1785 80.8332 41.1896L46.2191 61.156C46.1982 61.1696 46.1737 61.1766 46.1488 61.176ZM43.901 44.451L46.2425 60.8415L80.5823 41.0157L78.2408 24.6252L43.901 44.451Z" fill="white"/>
</g>
<path d="M54.8124 28.8233C54.813 29.032 54.7872 29.2399 54.7355 29.4421C54.6886 29.6289 54.6178 29.8088 54.5247 29.9773C54.4421 30.1334 54.3385 30.2774 54.217 30.4055C54.1081 30.5197 53.9844 30.6187 53.849 30.6998C53.7322 30.7727 53.601 30.8195 53.4644 30.837C53.3602 30.8496 53.2547 30.8285 53.1633 30.7768C53.0703 30.7164 52.9998 30.627 52.9626 30.5226C52.9092 30.3816 52.8831 30.2317 52.8857 30.081C52.8859 30.0498 52.8928 30.0191 52.9057 29.9907C52.9151 29.9655 52.9328 29.9442 52.9559 29.9305L53.3707 29.6897C53.4108 29.6662 53.4376 29.6629 53.451 29.6729C53.4713 29.7007 53.485 29.7327 53.4911 29.7666C53.4966 29.8046 53.5101 29.841 53.5309 29.8734C53.5517 29.9057 53.5792 29.9332 53.6115 29.9539C53.6651 29.9807 53.7453 29.9539 53.849 29.9037C53.9701 29.8325 54.0668 29.7264 54.1267 29.5993C54.1902 29.4539 54.221 29.2964 54.217 29.1377V27.7462L53.1131 28.3851C53.1042 28.3924 53.0929 28.3964 53.0814 28.3964C53.0698 28.3964 53.0585 28.3924 53.0496 28.3851C53.0315 28.3625 53.0231 28.3336 53.0262 28.3048V27.7763C53.0259 27.7393 53.0339 27.7028 53.0496 27.6693C53.0624 27.6378 53.0846 27.6109 53.1131 27.5923L54.7355 26.6557C54.7439 26.6487 54.7546 26.6448 54.7656 26.6448C54.7766 26.6448 54.7872 26.6487 54.7957 26.6557C54.8059 26.6662 54.8136 26.6789 54.8183 26.6928C54.8229 26.7067 54.8243 26.7215 54.8224 26.736L54.8124 28.8233Z" fill="#455A64"/>
<path d="M55.2406 29.1109C55.2411 28.8876 55.2974 28.668 55.4045 28.472C55.5409 28.2329 55.7214 28.0218 55.9364 27.8498L56.3143 27.5321C56.3206 27.4718 56.3052 27.4113 56.2709 27.3615C56.2441 27.3247 56.1939 27.328 56.127 27.3615C56.0818 27.3855 56.042 27.4185 56.0099 27.4585C55.9891 27.4885 55.9701 27.5198 55.9531 27.5521C55.9379 27.5814 55.9188 27.6084 55.8962 27.6324C55.8783 27.6506 55.8581 27.6664 55.836 27.6792L55.4246 27.9167C55.4166 27.9218 55.4073 27.9245 55.3978 27.9245C55.3883 27.9245 55.3791 27.9218 55.3711 27.9167C55.366 27.9057 55.3633 27.8937 55.3633 27.8816C55.3633 27.8695 55.366 27.8575 55.3711 27.8465C55.3775 27.7523 55.3989 27.6597 55.4346 27.5722C55.4773 27.4558 55.5311 27.3438 55.5952 27.2377C55.6652 27.1254 55.7459 27.0201 55.836 26.9233C55.9265 26.8277 56.0301 26.7455 56.1437 26.6791C56.2446 26.6133 56.3589 26.571 56.4782 26.5553C56.5642 26.5457 56.6505 26.5696 56.7191 26.6222C56.789 26.6839 56.838 26.7657 56.8596 26.8564C56.8928 26.9784 56.9086 27.1045 56.9064 27.231V28.7396C56.9059 28.7769 56.8967 28.8135 56.8797 28.8466C56.8679 28.8778 56.8469 28.9046 56.8194 28.9236L56.4114 29.1577C56.4029 29.1648 56.3923 29.1687 56.3812 29.1687C56.3702 29.1687 56.3596 29.1648 56.3511 29.1577C56.3416 29.1468 56.3344 29.134 56.3298 29.1203C56.3252 29.1065 56.3233 29.0919 56.3244 29.0774V28.9403C56.2729 29.0589 56.2078 29.1712 56.1304 29.2748C56.0476 29.3802 55.9454 29.4688 55.8293 29.5357C55.7546 29.5829 55.6698 29.6115 55.5818 29.6193C55.5162 29.6221 55.4519 29.6007 55.4012 29.5591C55.3471 29.5094 55.3078 29.4457 55.2874 29.3752C55.2609 29.2894 55.2452 29.2006 55.2406 29.1109ZM55.9765 28.7965C56.0285 28.7683 56.0741 28.7296 56.1103 28.6827C56.1524 28.6326 56.1884 28.5776 56.2173 28.5188C56.2476 28.458 56.2712 28.3941 56.2876 28.3282C56.3043 28.2625 56.3132 28.1952 56.3143 28.1275L56.0166 28.3683C55.9618 28.4155 55.9144 28.4708 55.8761 28.5322C55.8412 28.5884 55.8226 28.6533 55.8226 28.7195C55.8226 28.7831 55.8226 28.8165 55.8628 28.8266C55.9029 28.8366 55.9263 28.8266 55.9765 28.7965Z" fill="#455A64"/>
<path d="M59.1408 27.4583C59.1415 27.4968 59.1323 27.5348 59.114 27.5687C59.1022 27.5999 59.0812 27.6267 59.0538 27.6456L58.6457 27.8798C58.6373 27.8869 58.6266 27.8907 58.6156 27.8907C58.6046 27.8907 58.5939 27.8869 58.5855 27.8798C58.576 27.8688 58.5687 27.8561 58.5641 27.8423C58.5595 27.8285 58.5577 27.814 58.5587 27.7995V26.5217C58.5673 26.4158 58.544 26.3098 58.4918 26.2173C58.445 26.1571 58.3748 26.1571 58.2778 26.2173C58.1797 26.2746 58.1051 26.3646 58.067 26.4715C58.0193 26.5929 57.9966 26.7225 58.0001 26.8529V28.1106C57.9992 28.1489 57.9901 28.1865 57.9734 28.221C57.9616 28.2521 57.9406 28.279 57.9131 28.2979L57.5051 28.532C57.4961 28.5394 57.4849 28.5434 57.4733 28.5434C57.4617 28.5434 57.4505 28.5394 57.4415 28.532C57.4235 28.5094 57.4151 28.4806 57.4181 28.4518V26.1303C57.4177 26.0923 57.4257 26.0546 57.4415 26.02C57.4554 25.99 57.4774 25.9645 57.5051 25.9464L57.8964 25.7189C57.9049 25.7118 57.9155 25.7079 57.9265 25.7079C57.9375 25.7079 57.9482 25.7118 57.9566 25.7189C57.9662 25.7291 57.9736 25.7413 57.9782 25.7545C57.9828 25.7678 57.9846 25.7819 57.9834 25.7958V25.9129C58.0001 25.8694 58.0235 25.8226 58.0469 25.7691C58.0745 25.7167 58.1058 25.6664 58.1406 25.6186C58.1793 25.5675 58.2218 25.5194 58.2677 25.4747C58.3197 25.4271 58.3769 25.3856 58.4383 25.351C58.524 25.2965 58.6215 25.2632 58.7226 25.254C58.7633 25.2501 58.8043 25.255 58.843 25.2683C58.8816 25.2815 58.917 25.3029 58.9468 25.3309C59.0172 25.4074 59.0667 25.5007 59.0906 25.6018C59.1278 25.7584 59.1447 25.9192 59.1408 26.0802V27.4583Z" fill="#455A64"/>
<path d="M59.6459 24.8494C59.6472 24.8122 59.6563 24.7757 59.6726 24.7423C59.6844 24.7111 59.7054 24.6843 59.7328 24.6654L60.1409 24.4312C60.1494 24.4242 60.16 24.4203 60.171 24.4203C60.182 24.4203 60.1927 24.4242 60.2011 24.4312C60.2107 24.4422 60.2179 24.4549 60.2225 24.4687C60.2271 24.4825 60.2289 24.497 60.2279 24.5115V25.7726C60.2203 25.8787 60.2411 25.9849 60.2881 26.0803C60.3316 26.1439 60.3985 26.1472 60.4922 26.0803C60.5877 26.0266 60.6603 25.9397 60.6962 25.8361C60.7381 25.7146 60.7584 25.5867 60.7564 25.4581V24.1971C60.7561 24.159 60.7641 24.1213 60.7798 24.0867C60.7927 24.0561 60.815 24.0303 60.8434 24.0131L61.2515 23.7756C61.2599 23.7685 61.2706 23.7646 61.2816 23.7646C61.2926 23.7646 61.3032 23.7685 61.3117 23.7756C61.3304 23.7967 61.34 23.8244 61.3384 23.8525V26.1874C61.3375 26.2256 61.3284 26.2633 61.3117 26.2977C61.2991 26.3284 61.2782 26.355 61.2515 26.3747L60.8735 26.5888C60.8651 26.5958 60.8544 26.5997 60.8434 26.5997C60.8324 26.5997 60.8217 26.5958 60.8133 26.5888C60.8038 26.5778 60.7965 26.5651 60.7919 26.5513C60.7873 26.5375 60.7855 26.523 60.7865 26.5085V26.3947C60.7689 26.4442 60.7477 26.4923 60.723 26.5386C60.6978 26.5905 60.6675 26.6398 60.6326 26.6858C60.594 26.7369 60.5515 26.7849 60.5055 26.8296C60.4523 26.8781 60.394 26.9207 60.3316 26.9567C60.1209 27.0771 59.957 27.0838 59.8332 26.9567C59.6751 26.7398 59.6079 26.4698 59.6459 26.2041V24.8494Z" fill="#455A64"/>
<path d="M61.76 25.341C61.762 25.119 61.8183 24.9008 61.9239 24.7055C62.0616 24.4673 62.2419 24.2564 62.4558 24.0833L62.8338 23.7488C62.8391 23.6891 62.8251 23.6292 62.7936 23.5782C62.7635 23.5414 62.7167 23.5447 62.6464 23.5782C62.6017 23.6015 62.5628 23.6347 62.5327 23.6752C62.5109 23.7053 62.4908 23.7365 62.4725 23.7689C62.4583 23.7979 62.4403 23.8249 62.419 23.8491C62.3998 23.8674 62.3785 23.8831 62.3554 23.896L61.944 24.1335C61.936 24.1385 61.9267 24.1412 61.9172 24.1412C61.9078 24.1412 61.8985 24.1385 61.8905 24.1335C61.882 24.1108 61.882 24.0859 61.8905 24.0632C61.8982 23.9677 61.9207 23.8741 61.9574 23.7856C61.9979 23.6689 62.0506 23.5568 62.1146 23.4511C62.1869 23.3395 62.2686 23.2343 62.3588 23.1366C62.4474 23.0405 62.55 22.9581 62.6632 22.8925C62.7644 22.8274 62.8785 22.7852 62.9977 22.7687C63.0836 22.759 63.1699 22.783 63.2385 22.8356C63.3084 22.8973 63.3574 22.9791 63.379 23.0697C63.4122 23.1918 63.428 23.3179 63.4258 23.4444V24.953C63.4253 24.9903 63.4161 25.0269 63.3991 25.06C63.3872 25.0922 63.3648 25.1193 63.3355 25.137L62.9308 25.3711C62.904 25.3711 62.8839 25.3711 62.8672 25.3711C62.8577 25.3601 62.8504 25.3474 62.8458 25.3336C62.8412 25.3199 62.8394 25.3053 62.8404 25.2908V25.1838C62.7913 25.3029 62.7273 25.4153 62.6498 25.5183C62.5669 25.6248 62.4634 25.7136 62.3454 25.7792C62.2709 25.8268 62.186 25.8556 62.0979 25.8628C62.0325 25.8644 61.9686 25.8431 61.9172 25.8026C61.8654 25.7517 61.8274 25.6883 61.8068 25.6186C61.7777 25.5289 61.7619 25.4353 61.76 25.341ZM62.4993 25.0299C62.5496 25.0007 62.5939 24.9621 62.6297 24.9162C62.673 24.8669 62.709 24.8117 62.7368 24.7523C62.7667 24.691 62.7914 24.6272 62.8103 24.5616C62.8262 24.4948 62.834 24.4263 62.8338 24.3576L62.5361 24.6018C62.4812 24.649 62.4338 24.7042 62.3956 24.7657C62.3621 24.8225 62.3437 24.887 62.342 24.953C62.342 25.0132 62.342 25.05 62.3822 25.06C62.4032 25.0641 62.4249 25.0635 62.4457 25.0583C62.4665 25.0531 62.4859 25.0434 62.5026 25.0299H62.4993Z" fill="#455A64"/>
<path d="M65.1049 21.5547C65.1134 21.5476 65.124 21.5437 65.135 21.5437C65.146 21.5437 65.1567 21.5476 65.1651 21.5547C65.1852 21.5547 65.1919 21.5948 65.1919 21.6316V22.1367C65.193 22.1742 65.1837 22.2112 65.1651 22.2437C65.1533 22.2749 65.1323 22.3017 65.1049 22.3207L64.8106 22.4913C64.708 22.5587 64.626 22.653 64.5735 22.7639C64.521 22.8749 64.5 22.9981 64.5129 23.1201V24.3444C64.5132 24.3825 64.5052 24.4201 64.4894 24.4548C64.4755 24.4856 64.4535 24.5122 64.4259 24.5317L64.0178 24.7659C64.0094 24.7729 63.9987 24.7768 63.9877 24.7768C63.9767 24.7768 63.966 24.7729 63.9576 24.7659C63.9481 24.7549 63.9408 24.7422 63.9362 24.7284C63.9316 24.7146 63.9298 24.7001 63.9308 24.6856V22.3642C63.9317 22.3259 63.9409 22.2882 63.9576 22.2538C63.9694 22.2235 63.9905 22.1977 64.0178 22.1802L64.3924 21.9628C64.4192 21.9628 64.4393 21.9628 64.456 21.9628C64.4655 21.9737 64.4728 21.9864 64.4774 22.0002C64.482 22.014 64.4838 22.0285 64.4828 22.043V22.1735C64.5302 22.073 64.5898 21.9786 64.66 21.8925C64.729 21.8056 64.8142 21.7329 64.9109 21.6784L65.1049 21.5547Z" fill="#455A64"/>
<path d="M66.463 24.1803C66.4556 24.2134 66.4455 24.2458 66.4329 24.2773C66.4202 24.3089 66.398 24.3358 66.3694 24.3543L65.9479 24.5984C65.94 24.6053 65.9299 24.609 65.9195 24.609C65.909 24.609 65.8989 24.6053 65.891 24.5984C65.8743 24.5777 65.866 24.5514 65.8676 24.5249C65.8676 24.5249 65.8676 24.5014 65.8676 24.4881L66.1151 23.4545L65.4662 21.5043C65.4644 21.4932 65.4644 21.4819 65.4662 21.4709C65.4664 21.4375 65.4732 21.4045 65.4863 21.3739C65.4988 21.3468 65.5185 21.3237 65.5431 21.307L65.9646 21.0628C65.9733 21.0548 65.9846 21.0503 65.9964 21.0503C66.0082 21.0503 66.0195 21.0548 66.0282 21.0628C66.0426 21.0821 66.0538 21.1035 66.0616 21.1263L66.4195 22.2135L66.7741 20.7116C66.7812 20.678 66.7925 20.6454 66.8076 20.6145C66.8191 20.5833 66.8402 20.5564 66.8678 20.5376L67.2959 20.2934C67.3033 20.2868 67.3128 20.2832 67.3227 20.2832C67.3326 20.2832 67.3421 20.2868 67.3494 20.2934C67.3582 20.3034 67.3648 20.3151 67.3688 20.3278C67.3728 20.3404 67.3742 20.3538 67.3729 20.367C67.3745 20.3792 67.3745 20.3916 67.3729 20.4038L66.463 24.1803Z" fill="#455A64"/>
<path d="M76.7823 31.0743L77.0733 31.4858C77.0814 31.4979 77.0935 31.5069 77.1076 31.5112C77.1216 31.5154 77.1367 31.5147 77.1502 31.5092L77.6419 31.3185C77.7189 31.2884 77.7657 31.3854 77.7222 31.4824L77.4345 32.0979C77.4201 32.1356 77.4201 32.1773 77.4345 32.215L77.6018 32.7535C77.6285 32.8405 77.5583 32.9576 77.4847 32.9542L77.0164 32.9241C76.9988 32.9241 76.9815 32.9287 76.9662 32.9375C76.9509 32.9463 76.9383 32.959 76.9294 32.9743L76.5414 33.4961C76.4779 33.5797 76.3909 33.5563 76.3876 33.456V32.8204C76.389 32.8033 76.3856 32.7862 76.378 32.7708C76.3703 32.7555 76.3586 32.7426 76.3441 32.7334L75.9393 32.5194C75.8758 32.4859 75.8891 32.3521 75.9627 32.2952L76.431 31.9306C76.4611 31.9043 76.4822 31.8692 76.4913 31.8303L76.6284 31.1613C76.6351 31.0676 76.7354 31.0108 76.7823 31.0743Z" fill="#F28F8F"/>
<path d="M79.6357 30.9138C79.5874 30.5828 79.4427 30.2733 79.2196 30.0241C78.9965 29.7748 78.705 29.5968 78.3813 29.5122C77.4447 29.2747 76.7824 29.917 76.2974 30.4522C76.1703 30.596 76.4446 30.6495 76.5483 30.5492C77.0567 30.0574 78.0569 29.5457 78.766 30.1478C79.4751 30.7499 79.2845 31.6764 79.0671 32.3688C78.8597 33.0226 78.4498 33.5934 77.8966 33.9987C77.3433 34.404 76.6755 34.6228 75.9897 34.6234C72.6112 34.5464 75.508 29.3483 77.4481 28.9804C77.6053 28.9503 77.6856 28.7328 77.4681 28.7128C76.4646 28.6124 75.8492 29.4052 75.3073 30.0073C74.711 30.6495 74.2694 31.4195 74.0161 32.2585C73.5712 33.8105 74.8222 35.6403 76.9028 34.9579C78.7259 34.3591 80.0003 32.6766 79.6357 30.9138Z" fill="#F28F8F"/>
<path d="M55.7088 49.2879C55.6606 48.9569 55.5158 48.6475 55.2928 48.3982C55.0697 48.1489 54.7781 47.9709 54.4545 47.8864C53.5179 47.6489 52.8555 48.2878 52.3705 48.8263C52.2434 48.9668 52.5177 49.0203 52.6214 48.9233C53.1298 48.4316 54.13 47.9198 54.8391 48.5219C55.5483 49.124 55.3576 50.0506 55.1402 50.743C54.9329 51.3967 54.5229 51.9676 53.9697 52.3729C53.4165 52.7782 52.7486 52.9969 52.0628 52.9975C48.6843 52.9206 51.5811 47.7225 53.5212 47.3545C53.6784 47.3244 53.7587 47.107 53.5413 47.0836C52.5378 46.9866 51.9223 47.7793 51.3804 48.3814C50.7835 49.0232 50.3418 49.7933 50.0892 50.6326C49.6443 52.1813 50.8954 54.0144 52.976 53.332C54.799 52.7333 56.0734 51.0474 55.7088 49.2879Z" fill="#F28F8F"/>
<path d="M9.90711 76.7052L6.74731 82.8707C6.63723 83.0609 6.56656 83.2712 6.53953 83.4892C6.5125 83.7073 6.52965 83.9285 6.58997 84.1397C6.65029 84.351 6.75253 84.5479 6.8906 84.7188C7.02867 84.8897 7.19974 85.031 7.39361 85.1344C7.58748 85.2377 7.80018 85.301 8.01902 85.3203C8.23786 85.3397 8.45836 85.3148 8.66736 85.2471C8.87637 85.1794 9.0696 85.0703 9.23554 84.9263C9.40148 84.7824 9.53672 84.6064 9.63319 84.4091L12.8126 78.2093C13.1207 77.615 12.7196 76.7957 11.915 76.3824C11.1104 75.9691 10.2128 76.1109 9.90711 76.7052Z" fill="#455A64"/>
<path d="M34.5962 63.7992L40.7617 66.959C41.1427 67.1452 41.581 67.1763 41.9844 67.0456C42.3877 66.915 42.7246 66.6329 42.9241 66.2587C43.1235 65.8846 43.1699 65.4476 43.0535 65.0399C42.9371 64.6322 42.667 64.2856 42.3001 64.0731L36.1003 60.8938C35.506 60.5856 34.6867 60.9892 34.2709 61.7913C33.8552 62.5935 34.0019 63.4935 34.5962 63.7992Z" fill="#455A64"/>
<path d="M39.9228 36.4497L39.8934 36.435L28.7534 30.7195L28.7118 30.6999C25.4175 29.032 21.0153 29.5211 16.2756 32.5733C6.75461 38.7046 -0.518806 52.8454 0.0290231 64.1566C0.302938 69.7964 2.47469 73.6654 5.75188 75.37L5.78123 75.3847L16.9261 81.1002L16.9604 81.1173C20.2571 82.7926 24.6618 82.3035 29.4064 79.2489C38.9274 73.1151 46.2008 58.9767 45.6505 47.6631C45.3717 42.0258 43.2073 38.1567 39.9228 36.4497Z" fill="#EE811D"/>
<path opacity="0.1" d="M16.6767 80.9681L5.78858 75.3797L5.75678 75.3601C2.47714 73.6482 0.310281 69.7791 0.0363665 64.1492C-0.2082 59.1038 1.10512 53.5008 3.47498 48.2964L14.593 54.0144C12.228 59.2187 10.9245 64.8218 11.169 69.8672C11.4332 75.3846 13.512 79.2072 16.6767 80.9681Z" fill="white"/>
<path opacity="0.4" d="M41.3014 65.4011C47.6458 53.0668 47.0159 40.0983 39.8944 36.4352C32.773 32.7722 21.8567 39.8016 15.5123 52.1359C9.16784 64.4703 9.79774 77.4387 16.9192 81.1018C24.0407 84.7649 34.9569 77.7355 41.3014 65.4011Z" fill="white"/>
<path d="M21.4213 78.4588C15.7963 78.7328 14.8963 72.4205 14.7618 69.6936C14.2726 59.7177 20.964 46.719 29.36 41.3238C31.4975 39.9469 33.5836 39.1741 35.391 39.086C41.016 38.8121 41.9185 45.1244 42.0505 47.8513C42.5397 57.8272 35.8508 70.8259 27.4524 76.2333C25.3148 77.6102 23.2287 78.383 21.4238 78.4711L21.4213 78.4588Z" fill="#FAFAFA"/>
<path d="M26.0607 71.946C26.0317 71.9466 26.0028 71.9424 25.9751 71.9338C25.91 71.9145 25.8552 71.8702 25.8227 71.8106C25.7901 71.751 25.7825 71.681 25.8015 71.6158L29.1887 60.1994C29.1982 60.1673 29.2139 60.1374 29.235 60.1113C29.256 60.0853 29.282 60.0636 29.3114 60.0476C29.3408 60.0316 29.3731 60.0216 29.4064 60.018C29.4397 60.0145 29.4733 60.0175 29.5054 60.027C29.5376 60.0365 29.5675 60.0522 29.5935 60.0733C29.6196 60.0943 29.6412 60.1203 29.6572 60.1497C29.6733 60.1791 29.6833 60.2114 29.6869 60.2447C29.6904 60.278 29.6873 60.3116 29.6779 60.3437L26.2955 71.7601C26.2798 71.8112 26.2489 71.8563 26.207 71.8895C26.1651 71.9227 26.1141 71.9424 26.0607 71.946Z" fill="#EE811D"/>
<path d="M35.6258 57.1621C35.5707 57.2528 35.4974 57.3311 35.4106 57.392L29.7562 61.3809L20.6338 55.8048C20.5475 55.7519 20.4723 55.6826 20.4127 55.6007C20.3531 55.5189 20.3102 55.426 20.2865 55.3276C20.2628 55.2291 20.2586 55.127 20.2744 55.027C20.2901 54.9269 20.3254 54.831 20.3783 54.7446C20.4311 54.6582 20.5004 54.583 20.5823 54.5234C20.6642 54.4638 20.757 54.4209 20.8554 54.3972C20.9539 54.3735 21.0561 54.3694 21.1561 54.3851C21.2561 54.4009 21.3521 54.4362 21.4385 54.489L29.6877 59.532L34.5277 56.1227C34.673 56.0213 34.8488 55.973 35.0255 55.9857C35.2023 55.9985 35.3693 56.0717 35.4985 56.1929C35.6278 56.3141 35.7114 56.4761 35.7355 56.6516C35.7595 56.8272 35.7225 57.0057 35.6307 57.1572L35.6258 57.1621Z" fill="#37474F"/>
<path d="M29.3134 57.7879C30.4335 57.0664 31.3947 57.5605 31.4607 58.8909C31.5268 60.2213 30.6683 61.8844 29.5482 62.6059C28.4281 63.3273 27.4669 62.8333 27.4034 61.5029C27.3398 60.1724 28.1933 58.5094 29.3134 57.7879Z" fill="#EE811D"/>
<path d="M35.1538 18.6402C35.4907 18.3664 35.9191 18.2309 36.3521 18.2611C36.5752 18.2779 36.7992 18.2779 37.0222 18.2611C37.1677 18.2526 37.3087 18.2073 37.4319 18.1294C37.5551 18.0516 37.6565 17.9437 37.7266 17.816C37.7584 17.7475 37.7755 17.6766 37.8073 17.6105C37.8587 17.5054 37.9418 17.4198 37.9981 17.3171C38.0794 17.1675 38.1012 16.9928 38.0592 16.8279C38.0348 16.7675 38.0255 16.702 38.0323 16.6372C38.0496 16.5832 38.0789 16.5339 38.1179 16.4929C38.1906 16.3924 38.2349 16.2742 38.2461 16.1506C38.2573 16.0271 38.235 15.9029 38.1815 15.791C38.1478 15.7344 38.12 15.6746 38.0983 15.6124C38.0665 15.4779 38.1399 15.3434 38.1448 15.2064C38.1717 14.5926 37.1519 14.6806 36.7875 14.7638C36.6847 14.7882 36.1736 14.8909 35.9413 14.9472C35.9938 14.6117 35.9938 14.2702 35.9413 13.9347C35.8557 13.2866 35.2369 12.9809 35.1635 13.3624C35.122 13.5801 35.1635 14.1915 34.9019 14.7002C34.7423 14.9254 34.6162 15.1725 34.5277 15.4339C34.4323 15.7787 34.3149 16.0208 33.5494 16.7521C32.8353 17.4344 30.1255 19.6062 30.1255 19.6062C30.1255 19.6062 27.2812 14.6904 26.5768 13.382C25.1559 10.7235 22.6442 11.2836 22.6442 11.2836L23.1822 14.8127C23.1822 14.8127 27.7067 21.9883 28.482 22.9788C29.2572 23.9693 30.2942 23.6636 30.8518 23.1646C31.6565 22.4481 33.7475 20.0293 35.1538 18.6402Z" fill="#B16668"/>
<path d="M22.2699 11.3276C22.2699 11.3276 24.4172 10.8165 25.4688 11.8167C26.4471 12.7461 26.8457 13.5287 28.0955 15.9059C29.2449 18.0825 30.052 19.3298 30.052 19.3298C30.052 19.3298 29.0566 21.5309 27.2493 21.394L24.4343 17.2706L22.2699 11.3276Z" fill="#EE811D"/>
<path opacity="0.6" d="M22.2699 11.3276C22.2699 11.3276 24.4172 10.8165 25.4688 11.8167C26.4471 12.7461 26.8457 13.5287 28.0955 15.9059C29.2449 18.0825 30.052 19.3298 30.052 19.3298C30.052 19.3298 29.0566 21.5309 27.2493 21.394L24.4343 17.2706L22.2699 11.3276Z" fill="white"/>
<path d="M36.2029 15.1748C35.9143 15.258 35.7284 15.4561 35.6477 15.9648C35.5988 16.268 35.3714 16.7865 35.0045 16.943C35.1651 16.9539 35.3252 16.9165 35.4643 16.8354C35.6477 16.7033 35.6917 16.6936 35.7627 16.8012C35.816 16.8727 35.8856 16.9306 35.9657 16.9699C35.899 17.0236 35.8513 17.0972 35.8298 17.18C35.8082 17.2628 35.8138 17.3504 35.8458 17.4297C35.9559 17.7159 36.6602 17.8504 37.2912 17.6572C37.2912 17.6572 36.3007 17.777 36.1369 17.4419C35.973 17.1069 36.5379 16.8207 36.9244 16.7865C36.9244 16.7865 35.9803 16.8403 35.8947 16.5175C35.8091 16.1946 36.2249 16.0283 36.7825 16.0014C36.7825 16.0014 36.0097 16.0014 35.9265 15.7251C35.8986 15.6155 35.9111 15.4994 35.9619 15.3983C36.0127 15.2972 36.0983 15.2178 36.2029 15.1748Z" fill="#9A4A4D"/>
<path d="M25.8724 18.3149C25.8724 18.3149 25.5472 20.0929 25.8431 21.5921C26.139 23.0913 26.3567 24.3655 26.3567 24.3655C26.3567 24.3655 25.4493 25.4049 23.7325 25.1677C21.864 24.9085 22.4338 20.4745 23.5075 19.3861C24.1309 18.7413 24.9766 18.3583 25.8724 18.3149Z" fill="#EE811D"/>
<path opacity="0.5" d="M25.8724 18.3149C25.8724 18.3149 25.5472 20.0929 25.8431 21.5921C26.139 23.0913 26.3567 24.3655 26.3567 24.3655C26.3567 24.3655 25.4493 25.4049 23.7325 25.1677C21.864 24.9085 22.4338 20.4745 23.5075 19.3861C24.1309 18.7413 24.9766 18.3583 25.8724 18.3149Z" fill="white"/>
<path d="M25.6818 54.0658L25.9263 54.0266C25.9263 53.2929 25.8701 52.6081 26.0486 52.256L25.6915 51.3535L25.6818 54.0658Z" fill="#263238"/>
<path d="M25.0336 50.7053C25.0972 51.2116 25.3955 51.7276 25.4371 52.7279C25.4687 53.1537 25.4687 53.5812 25.4371 54.007L25.6817 54.0657V51.3534L25.0336 50.7053Z" fill="#263238"/>
<path d="M30.864 54.6406C30.8521 54.7781 30.7983 54.9087 30.7099 55.0148C30.5827 55.115 30.1841 55.4501 28.8781 55.4012C27.5721 55.3523 27.1099 55.0392 26.6574 54.6406C26.205 54.2419 26.0631 53.1732 25.9873 52.684C25.8717 51.9513 25.5395 51.2699 25.0335 50.7275C24.9666 50.5675 24.9495 50.3911 24.9846 50.2212C25.3283 50.2184 25.6644 50.3232 25.9455 50.521C26.2267 50.7188 26.4389 50.9997 26.5522 51.3242C27.0414 52.508 27.4376 53.8873 28.4966 54.1955C29.2737 54.4018 30.0649 54.5506 30.864 54.6406Z" fill="#263238"/>
<path d="M30.1792 53.508C30.5852 53.8431 30.8909 53.9972 30.8616 54.3102C30.8322 54.6233 30.4996 54.7822 30.2306 54.8678C29.5947 55.0733 28.8684 55.0072 28.2252 54.907C27.5819 54.8067 26.858 54.5181 26.5768 53.9067C26.5 53.7272 26.445 53.5392 26.4129 53.3466C26.3108 52.7107 26.1335 52.0893 25.8847 51.4952C25.7828 51.2463 25.6584 51.0073 25.5129 50.7811C25.3077 50.5532 25.163 50.2774 25.0923 49.9789C25.0605 49.7344 25.2488 49.3651 25.4933 48.9762C25.6173 48.8088 25.7065 48.6182 25.7557 48.4157C25.8048 48.2133 25.8129 48.003 25.7795 47.7974L25.6743 45.9558L28.5847 46.5892C28.5847 46.5892 28.3523 48.1936 28.3401 48.6118C28.3252 49.2279 28.3885 49.8434 28.5284 50.4436C28.705 51.1638 28.9678 51.8602 29.311 52.5175C29.3923 52.6862 29.4969 52.8426 29.6216 52.9822C29.7944 53.1709 29.9808 53.3466 30.1792 53.508Z" fill="#B16668"/>
<path d="M25.0825 49.4555C25.261 49.1254 25.5105 48.9224 25.6816 48.6362C25.8355 48.8806 25.9557 49.1447 26.0387 49.4213C26.1219 49.6805 26.3567 50.9547 26.6942 51.9672C26.9387 52.7278 27.3496 53.124 27.8999 53.3197C28.2453 53.443 28.6162 53.4775 28.9784 53.42C29.6534 53.3124 29.4847 52.8306 29.4847 52.8306C29.8853 53.2171 30.3227 53.5636 30.7906 53.8651C30.8997 53.9585 30.9679 54.0909 30.9807 54.2339C30.9935 54.3769 30.9498 54.5193 30.8591 54.6306C30.6733 54.7969 30.0398 55.2053 28.4135 55.0047C26.973 54.8262 26.6232 54.1683 26.4814 53.8724C26.3289 53.4365 26.2191 52.9869 26.1537 52.5297C26.0629 52.0286 25.8822 51.5481 25.6205 51.1112C25.5907 51.0589 25.5581 51.0083 25.5227 50.9596C25.414 50.8044 25.2973 50.655 25.1729 50.5121C25.0702 50.3922 24.992 50.336 24.9602 50.221C24.9061 49.9595 24.9496 49.6872 25.0825 49.4555Z" fill="#37474F"/>
<path d="M30.6439 51.899L30.8885 51.8648C30.9105 51.1311 30.8738 50.4463 31.0597 50.099L30.7344 49.1868L30.6439 51.899Z" fill="#263238"/>
<path d="M30.0912 48.5261C30.1401 49.0324 30.4238 49.5557 30.436 50.5585C30.4569 50.9843 30.4446 51.4112 30.3993 51.8351L30.6439 51.9036L30.7344 49.1865L30.0912 48.5261Z" fill="#263238"/>
<path d="M35.8068 52.6106C35.7912 52.748 35.7331 52.8771 35.6405 52.9798C35.5133 53.0752 35.1049 53.3834 33.8013 53.2953C32.4978 53.2073 32.0429 52.8991 31.6002 52.4883C31.1576 52.0774 31.05 51.0209 30.9888 50.5073C30.8955 49.7703 30.5828 49.0784 30.0913 48.5214C30.0306 48.3588 30.0187 48.182 30.057 48.0127C30.4007 48.0199 30.7334 48.1343 31.0088 48.34C31.2842 48.5457 31.4884 48.8323 31.5929 49.1597C32.0478 50.3581 32.4024 51.7472 33.4541 52.0945C34.2247 52.3235 35.011 52.4959 35.8068 52.6106Z" fill="#263238"/>
<path d="M35.1538 51.4609C35.55 51.8082 35.8508 51.9647 35.8141 52.2826C35.7774 52.6006 35.4375 52.7424 35.166 52.8207C34.5051 52.9693 33.8188 52.9635 33.1606 52.8035C32.5027 52.6788 31.8057 52.3756 31.5391 51.7617C31.4672 51.58 31.4171 51.3903 31.3899 51.1967C31.3062 50.5589 31.1469 49.9333 30.9155 49.3331C30.8225 49.0776 30.7046 48.8318 30.5633 48.5994C30.3649 48.3647 30.2286 48.0838 30.1671 47.7826C30.1426 47.538 30.3407 47.1736 30.5975 46.8043C30.8886 46.3739 30.9815 46.2027 30.9815 45.4225L30.8886 43.7913L33.7818 44.5078C33.7818 44.5078 33.5641 45.579 33.4712 46.4008C33.3988 47.0545 33.436 47.7158 33.5812 48.3573C33.7404 49.083 33.9868 49.7868 34.3149 50.4533C34.3898 50.6245 34.4886 50.7843 34.6084 50.9277C34.7776 51.1179 34.9599 51.296 35.1538 51.4609Z" fill="#B16668"/>
<path d="M30.216 47.1934C30.3975 46.95 30.5918 46.7165 30.7981 46.4939C30.9481 46.7151 31.0643 46.9574 31.1429 47.2129C31.2603 47.5455 31.4095 48.8099 31.7152 49.8298C31.9451 50.5953 32.3389 51.0037 32.8818 51.2165C33.223 51.3495 33.5924 51.3941 33.9554 51.3461C34.6353 51.2581 34.4813 50.7689 34.4813 50.7689C34.87 51.1682 35.2967 51.5287 35.7555 51.845C35.8624 51.9408 35.9273 52.0749 35.936 52.2182C35.9447 52.3615 35.8965 52.5025 35.8019 52.6105C35.6112 52.7719 34.9655 53.1632 33.3563 52.9138C31.9207 52.6937 31.5905 52.026 31.456 51.7252C31.3182 51.2852 31.2224 50.8332 31.1698 50.3752C31.0952 49.8709 30.9294 49.3845 30.6807 48.9396C30.6489 48.8833 30.6171 48.832 30.5878 48.7879C30.4924 48.6436 30.3774 48.4847 30.2503 48.3281C30.1231 48.1716 30.0742 48.1472 30.0448 48.0322C29.9989 47.7411 30.0597 47.4432 30.216 47.1934Z" fill="#37474F"/>
<path d="M18.0169 28.171C18.2139 27.3624 18.5156 26.583 18.9145 25.8525C21.683 27.1683 22.7444 26.7843 25.5373 25.8892C26.8409 27.3273 28.7045 28.0634 30.4849 28.9732C32.2654 29.883 34.2855 30.8319 35.4007 31.9814C35.9045 32.4999 35.7529 33.7643 35.4985 35.3882C35.1537 37.5893 33.7866 44.5448 33.7866 44.5448C31.8912 45.2198 30.9129 44.0997 30.9129 44.0997C30.9129 44.0997 30.6145 41.1649 30.3749 38.7975C30.1352 36.4301 30.979 35.3197 30.979 35.3197C30.979 35.3197 25.2879 33.1626 23.1357 32.7175C19.5503 31.9643 17.5498 31.5069 18.0169 28.171Z" fill="#37474F"/>
<path d="M13.8813 29.4352C14.1259 27.87 15.7107 24.5855 16.0066 24.0181C18.7751 25.3338 22.7493 26.7841 25.5447 25.889C25.3038 27.6234 24.5934 29.259 23.4904 30.6189C27.6994 33.6956 28.5627 34.7766 29.5899 36.0434C29.8736 36.398 30.1499 37.1268 29.9812 38.1418C29.6217 40.3429 28.5138 47.2128 28.5138 47.2128C28.0508 47.3857 27.5552 47.4535 27.0628 47.4112C26.5705 47.3689 26.0937 47.2176 25.667 46.9682C25.667 46.9682 25.3222 44.366 25.0825 41.9986C24.8428 39.6312 25.0972 38.4695 25.0972 38.4695C25.0972 38.4695 19.4134 35.9358 17.271 34.9478C13.6392 33.2945 13.6319 30.998 13.8813 29.4352Z" fill="#455A64"/>
<path d="M18.9267 11.4252C18.9267 11.4252 15.8158 11.7847 15.4416 11.951C18.3618 14.0054 15.9968 18.5739 15.9968 18.5739L17.1169 22.081C16.6522 23.3038 15.1457 24.8813 14.6859 26.8158C18.7384 29.2615 23.8743 28.7968 25.5422 25.8889C25.4566 24.4729 25.4689 22.3305 25.3392 21.4304C25.3784 20.7677 25.3197 20.0071 25.3955 18.9236C25.8756 18.4675 26.1983 17.8706 26.317 17.2191C26.4357 16.5676 26.3442 15.8953 26.0558 15.2992C24.8966 13.0002 22.9058 11.3274 22.2699 11.3274L18.9267 11.4252Z" fill="#EE811D"/>
<path d="M17.968 11.521C17.968 11.521 16.0115 11.68 15.4416 11.9514C14.8718 12.2229 13.9204 13.8664 14.7715 16.2558C15.6226 18.6452 16.393 21.448 16.305 22.0129C16.2169 22.5779 14.6859 25.8526 14.6859 25.8526C14.8438 26.1189 15.0561 26.349 15.309 26.5276C15.5619 26.7063 15.8496 26.8297 16.1533 26.8896L17.0876 24.1186L16.7941 27.1268C16.7941 27.1268 18.7262 27.5254 20.0639 27.4105C20.0639 27.4105 20.0933 17.711 17.968 11.521Z" fill="#EE811D"/>
<g opacity="0.5">
<path d="M17.968 11.521C17.968 11.521 16.0115 11.68 15.4416 11.9514C14.8718 12.2229 13.9204 13.8664 14.7715 16.2558C15.6226 18.6452 16.393 21.448 16.305 22.0129C16.2169 22.5779 14.6859 25.8526 14.6859 25.8526C14.8455 26.1176 15.0583 26.3465 15.3108 26.525C15.5634 26.7035 15.8503 26.8276 16.1533 26.8896L17.0876 24.1186L16.7941 27.1268C16.7941 27.1268 18.7262 27.5254 20.0639 27.4105C20.0639 27.4105 20.0933 17.711 17.968 11.521Z" fill="white"/>
</g>
<path d="M21.4776 0.0726064C18.5892 -0.127938 15.6642 2.18566 16.2707 6.04737C16.684 8.67402 18.2273 9.5887 18.7164 9.60337L21.6732 9.72321C22.3556 7.64684 25.6523 7.3876 26.3616 4.31828C27.0708 1.24897 24.3757 0.273151 21.4776 0.0726064Z" fill="#263238"/>
<path d="M15.8966 1.34933C14.7447 1.71862 14.1846 2.71156 13.8618 3.81701C13.6172 4.63141 13.4851 5.48251 13.1428 6.26267C13.0367 6.52075 12.8888 6.75956 12.705 6.96947C12.4378 7.21591 12.1432 7.4309 11.827 7.61024C11.5111 7.79145 11.2558 8.06203 11.0933 8.38796C10.9074 8.84285 11.3379 9.27329 11.7096 9.50807C12.057 9.7168 12.447 9.84435 12.8506 9.8812C13.2542 9.91804 13.6609 9.86323 14.0403 9.72085C14.4096 9.59019 14.7438 9.37615 15.017 9.09536C15.2902 8.81457 15.4949 8.47458 15.6153 8.10181C15.8599 7.39257 15.8599 6.70534 15.8452 5.97164C15.8305 5.23794 15.8746 4.41619 16.1778 3.71184C16.2792 3.44733 16.4478 3.21383 16.667 3.03439C16.8894 2.88874 17.1304 2.77358 17.3835 2.692C17.6391 2.60906 17.8611 2.44615 18.017 2.22732C18.3912 1.60857 17.4912 1.29797 17.0387 1.24905C16.6553 1.19723 16.2651 1.23149 15.8966 1.34933Z" fill="#263238"/>
<path d="M17.787 1.54493L16.5348 0.965304C16.5689 0.881177 16.6196 0.804814 16.684 0.740817C16.7483 0.676819 16.825 0.62651 16.9093 0.59292C16.9936 0.55933 17.0838 0.543154 17.1746 0.545366C17.2653 0.547578 17.3547 0.568133 17.4372 0.605792C17.6037 0.688813 17.7325 0.831991 17.7974 1.00635C17.8624 1.18071 17.8586 1.37322 17.787 1.54493Z" fill="#263238"/>
<path d="M17.7895 1.3713L17.5278 0.0212954C17.6155 -0.00142565 17.7068 -0.00602353 17.7963 0.00778256C17.8857 0.0215886 17.9714 0.0535091 18.0481 0.101589C18.1248 0.149668 18.1909 0.212896 18.2423 0.2874C18.2937 0.361905 18.3294 0.446118 18.3471 0.534886C18.3781 0.719088 18.3377 0.908175 18.2341 1.06359C18.1305 1.21901 17.9715 1.32906 17.7895 1.3713Z" fill="#263238"/>
<path d="M24.3293 2.63818C25.2856 3.17378 25.6524 4.4382 25.3834 7.34609C25.156 9.80888 24.3147 10.364 23.8989 10.5108C23.4831 10.6575 22.7201 10.5108 21.9742 10.3225L21.8886 11.3521C21.8886 11.3521 23.1114 12.9662 22.9867 13.6388C22.8619 14.3114 21.1549 14.5046 20.228 13.7733C19.301 13.0421 18.5649 11.7067 18.5649 11.7067L18.8217 8.28278C18.8217 8.28278 18.3472 8.68143 17.6429 7.97219C17.0584 7.38767 16.9092 6.45832 17.4326 6.00098C17.5659 5.89319 17.7228 5.81857 17.8906 5.78325C18.0583 5.74793 18.232 5.75291 18.3975 5.79779C18.5629 5.84267 18.7153 5.92617 18.8422 6.04142C18.9691 6.15667 19.0669 6.30039 19.1274 6.46076C20.1796 6.36662 21.2003 6.0525 22.1233 5.53875C23.6959 4.68765 24.1899 3.64091 24.3293 2.63818Z" fill="#B16668"/>
<path d="M22.3678 6.37751C22.3691 6.41988 22.362 6.46207 22.3467 6.50162C22.3315 6.54117 22.3085 6.57727 22.2791 6.6078C22.2497 6.63834 22.2145 6.66269 22.1756 6.67942C22.1366 6.69615 22.0947 6.70493 22.0523 6.70523C21.9713 6.69818 21.8958 6.66099 21.8408 6.60099C21.7858 6.541 21.7552 6.46257 21.7552 6.38118C21.7552 6.29979 21.7858 6.22136 21.8408 6.16137C21.8958 6.10137 21.9713 6.06418 22.0523 6.05713C22.0941 6.05745 22.1354 6.06599 22.1738 6.08226C22.2123 6.09854 22.2471 6.12223 22.2764 6.15198C22.3057 6.18173 22.3289 6.21696 22.3446 6.25565C22.3603 6.29435 22.3682 6.33576 22.3678 6.37751Z" fill="#263238"/>
<path d="M22.6099 8.63257L23.3142 8.90648C23.2982 8.95433 23.2726 8.99841 23.2389 9.03604C23.2053 9.07366 23.1643 9.10404 23.1186 9.12532C23.0728 9.1466 23.0232 9.15834 22.9727 9.15982C22.9223 9.1613 22.872 9.15249 22.8251 9.13393C22.7318 9.09385 22.6575 9.01949 22.6175 8.9262C22.5774 8.83291 22.5747 8.7278 22.6099 8.63257Z" fill="#9A4A4D"/>
<path d="M25.1437 5.75875L24.4515 5.43348C24.4707 5.38845 24.4986 5.34768 24.5337 5.31353C24.5687 5.27938 24.6102 5.25254 24.6557 5.23457C24.7012 5.21659 24.7498 5.20783 24.7988 5.20881C24.8477 5.20979 24.8959 5.22049 24.9407 5.24027C25.0346 5.28408 25.1081 5.36236 25.1459 5.45889C25.1837 5.55542 25.1829 5.6628 25.1437 5.75875Z" fill="#263238"/>
<path d="M24.8135 6.37761C24.8101 6.43899 24.7887 6.49801 24.752 6.54733C24.7153 6.59664 24.6649 6.63406 24.6071 6.6549C24.5492 6.67575 24.4866 6.67911 24.4268 6.66456C24.3671 6.65002 24.313 6.6182 24.2712 6.5731C24.2294 6.52799 24.2019 6.47158 24.192 6.41091C24.182 6.35024 24.1902 6.288 24.2154 6.23194C24.2407 6.17588 24.2818 6.12849 24.3338 6.09568C24.3858 6.06287 24.4463 6.04609 24.5078 6.04744C24.5919 6.05125 24.6711 6.08803 24.7283 6.14982C24.7856 6.21161 24.8161 6.29344 24.8135 6.37761Z" fill="#263238"/>
<path d="M23.346 6.04736L23.187 8.06993L24.1897 7.8327L23.346 6.04736Z" fill="#9A4A4D"/>
<path d="M21.974 10.3225C21.1889 10.1636 19.587 9.58882 19.3767 8.91626C19.4568 9.24986 19.6369 9.55105 19.8927 9.77958C20.3525 10.232 21.9398 10.8165 21.9398 10.8165L21.974 10.3225Z" fill="#9A4A4D"/>
<path d="M18.5917 11.3274L17.2466 11.5964C17.2466 11.5964 17.8702 14.2866 19.5308 14.7758C21.1914 15.2649 21.8126 14.2377 21.8126 14.2377C20.4173 13.6972 19.2705 12.6609 18.5917 11.3274Z" fill="#EE811D"/>
<path opacity="0.7" d="M18.5917 11.3274L17.2466 11.5964C17.2466 11.5964 17.8702 14.2866 19.5308 14.7758C21.1914 15.2649 21.8126 14.2377 21.8126 14.2377C20.4173 13.6972 19.2705 12.6609 18.5917 11.3274Z" fill="white"/>
<path d="M21.8884 11.3519C21.8884 11.3519 22.8178 13.4601 21.8126 14.2402C21.8126 14.2402 23.1431 14.6364 23.4977 14.0739C23.8523 13.5114 23.2042 11.9095 22.649 11.2932L21.8884 11.3519Z" fill="#EE811D"/>
<path opacity="0.7" d="M21.8884 11.3519C21.8884 11.3519 22.8178 13.4601 21.8126 14.2402C21.8126 14.2402 23.1431 14.6364 23.4977 14.0739C23.8523 13.5114 23.2042 11.9095 22.649 11.2932L21.8884 11.3519Z" fill="white"/>
<path d="M16.4346 33.637V33.8694C16.4336 33.985 16.4626 34.099 16.5188 34.2001C16.5749 34.3013 16.6563 34.3862 16.755 34.4465L22.9939 38.1566C23.0939 38.2144 23.2073 38.2448 23.3228 38.2448C23.4383 38.2448 23.5517 38.2144 23.6518 38.1566L35.2858 31.6609C35.3874 31.6046 35.4723 31.5225 35.5319 31.4229C35.5916 31.3232 35.624 31.2097 35.6257 31.0935V30.9346L23.324 37.8093L16.4346 33.637Z" fill="#EBEBEB"/>
<path d="M35.6257 30.9442L28.8414 26.8966C28.7817 26.8618 28.7137 26.8435 28.6446 26.8435C28.5754 26.8435 28.5075 26.8618 28.4477 26.8966L16.481 33.5782C16.4678 33.586 16.4569 33.5971 16.4493 33.6104C16.4417 33.6237 16.4377 33.6387 16.4377 33.654C16.4377 33.6693 16.4417 33.6844 16.4493 33.6977C16.4569 33.711 16.4678 33.7221 16.481 33.7298L23.3289 37.8165L35.6257 30.9442Z" fill="#FAFAFA"/>
<path d="M23.2677 37.2273L19.609 35.0457L30.4898 28.9731L34.1681 31.1449L23.2677 37.2273Z" fill="#E0E0E0"/>
<path d="M21.5411 31.2818L21.6096 31.3234L23.4023 32.3921L26.6452 30.5823L26.7137 30.5456L24.8526 29.4353L21.5411 31.2818Z" fill="#E0E0E0"/>
<path d="M21.6096 31.3235L23.4023 32.3922L26.6452 30.5824L24.8501 29.5112L21.6096 31.3235Z" fill="#E6E6E6"/>
<path d="M23.3241 37.8093V38.2495C23.4394 38.2502 23.553 38.2216 23.6543 38.1664L35.2883 31.6707C35.3899 31.6144 35.4748 31.5323 35.5344 31.4326C35.5941 31.333 35.6265 31.2194 35.6282 31.1033V30.9443L23.3241 37.8093Z" fill="#EBEBEB"/>
<g style="mix-blend-mode:multiply" opacity="0.5">
<path d="M23.3241 37.8093V38.2495C23.4394 38.2502 23.553 38.2216 23.6543 38.1664L35.2883 31.6707C35.3899 31.6144 35.4748 31.5323 35.5344 31.4326C35.5941 31.333 35.6265 31.2194 35.6282 31.1033V30.9443L23.3241 37.8093Z" fill="#E0E0E0"/>
</g>
<path d="M23.5074 37.9096C23.6159 37.9537 23.7328 37.9729 23.8497 37.9657C23.9665 37.9585 24.0803 37.9251 24.1825 37.868L35.7651 31.4065C35.8654 31.3502 35.9521 31.2726 36.0193 31.1793C36.0865 31.0859 36.1324 30.979 36.154 30.866L37.5187 23.3847C37.5407 23.2617 37.5331 23.1352 37.4965 23.0157C37.4599 22.8962 37.3954 22.7872 37.3083 22.6975L25.2708 29.4182C25.1965 29.4599 25.1324 29.5175 25.083 29.5868C25.0335 29.6562 24.9999 29.7355 24.9846 29.8193L23.5074 37.9096Z" fill="#EE811D"/>
<g opacity="0.7">
<path d="M23.5074 37.9096C23.6159 37.9537 23.7328 37.9729 23.8497 37.9657C23.9665 37.9585 24.0803 37.9251 24.1825 37.868L35.7651 31.4065C35.8654 31.3502 35.9521 31.2726 36.0193 31.1793C36.0865 31.0859 36.1324 30.979 36.154 30.866L37.5187 23.3847C37.5407 23.2617 37.5331 23.1352 37.4965 23.0157C37.4599 22.8962 37.3954 22.7872 37.3083 22.6975L25.2708 29.4182C25.1965 29.4599 25.1324 29.5175 25.083 29.5868C25.0335 29.6562 24.9999 29.7355 24.9846 29.8193L23.5074 37.9096Z" fill="white"/>
</g>
<path d="M23.3241 37.8093L23.4024 37.8557C23.4361 37.8761 23.4713 37.8941 23.5075 37.9095L24.9749 29.8144C24.9902 29.7306 25.0238 29.6512 25.0733 29.5819C25.1227 29.5126 25.1868 29.455 25.2611 29.4133L37.2986 22.6926C37.2509 22.6458 37.1984 22.604 37.1421 22.5679L25.0801 29.3008C25.0056 29.3423 24.9413 29.3998 24.8919 29.4691C24.8424 29.5385 24.8089 29.618 24.7939 29.7019L23.3241 37.8093Z" fill="#FAFAFA"/>
<path d="M30.0791 31.0811C30.1696 30.592 30.6978 29.9195 31.2579 29.6137C31.8179 29.308 32.197 29.4548 32.1065 29.9561C32.016 30.4575 31.4853 31.1154 30.9253 31.4235C30.3652 31.7317 29.9861 31.5801 30.0791 31.0811Z" fill="#EE811D"/>
<path d="M17.4642 32.4289C16.8307 31.9935 12.8003 29.0636 11.1886 27.8139C9.51331 26.5152 9.61603 26.1019 9.81902 25.1603C10.2201 23.309 12.2891 17.3782 12.9984 15.6491C13.781 13.7195 14.028 12.4062 15.4074 12.1592C16.459 12.9883 17.2563 14.9546 16.0628 18.4225L13.8006 25.1799C13.8006 25.1799 15.5272 27.2269 16.662 28.2884C17.7968 29.3498 18.802 30.3452 19.6188 30.5848C20.3525 30.8001 21.1963 30.9468 21.4531 31.1816C22.074 31.8119 22.6524 32.4827 23.1846 33.1895C23.4292 33.5857 23.9966 34.3878 23.1846 34.6569C22.4509 34.9014 21.8419 34.5737 21.2281 34.1677C20.945 33.9647 20.6761 33.7424 20.4234 33.5025C19.8221 33.5696 19.2148 33.4491 18.6846 33.1577C18.2297 32.874 17.4642 32.4289 17.4642 32.4289Z" fill="#B16668"/>
<path d="M15.4416 11.9512C14.2187 12.1591 13.8641 13.0077 12.9568 15.3751C12.3185 17.0406 10.022 24.3067 10.022 24.3067C10.022 24.3067 11.2986 25.7741 13.7785 25.1749L16.64 17.427C16.64 17.427 17.5522 13.7585 15.4416 11.9512Z" fill="#EE811D"/>
<g opacity="0.6">
<path d="M15.4416 11.9512C14.2187 12.1591 13.8641 13.0077 12.9568 15.3751C12.3185 17.0406 10.022 24.3067 10.022 24.3067C10.022 24.3067 11.2986 25.7741 13.7785 25.1749L16.64 17.427C16.64 17.427 17.5522 13.7585 15.4416 11.9512Z" fill="white"/>
</g>
</svg>
