<svg width="17" height="16" viewBox="0 0 17 16" fill="none" xmlns="http://www.w3.org/2000/svg">
<path d="M15.9375 1.49844L11.6838 1.49845V0.501953C11.6838 0.225703 11.446 0.00195312 11.1525 0.00195312C10.859 0.00195312 10.6213 0.225703 10.6213 0.501953V1.4982H6.37128V0.501953C6.37128 0.225703 6.13355 0.00195312 5.84003 0.00195312C5.54652 0.00195312 5.30878 0.225703 5.30878 0.501953V1.4982H1.0625C0.475734 1.4982 0 1.94595 0 2.4982V14.9982C0 15.5504 0.475734 15.9982 1.0625 15.9982H15.9375C16.5243 15.9982 17 15.5504 17 14.9982V2.4982C17 1.94619 16.5243 1.49844 15.9375 1.49844ZM15.9375 14.9982H1.0625V2.4982H5.30878V3.00195C5.30878 3.27819 5.54652 3.50195 5.84003 3.50195C6.13355 3.50195 6.37128 3.27819 6.37128 3.00195V2.49845H10.6213V3.0022C10.6213 3.27845 10.859 3.5022 11.1525 3.5022C11.446 3.5022 11.6838 3.27845 11.6838 3.0022V2.49845H15.9375V14.9982ZM12.2188 7.99844H13.2812C13.5745 7.99844 13.8125 7.77444 13.8125 7.49844V6.49844C13.8125 6.22244 13.5745 5.99844 13.2812 5.99844H12.2188C11.9255 5.99844 11.6875 6.22244 11.6875 6.49844V7.49844C11.6875 7.77444 11.9255 7.99844 12.2188 7.99844ZM12.2188 11.9982H13.2812C13.5745 11.9982 13.8125 11.7744 13.8125 11.4982V10.4982C13.8125 10.2222 13.5745 9.99819 13.2812 9.99819H12.2188C11.9255 9.99819 11.6875 10.2222 11.6875 10.4982V11.4982C11.6875 11.7747 11.9255 11.9982 12.2188 11.9982ZM9.03125 9.99819H7.96875C7.6755 9.99819 7.4375 10.2222 7.4375 10.4982V11.4982C7.4375 11.7744 7.6755 11.9982 7.96875 11.9982H9.03125C9.3245 11.9982 9.5625 11.7744 9.5625 11.4982V10.4982C9.5625 10.2224 9.3245 9.99819 9.03125 9.99819ZM9.03125 5.99844H7.96875C7.6755 5.99844 7.4375 6.22244 7.4375 6.49844V7.49844C7.4375 7.77444 7.6755 7.99844 7.96875 7.99844H9.03125C9.3245 7.99844 9.5625 7.77444 9.5625 7.49844V6.49844C9.5625 6.22219 9.3245 5.99844 9.03125 5.99844ZM4.78125 5.99844H3.71875C3.4255 5.99844 3.1875 6.22244 3.1875 6.49844V7.49844C3.1875 7.77444 3.4255 7.99844 3.71875 7.99844H4.78125C5.0745 7.99844 5.3125 7.77444 5.3125 7.49844V6.49844C5.3125 6.22219 5.0745 5.99844 4.78125 5.99844ZM4.78125 9.99819H3.71875C3.4255 9.99819 3.1875 10.2222 3.1875 10.4982V11.4982C3.1875 11.7744 3.4255 11.9982 3.71875 11.9982H4.78125C5.0745 11.9982 5.3125 11.7744 5.3125 11.4982V10.4982C5.3125 10.2224 5.0745 9.99819 4.78125 9.99819Z" fill="black"/>
</svg>
