<svg width="21" height="22" viewBox="0 0 21 22" fill="none" xmlns="http://www.w3.org/2000/svg">
<path d="M10.4399 1.4199C11.9064 1.42011 13.3534 1.75559 14.6704 2.40071C15.9874 3.04583 17.1395 3.98352 18.0386 5.14209C18.9377 6.30067 19.56 7.64946 19.8579 9.08538C20.1559 10.5213 20.1216 12.0063 19.7577 13.427C19.3938 14.8476 18.7099 16.1663 17.7583 17.2821C16.8068 18.398 15.6127 19.2815 14.2673 19.8652C12.9219 20.4488 11.461 20.7172 9.996 20.6497C8.53105 20.5823 7.10091 20.1807 5.81489 19.4759L5.62812 19.3735L5.42321 19.4316L2.49821 20.2603L2.4982 20.2603L2.49183 20.2622C2.31523 20.3147 2.12771 20.3184 1.94918 20.2729C1.77101 20.2275 1.60842 20.1348 1.47859 20.0046C1.3478 19.8718 1.25473 19.7065 1.20898 19.5258L0.70488 19.6534L1.20898 19.5258C1.16313 19.3447 1.16644 19.1546 1.21857 18.9752L1.2194 18.9723L2.04815 16.0571L2.10647 15.8519L2.00392 15.6649C1.20069 14.1999 0.792834 12.551 0.820515 10.8805C0.848197 9.21001 1.31046 7.57552 2.16179 6.13796C3.01313 4.7004 4.22418 3.50935 5.6757 2.68206C7.12723 1.85477 8.76916 1.41978 10.4399 1.4199ZM10.4399 1.4199L10.44 0.899902L10.4399 1.4199ZM4.82105 12.4451L5.10995 12.0127L4.82105 12.4451C5.09897 12.6308 5.42571 12.7299 5.75996 12.7299C6.20818 12.7299 6.63804 12.5518 6.95497 12.2349C7.27191 11.918 7.44996 11.4881 7.44996 11.0399C7.44996 10.7057 7.35085 10.3789 7.16515 10.101C6.97945 9.82307 6.71551 9.60646 6.4067 9.47855C6.09789 9.35063 5.75809 9.31717 5.43026 9.38237L5.53171 9.89238L5.43026 9.38238C5.10243 9.44759 4.8013 9.60854 4.56495 9.84489C4.3286 10.0812 4.16765 10.3824 4.10244 10.7102C4.03723 11.038 4.0707 11.3778 4.19861 11.6866C4.32652 11.9954 4.54313 12.2594 4.82105 12.4451ZM9.50105 12.4451L9.78995 12.0127L9.50105 12.4451C9.77897 12.6308 10.1057 12.7299 10.44 12.7299C10.8882 12.7299 11.318 12.5518 11.635 12.2349C11.9519 11.918 12.13 11.4881 12.13 11.0399C12.13 10.7057 12.0308 10.3789 11.8451 10.101C11.6594 9.82307 11.3955 9.60646 11.0867 9.47855C10.7779 9.35063 10.4381 9.31717 10.1103 9.38237C9.78243 9.44759 9.4813 9.60854 9.24495 9.84489C9.0086 10.0812 8.84764 10.3824 8.78244 10.7102C8.71723 11.038 8.7507 11.3778 8.87861 11.6866C9.00652 11.9954 9.22313 12.2594 9.50105 12.4451ZM14.1811 12.4451C14.459 12.6308 14.7857 12.7299 15.12 12.7299C15.5682 12.7299 15.998 12.5518 16.315 12.2349C16.6319 11.918 16.81 11.4881 16.81 11.0399C16.81 10.7057 16.7108 10.3789 16.5251 10.101C16.3394 9.82307 16.0755 9.60646 15.7667 9.47855C15.4579 9.35063 15.1181 9.31717 14.7903 9.38237C14.4624 9.44759 14.1613 9.60854 13.925 9.84489C13.6886 10.0812 13.5276 10.3824 13.4624 10.7102C13.3972 11.038 13.4307 11.3778 13.5586 11.6866C13.6865 11.9954 13.9031 12.2594 14.1811 12.4451Z" stroke="#EE811D" stroke-width="1.04"/>
</svg>
