<svg width="22" height="22" viewBox="0 0 22 22" fill="none" xmlns="http://www.w3.org/2000/svg">
<path d="M20.6635 6.93127C20.1376 5.67625 19.3727 4.53553 18.4111 3.57268C17.4525 2.60815 16.3138 1.84129 15.0596 1.31565C13.7748 0.774549 12.3943 0.497182 11.0002 0.500022H10.9533C9.53536 0.507053 8.16427 0.788303 6.87286 1.34143C5.62944 1.87246 4.50139 2.64068 3.55177 3.60315C2.59958 4.56384 1.84335 5.70057 1.32521 6.95002C0.787352 8.24931 0.514819 9.64305 0.523645 11.0492C0.530676 12.6758 0.919739 14.2906 1.6463 15.7344V19.2969C1.6463 19.8922 2.12911 20.375 2.72208 20.375H6.2799C7.73038 21.1069 9.33101 21.4921 10.9557 21.5H11.0049C12.4065 21.5 13.7635 21.2281 15.0432 20.6961C16.291 20.1767 17.4255 19.4188 18.383 18.4649C19.3486 17.5063 20.108 16.386 20.6401 15.1367C21.1908 13.843 21.4721 12.4672 21.4791 11.0469C21.4838 9.61955 21.2072 8.2344 20.6635 6.93127ZM6.32208 12.125C5.70333 12.125 5.19943 11.6211 5.19943 11C5.19943 10.3789 5.70333 9.87502 6.32208 9.87502C6.94083 9.87502 7.44474 10.3789 7.44474 11C7.44474 11.6211 6.94318 12.125 6.32208 12.125ZM11.0002 12.125C10.3815 12.125 9.87755 11.6211 9.87755 11C9.87755 10.3789 10.3815 9.87502 11.0002 9.87502C11.619 9.87502 12.1229 10.3789 12.1229 11C12.1229 11.6211 11.619 12.125 11.0002 12.125ZM15.6783 12.125C15.0596 12.125 14.5557 11.6211 14.5557 11C14.5557 10.3789 15.0596 9.87502 15.6783 9.87502C16.2971 9.87502 16.801 10.3789 16.801 11C16.801 11.6211 16.2971 12.125 15.6783 12.125Z" fill="white"/>
</svg>
