<svg width="205" height="208" viewBox="0 0 205 208" fill="none" xmlns="http://www.w3.org/2000/svg">
<path fill-rule="evenodd" clip-rule="evenodd" d="M102.109 1.32195C101.631 2.0901 102.184 19.7813 102.702 20.4061C103.607 21.4934 103.73 19.981 103.527 10.2802C103.337 1.20588 103.101 -0.282614 102.109 1.32195ZM66.8649 7.91776C66.8649 8.39742 67.2001 9.4916 67.6089 10.3519C68.317 11.837 68.8797 13.3255 70.8791 19.0217C72.0798 22.4425 73.655 25.807 74.2177 26.1552C74.9652 26.6144 74.358 23.2755 73.2599 20.8806C72.74 19.7455 72.1909 18.3014 72.0387 17.6715C71.8882 17.0399 71.5838 16.2974 71.3648 16.0191C70.9509 15.4968 69.6716 12.1835 69.2987 10.6643C69.1807 10.1898 68.9361 9.80056 68.7565 9.80056C68.5752 9.80056 68.2845 9.25091 68.11 8.57836C67.7303 7.12059 66.8649 6.66142 66.8649 7.91776ZM137.32 7.7078C137.32 8.03725 136.992 9.03071 136.59 9.91664C136.188 10.8043 135.645 12.3081 135.385 13.2589C135.126 14.2097 134.583 15.7289 134.183 16.6336C133.781 17.54 133.206 19.1822 132.907 20.2849C132.283 22.5757 131.746 24.2946 131.351 25.2659C131.169 25.7114 131.253 25.935 131.6 25.9282C132.25 25.9179 134.207 21.8621 134.505 19.9025C134.628 19.1019 135.137 17.5639 135.639 16.4868C136.14 15.4097 136.55 14.3207 136.55 14.0646C136.55 13.8103 136.918 12.7946 137.368 11.808C138.505 9.31578 138.777 7.11035 137.948 7.11035C137.602 7.11035 137.32 7.38005 137.32 7.7078ZM35.6798 25.3666C35.6798 25.6909 36.3349 26.6861 37.1353 27.5805C37.9358 28.4733 39.2664 30.0693 40.0942 31.126C41.625 33.0822 41.9996 33.5106 45.1279 36.8888C46.1062 37.9454 47.1717 39.2 47.4967 39.6745C48.0235 40.4444 49.1541 40.8865 49.1541 40.3215C49.1541 39.6012 45.3023 34.6423 43.0361 32.4472C42.6957 32.1177 41.2556 30.4756 39.8343 28.7976C37.0156 25.4656 35.6798 24.3646 35.6798 25.3666ZM167.472 26.611C167.106 27.1913 165.948 28.673 164.901 29.9003C163.855 31.1294 162.546 32.7169 161.997 33.4287C161.446 34.1405 160.001 35.9209 158.783 37.3855C157.566 38.8501 156.57 40.2583 156.57 40.5144C156.57 41.5249 157.762 40.6014 160.011 37.8498C161.308 36.264 162.861 34.4495 163.465 33.8145C164.067 33.1812 165.248 31.7114 166.088 30.549C166.93 29.3865 167.905 28.1985 168.254 27.9083C168.938 27.3416 169.134 25.5544 168.514 25.5544C168.307 25.5544 167.838 26.0289 167.472 26.611ZM13.0038 52.8115C12.2564 53.2724 15.3538 55.4625 20.0864 57.8215C20.9347 58.2432 21.8874 58.7621 22.2038 58.972C25.77 61.3362 29.9039 63.0022 29.9039 62.0753C29.9039 61.8415 29.6012 61.5342 29.2317 61.3943C28.8606 61.2543 27.7574 60.5681 26.7791 59.8699C25.8007 59.1701 24.8994 58.5982 24.7779 58.5982C24.5813 58.5982 22.7152 57.6013 15.4308 53.6019C14.3362 53.001 13.2621 52.6511 13.0038 52.8115ZM190.461 53.4312C189.725 53.9484 188.937 54.3717 188.708 54.3717C188.48 54.3717 187.201 55.1074 185.869 56.0053C183.271 57.755 180.838 59.1974 178.251 60.5237C176.518 61.413 174.975 63.2105 175.947 63.2105C176.663 63.2105 179.701 61.5752 182.802 59.5217C184.206 58.5914 185.535 57.8301 185.756 57.8301C185.976 57.8301 186.645 57.4289 187.244 56.939C187.842 56.4474 189.418 55.3959 190.743 54.6022C192.069 53.8084 193.054 52.9993 192.934 52.8047C192.585 52.2431 191.898 52.4172 190.461 53.4312ZM130.005 67.7989C127.891 68.917 122.305 75.2209 122.305 76.4874C122.305 76.5864 121.665 77.5714 120.883 78.6792C119.64 80.4425 118.696 81.8286 117.29 83.9589C116.093 85.7735 109.39 95.8105 107.411 98.7517C103.33 104.813 101.336 107.819 100.822 108.676C98.9103 111.87 91.058 123.394 89.6811 125.027C88.1264 126.871 88.1521 126.888 78.415 117.356C73.6499 112.693 69.0798 108.529 68.2588 108.104C65.2007 106.522 59.5787 106.991 57.7743 108.982C57.4151 109.378 56.9259 109.702 56.6865 109.702C56.4487 109.702 56.0366 110.178 55.7697 110.759C55.5029 111.341 54.9471 112.421 54.5314 113.16C52.5423 116.702 54.1398 121.934 58.467 126.057C60.7452 128.228 66.2526 133.752 66.7999 134.414C69.1756 137.292 84.5501 151.755 85.4925 151.998C86.1527 152.168 87.4354 152.513 88.3454 152.766C93.5551 154.21 96.0539 152.264 103.677 140.826C105.719 137.761 107.714 134.897 108.11 134.462C108.505 134.025 108.83 133.53 108.83 133.361C108.83 133.194 110.736 130.218 113.065 126.75C115.395 123.283 117.3 120.292 117.3 120.106C117.3 119.918 117.863 119.075 118.55 118.232C119.79 116.713 124.834 109.528 125.577 108.225C126.483 106.636 139.523 87.1527 141.175 84.92C144.832 79.9765 145.08 74.1199 141.781 70.5813C138.51 67.0751 133.578 65.9092 130.005 67.7989ZM0.0956788 86.6013C-0.231001 87.1288 0.160667 87.2807 3.14696 87.786C4.41776 87.9994 6.84306 88.4364 8.53632 88.7573C15.6788 90.1041 20.2797 90.4882 20.2797 89.7371C20.2797 89.2182 17.6457 88.5695 13.9702 88.182C12.2529 87.9994 9.71304 87.5863 8.32764 87.2602C4.67773 86.4033 0.4292 86.0619 0.0956788 86.6013ZM198.149 87.1954C196.138 87.6785 192.66 88.3783 190.42 88.7487C187.227 89.2762 186.245 89.5869 185.869 90.1877C185.198 91.2597 189.985 90.6708 199.112 88.5627C204.712 87.2688 204.819 87.2346 204.985 86.7379C205.233 85.9988 202.31 86.1934 198.149 87.1954ZM14.3122 119.365C13.0414 119.778 10.8761 120.212 9.49926 120.33C6.69769 120.57 3.08538 121.477 2.74672 122.023C2.62358 122.221 2.0147 122.383 1.39213 122.383C0.769555 122.383 0.259862 122.566 0.259862 122.791C0.259862 123.054 0.90809 123.116 2.08824 122.965C10.8795 121.84 19.8948 119.847 19.8948 119.027C19.8948 118.307 17.0437 118.481 14.3122 119.365ZM185.908 119.242C184.598 120.098 192.048 121.965 196.873 121.991C197.759 121.994 198.914 122.161 199.437 122.359C200.915 122.921 204.695 123.276 204.695 122.856C204.695 122.156 199.083 120.787 194.107 120.273C192.837 120.142 191.277 119.882 190.642 119.698C188.643 119.118 186.426 118.904 185.908 119.242ZM27.2101 147.235C26.2574 147.771 24.8703 148.596 24.1297 149.069C21.7078 150.615 18.9405 152.259 18.5163 152.404C15.9251 153.285 11.4046 156.965 12.9131 156.965C13.7717 156.965 17.1993 155.118 17.1993 154.656C17.1993 154.48 17.7842 154.142 18.5009 153.906C19.2158 153.671 20.095 153.153 20.4541 152.757C20.8133 152.361 21.5573 151.926 22.1081 151.788C22.6588 151.65 23.815 151.05 24.677 150.456C25.5408 149.862 27.1571 148.806 28.2688 148.111C31.445 146.121 30.5316 145.366 27.2101 147.235ZM175.319 146.834C174.998 147.155 178.302 149.664 179.046 149.664C179.364 149.664 179.734 149.84 179.867 150.057C180.002 150.272 181.311 151.04 182.776 151.764C184.242 152.488 186.37 153.693 187.504 154.446C188.639 155.197 189.832 155.811 190.153 155.811C190.476 155.811 190.957 156.071 191.22 156.388C191.874 157.175 192.375 157.112 192.375 156.243C192.375 155.801 191.922 155.333 191.205 155.036C190.56 154.77 189.349 154.058 188.513 153.454C187.676 152.848 186.825 152.353 186.619 152.353C186.416 152.353 185.61 151.921 184.83 151.393C184.05 150.864 183.188 150.432 182.917 150.432C182.643 150.432 182.191 150.209 181.911 149.937C181.054 149.104 178.649 147.742 178.035 147.742C177.715 147.742 177.238 147.483 176.975 147.167C176.475 146.564 175.736 146.416 175.319 146.834ZM44.4796 172.801C42.7094 174.958 40.9152 177.087 40.4928 177.531C37.6604 180.491 34.3936 185.852 36.0407 184.837C36.5572 184.518 43.8006 175.945 44.7704 174.504C45.2185 173.839 46.3012 172.56 47.1769 171.661C48.0526 170.763 48.7692 169.769 48.7692 169.452C48.7692 168.12 47.5087 169.105 44.4796 172.801ZM156.435 169.551C156.269 169.819 159.599 173.876 164.98 179.958C166.165 181.3 167.366 182.725 167.65 183.128C167.932 183.531 168.399 183.86 168.686 183.86C168.975 183.86 169.299 184.077 169.405 184.342C169.557 184.717 169.606 184.714 169.629 184.328C169.689 183.36 164.838 177.234 159.599 171.662C157.413 169.337 156.815 168.938 156.435 169.551ZM73.1419 184.149C73.0085 184.519 72.6151 185.253 72.2662 185.782C71.919 186.31 71.4007 187.689 71.1168 188.846C70.8329 190.004 70.1932 191.818 69.6989 192.88C69.2029 193.944 68.7959 195.208 68.7942 195.691C68.7908 196.176 68.4623 197.212 68.0621 197.998C67.0581 199.969 66.5108 202.117 66.8666 202.69C67.3027 203.397 67.9236 202.849 68.2229 201.49C68.3666 200.835 68.878 199.411 69.3586 198.324C69.8392 197.238 70.3608 195.57 70.5165 194.619C70.6738 193.669 70.9441 192.713 71.1186 192.496C71.5513 191.958 74.1801 184.669 74.1801 184.007C74.1801 183.249 73.431 183.352 73.1419 184.149ZM130.957 183.942C130.839 184.246 131.115 185.347 131.568 186.387C132.02 187.428 132.818 189.577 133.34 191.161C133.862 192.747 134.452 194.208 134.65 194.408C134.847 194.609 135.009 195.072 135.009 195.439C135.009 195.804 135.529 197.224 136.165 198.593C136.8 199.964 137.32 201.427 137.32 201.845C137.32 202.805 138.42 203.279 138.736 202.456C138.864 202.123 138.44 200.613 137.794 199.1C137.147 197.586 136.502 195.837 136.362 195.208C136.222 194.582 135.688 193.182 135.173 192.098C134.66 191.014 134.24 189.867 134.24 189.548C134.24 189.231 133.807 188.157 133.277 187.163C132.748 186.17 132.315 185.129 132.315 184.849C132.315 184.009 131.214 183.275 130.957 183.942ZM101.854 189.516C101.584 197.948 101.999 206.766 102.699 207.482C103.431 208.229 103.439 208.12 103.439 198.561C103.439 189.277 103.409 188.867 102.67 188.473C101.965 188.095 101.897 188.184 101.854 189.516Z" fill="#2BA9E0"/>
</svg>
