<svg width="42" height="42" viewBox="0 0 42 42" fill="none" xmlns="http://www.w3.org/2000/svg">
<path d="M42 21C42 32.598 32.598 42 21 42C9.40202 42 0 32.598 0 21C0 9.40202 9.40202 0 21 0C32.598 0 42 9.40202 42 21ZM4.77682 21C4.77682 29.9598 12.0402 37.2232 21 37.2232C29.9598 37.2232 37.2232 29.9598 37.2232 21C37.2232 12.0402 29.9598 4.77682 21 4.77682C12.0402 4.77682 4.77682 12.0402 4.77682 21Z" fill="white"/>
<path d="M14.5 14.5L27.5 27.5" stroke="white" stroke-width="4" stroke-linecap="round"/>
<path d="M14.5 27.5L27.5 14.5" stroke="white" stroke-width="4" stroke-linecap="round"/>
</svg>
