<svg width="59" height="51" viewBox="0 0 59 51" fill="none" xmlns="http://www.w3.org/2000/svg">
<path d="M56.4104 27.3846C57.9181 25.3133 58.7382 22.8213 58.7551 20.2595C58.7551 16.9534 57.4417 13.7827 55.104 11.4449C52.7662 9.10712 49.5955 7.79378 46.2894 7.79378C44.9 7.79378 43.5844 8.07166 42.3382 8.49283C39.2772 3.42579 33.7759 0 27.428 0C19.3954 0 12.7002 5.46216 10.6681 12.8478C10.4337 12.8304 10.2122 12.7783 9.97343 12.7783C7.32831 12.7783 4.79153 13.8291 2.92115 15.6995C1.05077 17.5698 0 20.1066 0 22.7517C0 25.3969 1.05077 27.9336 2.92115 29.804C4.79153 31.6744 7.32831 32.7252 9.97343 32.7252C12.279 32.7252 14.3762 31.9089 16.0608 30.5976C19.1219 33.2462 23.06 34.9048 27.4237 34.9048C31.727 34.8932 35.8719 33.2804 39.0514 30.3805C41.0921 31.8438 43.5757 32.7252 46.2807 32.7252C46.9754 32.7252 47.6441 32.634 48.3127 32.5211L48.3084 32.4907C48.6633 32.438 48.9878 32.2603 49.2234 31.9897C49.459 31.7191 49.5903 31.3732 49.5936 31.0144C49.5936 30.8145 49.5541 30.6165 49.4775 30.4319C49.4009 30.2472 49.2885 30.0795 49.147 29.9383C49.0054 29.7972 48.8373 29.6853 48.6525 29.6092C48.4676 29.5331 48.2695 29.4942 48.0696 29.4948C47.9784 29.4948 47.8959 29.5295 47.8047 29.5469L53.8747 25.8172C53.6154 26.0922 53.4696 26.4551 53.4666 26.8332C53.466 27.0331 53.5049 27.2312 53.581 27.4161C53.6572 27.6009 53.769 27.769 53.9102 27.9105C54.0513 28.0521 54.2191 28.1644 54.4037 28.2411C54.5884 28.3177 54.7864 28.3572 54.9863 28.3572C55.3344 28.3524 55.6697 28.2248 55.9328 27.9968L55.9589 28.0229L56.0153 27.9404C56.1907 27.7904 56.3265 27.5995 56.4104 27.3846Z" fill="black"/>
<path d="M27.428 31.8655C23.9734 31.8587 20.64 30.5912 18.0538 28.3007L16.1694 26.6682L14.1981 28.2009C12.9965 29.153 11.5109 29.6757 9.97777 29.6858C8.1391 29.6847 6.37606 28.9537 5.07591 27.6536C3.77577 26.3535 3.04485 24.5904 3.0437 22.7517C3.0437 18.9265 6.15253 15.8177 9.97777 15.8177L10.451 15.8785L12.939 16.0608L13.5989 13.6554C14.4299 10.6193 16.2312 7.93837 18.7281 6.02161C21.225 4.10486 24.2803 3.05751 27.428 3.03935C29.9122 3.0397 32.3533 3.68787 34.5105 4.91988C36.6677 6.15189 38.4662 7.92514 39.7287 10.0646L40.9879 12.1531L43.3021 11.3759C44.3833 11.0111 45.3602 10.8331 46.285 10.8331C51.4823 10.8331 55.7114 15.0622 55.7114 20.2595C55.7114 25.4568 51.4823 29.6858 46.285 29.6858C44.3355 29.6858 42.4468 29.0736 40.8272 27.91L38.8473 26.4901L37.028 28.1227C34.4 30.5129 30.9804 31.8461 27.428 31.8655Z" fill="#2BA9E0"/>
<path d="M34.4142 43.4541L34.4055 43.4498C34.1207 43.1661 33.735 43.0068 33.333 43.0068C32.931 43.0068 32.5454 43.1661 32.2606 43.4498L30.5542 45.1561V37.9746C30.5542 37.5715 30.3941 37.185 30.1091 36.9C29.8241 36.615 29.4376 36.4549 29.0345 36.4549C28.6315 36.4549 28.2449 36.615 27.9599 36.9C27.6749 37.185 27.5148 37.5715 27.5148 37.9746V45.1561L25.8171 43.4498C25.5323 43.1661 25.1467 43.0068 24.7447 43.0068C24.3427 43.0068 23.957 43.1661 23.6722 43.4498L23.6635 43.4541C23.3819 43.74 23.2241 44.1252 23.2241 44.5266C23.2241 44.9279 23.3819 45.3131 23.6635 45.599L27.936 49.8715C28.2399 50.1711 28.6394 50.31 29.0389 50.3057C29.2424 50.3111 29.445 50.2755 29.6345 50.2009C29.824 50.1263 29.9965 50.0142 30.1417 49.8715L34.4142 45.599C34.6958 45.3131 34.8536 44.9279 34.8536 44.5266C34.8536 44.1252 34.6958 43.74 34.4142 43.4541Z" fill="black"/>
<path d="M27.5887 4.67192C27.2239 4.66324 19.2522 4.63285 16.0131 12.3572C15.9569 12.4884 15.9274 12.6296 15.9264 12.7724C15.9253 12.9152 15.9526 13.0567 16.0067 13.1889C16.0609 13.321 16.1408 13.441 16.2417 13.542C16.3427 13.643 16.4628 13.7228 16.5949 13.777C16.8598 13.8882 17.158 13.8899 17.4241 13.7816C17.6903 13.6734 17.9026 13.464 18.0147 13.1995C20.6285 6.96881 27.0286 6.84289 27.5366 6.84289H27.5713C27.8592 6.8452 28.1362 6.73304 28.3414 6.5311C28.5466 6.32916 28.6632 6.05398 28.6655 5.76609C28.6678 5.4782 28.5556 5.20119 28.3537 4.996C28.1517 4.7908 27.8766 4.67423 27.5887 4.67192Z" fill="white"/>
<path d="M15.1317 15.4964C15.1317 15.7843 15.246 16.0604 15.4496 16.2639C15.6532 16.4675 15.9292 16.5819 16.2171 16.5819C16.505 16.5819 16.7811 16.4675 16.9847 16.2639C17.1883 16.0604 17.3026 15.7843 17.3026 15.4964C17.3026 15.2085 17.1883 14.9324 16.9847 14.7288C16.7811 14.5253 16.505 14.4109 16.2171 14.4109C15.9292 14.4109 15.6532 14.5253 15.4496 14.7288C15.246 14.9324 15.1317 15.2085 15.1317 15.4964Z" fill="white"/>
</svg>
