<svg width="21" height="22" viewBox="0 0 21 22" fill="none" xmlns="http://www.w3.org/2000/svg">
<path d="M10.52 14.0802C11.4991 14.0812 12.4771 14.0169 13.4476 13.8878C13.5714 12.9674 13.64 11.9846 13.64 10.9602C13.64 9.93578 13.5714 8.95298 13.4476 8.03258M10.52 14.0802L7.5924 8.03258C8.56291 7.90349 9.54094 7.83921 10.52 7.84018C11.5444 7.84018 12.5272 7.90882 13.4476 8.03258M10.52 14.0802C9.4956 14.0802 8.5128 14.0115 7.5924 13.8878L10.52 14.0802ZM13.4476 8.03258L13.3783 8.54794C13.2474 8.53034 13.1151 8.51387 12.9816 8.49859M13.4476 8.03258L12.9322 8.10188C12.9498 8.23281 12.9663 8.36507 12.9816 8.49859M12.9816 8.49859C13.071 9.28013 13.12 10.1049 13.12 10.9602C13.12 11.8153 13.0711 12.64 12.9816 13.4214C12.1647 13.5147 11.343 13.561 10.5205 13.5602H10.52C9.66489 13.5602 8.84019 13.5112 8.05875 13.4218C7.96552 12.6049 7.91918 11.7832 7.92 10.9607V10.9602C7.92 10.1051 7.96894 9.28038 8.05837 8.49894C8.8753 8.40571 9.69702 8.35937 10.5195 8.36018H10.52C11.3752 8.36018 12.2 8.40913 12.9816 8.49859ZM12.3323 16.6154C12.2108 17.0113 12.079 17.3793 11.9389 17.716L11.9386 17.7168C11.5924 18.5528 11.2243 19.136 10.904 19.4832C10.7008 19.7015 10.5714 19.7715 10.5203 19.7928C10.4692 19.7715 10.3396 19.7015 10.1372 19.4833L12.3323 16.6154ZM12.3323 16.6154C11.1256 16.7036 9.91401 16.7036 8.70728 16.6154C8.82267 16.9883 8.95431 17.3562 9.10186 17.7179C9.44804 18.5536 9.81602 19.1363 10.1369 19.483L12.3323 16.6154ZM17.2761 12.379L17.2766 12.3788C18.1129 12.0325 18.696 11.6643 19.0428 11.3433L17.2761 12.379ZM17.2761 12.379C16.9384 12.5192 16.5703 12.6511 16.1742 12.7726M17.2761 12.379L16.1742 12.7726M16.1742 12.7726C16.2624 11.5658 16.2623 10.3541 16.1741 9.14727C16.5475 9.26271 16.9157 9.39443 17.2778 9.5421C18.1133 9.88817 18.6961 10.2561 19.0431 10.5763C19.2613 10.7794 19.3313 10.9088 19.3526 10.9599C19.3313 11.0109 19.2614 11.1405 19.0431 11.343L16.1742 12.7726ZM10.9027 2.43796L10.9033 2.43858C11.2239 2.78402 11.5921 3.36683 11.9386 4.2036L11.9388 4.20409C12.0789 4.54152 12.2108 4.90943 12.3322 5.30498C11.1257 5.21686 9.91431 5.21686 8.70776 5.30498C8.82921 4.90943 8.96107 4.54152 9.10119 4.20409L9.1014 4.2036C9.44757 3.36759 9.81571 2.78434 10.136 2.43721C10.3391 2.219 10.4685 2.14897 10.5197 2.12758C10.5708 2.14902 10.7003 2.21922 10.9027 2.43796ZM3.76342 9.54158L3.76422 9.54125C4.1011 9.40109 4.46942 9.26916 4.86584 9.14763C4.77768 10.3545 4.77768 11.5662 4.86586 12.773C4.49238 12.6576 4.12397 12.5259 3.76218 12.3783C2.92635 12.032 2.34367 11.664 1.99705 11.3432C1.77867 11.1406 1.7087 11.011 1.68736 10.9599C1.70872 10.9088 1.77871 10.7793 1.99703 10.5762C2.34416 10.2559 2.9274 9.88776 3.76342 9.54158ZM19.6719 7.23459C19.2945 7.02523 18.8917 6.83338 18.4715 6.65897L18.4715 6.65895L18.4674 6.65726C17.5662 6.29222 16.6364 6.00303 15.6876 5.79261C15.4771 4.84378 15.1879 3.91395 14.8229 3.01279L14.8229 3.01279L14.8212 3.00864C14.6469 2.5887 14.4553 2.18589 14.246 1.80847C15.4615 2.30429 16.5709 3.03893 17.5061 3.97409C18.4414 4.90936 19.1761 6.01894 19.6719 7.23459ZM14.8212 18.9117L14.8212 18.9117L14.8229 18.9076C15.1882 18.0059 15.4775 17.0756 15.6879 16.1262C16.7045 15.8978 17.642 15.6055 18.4714 15.2615L18.4715 15.2614C18.8917 15.087 19.2945 14.8951 19.6719 14.6858C19.1761 15.9014 18.4414 17.011 17.5061 17.9463C16.5709 18.8814 15.4615 19.6161 14.246 20.1119C14.4553 19.7345 14.6469 19.3317 14.8212 18.9117ZM6.21708 18.9076L6.21706 18.9076L6.21878 18.9117C6.3932 19.3319 6.58504 19.7347 6.79441 20.1121C5.57875 19.6163 4.46918 18.8815 3.53391 17.9463C2.59881 17.0112 1.8642 15.9018 1.36839 14.6865C1.74589 14.8956 2.14877 15.0872 2.56845 15.2614L2.56845 15.2614L2.57259 15.2631C3.47373 15.6282 4.40357 15.9174 5.35242 16.1278C5.56283 17.0766 5.85202 18.0064 6.21708 18.9076ZM6.21878 3.00864L6.21872 3.00878C5.87467 3.83821 5.58234 4.77572 5.35396 5.7923C4.40465 6.00285 3.47432 6.29213 2.57266 6.65724L2.57266 6.65722L2.56845 6.65897C2.14858 6.83328 1.74566 7.02504 1.36821 7.23435C1.86402 6.01879 2.5987 4.9093 3.53391 3.97409C4.46906 3.03893 5.57848 2.30429 6.79397 1.80847C6.58472 2.18589 6.39312 2.5887 6.21878 3.00864Z" stroke="#EE811D" stroke-width="1.04"/>
</svg>
