<svg width="22" height="22" viewBox="0 0 22 22" fill="none" xmlns="http://www.w3.org/2000/svg">
<path d="M21.4199 10.9502C21.4212 11.8333 21.3121 12.7131 21.0952 13.5691H0.324717C0.107826 12.7131 -0.00125449 11.8333 1.08834e-05 10.9502C1.08834e-05 8.10974 1.12838 5.38562 3.13689 3.37711C5.14539 1.3686 7.86951 0.240234 10.71 0.240234C13.5504 0.240234 16.2745 1.3686 18.2831 3.37711C20.2916 5.38562 21.4199 8.10974 21.4199 10.9502Z" fill="#DCB262"/>
<path d="M21.0955 13.5692C20.5122 15.8815 19.1739 17.9331 17.2927 19.3987C15.4115 20.8643 13.095 21.6602 10.7102 21.6602C8.32545 21.6602 6.00891 20.8643 4.12769 19.3987C2.24648 17.9331 0.908202 15.8815 0.324951 13.5692H21.0955Z" fill="#FFD317"/>
</svg>
