<svg width="14" height="9" viewBox="0 0 14 9" fill="none" xmlns="http://www.w3.org/2000/svg">
<path d="M1.17524 2.58432L1.17524 2.58431L1.17435 2.58342C0.963158 2.37223 0.844514 2.0858 0.844514 1.78713C0.844514 1.48847 0.963158 1.20204 1.17435 0.990847C1.38553 0.779659 1.67197 0.661014 1.97063 0.661014C2.26905 0.661014 2.55525 0.779461 2.76639 0.990319C2.76657 0.990495 2.76674 0.990671 2.76692 0.990847L6.61123 4.88405L6.788 5.06306L6.9659 4.88517L10.8582 0.99291C11.0693 0.781722 11.3558 0.663076 11.6544 0.663077C11.9531 0.663077 12.2395 0.781722 12.4507 0.99291C12.6619 1.2041 12.7806 1.49053 12.7806 1.7892C12.7806 2.08786 12.6619 2.3743 12.4507 2.58549L7.58541 7.45081C7.37422 7.66199 7.08779 7.78064 6.78912 7.78064C6.49066 7.78064 6.20441 7.66215 5.99326 7.45123C5.99312 7.45109 5.99298 7.45095 5.99283 7.4508L1.17524 2.58432Z" fill="black" stroke="white" stroke-width="0.5"/>
</svg>
