<svg width="19" height="19" viewBox="0 0 19 19" fill="none" xmlns="http://www.w3.org/2000/svg">
<path d="M1 18H18M1 18V13.6371L9.5 4.91138M1 18H5.25L13.75 9.27424M9.5 4.91138L12.5479 1.78248L12.5498 1.78062C12.9693 1.34992 13.1794 1.13419 13.4217 1.05339C13.6351 0.982205 13.865 0.982205 14.0784 1.05339C14.3205 1.13413 14.5304 1.34961 14.9493 1.77971L16.7979 3.67734C17.2186 4.10929 17.4291 4.32536 17.508 4.5744C17.5773 4.79346 17.5772 5.02943 17.508 5.2485C17.4292 5.49736 17.2191 5.71311 16.7988 6.14443L16.7979 6.14536L13.75 9.27424M9.5 4.91138L13.75 9.27424" stroke="white" stroke-width="2" stroke-linecap="round" stroke-linejoin="round"/>
</svg>
