<svg width="103" height="81" viewBox="0 0 103 81" fill="none" xmlns="http://www.w3.org/2000/svg">
<path d="M7.21272 81C5.38602 80.9929 3.63657 80.2654 2.34742 78.9769C1.05827 77.6884 0.334459 75.9438 0.334473 74.1252V14.3551C0.387312 12.8464 1.03857 11.42 2.14559 10.3884C3.25261 9.35682 4.72517 8.80405 6.24072 8.85119H11.8837C12.994 8.87318 14.0884 8.58519 15.0427 8.01984C15.9971 7.45448 16.7734 6.63436 17.2837 5.65235L18.492 3.19945C18.9997 2.22262 19.7707 1.40591 20.7186 0.840902C21.6664 0.275892 22.7536 -0.0150814 23.8582 0.000602127H50.649C51.6557 -0.0123898 52.6495 0.227021 53.5389 0.696778C54.4284 1.16654 55.1848 1.85154 55.7385 2.68871L57.0547 4.76527C57.6074 5.60191 58.3626 6.28665 59.2508 6.75641C60.1391 7.22617 61.1318 7.46586 62.1375 7.45338H96.2925C97.8097 7.40446 99.2842 7.95754 100.392 8.99096C101.499 10.0244 102.149 11.4535 102.199 12.964V74.1184C102.199 75.9418 101.471 77.6904 100.176 78.9797C98.8812 80.269 97.1249 80.9933 95.2935 80.9933L7.21272 81Z" fill="#2BA9E0"/>
<g opacity="0.3">
<path d="M7.21272 81C5.38602 80.9929 3.63657 80.2654 2.34742 78.9769C1.05827 77.6884 0.334459 75.9438 0.334473 74.1252V14.3551C0.387312 12.8464 1.03857 11.42 2.14559 10.3884C3.25261 9.35682 4.72517 8.80405 6.24072 8.85119H11.8837C12.994 8.87318 14.0884 8.58519 15.0427 8.01984C15.9971 7.45448 16.7734 6.63436 17.2837 5.65235L18.492 3.19945C18.9997 2.22262 19.7707 1.40591 20.7186 0.840902C21.6664 0.275892 22.7536 -0.0150814 23.8582 0.000602127H50.649C51.6557 -0.0123898 52.6495 0.227021 53.5389 0.696778C54.4284 1.16654 55.1848 1.85154 55.7385 2.68871L57.0547 4.76527C57.6074 5.60191 58.3626 6.28665 59.2508 6.75641C60.1391 7.22617 61.1318 7.46586 62.1375 7.45338H96.2925C97.8097 7.40446 99.2842 7.95754 100.392 8.99096C101.499 10.0244 102.149 11.4535 102.199 12.964V74.1184C102.199 75.9418 101.471 77.6904 100.176 78.9797C98.8812 80.269 97.1249 80.9933 95.2935 80.9933L7.21272 81Z" fill="black"/>
</g>
<path d="M58.7086 7.48698L36.9736 7.43995L35.0364 3.82444C34.3777 2.65071 33.4128 1.67585 32.2437 1.00281C31.0746 0.329764 29.7447 -0.0164921 28.3944 0.000603751H7.15212C3.37212 0.000603751 0.307617 2.85672 0.307617 6.38486V73.7488C0.307617 77.781 3.79061 81 8.08361 81H94.3621C98.6619 81 102.138 77.7541 102.138 73.7488V12.4398C102.138 11.1262 101.614 9.86648 100.681 8.93764C99.7481 8.0088 98.4828 7.48698 97.1634 7.48698H58.7086Z" fill="#2BA9E0"/>
<path d="M70.1907 38.1582L70.1642 38.6575C72.5256 38.7825 74.744 39.8209 76.3467 41.5506C77.9492 43.2803 78.8094 45.5644 78.7443 47.9158C78.6793 50.2672 77.6942 52.5008 75.9983 54.14C74.3024 55.7794 72.0298 56.6947 69.6651 56.69H69.6642H60.0454C59.7345 56.69 59.4359 56.813 59.2154 57.0325C58.9948 57.2522 58.8704 57.5505 58.8704 57.8621C58.8704 58.1736 58.9948 58.472 59.2154 58.6916C59.4359 58.9111 59.7345 59.0341 60.0454 59.0341H69.1642V59.0438L69.6604 59.0475C72.6046 59.0695 75.4439 57.9585 77.5855 55.9458C79.7272 53.933 81.0057 51.1739 81.1533 48.2444C81.3009 45.3149 80.3063 42.4422 78.3775 40.226C76.5231 38.0951 73.943 36.7295 71.1412 36.3862C70.2556 33.5371 68.6352 30.9669 66.4394 28.9333C64.1611 26.8232 61.3491 25.3703 58.3051 24.7302C55.2611 24.0901 52.0994 24.2867 49.159 25.2992C46.3021 26.2828 43.7585 28.0006 41.7848 30.2768C41.4421 30.2473 41.0982 30.2325 40.7542 30.2323H40.7539C36.9199 30.2323 33.2424 31.7487 30.5307 34.4485C27.8188 37.1484 26.2949 40.8107 26.2949 44.6299C26.2949 48.449 27.8188 52.1113 30.5307 54.8112C33.2424 57.511 36.9199 59.0274 40.7539 59.0274H48.5839C48.8948 59.0274 49.1935 58.9044 49.414 58.6849C49.6346 58.4652 49.7589 58.1669 49.7589 57.8553C49.7589 57.5438 49.6346 57.2454 49.414 57.0258C49.1935 56.8063 48.8948 56.6833 48.5839 56.6833H40.7935C37.6345 56.609 34.6303 55.3079 32.4225 53.0583C30.2135 50.8075 28.9771 47.7859 28.9771 44.6399C28.9771 41.4939 30.2135 38.4724 32.4225 36.2215C34.6302 33.9721 37.6343 32.6709 40.7932 32.5966C41.2575 32.5973 41.7214 32.6273 42.1819 32.6865L42.1825 32.6866C42.3827 32.7121 42.5861 32.6858 42.7732 32.61C42.9598 32.5345 43.124 32.4123 43.2498 32.255C44.9663 30.1272 47.2434 28.5163 49.8271 27.6026C52.4111 26.6888 55.1995 26.5085 57.8806 27.0819C60.5617 27.6553 63.0295 28.9597 65.0082 30.8491C66.9867 32.7382 68.3983 35.1377 69.0855 37.7791C69.1482 38.022 69.2872 38.2381 69.4818 38.3961C69.6764 38.554 69.9164 38.6455 70.1665 38.6576L70.1907 38.1582ZM70.1907 38.1582C72.6815 38.29 75.0222 39.3854 76.7134 41.2108C78.4047 43.0362 79.3128 45.4471 79.2442 47.9296C79.1755 50.4121 78.1354 52.7696 76.3458 54.4995C74.5562 56.2295 72.1586 57.1949 69.6642 57.19L69.5697 37.6542C69.6056 37.7932 69.6852 37.9172 69.7969 38.0079C69.9087 38.0986 70.0467 38.1513 70.1907 38.1582Z" fill="white" stroke="white"/>
<path d="M53.2819 64.8206C53.5025 65.0401 53.8011 65.1631 54.112 65.1631C54.4229 65.1631 54.7216 65.0401 54.9421 64.8206C55.1627 64.6009 55.287 64.3026 55.287 63.991V46.5183C55.287 46.2068 55.1627 45.9084 54.9421 45.6888C54.7216 45.4693 54.4229 45.3463 54.112 45.3463C53.8011 45.3463 53.5025 45.4693 53.2819 45.6888C53.0613 45.9084 52.937 46.2068 52.937 46.5183V63.991C52.937 64.3026 53.0613 64.6009 53.2819 64.8206Z" fill="white" stroke="white"/>
<path d="M58.9362 53.4044L58.7156 53.8531C58.5504 53.7719 58.4065 53.653 58.2956 53.5058L58.2948 53.5047L54.0838 47.881L49.6263 53.3523L58.9362 53.4044ZM58.9362 53.4044C59.0312 53.4511 59.1358 53.4749 59.2418 53.4738V53.9738C59.2426 53.9738 59.2434 53.9738 59.2443 53.9738C59.4959 53.9733 59.7409 53.8921 59.9431 53.7421C60.0679 53.6511 60.1735 53.5363 60.2539 53.4042C60.3348 53.2711 60.3885 53.1233 60.4115 52.9692C60.4346 52.8151 60.4266 52.658 60.388 52.507C60.3496 52.3564 60.2816 52.2151 60.188 52.0912C60.1878 52.0909 60.1875 52.0905 60.1872 52.0902L55.7065 46.1175L55.7065 46.1175L55.7042 46.1145C55.5188 45.8711 55.2802 45.6731 55.0067 45.5354C54.7332 45.3977 54.4319 45.3239 54.1257 45.3195L54.1257 45.3194L54.1194 45.3194C53.8146 45.3189 53.5135 45.3851 53.2372 45.5135C52.9609 45.6419 52.7162 45.8293 52.5205 46.0626L52.5204 46.0626L52.5159 46.0681L47.7909 51.8677L47.7905 51.8682M58.9362 53.4044L47.7905 51.8682M47.7905 51.8682C47.593 52.1112 47.5004 52.4227 47.5334 52.7343C47.5665 53.0458 47.7224 53.3309 47.9661 53.5272C48.2098 53.7235 48.5214 53.815 48.8323 53.7823C49.143 53.7496 49.4286 53.5954 49.6259 53.3528L47.7905 51.8682Z" fill="white" stroke="white"/>
</svg>
