<svg width="24" height="24" viewBox="0 0 24 24" fill="none" xmlns="http://www.w3.org/2000/svg">
<g clip-path="url(#clip0_15_624)">
<path d="M11.9625 11.3625V23.25C11.9625 23.25 16.875 19.8 20.325 18.7875C20.325 18.7875 20.475 11.4375 22.6125 7.76245L11.9625 11.3625Z" fill="#076170"/>
<path d="M15.0375 21.45C15.0375 21.45 15.225 10.9125 15.6 10.3875C15.975 9.82495 19.2 9.26245 19.2 9.26245C19.2 9.26245 17.8875 19.125 18.1875 19.7625C18.225 19.725 16.875 20.2875 15.0375 21.45Z" fill="#B3690E"/>
<path d="M11.9625 23.25C11.9625 23.25 8.5125 20.325 3.15 18.7875C3.15 18.7875 3.5625 12.75 1.6125 8.13745L11.9625 11.3625V23.25Z" fill="#3BAACF"/>
<path d="M5.325 19.7625C5.325 19.7625 8.475 21.0375 8.7 21.45C8.925 21.8625 8.925 10.8375 8.925 10.8375C8.925 10.8375 4.6125 9.63745 4.2375 9.63745C4.2375 9.63745 5.55 14.1 5.325 19.7625Z" fill="#E9C243"/>
<path opacity="0.3" d="M11.9625 11.3625V13.35L21.6 10.05C21.8625 9.22495 22.2 8.43745 22.575 7.76245L11.9625 11.3625ZM2.2875 10.2C2.1 9.48745 1.875 8.81245 1.575 8.13745L11.925 11.3625V13.35L2.2875 10.2Z" fill="#1D1D1D"/>
<path d="M0.75 7.08752L11.4375 9.45002L23.25 6.60002L11.6625 5.96252L0.75 7.08752Z" fill="#4FC7E8"/>
<path d="M0.75 7.08752L1.6125 9.45003L11.4375 12.225V9.45003L0.75 7.08752Z" fill="#3BAACF"/>
<path d="M11.4375 12.225C11.4375 12.225 20.3625 8.92495 22.575 8.77495C22.575 8.77495 22.725 7.46245 23.25 6.63745L11.4375 9.44995V12.225Z" fill="#076170"/>
<path d="M3.9375 7.7999L6.1125 9.8624L8.5125 8.7749L12 7.7249L16.35 8.2499L18.6375 8.6999L20.475 7.2749L3.9375 7.7999Z" fill="#F0AE11"/>
<path d="M8.5125 8.77495L12 7.72495L16.35 8.24995L20.475 7.27495L11.775 6.44995L3.9375 7.79995L8.5125 8.77495Z" fill="#F0AE11"/>
<path d="M3.9375 7.80005V10.425L8.325 11.625L8.5125 8.77505L3.9375 7.80005Z" fill="#F8D048"/>
<path d="M16.35 8.25002L16.425 10.7625L20.175 9.63752L20.475 7.27502L16.35 8.25002Z" fill="#C47116"/>
<path d="M13.9875 6.4875C13.9875 6.4875 13.9875 3.8625 16.5375 1.575C16.5375 1.575 15 2.1375 14.25 1.9875C13.35 1.8375 13.05 0.75 13.05 0.75C13.05 0.75 10.875 5.475 11.5125 6.075C12.15 6.7125 13.9875 6.4875 13.9875 6.4875Z" fill="#EA9F07"/>
<path d="M10.65 8.02502C10.65 8.02502 9.1875 5.02502 6.075 3.45002C6.075 3.45002 8.5125 3.22502 9.075 2.92502C9.7875 2.58752 10.2 1.65002 10.2 1.65002C10.2 1.65002 12.9 6.37502 12.675 7.08752C12.45 7.80002 10.65 8.02502 10.65 8.02502Z" fill="#F8D048"/>
<path d="M12.225 7.68752C12.225 7.68752 9.93751 8.58752 7.01251 8.58752C0.862506 8.55002 5.96046e-06 4.12502 6.07501 4.53752C11.0625 4.91252 12.225 7.68752 12.225 7.68752Z" fill="#EA9F07"/>
<path d="M11.8125 7.64998C11.8125 7.64998 14.5125 7.87498 17.025 7.23748C22.275 5.88748 20.325 1.91248 15.375 3.59998C11.325 4.98748 11.8125 7.64998 11.8125 7.64998Z" fill="#F0AE11"/>
<path d="M12.225 7.68749C12.225 7.68749 10.8 8.24999 8.9625 8.24999C5.1375 8.24999 4.575 5.47499 8.3625 5.73749C11.475 5.96249 12.225 7.68749 12.225 7.68749Z" fill="#824000"/>
<path d="M12.225 7.68751C12.225 7.68751 14.1 7.83751 15.8625 7.38751C19.5375 6.45001 18.15 3.67501 14.7375 4.83751C11.8875 5.81251 12.225 7.68751 12.225 7.68751Z" fill="#824000"/>
</g>
<defs>
<clipPath id="clip0_15_624">
<rect width="24" height="24" fill="white"/>
</clipPath>
</defs>
</svg>
