<svg width="26" height="20" viewBox="0 0 26 20" fill="none" xmlns="http://www.w3.org/2000/svg">
<path d="M5.72482 0.667131C5.618 0.558142 5.49076 0.47127 5.35035 0.411477C5.20995 0.351685 5.05914 0.320144 4.90654 0.318659C4.75394 0.317173 4.60254 0.34577 4.461 0.402817C4.31946 0.459864 4.19054 0.544243 4.08162 0.651131C2.84954 1.87606 1.8722 3.33283 1.20599 4.93739C0.539779 6.54196 0.197881 8.26256 0.200022 9.99993C0.198024 11.804 0.566829 13.5892 1.28355 15.2447C2.00026 16.9003 3.0496 18.3908 4.36642 19.6239C4.58805 19.8288 4.88081 19.9392 5.18254 19.9318C5.48426 19.9243 5.7712 19.7995 5.98242 19.5839C6.48802 19.0783 6.42562 18.2735 5.93922 17.8079C4.88242 16.8008 4.04145 15.5893 3.46741 14.247C2.89337 12.9047 2.59827 11.4598 2.60002 9.99993C2.60002 7.04633 3.78562 4.36793 5.70882 2.41913C6.17282 1.94713 6.22082 1.16313 5.72482 0.667131ZM8.54242 3.48793C8.3317 3.27111 8.04362 3.14667 7.74131 3.14187C7.439 3.13707 7.14712 3.25231 6.92962 3.46233C6.06394 4.31666 5.3768 5.33462 4.90819 6.45697C4.43958 7.57933 4.19886 8.78368 4.20002 9.99993C4.19814 11.2859 4.46684 12.558 4.98865 13.7333C5.51046 14.9087 6.27371 15.9612 7.22882 16.8223C7.44842 17.0163 7.73425 17.1184 8.02707 17.1074C8.31988 17.0964 8.59723 16.9731 8.80162 16.7631C9.32642 16.2383 9.22882 15.4127 8.73602 14.9487C8.06052 14.3137 7.52243 13.5469 7.15504 12.6957C6.78764 11.8445 6.59875 10.927 6.60002 9.99993C6.60002 8.15993 7.33122 6.48953 8.52002 5.26393C8.97762 4.79353 9.05282 3.99673 8.54242 3.48793ZM17.4576 3.48793C17.6683 3.27111 17.9564 3.14667 18.2587 3.14187C18.561 3.13707 18.8529 3.25231 19.0704 3.46233C19.9361 4.31666 20.6232 5.33462 21.0918 6.45697C21.5605 7.57933 21.8012 8.78368 21.8 9.99993C21.8019 11.2859 21.5332 12.558 21.0114 13.7333C20.4896 14.9087 19.7263 15.9612 18.7712 16.8223C18.5516 17.0163 18.2658 17.1184 17.973 17.1074C17.6802 17.0964 17.4028 16.9731 17.1984 16.7631C16.6736 16.2383 16.7712 15.4127 17.264 14.9487C17.9395 14.3137 18.4776 13.5469 18.845 12.6957C19.2124 11.8445 19.4013 10.927 19.4 9.99993C19.4 8.15993 18.6688 6.48953 17.48 5.26393C17.0224 4.79353 16.9472 3.99673 17.4576 3.48793ZM20.2752 0.668731C20.382 0.559743 20.5093 0.47287 20.6497 0.413077C20.7901 0.353285 20.9409 0.321745 21.0935 0.320259C21.2461 0.318773 21.3975 0.34737 21.539 0.404417C21.6806 0.461464 21.8095 0.545843 21.9184 0.652731C23.1503 1.87747 24.1275 3.33398 24.7937 4.93825C25.4599 6.54253 25.8019 8.26283 25.8 9.99993C25.802 11.804 25.4332 13.5892 24.7165 15.2447C23.9998 16.9003 22.9504 18.3908 21.6336 19.6239C21.412 19.8288 21.1192 19.9392 20.8175 19.9318C20.5158 19.9243 20.2288 19.7995 20.0176 19.5839C19.512 19.0783 19.5744 18.2735 20.0624 17.8079C21.1189 16.8006 21.9596 15.5891 22.5334 14.2468C23.1071 12.9046 23.402 11.4597 23.4 9.99993C23.4 7.04633 22.2144 4.36793 20.2912 2.41913C19.8272 1.94713 19.7792 1.16313 20.2752 0.667131V0.668731ZM13 7.59993C12.3635 7.59993 11.7531 7.85279 11.303 8.30287C10.8529 8.75296 10.6 9.36341 10.6 9.99993C10.6 10.6365 10.8529 11.2469 11.303 11.697C11.7531 12.1471 12.3635 12.3999 13 12.3999C13.6365 12.3999 14.247 12.1471 14.6971 11.697C15.1472 11.2469 15.4 10.6365 15.4 9.99993C15.4 9.36341 15.1472 8.75296 14.6971 8.30287C14.247 7.85279 13.6365 7.59993 13 7.59993Z" fill="white"/>
</svg>
