<svg width="31" height="31" viewBox="0 0 31 31" fill="none" xmlns="http://www.w3.org/2000/svg">
<path d="M0.693359 15.4987C0.693359 7.43356 7.2901 0.895508 15.3552 0.895508C23.4203 0.895508 30.017 7.43356 30.017 15.4987C30.017 23.5638 23.4203 30.1018 15.3552 30.1018C7.2901 30.1018 0.693359 23.5638 0.693359 15.4987Z" fill="url(#paint0_linear_1045_379)"/>
<path d="M2.07288 15.4987C2.07288 8.20264 8.04478 2.27503 15.3552 2.27503C22.6656 2.27503 28.6375 8.20264 28.6375 15.4987C28.6375 22.7947 22.6656 28.7223 15.3552 28.7223C8.04478 28.7223 2.07288 22.7947 2.07288 15.4987Z" stroke="white" stroke-opacity="0.2" stroke-width="2.75904"/>
<path d="M4.11816 15.6779C4.11816 9.39773 9.25495 4.30664 15.5351 4.30664C21.8153 4.30664 26.9521 9.39773 26.9521 15.6779C26.9521 21.9581 21.8153 27.0492 15.5351 27.0492C9.25495 27.0492 4.11816 21.9581 4.11816 15.6779Z" fill="url(#paint1_linear_1045_379)"/>
<path d="M19.1887 12.8112C17.1372 13.9226 15.4853 15.6427 14.2327 17.6112C9.51713 25.0222 10.7623 29.7388 6.05271 26.8583C1.78399 23.3826 -1.11594 16.7679 1.95025 9.57667C5.95902 0.174796 19.9157 -3.00624 27.2893 7.04772C28.9649 9.40839 23.7876 10.3201 19.1887 12.8112Z" fill="url(#paint2_linear_1045_379)" fill-opacity="0.5"/>
<path d="M17.8193 12.7622C17.8193 12.7622 15.2307 13.1803 13.7197 14.5245C12.2087 15.8686 11.8208 19.0895 11.8208 19.0895C11.8208 19.0895 11.4329 15.8686 9.92187 14.5245C8.41086 13.1803 6.40239 12.7367 6.40239 12.7367C6.40239 12.7367 8.41086 12.4902 9.92187 11.1461C11.4329 9.80193 11.8208 6.58105 11.8208 6.58105C11.8208 6.58105 12.2087 9.80193 13.7197 11.1461C15.2307 12.4902 17.8193 12.7622 17.8193 12.7622Z" fill="white"/>
<defs>
<linearGradient id="paint0_linear_1045_379" x1="5.84216" y1="3.63055" x2="21.8342" y2="28.9388" gradientUnits="userSpaceOnUse">
<stop stop-color="#FFE092"/>
<stop offset="1" stop-color="#E3A302"/>
</linearGradient>
<linearGradient id="paint1_linear_1045_379" x1="8.12747" y1="6.43638" x2="20.5803" y2="26.1436" gradientUnits="userSpaceOnUse">
<stop stop-color="#FFE092"/>
<stop offset="1" stop-color="#E3A302"/>
</linearGradient>
<linearGradient id="paint2_linear_1045_379" x1="-4.6375" y1="-0.7345" x2="17.491" y2="38.8925" gradientUnits="userSpaceOnUse">
<stop stop-color="white"/>
<stop offset="1" stop-color="white" stop-opacity="0"/>
</linearGradient>
</defs>
</svg>
