<svg width="37" height="37" viewBox="0 0 37 37" fill="none" xmlns="http://www.w3.org/2000/svg">
<path d="M18.7903 36.6603C28.8365 36.6603 36.9805 28.5118 36.9805 18.4603C36.9805 8.40867 28.8365 0.260254 18.7903 0.260254C8.74413 0.260254 0.600098 8.40867 0.600098 18.4603C0.600098 28.5118 8.74413 36.6603 18.7903 36.6603Z" fill="white"/>
<path d="M18.7907 36.6603C15.4099 36.6658 12.0951 35.7241 9.22156 33.9419L21.4058 0.447021C25.9589 1.10463 30.094 3.46391 32.9781 7.04978C35.8623 10.6356 37.2815 15.1817 36.9498 19.7726C36.6181 24.3634 34.5602 28.658 31.1905 31.7915C27.8208 34.9251 23.3897 36.6648 18.7893 36.6603H18.7907Z" fill="#6E7BF2"/>
<path d="M12.6203 18.3804C12.6254 18.0742 12.594 17.7684 12.5269 17.4696H8.34045V19.1248H10.7983C10.7521 19.4151 10.6476 19.693 10.4911 19.9417C10.3347 20.1905 10.1295 20.405 9.88799 20.5723L9.87924 20.6269L11.2023 21.653L11.2941 21.6618C11.732 21.238 12.0763 20.7271 12.3048 20.1621C12.5332 19.597 12.6409 18.9903 12.6207 18.3811" fill="#4285F4"/>
<path d="M8.34033 22.7424C9.42649 22.7729 10.4831 22.3862 11.2932 21.6617L9.88716 20.5705C9.43116 20.8766 8.89096 21.0325 8.34207 21.0164C7.77816 21.0127 7.22971 20.8316 6.77435 20.4987C6.31899 20.1659 5.97978 19.6982 5.80475 19.1619L5.75188 19.1671L4.37591 20.2321L4.3584 20.2815C4.72764 21.0217 5.29593 21.6441 5.99937 22.0789C6.70281 22.5136 7.51351 22.7434 8.34033 22.7424Z" fill="#EE811D"/>
<path d="M5.80294 19.1643C5.70537 18.8801 5.65533 18.5817 5.65484 18.2812C5.65702 17.9811 5.7058 17.6832 5.79944 17.3981L5.79769 17.3399L4.40386 16.2574L4.35799 16.2785C4.04524 16.8996 3.88232 17.5855 3.88232 18.281C3.88232 18.9766 4.04524 19.6624 4.35799 20.2836L5.80294 19.1626" fill="#FBBC05"/>
<path d="M8.34032 15.546C8.97936 15.5354 9.59741 15.7742 10.0636 16.2116L11.3223 14.983C10.5148 14.2257 9.44596 13.8101 8.33927 13.8232C7.51257 13.8228 6.70207 14.0526 5.99851 14.4869C5.29495 14.9213 4.72608 15.5429 4.35559 16.2824L5.79669 17.4033C5.97349 16.8667 6.31411 16.3991 6.77057 16.0664C7.22702 15.7337 7.7763 15.5527 8.34102 15.5488" fill="#EB4335"/>
<path d="M19.6382 18.7776V22.0194H18.6022V14.0106H21.3489C21.6765 14.0035 22.0023 14.061 22.3076 14.1799C22.613 14.2988 22.8919 14.4767 23.1286 14.7035C23.3511 14.9087 23.531 15.1558 23.6581 15.4306C23.7852 15.7054 23.8568 16.0026 23.8691 16.3051C23.8814 16.6076 23.8339 16.9096 23.7295 17.1938C23.6251 17.478 23.4657 17.7388 23.2605 17.9614C23.2183 18.0081 23.1743 18.0521 23.1286 18.0935C22.8913 18.3186 22.6119 18.4947 22.3065 18.6117C22.0012 18.7288 21.6758 18.7844 21.3489 18.7755L19.6382 18.7773V18.7776ZM19.6382 14.9964V17.7922H21.3737C21.6466 17.7985 21.9154 17.7245 22.1467 17.5793C22.3779 17.4341 22.5614 17.2242 22.6744 16.9755C22.7873 16.7269 22.8248 16.4505 22.7821 16.1807C22.7394 15.9109 22.6185 15.6597 22.4343 15.4581L22.4237 15.4476C22.4153 15.4382 22.4064 15.4294 22.3971 15.4209C22.2661 15.2819 22.1071 15.1722 21.9307 15.0989C21.7543 15.0257 21.5643 14.9906 21.3734 14.996L19.6382 14.9964ZM26.2555 16.3626C26.9156 16.3254 27.5648 16.5437 28.0684 16.9725C28.2931 17.1866 28.4689 17.4469 28.5837 17.7353C28.6985 18.0238 28.7497 18.3337 28.7336 18.6438V22.0215H27.7435V21.2599H27.6994C27.5193 21.5511 27.2669 21.7907 26.9668 21.9553C26.6667 22.1199 26.3291 22.204 25.9869 22.1994C25.4295 22.2177 24.8855 22.0258 24.4628 21.6617C24.2671 21.498 24.1104 21.2925 24.0044 21.0604C23.8983 20.8282 23.8455 20.5753 23.8498 20.32C23.841 20.0592 23.8953 19.8002 24.0078 19.5648C24.1204 19.3294 24.288 19.1246 24.4965 18.9678C24.9999 18.6109 25.6088 18.4339 26.225 18.4655C26.7516 18.4456 27.2744 18.5609 27.7439 18.8004V18.5643C27.7451 18.3901 27.7073 18.2178 27.6332 18.0602C27.5591 17.9026 27.4506 17.7636 27.3156 17.6535C27.0412 17.4082 26.6847 17.2748 26.3167 17.2797C26.045 17.2734 25.7763 17.3369 25.536 17.464C25.2958 17.5911 25.092 17.7777 24.9443 18.0059L24.0339 17.4349C24.2821 17.0808 24.6167 16.7962 25.006 16.6082C25.3952 16.4202 25.8261 16.3352 26.2575 16.3612L26.2555 16.3626ZM24.9145 20.3432C24.9139 20.4742 24.9446 20.6036 25.004 20.7204C25.0634 20.8372 25.1499 20.9381 25.2562 21.0147C25.4859 21.194 25.7703 21.2886 26.0615 21.2827C26.498 21.2827 26.9168 21.1096 27.226 20.8014C27.3875 20.6607 27.5169 20.487 27.6056 20.2921C27.6943 20.0971 27.7403 19.8854 27.7403 19.6713C27.3464 19.3935 26.8699 19.2577 26.3888 19.2859C26.0156 19.2721 25.6476 19.3778 25.3385 19.5875C25.2111 19.6685 25.1059 19.7799 25.0321 19.9115C24.9583 20.0432 24.9182 20.1912 24.9156 20.3421L24.9145 20.3432ZM34.4186 16.5423L30.9614 24.4348H29.8918L31.1747 21.6722L28.8989 16.5388H30.0249L31.6705 20.4752H31.6932L33.2912 16.5388L34.4186 16.5423Z" fill="white"/>
</svg>
