<svg width="24" height="24" viewBox="0 0 24 24" fill="none" xmlns="http://www.w3.org/2000/svg">
<path fill-rule="evenodd" clip-rule="evenodd" d="M4.94208 12.0001C4.94208 11.2206 5.07222 10.4734 5.30449 9.77245L1.23881 6.68408C0.446434 8.28445 0 10.0877 0 12.0001C0 13.9108 0.445885 15.713 1.23717 17.3123L5.30065 14.2179C5.07057 13.5203 4.94208 12.7757 4.94208 12.0001Z" fill="#FBBC05"/>
<path fill-rule="evenodd" clip-rule="evenodd" d="M12.0811 4.90909C13.7833 4.90909 15.3209 5.50909 16.5289 6.49091L20.0433 3C17.9017 1.14545 15.1561 0 12.0811 0C7.30703 0 3.20401 2.71582 1.23926 6.684L5.30494 9.77236C6.24174 6.94364 8.91211 4.90909 12.0811 4.90909Z" fill="#EB4335"/>
<path fill-rule="evenodd" clip-rule="evenodd" d="M12.0811 19.0908C8.9121 19.0908 6.24174 17.0563 5.30494 14.2275L1.23926 17.3154C3.20401 21.2841 7.30703 23.9999 12.0811 23.9999C15.0276 23.9999 17.8408 22.9592 19.9522 21.0092L16.0929 18.0414C15.004 18.7237 13.6329 19.0908 12.0811 19.0908Z" fill="#34A853"/>
<path fill-rule="evenodd" clip-rule="evenodd" d="M23.6126 11.9999C23.6126 11.2908 23.5027 10.5272 23.338 9.81812H12.0811V14.4545H18.5607C18.2367 16.0352 17.3548 17.2505 16.0929 18.0414L19.9521 21.0092C22.17 18.9616 23.6126 15.9114 23.6126 11.9999Z" fill="#4285F4"/>
</svg>
