<svg width="34" height="29" viewBox="0 0 34 29" fill="none" xmlns="http://www.w3.org/2000/svg">
<path d="M29 27.3333C29 27.709 28.842 28.0694 28.5607 28.335C28.2794 28.6007 27.8978 28.75 27.5 28.75H6.5C6.10218 28.75 5.72064 28.6007 5.43934 28.335C5.15804 28.0694 5 27.709 5 27.3333V14.5833H0.5L15.9905 1.28363C16.2667 1.04631 16.6266 0.914795 17 0.914795C17.3734 0.914795 17.7333 1.04631 18.0095 1.28363L33.5 14.5833H29V27.3333ZM14.29 17.4166C13.7156 17.4166 13.25 17.8823 13.25 18.4566V28.75H20.3484V18.4566C20.3484 17.8823 19.8827 17.4166 19.3084 17.4166H14.29Z" fill="#1D1D1D"/>
</svg>
