<svg width="25" height="24" viewBox="0 0 25 24" fill="none" xmlns="http://www.w3.org/2000/svg">
<path d="M19.4694 0H5.75516C2.91484 0 0.612305 2.30254 0.612305 5.14286V18.8571C0.612305 21.6975 2.91484 24 5.75516 24H19.4694C22.3098 24 24.6123 21.6975 24.6123 18.8571V5.14286C24.6123 2.30254 22.3098 0 19.4694 0Z" fill="url(#paint0_radial_723_4359)"/>
<path d="M19.4694 0H5.75516C2.91484 0 0.612305 2.30254 0.612305 5.14286V18.8571C0.612305 21.6975 2.91484 24 5.75516 24H19.4694C22.3098 24 24.6123 21.6975 24.6123 18.8571V5.14286C24.6123 2.30254 22.3098 0 19.4694 0Z" fill="url(#paint1_radial_723_4359)"/>
<path d="M19.4694 0H5.75516C2.91484 0 0.612305 2.30254 0.612305 5.14286V18.8571C0.612305 21.6975 2.91484 24 5.75516 24H19.4694C22.3098 24 24.6123 21.6975 24.6123 18.8571V5.14286C24.6123 2.30254 22.3098 0 19.4694 0Z" fill="url(#paint2_radial_723_4359)"/>
<path d="M18.6124 7.28571C18.6124 7.99577 18.0368 8.57143 17.3267 8.57143C16.6167 8.57143 16.041 7.99577 16.041 7.28571C16.041 6.57563 16.6167 6 17.3267 6C18.0368 6 18.6124 6.57563 18.6124 7.28571Z" fill="white"/>
<path fill-rule="evenodd" clip-rule="evenodd" d="M12.6119 16.2858C14.9788 16.2858 16.8976 14.367 16.8976 12.0001C16.8976 9.63316 14.9788 7.71436 12.6119 7.71436C10.245 7.71436 8.32617 9.63316 8.32617 12.0001C8.32617 14.367 10.245 16.2858 12.6119 16.2858ZM12.6119 14.5715C14.0321 14.5715 15.1833 13.4203 15.1833 12.0001C15.1833 10.5799 14.0321 9.42864 12.6119 9.42864C11.1917 9.42864 10.0405 10.5799 10.0405 12.0001C10.0405 13.4203 11.1917 14.5715 12.6119 14.5715Z" fill="white"/>
<path fill-rule="evenodd" clip-rule="evenodd" d="M4.04102 11.657C4.04102 8.77678 4.04102 7.33661 4.60155 6.23652C5.09462 5.26882 5.88137 4.48207 6.84907 3.989C7.94916 3.42847 9.38933 3.42847 12.2696 3.42847H12.9553C15.8356 3.42847 17.2757 3.42847 18.3758 3.989C19.3435 4.48207 20.1303 5.26882 20.6233 6.23652C21.1839 7.33661 21.1839 8.77678 21.1839 11.657V12.3428C21.1839 15.223 21.1839 16.6632 20.6233 17.7632C20.1303 18.731 19.3435 19.5177 18.3758 20.0108C17.2757 20.5713 15.8356 20.5713 12.9553 20.5713H12.2696C9.38933 20.5713 7.94916 20.5713 6.84907 20.0108C5.88137 19.5177 5.09462 18.731 4.60155 17.7632C4.04102 16.6632 4.04102 15.223 4.04102 12.3428V11.657ZM12.2696 5.14275H12.9553C14.4238 5.14275 15.4219 5.14409 16.1935 5.20712C16.9451 5.26853 17.3295 5.37983 17.5976 5.51644C18.2427 5.84516 18.7672 6.36966 19.0959 7.01475C19.2325 7.28287 19.3438 7.66721 19.4052 8.41884C19.4682 9.19044 19.4696 10.1886 19.4696 11.657V12.3428C19.4696 13.8112 19.4682 14.8094 19.4052 15.581C19.3438 16.3326 19.2325 16.7169 19.0959 16.985C18.7672 17.6301 18.2427 18.1546 17.5976 18.4833C17.3295 18.62 16.9451 18.7313 16.1935 18.7927C15.4219 18.8557 14.4238 18.857 12.9553 18.857H12.2696C10.8011 18.857 9.80299 18.8557 9.03139 18.7927C8.27976 18.7313 7.89542 18.62 7.6273 18.4833C6.98221 18.1546 6.4577 17.6301 6.12899 16.985C5.99238 16.7169 5.88108 16.3326 5.81967 15.581C5.75664 14.8094 5.7553 13.8112 5.7553 12.3428V11.657C5.7553 10.1886 5.75664 9.19044 5.81967 8.41884C5.88108 7.66721 5.99238 7.28287 6.12899 7.01475C6.4577 6.36966 6.98221 5.84516 7.6273 5.51644C7.89542 5.37983 8.27976 5.26853 9.03139 5.20712C9.80299 5.14409 10.8011 5.14275 12.2696 5.14275Z" fill="white"/>
<defs>
<radialGradient id="paint0_radial_723_4359" cx="0" cy="0" r="1" gradientUnits="userSpaceOnUse" gradientTransform="translate(9.18373 18) rotate(-55.3758) scale(21.8739)">
<stop stop-color="#B13589"/>
<stop offset="0.79309" stop-color="#C62F94"/>
<stop offset="1" stop-color="#8A3AC8"/>
</radialGradient>
<radialGradient id="paint1_radial_723_4359" cx="0" cy="0" r="1" gradientUnits="userSpaceOnUse" gradientTransform="translate(8.32659 24.8571) rotate(-65.1363) scale(19.3665)">
<stop stop-color="#E0E8B7"/>
<stop offset="0.444662" stop-color="#FB8A2E"/>
<stop offset="0.71474" stop-color="#E2425C"/>
<stop offset="1" stop-color="#E2425C" stop-opacity="0"/>
</radialGradient>
<radialGradient id="paint2_radial_723_4359" cx="0" cy="0" r="1" gradientUnits="userSpaceOnUse" gradientTransform="translate(-0.673409 0.857143) rotate(-8.1301) scale(33.3351 7.13002)">
<stop offset="0.156701" stop-color="#406ADC"/>
<stop offset="0.467799" stop-color="#6A45BE"/>
<stop offset="1" stop-color="#6A45BE" stop-opacity="0"/>
</radialGradient>
</defs>
</svg>
