<svg width="50" height="50" viewBox="0 0 50 50" fill="none" xmlns="http://www.w3.org/2000/svg">
<path d="M42.1362 36.8958L27.4402 47.4438C26.8188 47.8919 26.0741 48.1329 25.3103 48.1329C24.5465 48.1329 23.8018 47.8919 23.1804 47.4438L8.54979 36.8958C8.07552 36.552 7.68912 36.0993 7.42253 35.5751C7.15593 35.0508 7.01679 34.4701 7.0166 33.8808V6.09122C7.0166 5.10936 7.40285 4.16764 8.09051 3.47295C8.77817 2.77826 9.71099 2.3874 10.6841 2.38623H40.0063C40.979 2.38856 41.9111 2.77979 42.5985 3.47423C43.286 4.16867 43.6726 5.10971 43.6737 6.09122V33.8808C43.6738 34.4706 43.5342 35.0518 43.2668 35.5762C42.9994 36.1006 42.6118 36.553 42.1362 36.8958Z" fill="url(#paint0_linear_535_4626)"/>
<g opacity="0.2">
<path opacity="0.2" d="M41.0602 6.09142C41.0602 5.80818 40.9487 5.53653 40.7502 5.33624C40.5517 5.13596 40.2825 5.02344 40.0018 5.02344H10.684C10.5452 5.02344 10.4077 5.05109 10.2796 5.10482C10.1514 5.15854 10.035 5.23728 9.93708 5.33651C9.83914 5.43574 9.76159 5.55351 9.70887 5.68306C9.65616 5.8126 9.62932 5.95138 9.62989 6.09142V27.438H41.0602V6.09142Z" fill="black"/>
</g>
<path d="M9.62999 27.438V33.8855C9.62754 34.0565 9.66583 34.2256 9.74162 34.3785C9.81742 34.5315 9.92851 34.6638 10.0656 34.7645L24.6918 45.3125C24.8716 45.4405 25.086 45.5095 25.306 45.5103C25.5261 45.5107 25.7409 45.4415 25.9201 45.3125L40.6248 34.7469C40.7624 34.6468 40.8739 34.5145 40.9497 34.3614C41.0256 34.2084 41.0635 34.039 41.0603 33.8679V27.438H9.62999Z" fill="#3A4ADB"/>
<path d="M38.3521 31.7871L38.2476 31.0048C38.1963 30.6119 38.0199 30.2465 37.745 29.9635C37.47 29.6805 37.1114 29.4953 36.7231 29.4358L36.2266 29.3611L36.7231 29.282C37.1114 29.2225 37.47 29.0373 37.745 28.7543C38.0199 28.4714 38.1963 28.1059 38.2476 27.713L38.3521 26.9307L38.4523 27.713C38.5036 28.1059 38.6799 28.4714 38.9549 28.7543C39.2298 29.0373 39.5885 29.2225 39.9768 29.282L40.4777 29.3611L39.9768 29.4358C39.5885 29.4953 39.2298 29.6805 38.9549 29.9635C38.6799 30.2465 38.5036 30.6119 38.4523 31.0048L38.3521 31.7871Z" fill="#FFCE51"/>
<path d="M31.6575 11.5706L31.6096 11.4344C31.5192 11.1656 31.3724 10.9197 31.1792 10.7134C30.9861 10.5071 30.751 10.3452 30.4902 10.2389C30.751 10.1326 30.9861 9.97078 31.1792 9.76447C31.3724 9.55817 31.5192 9.31224 31.6096 9.04347L31.6575 8.90723L31.7055 9.04347C31.7959 9.31224 31.9427 9.55817 32.1359 9.76447C32.329 9.97078 32.564 10.1326 32.8249 10.2389C32.564 10.3452 32.329 10.5071 32.1359 10.7134C31.9427 10.9197 31.7959 11.1656 31.7055 11.4344L31.6575 11.5706Z" fill="#FFCE51"/>
<path opacity="0.3" d="M39.0928 23.8629C39.4536 23.8629 39.7461 23.5678 39.7461 23.2037C39.7461 22.8396 39.4536 22.5444 39.0928 22.5444C38.732 22.5444 38.4395 22.8396 38.4395 23.2037C38.4395 23.5678 38.732 23.8629 39.0928 23.8629Z" fill="white"/>
<path opacity="0.3" d="M30.3545 38.1867C30.7154 38.1867 31.0079 37.8915 31.0079 37.5274C31.0079 37.1633 30.7154 36.8682 30.3545 36.8682C29.9937 36.8682 29.7012 37.1633 29.7012 37.5274C29.7012 37.8915 29.9937 38.1867 30.3545 38.1867Z" fill="white"/>
<path d="M34.1055 14.5191L36.7581 9.45605" stroke="white" stroke-width="0.689137" stroke-miterlimit="10"/>
<path d="M36.1611 16.9675L39.6718 14.8228" stroke="white" stroke-width="0.689137" stroke-miterlimit="10"/>
<path d="M36.9795 19.8462L40.5947 19.4331" stroke="white" stroke-width="0.689137" stroke-miterlimit="10"/>
<path d="M19.2356 11.2934L19.1529 10.6473C19.107 10.3272 18.9602 10.0305 18.7343 9.80094C18.5085 9.57143 18.2154 9.42131 17.8985 9.37278L17.4629 9.31125L17.8985 9.24533C18.2173 9.19608 18.5118 9.04404 18.7379 8.81193C18.964 8.57982 19.1096 8.28011 19.1529 7.95759L19.2356 7.31592L19.3184 7.95759C19.361 8.28038 19.5064 8.58047 19.7326 8.8127C19.9588 9.04494 20.2537 9.19676 20.5728 9.24533L20.9823 9.31125L20.5728 9.37278C20.2537 9.42134 19.9588 9.57317 19.7326 9.8054C19.5064 10.0376 19.361 10.3377 19.3184 10.6605L19.2356 11.2934Z" fill="#FFCE51"/>
<path d="M25.2288 41.6234L25.1721 41.4564C25.0585 41.1222 24.8753 40.8163 24.6349 40.5593C24.3945 40.3024 24.1025 40.1002 23.7783 39.9665C24.1022 39.8335 24.3941 39.6321 24.6345 39.3759C24.8749 39.1197 25.0582 38.8145 25.1721 38.481L25.2288 38.3096L25.2854 38.481C25.3993 38.8145 25.5826 39.1197 25.823 39.3759C26.0634 39.6321 26.3553 39.8335 26.6792 39.9665C26.355 40.1002 26.063 40.3024 25.8226 40.5593C25.5822 40.8163 25.399 41.1222 25.2854 41.4564L25.2288 41.6234Z" fill="white"/>
<path d="M12.55 31.787L12.4934 31.6156C12.381 31.2807 12.1983 30.9742 11.9578 30.717C11.7172 30.4599 11.4245 30.2582 11.0996 30.1257C11.4244 29.9941 11.7171 29.7933 11.9577 29.5369C12.1982 29.2804 12.381 28.9745 12.4934 28.6402L12.55 28.4688L12.611 28.6402C12.7234 28.9745 12.9062 29.2804 13.1468 29.5369C13.3874 29.7933 13.6801 29.9941 14.0048 30.1257C13.6784 30.2557 13.3837 30.4553 13.1408 30.711C12.898 30.9666 12.7128 31.2722 12.598 31.6068L12.55 31.787Z" fill="#FFCE51"/>
<path opacity="0.3" d="M11.1866 24.3024C11.5474 24.3024 11.8399 24.0072 11.8399 23.6431C11.8399 23.279 11.5474 22.9839 11.1866 22.9839C10.8257 22.9839 10.5332 23.279 10.5332 23.6431C10.5332 24.0072 10.8257 24.3024 11.1866 24.3024Z" fill="white"/>
<path opacity="0.3" d="M20.4199 38.1862C20.7808 38.1862 21.0733 37.891 21.0733 37.5269C21.0733 37.1628 20.7808 36.8677 20.4199 36.8677C20.0591 36.8677 19.7666 37.1628 19.7666 37.5269C19.7666 37.891 20.0591 38.1862 20.4199 38.1862Z" fill="white"/>
<path d="M25.2374 35.1804C29.0382 35.1804 32.1193 34.6865 32.1193 34.0773C32.1193 33.468 29.0382 32.9741 25.2374 32.9741C21.4366 32.9741 18.3555 33.468 18.3555 34.0773C18.3555 34.6865 21.4366 35.1804 25.2374 35.1804Z" fill="black"/>
<path d="M25.238 34.0814C31.0281 34.0814 35.722 29.3451 35.722 23.5026C35.722 17.6601 31.0281 12.9238 25.238 12.9238C19.4478 12.9238 14.7539 17.6601 14.7539 23.5026C14.7539 29.3451 19.4478 34.0814 25.238 34.0814Z" fill="url(#paint1_linear_535_4626)"/>
<path d="M25.237 32.143C29.9664 32.143 33.8002 28.2745 33.8002 23.5024C33.8002 18.7303 29.9664 14.8618 25.237 14.8618C20.5077 14.8618 16.6738 18.7303 16.6738 23.5024C16.6738 28.2745 20.5077 32.143 25.237 32.143Z" stroke="white" stroke-width="1.05832" stroke-miterlimit="10"/>
<path d="M25.2285 14.8618C27.2119 14.8596 29.1347 15.5515 30.6692 16.8195C32.2036 18.0876 33.2548 19.8534 33.6436 21.8159C34.0323 23.7784 33.7346 25.8162 32.8011 27.582C31.8676 29.3478 30.3562 30.7324 28.5243 31.4996C26.6925 32.2669 24.6536 32.3695 22.7552 31.7898C20.8568 31.2102 19.2164 29.9842 18.1135 28.3208C17.0106 26.6574 16.5135 24.6596 16.7069 22.6678C16.9003 20.676 17.7722 18.8135 19.1741 17.3977" stroke="black" stroke-width="1.05832" stroke-miterlimit="10"/>
<path d="M21.2693 25.0979C21.4288 25.0557 21.5773 24.9793 21.7048 24.8738C21.8192 24.7796 21.9114 24.661 21.9749 24.5266C22.0392 24.3875 22.0819 24.2393 22.1012 24.0871C22.0569 24.1352 22.0072 24.178 21.9531 24.2145C21.8975 24.2537 21.8376 24.2861 21.7745 24.3112C21.6987 24.3448 21.62 24.3713 21.5393 24.3903C21.4446 24.4086 21.3483 24.4175 21.2519 24.4167C21.0519 24.4221 20.8534 24.3799 20.6726 24.2936C20.5033 24.2185 20.354 24.1041 20.237 23.9596C20.1247 23.8029 20.0447 23.6251 20.0018 23.4366C19.9409 23.2359 19.9115 23.0268 19.9147 22.8169C19.9056 22.5952 19.9351 22.3735 20.0018 22.1621C20.0692 21.9686 20.1743 21.7908 20.311 21.6391C20.4452 21.487 20.6101 21.3656 20.7945 21.2831C20.9967 21.1957 21.2149 21.1523 21.4348 21.1556C21.6533 21.1482 21.8707 21.1915 22.07 21.2821C22.2694 21.3728 22.4455 21.5084 22.5847 21.6786C22.7237 21.8593 22.8272 22.0652 22.8896 22.2851C22.9651 22.5328 23.0018 22.7908 22.9985 23.0498V23.3575C23.0002 23.7035 22.9548 24.0481 22.8634 24.3815C22.7748 24.6784 22.6265 24.9537 22.4279 25.1902C22.2298 25.4223 21.9807 25.6044 21.7005 25.722C21.3656 25.8574 21.0071 25.9232 20.6464 25.9154H20.5767V25.1946H20.6377C20.8518 25.1939 21.0646 25.1613 21.2693 25.0979ZM21.7048 23.6476C21.7741 23.6255 21.839 23.5913 21.8965 23.5465C21.9517 23.5061 22.0002 23.4572 22.0402 23.4014C22.0804 23.3439 22.114 23.282 22.1404 23.2169V22.9004C22.1421 22.7522 22.1245 22.6045 22.0881 22.4609C22.0589 22.3464 22.0102 22.2379 21.9444 22.1401C21.8872 22.0599 21.8127 21.9938 21.7266 21.9467C21.6438 21.9062 21.553 21.8852 21.4609 21.8852C21.3628 21.8822 21.2659 21.9082 21.1822 21.9599C21.0988 22.0096 21.0285 22.079 20.9775 22.1621C20.9198 22.2511 20.8772 22.3491 20.8511 22.4521C20.8209 22.5653 20.8062 22.6821 20.8076 22.7993C20.8072 22.9148 20.8204 23.0298 20.8468 23.1421C20.8737 23.2435 20.9163 23.3399 20.9731 23.4278C21.0289 23.5076 21.1019 23.5737 21.1865 23.6212C21.2774 23.6707 21.3796 23.6949 21.4827 23.6915C21.5513 23.6869 21.6188 23.6721 21.6831 23.6476H21.7048Z" fill="black"/>
<path d="M26.662 24.9046C26.6017 25.1143 26.5011 25.31 26.3658 25.4804C26.2385 25.6351 26.0755 25.7558 25.891 25.832C25.4874 25.9892 25.0402 25.9892 24.6366 25.832C24.4522 25.7558 24.2891 25.6351 24.1618 25.4804C24.0235 25.3114 23.9212 25.1154 23.8613 24.9046C23.7841 24.6468 23.7473 24.3784 23.7524 24.1092V22.9972C23.7482 22.7283 23.7834 22.4602 23.857 22.2017C23.9178 21.9901 24.02 21.7928 24.1575 21.6216C24.2861 21.4694 24.4489 21.3503 24.6323 21.2744C25.0342 21.1162 25.4804 21.1162 25.8823 21.2744C26.067 21.3503 26.2311 21.4693 26.3614 21.6216C26.4959 21.7942 26.5964 21.9911 26.6576 22.2017C26.7312 22.4602 26.7664 22.7283 26.7622 22.9972V24.1135C26.7673 24.3808 26.7335 24.6473 26.662 24.9046ZM25.8736 22.7994C25.8711 22.6515 25.8536 22.5043 25.8213 22.3599C25.7944 22.2505 25.7438 22.1485 25.6733 22.0611C25.626 22.0024 25.5645 21.9569 25.4947 21.9292C25.4186 21.8982 25.3371 21.8833 25.2551 21.8853C25.1647 21.8823 25.0749 21.9019 24.9938 21.9424C24.9105 21.9785 24.8404 22.04 24.7934 22.1182C24.7317 22.2109 24.6901 22.3158 24.6715 22.4259C24.6403 22.5702 24.6257 22.7177 24.6279 22.8654V23.7444L25.8736 22.7994ZM25.8736 23.7004V23.406L24.641 24.3157C24.6451 24.4413 24.6596 24.5662 24.6845 24.6893C24.7057 24.7849 24.7409 24.8767 24.7891 24.9618C24.833 25.0437 24.8996 25.1109 24.9807 25.1552C25.068 25.2011 25.1654 25.2237 25.2638 25.2211C25.3542 25.2235 25.4439 25.2039 25.5252 25.164C25.6046 25.1275 25.6714 25.0678 25.7168 24.9925C25.7754 24.8971 25.8153 24.7911 25.8344 24.6805C25.8618 24.5357 25.8749 24.3884 25.8736 24.241V23.7004Z" fill="black"/>
<path d="M27.18 21.7006C27.2142 21.5948 27.2724 21.4985 27.3499 21.4194C27.427 21.3332 27.5222 21.2656 27.6287 21.2216C27.8863 21.128 28.1682 21.128 28.4258 21.2216C28.5278 21.2657 28.6195 21.3313 28.6946 21.4139C28.7697 21.4965 28.8265 21.5942 28.8613 21.7006C28.9001 21.8137 28.9193 21.9326 28.9179 22.0522V22.2984C28.9197 22.4151 28.9006 22.5313 28.8613 22.6412C28.8271 22.7473 28.7706 22.8447 28.6958 22.9268C28.6197 23.013 28.5241 23.0794 28.417 23.1202C28.291 23.1704 28.1561 23.1943 28.0207 23.1905C27.8838 23.1943 27.7476 23.1704 27.62 23.1202C27.513 23.0794 27.4173 23.013 27.3412 22.9268C27.2638 22.8451 27.2044 22.7478 27.167 22.6412C27.1298 22.5307 27.1107 22.415 27.1104 22.2984V22.0522C27.1132 21.9318 27.1368 21.8129 27.18 21.7006ZM27.7376 22.439C27.7469 22.4831 27.7647 22.5249 27.7898 22.5621C27.8141 22.5978 27.8471 22.6266 27.8857 22.6456C27.9317 22.668 27.9826 22.6786 28.0337 22.6763C28.0835 22.6786 28.133 22.668 28.1775 22.6456C28.2195 22.628 28.2546 22.5972 28.2777 22.5577C28.3045 22.5214 28.3224 22.4792 28.3299 22.4346C28.3344 22.3878 28.3344 22.3407 28.3299 22.294V22.0478C28.3342 21.9996 28.3342 21.9511 28.3299 21.9028C28.3208 21.8587 28.303 21.8169 28.2777 21.7798C28.253 21.7455 28.22 21.7183 28.1818 21.7006C28.1359 21.6778 28.0849 21.6672 28.0337 21.6699C27.984 21.6676 27.9345 21.6782 27.89 21.7006C27.8547 21.7208 27.8237 21.7477 27.7985 21.7798C27.775 21.8178 27.7574 21.8593 27.7463 21.9028C27.7399 21.9509 27.7399 21.9997 27.7463 22.0478V22.294C27.7363 22.3416 27.7333 22.3905 27.7376 22.439ZM27.8987 25.0408L29.6802 21.749L30.1157 21.9556L28.3343 25.2518L27.8987 25.0408ZM29.0486 24.4563C29.0867 24.351 29.1443 24.2541 29.2185 24.1706C29.2974 24.0857 29.3941 24.0197 29.5016 23.9773C29.6277 23.9271 29.7625 23.9032 29.898 23.9069C30.0348 23.9032 30.1711 23.9271 30.2987 23.9773C30.4061 24.0197 30.5029 24.0857 30.5818 24.1706C30.6544 24.2544 30.7106 24.3514 30.7473 24.4563C30.7826 24.5686 30.8003 24.6857 30.7996 24.8035V25.054C30.8003 25.1718 30.7826 25.289 30.7473 25.4012C30.7149 25.5084 30.6589 25.6067 30.5834 25.6889C30.508 25.7711 30.4151 25.835 30.3118 25.8759C30.1858 25.9264 30.0509 25.9503 29.9154 25.9462C29.7785 25.9495 29.6424 25.9256 29.5147 25.8759C29.4075 25.835 29.3107 25.7705 29.2316 25.6869C29.1569 25.6039 29.0991 25.5068 29.0617 25.4012C29.0228 25.2897 29.0037 25.1722 29.0051 25.054V24.8035C28.9995 24.6861 29.0142 24.5686 29.0486 24.4563ZM29.6061 25.1947C29.6184 25.2393 29.6391 25.281 29.6671 25.3177C29.693 25.3536 29.7275 25.3824 29.7673 25.4012C29.8087 25.4238 29.8554 25.4344 29.9023 25.432C29.9577 25.4345 30.0129 25.424 30.0635 25.4012C30.1016 25.3833 30.1335 25.3542 30.1549 25.3177C30.1776 25.2805 30.1911 25.2383 30.1942 25.1947C30.1988 25.1464 30.1988 25.0979 30.1942 25.0496V24.7991C30.1986 24.7523 30.1986 24.7053 30.1942 24.6585C30.1831 24.615 30.1654 24.5735 30.1419 24.5354C30.1149 24.5034 30.0825 24.4766 30.0461 24.4563C30.0015 24.4339 29.9521 24.4233 29.9023 24.4255C29.8512 24.4233 29.8003 24.4338 29.7542 24.4563C29.7178 24.4766 29.6853 24.5034 29.6584 24.5354C29.6364 24.5738 29.6202 24.6153 29.6105 24.6585C29.6038 24.7051 29.6038 24.7525 29.6105 24.7991V25.0496C29.6019 25.0975 29.6005 25.1464 29.6061 25.1947Z" fill="black"/>
<path d="M16.3518 14.5191L13.6992 9.45605" stroke="white" stroke-width="0.689137" stroke-miterlimit="10"/>
<path d="M14.2958 16.9675L10.7852 14.8228" stroke="white" stroke-width="0.689137" stroke-miterlimit="10"/>
<path d="M13.4775 19.8462L9.8623 19.4331" stroke="white" stroke-width="0.689137" stroke-miterlimit="10"/>
<path d="M25.2981 11.28L25.1631 10.2516C25.0946 9.73219 24.861 9.24924 24.4974 8.87521C24.1338 8.50117 23.6597 8.25622 23.1464 8.17712L22.4844 8.05406L23.1464 7.95297C23.6597 7.87387 24.1338 7.62892 24.4974 7.25488C24.861 6.88085 25.0946 6.3979 25.1631 5.87853L25.2981 4.8457L25.4332 5.87853C25.5003 6.39844 25.7334 6.88214 26.0973 7.25643C26.4612 7.63072 26.9359 7.87524 27.4498 7.95297L28.1075 8.05406L27.4498 8.15514C26.9327 8.234 26.4555 8.48172 26.0913 8.86036C25.727 9.239 25.4959 9.72769 25.4332 10.2516L25.2981 11.28Z" fill="white"/>
<defs>
<linearGradient id="paint0_linear_535_4626" x1="25.3452" y1="48.1294" x2="25.3452" y2="2.38623" gradientUnits="userSpaceOnUse">
<stop stop-color="#367CFA"/>
<stop offset="1" stop-color="#2F91FB"/>
</linearGradient>
<linearGradient id="paint1_linear_535_4626" x1="25.238" y1="34.0814" x2="25.238" y2="12.9238" gradientUnits="userSpaceOnUse">
<stop stop-color="#7FDD53"/>
<stop offset="1" stop-color="#2FEA9B"/>
</linearGradient>
</defs>
</svg>
