<svg width="19" height="19" viewBox="0 0 19 19" fill="none" xmlns="http://www.w3.org/2000/svg">
<path d="M18.0817 6.15216C17.6292 5.07214 16.9708 4.09048 16.1434 3.26189C15.3184 2.43186 14.3385 1.77194 13.2592 1.31959C12.1535 0.853941 10.9656 0.615251 9.76587 0.617694H9.72553C8.50528 0.623745 7.32538 0.865777 6.21405 1.34177C5.14401 1.79876 4.17326 2.45986 3.35606 3.28811C2.53664 4.11484 1.88586 5.09307 1.43997 6.16829C0.977114 7.2864 0.742583 8.4858 0.750179 9.69591C0.75623 11.0957 1.09104 12.4853 1.71629 13.7278V16.7935C1.71629 17.3058 2.13178 17.7213 2.64206 17.7213H5.70376C6.95199 18.3511 8.32942 18.6825 9.72754 18.6894H9.7699C10.976 18.6894 12.1438 18.4554 13.2451 17.9976C14.3189 17.5506 15.2952 16.8984 16.1192 16.0775C16.9502 15.2526 17.6037 14.2885 18.0615 13.2134C18.5355 12.1001 18.7775 10.9162 18.7836 9.69389C18.7876 8.46558 18.5496 7.27357 18.0817 6.15216ZM5.74007 10.6217C5.2076 10.6217 4.77396 10.188 4.77396 9.65355C4.77396 9.11906 5.2076 8.68542 5.74007 8.68542C6.27254 8.68542 6.70618 9.11906 6.70618 9.65355C6.70618 10.188 6.27456 10.6217 5.74007 10.6217ZM9.76587 10.6217C9.2334 10.6217 8.79976 10.188 8.79976 9.65355C8.79976 9.11906 9.2334 8.68542 9.76587 8.68542C10.2983 8.68542 10.732 9.11906 10.732 9.65355C10.732 10.188 10.2983 10.6217 9.76587 10.6217ZM13.7917 10.6217C13.2592 10.6217 12.8256 10.188 12.8256 9.65355C12.8256 9.11906 13.2592 8.68542 13.7917 8.68542C14.3241 8.68542 14.7578 9.11906 14.7578 9.65355C14.7578 10.188 14.3241 10.6217 13.7917 10.6217Z" fill="white"/>
</svg>
