<svg width="24" height="24" viewBox="0 0 24 24" fill="none" xmlns="http://www.w3.org/2000/svg">
<circle cx="12" cy="12" r="12" fill="#85868B"/>
<path d="M12 14.1875C13.834 14.1875 15.3203 12.7188 15.3203 10.9062V6.53125C15.3203 4.71875 13.834 3.25 12 3.25C10.166 3.25 8.67969 4.71875 8.67969 6.53125V10.9062C8.67969 12.7188 10.166 14.1875 12 14.1875ZM18.4453 10.8672C18.4453 10.7812 18.375 10.7109 18.2891 10.7109H17.1172C17.0312 10.7109 16.9609 10.7812 16.9609 10.8672C16.9609 13.6074 14.7402 15.8281 12 15.8281C9.25977 15.8281 7.03906 13.6074 7.03906 10.8672C7.03906 10.7812 6.96875 10.7109 6.88281 10.7109H5.71094C5.625 10.7109 5.55469 10.7812 5.55469 10.8672C5.55469 14.1621 8.02734 16.8809 11.2188 17.2656V19.2656H8.38086C8.11328 19.2656 7.89844 19.5449 7.89844 19.8906V20.5938C7.89844 20.6797 7.95313 20.75 8.01953 20.75H15.9805C16.0469 20.75 16.1016 20.6797 16.1016 20.5938V19.8906C16.1016 19.5449 15.8867 19.2656 15.6191 19.2656H12.7031V17.2754C15.9316 16.9238 18.4453 14.1895 18.4453 10.8672Z" fill="white" fill-opacity="0.6"/>
</svg>
