<svg width="34" height="35" viewBox="0 0 34 35" fill="none" xmlns="http://www.w3.org/2000/svg">
<path d="M13.2003 27.8204H8.00026C7.16826 27.8204 6.33626 27.4044 5.81626 26.7803C5.29626 26.1564 5.08826 25.3244 5.29626 24.4923L9.76826 4.94035C10.0803 3.69235 11.1203 2.86035 12.4723 2.86035H21.4163C23.8083 2.86035 25.9923 3.90035 27.5523 5.77235C29.0083 7.64435 29.6323 10.0364 29.1123 12.4284C28.2803 16.5884 24.5363 19.5004 20.2723 19.5004H16.9443C16.4243 19.5004 15.9043 19.9164 15.8003 20.4363L14.2403 26.9884C14.1363 27.5084 13.7203 27.8204 13.2003 27.8204Z" fill="white"/>
<path d="M13.2003 27.8204H8.00026C7.16826 27.8204 6.33626 27.4044 5.81626 26.7803C5.29626 26.1564 5.08826 25.3244 5.29626 24.4923L9.76826 4.94035C10.0803 3.69235 11.1203 2.86035 12.4723 2.86035H21.4163C23.8083 2.86035 25.9923 3.90035 27.5523 5.77235C29.0083 7.64435 29.6323 10.0364 29.1123 12.4284C28.2803 16.5884 24.5363 19.5004 20.2723 19.5004H16.9443C16.4243 19.5004 15.9043 19.9164 15.8003 20.4363L14.2403 26.9884C14.1363 27.5084 13.7203 27.8204 13.2003 27.8204Z" fill="#01308A"/>
<path d="M31.1924 12.5322C31.1924 12.6362 31.1924 12.7402 31.1924 12.8442C30.1524 17.9402 25.5764 21.5802 20.3764 21.5802H17.7764L16.3204 27.5082C15.9044 28.9642 14.6564 29.9002 13.2004 29.9002H11.1204C11.2244 30.3162 11.3284 30.6282 11.6404 30.9402C12.1604 31.5642 12.8884 31.8762 13.7204 31.8762H18.4004C18.9204 31.8762 19.3364 31.5642 19.4404 31.1482L20.8964 25.4282C21.0004 25.0122 21.4164 24.8042 21.8324 24.8042H24.8484C28.6964 24.8042 32.1284 22.2042 32.8564 18.5642C33.2724 16.3802 32.6484 14.0922 31.1924 12.5322Z" fill="#019CDE"/>
</svg>
