<svg width="60" height="70" viewBox="0 0 60 70" fill="none" xmlns="http://www.w3.org/2000/svg">
<path d="M60.0009 16.1091V70.0002H1.53393V0.000488281H43.8924L51.3953 7.50348L60.0009 16.1091Z" fill="#EE811D"/>
<path d="M28.0397 4.68896H-0.00087738V17.2354H28.0397V4.68896Z" fill="#F2F2F2"/>
<path d="M10.0571 8.8016C9.93338 8.50273 9.7685 8.23477 9.54182 8.00809C9.31514 7.78141 9.03678 7.59588 8.71727 7.47215C8.3875 7.33816 8.01645 7.27637 7.60424 7.27637H4.5226V15.2327H6.07887V12.2335H7.60424C8.01645 12.2335 8.3875 12.1717 8.71727 12.0377C9.03678 11.914 9.315 11.7286 9.54182 11.5018C9.76863 11.2751 9.93352 11.0174 10.0571 10.7083C10.1705 10.4094 10.2324 10.0899 10.2324 9.76014C10.2322 9.41998 10.1705 9.10047 10.0571 8.8016ZM8.37711 10.5433C8.17094 10.739 7.88246 10.8421 7.53205 10.8421H6.07887V8.65723H7.53205C7.88246 8.65723 8.17107 8.76031 8.37711 8.96635C8.57289 9.16213 8.67598 9.4301 8.67598 9.75986C8.67611 10.0795 8.57303 10.3475 8.37711 10.5433Z" fill="#EE811D"/>
<path d="M17.4982 10.3579C17.4879 10.0796 17.4775 9.83232 17.4466 9.60551C17.4157 9.37869 17.3642 9.17266 17.292 8.97688C17.2198 8.79135 17.1271 8.60582 17.0034 8.44094C16.7252 8.03898 16.385 7.74012 16.0037 7.55459C15.612 7.36906 15.1482 7.27637 14.602 7.27637H11.737V15.2327H14.602C15.1482 15.2327 15.612 15.14 16.0037 14.9545C16.385 14.769 16.7252 14.4701 17.0034 14.0681C17.1271 13.9033 17.2198 13.7177 17.292 13.5322C17.3642 13.3364 17.4157 13.1303 17.4466 12.9036C17.4775 12.6769 17.4878 12.4294 17.4982 12.1512C17.5084 11.8832 17.5084 11.5844 17.5084 11.2546C17.5084 10.9248 17.5084 10.6258 17.4982 10.3579ZM15.9419 12.0585C15.9419 12.2956 15.9212 12.4811 15.9006 12.646C15.88 12.8006 15.8491 12.9449 15.8079 13.0479C15.7668 13.1613 15.7048 13.2644 15.6328 13.3571C15.3751 13.6868 14.9835 13.8415 14.4682 13.8415H13.283V8.65736H14.4682C14.9835 8.65736 15.3752 8.82225 15.6328 9.15201C15.705 9.24471 15.7668 9.33754 15.8079 9.45088C15.8491 9.56422 15.8801 9.6982 15.9006 9.86309C15.9212 10.0177 15.9419 10.2135 15.9419 10.4402C15.9521 10.667 15.9521 10.9452 15.9521 11.2543C15.9523 11.5637 15.9523 11.8317 15.9419 12.0585Z" fill="#EE811D"/>
<path d="M24.1457 8.65736V7.27637H18.8998V15.2327H20.4561V12.007H23.5995V10.6156H20.4561V8.65736H24.1457Z" fill="#EE811D"/>
<path d="M10.0571 8.8016C9.93338 8.50273 9.7685 8.23477 9.54182 8.00809C9.31514 7.78141 9.03678 7.59588 8.71727 7.47215C8.3875 7.33816 8.01645 7.27637 7.60424 7.27637H4.5226V15.2327H6.07887V12.2335H7.60424C8.01645 12.2335 8.3875 12.1717 8.71727 12.0377C9.03678 11.914 9.315 11.7286 9.54182 11.5018C9.76863 11.2751 9.93352 11.0174 10.0571 10.7083C10.1705 10.4094 10.2324 10.0899 10.2324 9.76014C10.2322 9.41998 10.1705 9.10047 10.0571 8.8016ZM8.37711 10.5433C8.17094 10.739 7.88246 10.8421 7.53205 10.8421H6.07887V8.65723H7.53205C7.88246 8.65723 8.17107 8.76031 8.37711 8.96635C8.57289 9.16213 8.67598 9.4301 8.67598 9.75986C8.67611 10.0795 8.57303 10.3475 8.37711 10.5433Z" fill="#EE811D"/>
<path opacity="0.08" d="M60.0009 16.109V70.0002H1.53393V57.3647L28.8659 30.0328L30.484 28.4147L31.3806 27.5179L32.8751 26.0236L34.6478 24.2509L51.3953 7.50342L60.0009 16.109Z" fill="#040000"/>
<path d="M60.0009 16.1104H43.8905V0L60.0009 16.1104Z" fill="#771B1B"/>
<path d="M51.653 50.6758C51.3128 50.0781 50.8491 49.5113 50.272 48.996C49.798 48.5631 49.2414 48.1612 48.6126 47.7901C46.0773 46.2958 42.4599 45.5743 37.5437 45.5743H37.0491C36.7811 45.327 36.5029 45.0797 36.2143 44.822C34.3489 43.1421 32.8648 41.3179 31.7105 39.2876C33.9778 34.289 35.06 29.8368 34.926 26.044C34.9053 25.405 34.8126 24.8073 34.6478 24.2507C34.4004 23.3541 33.9882 22.5604 33.411 21.9112C33.4007 21.9009 33.4007 21.9009 33.3904 21.8905C32.4731 20.8599 31.1952 20.2725 29.8965 20.2725C28.5876 20.2725 27.3818 20.8393 26.5057 21.8803C25.64 22.9109 25.1763 24.3229 25.1556 25.9821C25.1248 28.5174 25.3308 30.9187 25.7638 33.1346C25.8049 33.3098 25.836 33.485 25.8771 33.6601C26.31 35.6699 26.949 37.5764 27.7734 39.3491C26.8046 41.3176 25.8256 43.0181 25.1453 44.1724C24.63 45.0485 24.0631 45.9657 23.4756 46.883C20.827 47.3571 18.5802 47.9342 16.6221 48.6557C13.9734 49.6142 11.8503 50.8508 10.3249 52.3247C9.33551 53.2728 8.66559 54.2829 8.33582 55.3341C7.98541 56.4162 8.00606 57.4984 8.39762 58.4672C8.75828 59.3638 9.40756 60.1161 10.2734 60.6314C10.4796 60.7552 10.696 60.8581 10.9227 60.9509C11.5823 61.2189 12.3037 61.3631 13.056 61.3631C14.7978 61.3631 16.591 60.6108 18.106 59.2607C20.9299 56.7356 23.8466 52.6751 25.5677 50.1087C26.9796 49.8923 28.5152 49.7068 30.2468 49.5213C32.2874 49.3151 34.091 49.1915 35.7297 49.1295C36.2348 49.583 36.7192 50.0159 37.1829 50.4281C39.7595 52.7263 41.7176 54.3857 43.4903 55.5503C43.4903 55.5605 43.5006 55.5605 43.511 55.5605C44.2118 56.0243 44.8817 56.4056 45.5516 56.7148C46.304 57.0653 47.0666 57.2508 47.8499 57.2508C48.8393 57.2508 49.7668 56.9519 50.5398 56.4057C51.3231 55.8389 51.8899 55.0247 52.1476 54.1075C52.4465 53.005 52.2714 51.7786 51.653 50.6758ZM28.8659 30.0325C28.7217 28.7545 28.6597 27.425 28.6804 26.0234C28.701 24.6939 29.1854 23.7972 29.8965 23.7972C30.4324 23.7972 30.9993 24.2816 31.2569 25.2091C31.329 25.4873 31.3806 25.8068 31.3908 26.1675C31.4115 26.6004 31.4011 27.0538 31.3806 27.5176C31.3188 28.8265 31.092 30.2178 30.7004 31.7123C30.4633 32.6708 30.1542 33.6705 29.7729 34.7113C29.3401 33.248 29.0308 31.6918 28.8659 30.0325ZM11.6752 57.1584C11.4999 56.7255 11.6958 55.8907 12.7677 54.8601C14.4064 53.2936 16.9726 52.0568 20.5489 51.1189C19.8687 52.0464 19.1988 52.8916 18.5495 53.6645C17.5601 54.86 16.612 55.8701 15.7565 56.6327C15.0248 57.2922 14.2209 57.7045 13.4583 57.8076C13.3243 57.8283 13.1903 57.8385 13.0563 57.8385C12.3863 57.8387 11.8401 57.5707 11.6752 57.1584ZM28.1445 46.2029L28.2166 46.0896L28.1033 46.1103C28.1239 46.0587 28.1548 46.0072 28.1857 45.966C28.6186 45.2343 29.1648 44.2964 29.7523 43.2143L29.8038 43.3276L29.9378 43.0494C30.3706 43.6678 30.8448 44.2759 31.3394 44.8632C31.5765 45.1415 31.8238 45.4094 32.0712 45.6774L31.9063 45.6877L32.0505 45.8216C31.6279 45.8525 31.1848 45.8938 30.7416 45.935C30.4633 45.9659 30.1747 45.9865 29.8861 46.0174C29.2885 46.0792 28.701 46.1411 28.1445 46.2029ZM45.4898 52.6339C44.2633 51.8507 42.8927 50.7479 41.2025 49.2741C43.6038 49.5214 45.4898 50.0471 46.8297 50.8303C47.4171 51.1705 47.8603 51.5209 48.1591 51.8609C48.6538 52.3865 48.829 52.8606 48.7362 53.1801C48.6538 53.4996 48.2931 53.7161 47.8499 53.7161C47.5922 53.7161 47.3243 53.6543 47.046 53.5203C46.5718 53.2936 46.0772 53.0152 45.5516 52.6752C45.531 52.6752 45.5105 52.6546 45.4898 52.6339Z" fill="#F2F2F2"/>
</svg>
