<svg width="50" height="50" viewBox="0 0 50 50" fill="none" xmlns="http://www.w3.org/2000/svg">
<path d="M42.1362 36.3133L27.4402 46.8613C26.8188 47.3094 26.0741 47.5503 25.3103 47.5503C24.5465 47.5503 23.8018 47.3094 23.1804 46.8613L8.54979 36.3133C8.07552 35.9695 7.68912 35.5168 7.42253 34.9925C7.15593 34.4683 7.01679 33.8876 7.0166 33.2983V5.5087C7.0166 4.52684 7.40285 3.58512 8.09051 2.89043C8.77817 2.19574 9.71099 1.80488 10.6841 1.80371H40.0063C40.979 1.80604 41.9111 2.19727 42.5985 2.89171C43.286 3.58615 43.6726 4.52719 43.6737 5.5087V33.2983C43.6738 33.8881 43.5342 34.4693 43.2668 34.9937C42.9994 35.5181 42.6118 35.9705 42.1362 36.3133Z" fill="url(#paint0_linear_535_4563)"/>
<g opacity="0.2">
<path opacity="0.2" d="M41.0602 5.5089C41.0602 5.22566 40.9487 4.95401 40.7502 4.75372C40.5517 4.55344 40.2825 4.44092 40.0018 4.44092H10.684C10.5452 4.44092 10.4077 4.46857 10.2796 4.5223C10.1514 4.57602 10.035 4.65476 9.93708 4.75399C9.83914 4.85322 9.76159 4.97099 9.70887 5.10054C9.65616 5.23008 9.62932 5.36886 9.62989 5.5089V26.8554H41.0602V5.5089Z" fill="black"/>
</g>
<path opacity="0.35" d="M9.62999 26.8555V33.3029C9.62754 33.4739 9.66583 33.643 9.74162 33.796C9.81742 33.949 9.92851 34.0813 10.0656 34.1819L24.6918 44.73C24.8716 44.8579 25.086 44.927 25.306 44.9277C25.5261 44.9281 25.7409 44.859 25.9201 44.73L40.6248 34.1644C40.7624 34.0643 40.8739 33.932 40.9497 33.7789C41.0256 33.6258 41.0635 33.4565 41.0603 33.2854V26.8555H9.62999Z" fill="black"/>
<path d="M25.2983 31.8907C29.9995 31.8907 33.8105 31.3599 33.8105 30.7051C33.8105 30.0503 29.9995 29.5195 25.2983 29.5195C20.5972 29.5195 16.7861 30.0503 16.7861 30.7051C16.7861 31.3599 20.5972 31.8907 25.2983 31.8907Z" fill="black"/>
<path d="M22.0188 26.7798L19.6973 29.9891" stroke="#FFCE51" stroke-width="2.0058" stroke-miterlimit="10" stroke-linecap="round"/>
<path d="M28.6143 26.7798L30.9358 29.9891" stroke="#FFCE51" stroke-width="2.0058" stroke-miterlimit="10" stroke-linecap="round"/>
<path d="M13.882 29.1544L13.8252 28.9897C13.7169 28.6675 13.5409 28.3727 13.3094 28.1254C13.0778 27.8782 12.796 27.6843 12.4834 27.5569C12.7956 27.4288 13.0769 27.2346 13.3083 26.9875C13.5398 26.7403 13.716 26.446 13.8252 26.1242L13.882 25.9595L13.9352 26.1242C14.0452 26.4461 14.2221 26.7405 14.4542 26.9876C14.6862 27.2347 14.968 27.4288 15.2806 27.5569C14.9674 27.684 14.6851 27.8778 14.4529 28.1251C14.2207 28.3724 14.0441 28.6673 13.9352 28.9897L13.882 29.1544Z" fill="white"/>
<path d="M18.8208 10.8941L18.7853 10.7903C18.7166 10.5876 18.6057 10.4022 18.4599 10.2464C18.3142 10.0907 18.137 9.96839 17.9404 9.88766C18.1369 9.80773 18.3141 9.68608 18.4598 9.53095C18.6056 9.37583 18.7166 9.19087 18.7853 8.98864L18.8208 8.88477L18.8563 8.98864C18.9243 9.19121 19.035 9.37649 19.1809 9.53169C19.3268 9.6869 19.5042 9.80835 19.7011 9.88766C19.5041 9.96777 19.3266 10.0899 19.1808 10.2457C19.035 10.4015 18.9243 10.5873 18.8563 10.7903L18.8208 10.8941Z" fill="white"/>
<path d="M31.0102 10.8941L30.9747 10.7903C30.9061 10.5876 30.7951 10.4022 30.6494 10.2464C30.5036 10.0907 30.3265 9.96839 30.1299 9.88766C30.327 9.80816 30.5049 9.68669 30.6513 9.53155C30.7977 9.3764 30.9092 9.19122 30.9783 8.98864L31.0138 8.88477L31.0493 8.98864C31.1179 9.19087 31.2289 9.37583 31.3747 9.53095C31.5204 9.68608 31.6976 9.80773 31.8941 9.88766C31.6975 9.96839 31.5203 10.0907 31.3746 10.2464C31.2288 10.4022 31.1179 10.5876 31.0493 10.7903L31.0102 10.8941Z" fill="white"/>
<path d="M35.4147 14.7056L35.3508 14.523C35.2291 14.162 35.0316 13.8318 34.7718 13.5549C34.5121 13.2779 34.1962 13.0608 33.8457 12.9183C34.1961 12.7746 34.5118 12.5567 34.7714 12.2792C35.0311 12.0018 35.2287 11.6713 35.3508 11.3101L35.4147 11.1274L35.475 11.3101C35.5971 11.6713 35.7947 12.0018 36.0544 12.2792C36.314 12.5567 36.6297 12.7746 36.9801 12.9183C36.6296 13.0608 36.3137 13.2779 36.054 13.5549C35.7942 13.8318 35.5967 14.162 35.475 14.523L35.4147 14.7056Z" fill="#FFCE51"/>
<path d="M26.2604 37.088L26.2036 36.9233C26.0919 36.6007 25.9131 36.306 25.6793 36.0589C25.4454 35.8118 25.1618 35.618 24.8477 35.4905C25.1618 35.3631 25.4454 35.1693 25.6793 34.9222C25.9131 34.6751 26.0919 34.3804 26.2036 34.0578L26.2604 33.8931L26.3172 34.0578C26.4283 34.3807 26.6069 34.6758 26.8409 34.9229C27.0748 35.1701 27.3587 35.3637 27.6732 35.4905C27.3587 35.6174 27.0748 35.811 26.8409 36.0581C26.6069 36.3053 26.4283 36.6004 26.3172 36.9233L26.2604 37.088Z" fill="#FFCE51"/>
<path d="M14.5569 16.7688L14.4894 16.5754C14.3614 16.1954 14.1537 15.8477 13.8805 15.556C13.6073 15.2642 13.275 15.0353 12.9062 14.8848C13.2745 14.7345 13.6065 14.5061 13.8796 14.215C14.1528 13.9239 14.3607 13.577 14.4894 13.1978L14.5569 13.0044L14.6208 13.1978C14.7507 13.5769 14.9595 13.9236 15.2331 14.2146C15.5068 14.5056 15.839 14.7341 16.2075 14.8848C15.8386 15.0357 15.506 15.2647 15.2323 15.5564C14.9586 15.848 14.75 16.1955 14.6208 16.5754L14.5569 16.7688Z" fill="#FFCE51"/>
<path d="M36.3908 29.4803L36.3482 29.3621C36.2701 29.1274 36.1423 28.9126 35.9738 28.7326C35.8052 28.5527 35.5999 28.4118 35.3721 28.3198C35.5993 28.2268 35.8041 28.0856 35.9725 27.9058C36.1409 27.726 36.2691 27.5117 36.3482 27.2775L36.3908 27.1558L36.4299 27.2775C36.5097 27.5114 36.6381 27.7253 36.8064 27.9051C36.9747 28.0848 37.1792 28.2262 37.4061 28.3198C37.1786 28.4124 36.9736 28.5535 36.8051 28.7334C36.6367 28.9133 36.5087 29.1277 36.4299 29.3621L36.3908 29.4803Z" fill="white"/>
<path opacity="0.3" d="M12.342 22.0516C12.6361 22.0516 12.8745 21.811 12.8745 21.5143C12.8745 21.2176 12.6361 20.9771 12.342 20.9771C12.048 20.9771 11.8096 21.2176 11.8096 21.5143C11.8096 21.811 12.048 22.0516 12.342 22.0516Z" fill="white"/>
<path opacity="0.3" d="M20.5061 35.304C20.8002 35.304 21.0385 35.0635 21.0385 34.7668C21.0385 34.47 20.8002 34.2295 20.5061 34.2295C20.212 34.2295 19.9736 34.47 19.9736 34.7668C19.9736 35.0635 20.212 35.304 20.5061 35.304Z" fill="white"/>
<path opacity="0.3" d="M24.7619 9.51545C25.056 9.51545 25.2944 9.27491 25.2944 8.97819C25.2944 8.68146 25.056 8.44092 24.7619 8.44092C24.4679 8.44092 24.2295 8.68146 24.2295 8.97819C24.2295 9.27491 24.4679 9.51545 24.7619 9.51545Z" fill="white"/>
<path opacity="0.3" d="M31.8655 34.5877C32.1595 34.5877 32.3979 34.3472 32.3979 34.0505C32.3979 33.7537 32.1595 33.5132 31.8655 33.5132C31.5714 33.5132 31.333 33.7537 31.333 34.0505C31.333 34.3472 31.5714 34.5877 31.8655 34.5877Z" fill="white"/>
<path d="M25.3158 29.9171C30.313 29.9171 34.364 25.8295 34.364 20.7872C34.364 15.7448 30.313 11.6572 25.3158 11.6572C20.3186 11.6572 16.2676 15.7448 16.2676 20.7872C16.2676 25.8295 20.3186 29.9171 25.3158 29.9171Z" fill="url(#paint1_linear_535_4563)"/>
<path d="M25.3154 27.41C28.9402 27.41 31.8788 24.4449 31.8788 20.7873C31.8788 17.1296 28.9402 14.1646 25.3154 14.1646C21.6905 14.1646 18.752 17.1296 18.752 20.7873C18.752 24.4449 21.6905 27.41 25.3154 27.41Z" stroke="white" stroke-width="1.50435" stroke-miterlimit="10"/>
<path d="M25.3162 24.6056C27.4061 24.6056 29.1002 22.8961 29.1002 20.7874C29.1002 18.6787 27.4061 16.9692 25.3162 16.9692C23.2264 16.9692 21.5322 18.6787 21.5322 20.7874C21.5322 22.8961 23.2264 24.6056 25.3162 24.6056Z" stroke="white" stroke-width="1.50435" stroke-miterlimit="10"/>
<path d="M25.3169 22.0872C26.0285 22.0872 26.6054 21.5051 26.6054 20.787C26.6054 20.0689 26.0285 19.4868 25.3169 19.4868C24.6052 19.4868 24.0283 20.0689 24.0283 20.787C24.0283 21.5051 24.6052 22.0872 25.3169 22.0872Z" fill="white"/>
<path d="M41.2932 17.646H35.9651L34.1299 20.4828H39.4615L41.2932 17.646Z" fill="white"/>
<path d="M41.2932 23.932H35.9651L34.1299 21.0952H39.4615L41.2932 23.932Z" fill="white"/>
<path d="M25.3164 20.7876H39.8099" stroke="black" stroke-width="1.50435" stroke-miterlimit="10" stroke-linecap="round"/>
<path opacity="0.15" d="M25.3164 20.7876L32.3377 26.5435" stroke="black" stroke-width="1.50435" stroke-miterlimit="10"/>
<defs>
<linearGradient id="paint0_linear_535_4563" x1="25.3452" y1="47.5469" x2="25.3452" y2="1.80371" gradientUnits="userSpaceOnUse">
<stop stop-color="#7E4FFE"/>
<stop offset="1" stop-color="#3B73FF"/>
</linearGradient>
<linearGradient id="paint1_linear_535_4563" x1="25.3158" y1="29.9171" x2="25.3158" y2="11.6572" gradientUnits="userSpaceOnUse">
<stop offset="0.01" stop-color="#FF3E13"/>
<stop offset="1" stop-color="#FF6B00"/>
</linearGradient>
</defs>
</svg>
