<svg width="16" height="20" viewBox="0 0 16 20" fill="none" xmlns="http://www.w3.org/2000/svg">
<path opacity="0.4" d="M7.96677 0C5.34679 0 3.2168 2.12999 3.2168 4.74998C3.2168 7.31996 5.22679 9.39995 7.84677 9.48995C7.92677 9.47995 8.00677 9.47995 8.06677 9.48995C8.08677 9.48995 8.09677 9.48995 8.11677 9.48995C8.12677 9.48995 8.12677 9.48995 8.13677 9.48995C10.6968 9.39995 12.7067 7.31996 12.7167 4.74998C12.7167 2.12999 10.5868 0 7.96677 0Z" fill="#1D1D1D"/>
<path d="M13.0476 12.1499C10.2576 10.2899 5.70771 10.2899 2.89772 12.1499C1.62773 12.9999 0.927734 14.1499 0.927734 15.3799C0.927734 16.6099 1.62773 17.7498 2.88772 18.5898C4.28772 19.5298 6.12767 19.9998 7.96766 19.9998C9.80765 19.9998 11.6476 19.5298 13.0476 18.5898C14.3076 17.7398 15.0076 16.5999 15.0076 15.3599C14.9976 14.1299 14.3076 12.9899 13.0476 12.1499Z" fill="#1D1D1D"/>
</svg>
