<svg width="18" height="18" viewBox="0 0 18 18" fill="none" xmlns="http://www.w3.org/2000/svg">
<path fill-rule="evenodd" clip-rule="evenodd" d="M10.8279 0L9.2657 1.56134C8.699 2.1281 8.67099 2.99982 9.12133 3.63017L6.28461 6.46729C6.24691 6.505 6.22321 6.55134 6.1995 6.59659C4.81938 6.02443 3.11821 6.27549 2.03113 7.36271L1.11212 8.28291L5.03378 12.204L0.15757 17.0809C-0.0525235 17.291 -0.0525235 17.6315 0.15757 17.8427C0.263152 17.9472 0.401058 18 0.538964 18C0.67687 18 0.814777 17.9472 0.91928 17.8427L5.79548 12.9658L9.71606 16.888L10.6361 15.9678C11.3483 15.2566 11.7405 14.3095 11.7405 13.302C11.7405 12.7751 11.6273 12.2687 11.4237 11.7999C11.4496 11.7827 11.4786 11.7719 11.5013 11.7482L14.3509 8.89818C14.6246 9.09644 14.95 9.2085 15.2947 9.2085C15.7267 9.2085 16.1318 9.04041 16.4378 8.73439L18 7.17199L10.8279 0Z" fill="white"/>
</svg>
