<svg width="24" height="24" viewBox="0 0 24 24" fill="none" xmlns="http://www.w3.org/2000/svg">
<path d="M23.0534 9.81587L23.1185 9.07328V22.7917H20.356V8.11221L22.3322 9.36034L23.0534 9.81587ZM2.63767 19.9704C3.2224 19.7837 3.81001 19.5842 4.39846 19.3719V22.7917H1.63596V19.7532L1.67942 19.8324L1.88397 20.2053L2.29003 20.0788L2.63421 19.9715L2.63767 19.9704ZM1.73881 15.9571C7.31994 14.4622 13.7579 10.8879 18.2688 5.20756L18.6294 4.75351L18.1389 4.4443L16.446 3.37701L21.8772 1.33752L21.4165 6.51584L20.1717 5.73127L19.7399 5.45911L19.4598 5.8858C15.3252 12.1835 8.94111 15.8283 2.80254 17.8947L1.73881 15.9571ZM14.116 22.7917V14.2717C14.6509 13.871 15.179 13.4502 15.695 13.0092H16.8785V22.7917H14.116ZM7.87596 22.7917V17.9518C8.45398 17.6849 9.02701 17.4041 9.60003 17.1042H10.6385V22.7917H7.87596Z" stroke="#EE811D" stroke-width="1.04"/>
</svg>
