<svg width="30" height="31" viewBox="0 0 30 31" fill="none" xmlns="http://www.w3.org/2000/svg">
<path d="M0.28125 15.4742C0.28125 7.40429 6.88196 0.862305 14.9519 0.862305C23.0219 0.862305 29.6226 7.40429 29.6226 15.4742C29.6226 23.5442 23.0219 30.0862 14.9519 30.0862C6.88196 30.0862 0.28125 23.5442 0.28125 15.4742Z" fill="url(#paint0_linear_531_2331)"/>
<path d="M0.28125 15.4742C0.28125 7.40429 6.88196 0.862305 14.9519 0.862305C23.0219 0.862305 29.6226 7.40429 29.6226 15.4742C29.6226 23.5442 23.0219 30.0862 14.9519 30.0862C6.88196 30.0862 0.28125 23.5442 0.28125 15.4742Z" fill="black" fill-opacity="0.1"/>
<path d="M1.66077 15.4742C1.66077 8.17337 7.63664 2.24182 14.9519 2.24182C22.2672 2.24182 28.243 8.17337 28.243 15.4742C28.243 22.7751 22.2672 28.7066 14.9519 28.7066C7.63664 28.7066 1.66077 22.7751 1.66077 15.4742Z" stroke="white" stroke-opacity="0.2" stroke-width="2.75904"/>
<path d="M3.70801 15.6535C3.70801 9.36954 8.84789 4.27539 15.1318 4.27539C21.4158 4.27539 26.5557 9.36954 26.5557 15.6535C26.5557 21.9374 21.4158 27.0316 15.1318 27.0316C8.84789 27.0316 3.70801 21.9374 3.70801 15.6535Z" fill="url(#paint1_linear_531_2331)"/>
<path d="M3.70801 15.6535C3.70801 9.36954 8.84789 4.27539 15.1318 4.27539C21.4158 4.27539 26.5557 9.36954 26.5557 15.6535C26.5557 21.9374 21.4158 27.0316 15.1318 27.0316C8.84789 27.0316 3.70801 21.9374 3.70801 15.6535Z" fill="black" fill-opacity="0.1"/>
<path d="M18.7859 12.7857C16.7344 13.8972 15.0826 15.6173 13.8299 17.5858C9.11014 25.0023 10.3566 29.7227 5.64383 26.8403C1.37254 23.3624 -1.52913 16.7438 1.53891 9.54822C5.55009 0.140692 19.5152 -3.04226 26.8932 7.01775C28.57 9.38016 23.388 10.2923 18.7859 12.7857Z" fill="url(#paint2_linear_531_2331)" fill-opacity="0.5"/>
<path d="M17.417 12.7366C17.417 12.7366 14.8268 13.155 13.3149 14.4999C11.803 15.8449 11.4148 19.0677 11.4148 19.0677C11.4148 19.0677 11.0267 15.8449 9.51478 14.4999C8.00286 13.155 5.99318 12.7111 5.99318 12.7111C5.99318 12.7111 8.00286 12.4644 9.51478 11.1195C11.0267 9.77457 11.4148 6.55176 11.4148 6.55176C11.4148 6.55176 11.803 9.77457 13.3149 11.1195C14.8268 12.4644 17.417 12.7366 17.417 12.7366Z" fill="white"/>
<defs>
<linearGradient id="paint0_linear_531_2331" x1="7.50072" y1="6.61314" x2="26.913" y2="18.6367" gradientUnits="userSpaceOnUse">
<stop stop-color="#B6C0D6"/>
<stop offset="1" stop-color="#6B6A7B" stop-opacity="0.84"/>
</linearGradient>
<linearGradient id="paint1_linear_531_2331" x1="9.3297" y1="8.75349" x2="24.4457" y2="18.116" gradientUnits="userSpaceOnUse">
<stop stop-color="#B6C0D6"/>
<stop offset="1" stop-color="#6B6A7B" stop-opacity="0.84"/>
</linearGradient>
<linearGradient id="paint2_linear_531_2331" x1="-5.0528" y1="-0.769152" x2="17.089" y2="38.8817" gradientUnits="userSpaceOnUse">
<stop stop-color="white"/>
<stop offset="1" stop-color="white" stop-opacity="0"/>
</linearGradient>
</defs>
</svg>
