<svg width="305" height="290" viewBox="0 0 305 290" fill="none" xmlns="http://www.w3.org/2000/svg">
<path d="M289.257 220.032C307.489 182.884 308.736 133.384 296.134 93.7019C285.296 59.539 261.176 33.4676 233.321 17.9567C201 -0.0425245 162.481 -5.40027 127.775 5.96152C118.656 8.94738 109.769 11.6876 101.167 16.5995C65.9057 36.7249 72.7306 86.3213 60.3412 103.577C49.9294 118.093 30.0302 113.814 17.4792 124.937C-16.3476 154.97 3.23496 232.325 39.5436 260.089C81.8174 292.417 244.107 312.019 289.257 220.032Z" fill="#2BA9E0"/>
<path opacity="0.8" d="M289.257 220.032C307.489 182.884 308.736 133.384 296.134 93.7019C285.296 59.539 261.176 33.4676 233.321 17.9567C201 -0.0425245 162.481 -5.40027 127.775 5.96152C118.656 8.94738 109.769 11.6876 101.167 16.5995C65.9057 36.7249 72.7306 86.3213 60.3412 103.577C49.9294 118.093 30.0302 113.814 17.4792 124.937C-16.3476 154.97 3.23496 232.325 39.5436 260.089C81.8174 292.417 244.107 312.019 289.257 220.032Z" fill="white"/>
<path d="M295.662 92.5322H84.396V214.125H295.662V92.5322Z" stroke="#263238" stroke-miterlimit="10" stroke-linecap="round"/>
<path d="M273.152 151.351C280.394 151.351 286.265 145.48 286.265 138.238C286.265 130.996 280.394 125.125 273.152 125.125C265.91 125.125 260.039 130.996 260.039 138.238C260.039 145.48 265.91 151.351 273.152 151.351Z" stroke="#263238" stroke-miterlimit="10" stroke-linecap="round"/>
<path d="M273.152 145.677C277.26 145.677 280.591 142.346 280.591 138.238C280.591 134.13 277.26 130.799 273.152 130.799C269.043 130.799 265.713 134.13 265.713 138.238C265.713 142.346 269.043 145.677 273.152 145.677Z" stroke="#263238" stroke-miterlimit="10" stroke-linecap="round"/>
<path d="M273.152 140.364C274.326 140.364 275.278 139.412 275.278 138.238C275.278 137.064 274.326 136.112 273.152 136.112C271.977 136.112 271.025 137.064 271.025 138.238C271.025 139.412 271.977 140.364 273.152 140.364Z" stroke="#263238" stroke-miterlimit="10" stroke-linecap="round"/>
<path d="M288.385 117.156H257.912V159.32H288.385V117.156Z" stroke="#263238" stroke-miterlimit="10" stroke-linecap="round"/>
<path d="M225.669 151.351C232.911 151.351 238.782 145.48 238.782 138.238C238.782 130.996 232.911 125.125 225.669 125.125C218.427 125.125 212.556 130.996 212.556 138.238C212.556 145.48 218.427 151.351 225.669 151.351Z" stroke="#263238" stroke-miterlimit="10" stroke-linecap="round"/>
<path d="M225.669 145.677C229.777 145.677 233.108 142.346 233.108 138.238C233.108 134.13 229.777 130.799 225.669 130.799C221.56 130.799 218.23 134.13 218.23 138.238C218.23 142.346 221.56 145.677 225.669 145.677Z" stroke="#263238" stroke-miterlimit="10" stroke-linecap="round"/>
<path d="M225.669 140.364C226.843 140.364 227.795 139.412 227.795 138.238C227.795 137.064 226.843 136.112 225.669 136.112C224.494 136.112 223.542 137.064 223.542 138.238C223.542 139.412 224.494 140.364 225.669 140.364Z" stroke="#263238" stroke-miterlimit="10" stroke-linecap="round"/>
<path d="M240.902 117.156H210.429V159.32H240.902V117.156Z" stroke="#263238" stroke-miterlimit="10" stroke-linecap="round"/>
<path d="M178.186 151.351C185.428 151.351 191.299 145.48 191.299 138.238C191.299 130.996 185.428 125.125 178.186 125.125C170.943 125.125 165.072 130.996 165.072 138.238C165.072 145.48 170.943 151.351 178.186 151.351Z" stroke="#263238" stroke-miterlimit="10" stroke-linecap="round"/>
<path d="M178.186 145.677C182.294 145.677 185.625 142.346 185.625 138.238C185.625 134.13 182.294 130.799 178.186 130.799C174.078 130.799 170.747 134.13 170.747 138.238C170.747 142.346 174.078 145.677 178.186 145.677Z" stroke="#263238" stroke-miterlimit="10" stroke-linecap="round"/>
<path d="M178.186 140.364C179.36 140.364 180.312 139.412 180.312 138.238C180.312 137.064 179.36 136.112 178.186 136.112C177.012 136.112 176.06 137.064 176.06 138.238C176.06 139.412 177.012 140.364 178.186 140.364Z" stroke="#263238" stroke-miterlimit="10" stroke-linecap="round"/>
<path d="M193.425 117.156H162.953V159.32H193.425V117.156Z" stroke="#263238" stroke-miterlimit="10" stroke-linecap="round"/>
<path d="M198.86 184.48H154.583V214.132H198.86V184.48Z" stroke="#263238" stroke-miterlimit="10" stroke-linecap="round"/>
<path d="M196.094 186.057H154.583V214.125H196.094V186.057Z" stroke="#263238" stroke-miterlimit="10" stroke-linecap="round"/>
<path d="M139.893 184.48H95.6157V214.132H139.893V184.48Z" stroke="#263238" stroke-miterlimit="10" stroke-linecap="round"/>
<path d="M137.127 186.057H95.6157V214.125H137.127V186.057Z" stroke="#263238" stroke-miterlimit="10" stroke-linecap="round"/>
<path d="M145.975 92.8618V213.86" stroke="#263238" stroke-miterlimit="10" stroke-linecap="round"/>
<path d="M222.689 24.5682C223.617 24.5682 224.369 23.8159 224.369 22.8879C224.369 21.9598 223.617 21.2075 222.689 21.2075C221.761 21.2075 221.009 21.9598 221.009 22.8879C221.009 23.8159 221.761 24.5682 222.689 24.5682Z" stroke="#263238" stroke-miterlimit="10" stroke-linecap="round"/>
<path d="M237.128 24.5682C238.056 24.5682 238.808 23.8159 238.808 22.8879C238.808 21.9598 238.056 21.2075 237.128 21.2075C236.2 21.2075 235.447 21.9598 235.447 22.8879C235.447 23.8159 236.2 24.5682 237.128 24.5682Z" stroke="#263238" stroke-miterlimit="10" stroke-linecap="round"/>
<path d="M251.566 24.5682C252.494 24.5682 253.246 23.8159 253.246 22.8879C253.246 21.9598 252.494 21.2075 251.566 21.2075C250.638 21.2075 249.885 21.9598 249.885 22.8879C249.885 23.8159 250.638 24.5682 251.566 24.5682Z" stroke="#263238" stroke-miterlimit="10" stroke-linecap="round"/>
<path d="M265.997 24.5682C266.925 24.5682 267.678 23.8159 267.678 22.8879C267.678 21.9598 266.925 21.2075 265.997 21.2075C265.069 21.2075 264.317 21.9598 264.317 22.8879C264.317 23.8159 265.069 24.5682 265.997 24.5682Z" stroke="#263238" stroke-miterlimit="10" stroke-linecap="round"/>
<path d="M280.435 24.5682C281.363 24.5682 282.116 23.8159 282.116 22.8879C282.116 21.9598 281.363 21.2075 280.435 21.2075C279.507 21.2075 278.755 21.9598 278.755 22.8879C278.755 23.8159 279.507 24.5682 280.435 24.5682Z" stroke="#263238" stroke-miterlimit="10" stroke-linecap="round"/>
<path d="M222.689 35.7555C223.617 35.7555 224.369 35.0032 224.369 34.0751C224.369 33.1471 223.617 32.3948 222.689 32.3948C221.761 32.3948 221.009 33.1471 221.009 34.0751C221.009 35.0032 221.761 35.7555 222.689 35.7555Z" stroke="#263238" stroke-miterlimit="10" stroke-linecap="round"/>
<path d="M237.128 35.7555C238.056 35.7555 238.808 35.0032 238.808 34.0751C238.808 33.1471 238.056 32.3948 237.128 32.3948C236.2 32.3948 235.447 33.1471 235.447 34.0751C235.447 35.0032 236.2 35.7555 237.128 35.7555Z" stroke="#263238" stroke-miterlimit="10" stroke-linecap="round"/>
<path d="M251.566 35.7555C252.494 35.7555 253.246 35.0032 253.246 34.0751C253.246 33.1471 252.494 32.3948 251.566 32.3948C250.638 32.3948 249.885 33.1471 249.885 34.0751C249.885 35.0032 250.638 35.7555 251.566 35.7555Z" stroke="#263238" stroke-miterlimit="10" stroke-linecap="round"/>
<path d="M265.997 35.7555C266.925 35.7555 267.678 35.0032 267.678 34.0751C267.678 33.1471 266.925 32.3948 265.997 32.3948C265.069 32.3948 264.317 33.1471 264.317 34.0751C264.317 35.0032 265.069 35.7555 265.997 35.7555Z" stroke="#263238" stroke-miterlimit="10" stroke-linecap="round"/>
<path d="M280.435 35.7555C281.363 35.7555 282.116 35.0032 282.116 34.0751C282.116 33.1471 281.363 32.3948 280.435 32.3948C279.507 32.3948 278.755 33.1471 278.755 34.0751C278.755 35.0032 279.507 35.7555 280.435 35.7555Z" stroke="#263238" stroke-miterlimit="10" stroke-linecap="round"/>
<path d="M222.689 46.9364C223.617 46.9364 224.369 46.1841 224.369 45.256C224.369 44.328 223.617 43.5757 222.689 43.5757C221.761 43.5757 221.009 44.328 221.009 45.256C221.009 46.1841 221.761 46.9364 222.689 46.9364Z" stroke="#263238" stroke-miterlimit="10" stroke-linecap="round"/>
<path d="M237.128 46.9364C238.056 46.9364 238.808 46.1841 238.808 45.256C238.808 44.328 238.056 43.5757 237.128 43.5757C236.2 43.5757 235.447 44.328 235.447 45.256C235.447 46.1841 236.2 46.9364 237.128 46.9364Z" stroke="#263238" stroke-miterlimit="10" stroke-linecap="round"/>
<path d="M251.566 46.9364C252.494 46.9364 253.246 46.1841 253.246 45.256C253.246 44.328 252.494 43.5757 251.566 43.5757C250.638 43.5757 249.885 44.328 249.885 45.256C249.885 46.1841 250.638 46.9364 251.566 46.9364Z" stroke="#263238" stroke-miterlimit="10" stroke-linecap="round"/>
<path d="M265.997 46.9364C266.925 46.9364 267.678 46.1841 267.678 45.256C267.678 44.328 266.925 43.5757 265.997 43.5757C265.069 43.5757 264.317 44.328 264.317 45.256C264.317 46.1841 265.069 46.9364 265.997 46.9364Z" stroke="#263238" stroke-miterlimit="10" stroke-linecap="round"/>
<path d="M280.435 46.9364C281.363 46.9364 282.116 46.1841 282.116 45.256C282.116 44.328 281.363 43.5757 280.435 43.5757C279.507 43.5757 278.755 44.328 278.755 45.256C278.755 46.1841 279.507 46.9364 280.435 46.9364Z" stroke="#263238" stroke-miterlimit="10" stroke-linecap="round"/>
<path d="M224.369 56.4433C224.369 56.7756 224.271 57.1005 224.086 57.3769C223.902 57.6532 223.639 57.8686 223.332 57.9957C223.025 58.1229 222.687 58.1562 222.361 58.0914C222.035 58.0265 221.736 57.8665 221.501 57.6315C221.266 57.3965 221.106 57.0971 221.041 56.7711C220.976 56.4452 221.01 56.1073 221.137 55.8003C221.264 55.4932 221.479 55.2308 221.756 55.0461C222.032 54.8615 222.357 54.7629 222.689 54.7629C223.135 54.7629 223.562 54.94 223.877 55.2551C224.192 55.5702 224.369 55.9976 224.369 56.4433Z" stroke="#263238" stroke-miterlimit="10" stroke-linecap="round"/>
<path d="M238.808 56.4433C238.808 56.7756 238.709 57.1005 238.525 57.3769C238.34 57.6532 238.078 57.8686 237.771 57.9957C237.464 58.1229 237.126 58.1562 236.8 58.0914C236.474 58.0265 236.174 57.8665 235.939 57.6315C235.704 57.3965 235.544 57.0971 235.48 56.7711C235.415 56.4452 235.448 56.1073 235.575 55.8003C235.702 55.4932 235.918 55.2308 236.194 55.0461C236.47 54.8615 236.795 54.7629 237.128 54.7629C237.573 54.7646 237.999 54.9422 238.314 55.257C238.629 55.5717 238.806 55.9982 238.808 56.4433Z" stroke="#263238" stroke-miterlimit="10" stroke-linecap="round"/>
<path d="M253.24 56.4433C253.24 56.7759 253.141 57.1011 252.956 57.3775C252.771 57.654 252.508 57.8694 252.201 57.9964C251.893 58.1234 251.555 58.1563 251.229 58.0909C250.903 58.0255 250.604 57.8648 250.369 57.6292C250.134 57.3935 249.975 57.0935 249.91 56.7672C249.846 56.4408 249.88 56.1027 250.009 55.7958C250.137 55.4888 250.353 55.2269 250.63 55.043C250.908 54.8591 251.233 54.7617 251.566 54.763C252.01 54.7647 252.436 54.9425 252.75 55.2574C253.063 55.5723 253.24 55.9988 253.24 56.4433Z" stroke="#263238" stroke-miterlimit="10" stroke-linecap="round"/>
<path d="M267.678 56.4433C267.678 56.7756 267.579 57.1005 267.394 57.3769C267.21 57.6532 266.947 57.8686 266.64 57.9957C266.333 58.1229 265.995 58.1562 265.669 58.0914C265.343 58.0265 265.044 57.8665 264.809 57.6315C264.574 57.3965 264.414 57.0971 264.349 56.7711C264.284 56.4452 264.318 56.1073 264.445 55.8003C264.572 55.4932 264.787 55.2308 265.064 55.0461C265.34 54.8615 265.665 54.7629 265.997 54.7629C266.443 54.7629 266.87 54.94 267.185 55.2551C267.501 55.5702 267.678 55.9976 267.678 56.4433Z" stroke="#263238" stroke-miterlimit="10" stroke-linecap="round"/>
<path d="M282.116 56.4433C282.116 56.7756 282.017 57.1005 281.832 57.3769C281.648 57.6532 281.385 57.8686 281.078 57.9957C280.771 58.1229 280.433 58.1562 280.107 58.0914C279.781 58.0265 279.482 57.8665 279.247 57.6315C279.012 57.3965 278.852 57.0971 278.787 56.7711C278.722 56.4452 278.756 56.1073 278.883 55.8003C279.01 55.4932 279.225 55.2308 279.502 55.0461C279.778 54.8615 280.103 54.7629 280.435 54.7629C280.88 54.7646 281.307 54.9422 281.622 55.257C281.936 55.5717 282.114 55.9982 282.116 56.4433Z" stroke="#263238" stroke-miterlimit="10" stroke-linecap="round"/>
<path d="M222.689 69.3043C223.617 69.3043 224.369 68.552 224.369 67.624C224.369 66.6959 223.617 65.9436 222.689 65.9436C221.761 65.9436 221.009 66.6959 221.009 67.624C221.009 68.552 221.761 69.3043 222.689 69.3043Z" stroke="#263238" stroke-miterlimit="10" stroke-linecap="round"/>
<path d="M237.128 69.3043C238.056 69.3043 238.808 68.552 238.808 67.624C238.808 66.6959 238.056 65.9436 237.128 65.9436C236.2 65.9436 235.447 66.6959 235.447 67.624C235.447 68.552 236.2 69.3043 237.128 69.3043Z" stroke="#263238" stroke-miterlimit="10" stroke-linecap="round"/>
<path d="M251.566 69.3043C252.494 69.3043 253.246 68.552 253.246 67.624C253.246 66.6959 252.494 65.9436 251.566 65.9436C250.638 65.9436 249.885 66.6959 249.885 67.624C249.885 68.552 250.638 69.3043 251.566 69.3043Z" stroke="#263238" stroke-miterlimit="10" stroke-linecap="round"/>
<path d="M265.997 69.3043C266.925 69.3043 267.678 68.552 267.678 67.624C267.678 66.6959 266.925 65.9436 265.997 65.9436C265.069 65.9436 264.317 66.6959 264.317 67.624C264.317 68.552 265.069 69.3043 265.997 69.3043Z" stroke="#263238" stroke-miterlimit="10" stroke-linecap="round"/>
<path d="M280.435 69.3043C281.363 69.3043 282.116 68.552 282.116 67.624C282.116 66.6959 281.363 65.9436 280.435 65.9436C279.507 65.9436 278.755 66.6959 278.755 67.624C278.755 68.552 279.507 69.3043 280.435 69.3043Z" stroke="#263238" stroke-miterlimit="10" stroke-linecap="round"/>
<path d="M222.689 80.4918C223.617 80.4918 224.369 79.7395 224.369 78.8115C224.369 77.8834 223.617 77.1311 222.689 77.1311C221.761 77.1311 221.009 77.8834 221.009 78.8115C221.009 79.7395 221.761 80.4918 222.689 80.4918Z" stroke="#263238" stroke-miterlimit="10" stroke-linecap="round"/>
<path d="M237.128 80.4918C238.056 80.4918 238.808 79.7395 238.808 78.8115C238.808 77.8834 238.056 77.1311 237.128 77.1311C236.2 77.1311 235.447 77.8834 235.447 78.8115C235.447 79.7395 236.2 80.4918 237.128 80.4918Z" stroke="#263238" stroke-miterlimit="10" stroke-linecap="round"/>
<path d="M251.566 80.4918C252.494 80.4918 253.246 79.7395 253.246 78.8115C253.246 77.8834 252.494 77.1311 251.566 77.1311C250.638 77.1311 249.885 77.8834 249.885 78.8115C249.885 79.7395 250.638 80.4918 251.566 80.4918Z" stroke="#263238" stroke-miterlimit="10" stroke-linecap="round"/>
<path d="M265.997 80.4918C266.925 80.4918 267.678 79.7395 267.678 78.8115C267.678 77.8834 266.925 77.1311 265.997 77.1311C265.069 77.1311 264.317 77.8834 264.317 78.8115C264.317 79.7395 265.069 80.4918 265.997 80.4918Z" stroke="#263238" stroke-miterlimit="10" stroke-linecap="round"/>
<path d="M280.435 80.4918C281.363 80.4918 282.116 79.7395 282.116 78.8115C282.116 77.8834 281.363 77.1311 280.435 77.1311C279.507 77.1311 278.755 77.8834 278.755 78.8115C278.755 79.7395 279.507 80.4918 280.435 80.4918Z" stroke="#263238" stroke-miterlimit="10" stroke-linecap="round"/>
<path d="M222.689 228.092C223.617 228.092 224.369 227.339 224.369 226.411C224.369 225.483 223.617 224.731 222.689 224.731C221.761 224.731 221.009 225.483 221.009 226.411C221.009 227.339 221.761 228.092 222.689 228.092Z" stroke="#263238" stroke-miterlimit="10" stroke-linecap="round"/>
<path d="M237.128 228.092C238.056 228.092 238.808 227.339 238.808 226.411C238.808 225.483 238.056 224.731 237.128 224.731C236.2 224.731 235.447 225.483 235.447 226.411C235.447 227.339 236.2 228.092 237.128 228.092Z" stroke="#263238" stroke-miterlimit="10" stroke-linecap="round"/>
<path d="M251.566 228.092C252.494 228.092 253.246 227.339 253.246 226.411C253.246 225.483 252.494 224.731 251.566 224.731C250.638 224.731 249.885 225.483 249.885 226.411C249.885 227.339 250.638 228.092 251.566 228.092Z" stroke="#263238" stroke-miterlimit="10" stroke-linecap="round"/>
<path d="M265.997 228.092C266.925 228.092 267.678 227.339 267.678 226.411C267.678 225.483 266.925 224.731 265.997 224.731C265.069 224.731 264.317 225.483 264.317 226.411C264.317 227.339 265.069 228.092 265.997 228.092Z" stroke="#263238" stroke-miterlimit="10" stroke-linecap="round"/>
<path d="M280.435 228.092C281.363 228.092 282.116 227.339 282.116 226.411C282.116 225.483 281.363 224.731 280.435 224.731C279.507 224.731 278.755 225.483 278.755 226.411C278.755 227.339 279.507 228.092 280.435 228.092Z" stroke="#263238" stroke-miterlimit="10" stroke-linecap="round"/>
<path d="M222.689 239.279C223.617 239.279 224.369 238.527 224.369 237.599C224.369 236.671 223.617 235.918 222.689 235.918C221.761 235.918 221.009 236.671 221.009 237.599C221.009 238.527 221.761 239.279 222.689 239.279Z" stroke="#263238" stroke-miterlimit="10" stroke-linecap="round"/>
<path d="M237.128 239.279C238.056 239.279 238.808 238.527 238.808 237.599C238.808 236.671 238.056 235.918 237.128 235.918C236.2 235.918 235.447 236.671 235.447 237.599C235.447 238.527 236.2 239.279 237.128 239.279Z" stroke="#263238" stroke-miterlimit="10" stroke-linecap="round"/>
<path d="M251.566 239.279C252.494 239.279 253.246 238.527 253.246 237.599C253.246 236.671 252.494 235.918 251.566 235.918C250.638 235.918 249.885 236.671 249.885 237.599C249.885 238.527 250.638 239.279 251.566 239.279Z" stroke="#263238" stroke-miterlimit="10" stroke-linecap="round"/>
<path d="M265.997 239.279C266.925 239.279 267.678 238.527 267.678 237.599C267.678 236.671 266.925 235.918 265.997 235.918C265.069 235.918 264.317 236.671 264.317 237.599C264.317 238.527 265.069 239.279 265.997 239.279Z" stroke="#263238" stroke-miterlimit="10" stroke-linecap="round"/>
<path d="M280.435 239.279C281.363 239.279 282.116 238.527 282.116 237.599C282.116 236.671 281.363 235.918 280.435 235.918C279.507 235.918 278.755 236.671 278.755 237.599C278.755 238.527 279.507 239.279 280.435 239.279Z" stroke="#263238" stroke-miterlimit="10" stroke-linecap="round"/>
<path d="M222.689 250.46C223.617 250.46 224.369 249.707 224.369 248.779C224.369 247.851 223.617 247.099 222.689 247.099C221.761 247.099 221.009 247.851 221.009 248.779C221.009 249.707 221.761 250.46 222.689 250.46Z" stroke="#263238" stroke-miterlimit="10" stroke-linecap="round"/>
<path d="M237.128 250.46C238.056 250.46 238.808 249.707 238.808 248.779C238.808 247.851 238.056 247.099 237.128 247.099C236.2 247.099 235.447 247.851 235.447 248.779C235.447 249.707 236.2 250.46 237.128 250.46Z" stroke="#263238" stroke-miterlimit="10" stroke-linecap="round"/>
<path d="M251.566 250.46C252.494 250.46 253.246 249.707 253.246 248.779C253.246 247.851 252.494 247.099 251.566 247.099C250.638 247.099 249.885 247.851 249.885 248.779C249.885 249.707 250.638 250.46 251.566 250.46Z" stroke="#263238" stroke-miterlimit="10" stroke-linecap="round"/>
<path d="M265.997 250.46C266.925 250.46 267.678 249.707 267.678 248.779C267.678 247.851 266.925 247.099 265.997 247.099C265.069 247.099 264.317 247.851 264.317 248.779C264.317 249.707 265.069 250.46 265.997 250.46Z" stroke="#263238" stroke-miterlimit="10" stroke-linecap="round"/>
<path d="M280.435 250.46C281.363 250.46 282.116 249.707 282.116 248.779C282.116 247.851 281.363 247.099 280.435 247.099C279.507 247.099 278.755 247.851 278.755 248.779C278.755 249.707 279.507 250.46 280.435 250.46Z" stroke="#263238" stroke-miterlimit="10" stroke-linecap="round"/>
<path d="M222.689 261.647C223.617 261.647 224.369 260.895 224.369 259.966C224.369 259.038 223.617 258.286 222.689 258.286C221.761 258.286 221.009 259.038 221.009 259.966C221.009 260.895 221.761 261.647 222.689 261.647Z" stroke="#263238" stroke-miterlimit="10" stroke-linecap="round"/>
<path d="M237.128 261.647C238.056 261.647 238.808 260.895 238.808 259.966C238.808 259.038 238.056 258.286 237.128 258.286C236.2 258.286 235.447 259.038 235.447 259.966C235.447 260.895 236.2 261.647 237.128 261.647Z" stroke="#263238" stroke-miterlimit="10" stroke-linecap="round"/>
<path d="M251.566 261.647C252.494 261.647 253.246 260.895 253.246 259.966C253.246 259.038 252.494 258.286 251.566 258.286C250.638 258.286 249.885 259.038 249.885 259.966C249.885 260.895 250.638 261.647 251.566 261.647Z" stroke="#263238" stroke-miterlimit="10" stroke-linecap="round"/>
<path d="M265.997 261.647C266.925 261.647 267.678 260.895 267.678 259.966C267.678 259.038 266.925 258.286 265.997 258.286C265.069 258.286 264.317 259.038 264.317 259.966C264.317 260.895 265.069 261.647 265.997 261.647Z" stroke="#263238" stroke-miterlimit="10" stroke-linecap="round"/>
<path d="M280.435 261.647C281.363 261.647 282.116 260.895 282.116 259.966C282.116 259.038 281.363 258.286 280.435 258.286C279.507 258.286 278.755 259.038 278.755 259.966C278.755 260.895 279.507 261.647 280.435 261.647Z" stroke="#263238" stroke-miterlimit="10" stroke-linecap="round"/>
<path d="M222.689 272.828C223.617 272.828 224.369 272.075 224.369 271.147C224.369 270.219 223.617 269.467 222.689 269.467C221.761 269.467 221.009 270.219 221.009 271.147C221.009 272.075 221.761 272.828 222.689 272.828Z" stroke="#263238" stroke-miterlimit="10" stroke-linecap="round"/>
<path d="M237.128 272.828C238.056 272.828 238.808 272.075 238.808 271.147C238.808 270.219 238.056 269.467 237.128 269.467C236.2 269.467 235.447 270.219 235.447 271.147C235.447 272.075 236.2 272.828 237.128 272.828Z" stroke="#263238" stroke-miterlimit="10" stroke-linecap="round"/>
<path d="M251.566 272.828C252.494 272.828 253.246 272.075 253.246 271.147C253.246 270.219 252.494 269.467 251.566 269.467C250.638 269.467 249.885 270.219 249.885 271.147C249.885 272.075 250.638 272.828 251.566 272.828Z" stroke="#263238" stroke-miterlimit="10" stroke-linecap="round"/>
<path d="M265.997 272.828C266.925 272.828 267.678 272.075 267.678 271.147C267.678 270.219 266.925 269.467 265.997 269.467C265.069 269.467 264.317 270.219 264.317 271.147C264.317 272.075 265.069 272.828 265.997 272.828Z" stroke="#263238" stroke-miterlimit="10" stroke-linecap="round"/>
<path d="M280.435 272.828C281.363 272.828 282.116 272.075 282.116 271.147C282.116 270.219 281.363 269.467 280.435 269.467C279.507 269.467 278.755 270.219 278.755 271.147C278.755 272.075 279.507 272.828 280.435 272.828Z" stroke="#263238" stroke-miterlimit="10" stroke-linecap="round"/>
<path d="M222.689 284.015C223.617 284.015 224.369 283.263 224.369 282.335C224.369 281.407 223.617 280.654 222.689 280.654C221.761 280.654 221.009 281.407 221.009 282.335C221.009 283.263 221.761 284.015 222.689 284.015Z" stroke="#263238" stroke-miterlimit="10" stroke-linecap="round"/>
<path d="M237.128 284.015C238.056 284.015 238.808 283.263 238.808 282.335C238.808 281.407 238.056 280.654 237.128 280.654C236.2 280.654 235.447 281.407 235.447 282.335C235.447 283.263 236.2 284.015 237.128 284.015Z" stroke="#263238" stroke-miterlimit="10" stroke-linecap="round"/>
<path d="M251.566 284.015C252.494 284.015 253.246 283.263 253.246 282.335C253.246 281.407 252.494 280.654 251.566 280.654C250.638 280.654 249.885 281.407 249.885 282.335C249.885 283.263 250.638 284.015 251.566 284.015Z" stroke="#263238" stroke-miterlimit="10" stroke-linecap="round"/>
<path d="M265.997 284.015C266.925 284.015 267.678 283.263 267.678 282.335C267.678 281.407 266.925 280.654 265.997 280.654C265.069 280.654 264.317 281.407 264.317 282.335C264.317 283.263 265.069 284.015 265.997 284.015Z" stroke="#263238" stroke-miterlimit="10" stroke-linecap="round"/>
<path d="M280.435 284.015C281.363 284.015 282.116 283.263 282.116 282.335C282.116 281.407 281.363 280.654 280.435 280.654C279.507 280.654 278.755 281.407 278.755 282.335C278.755 283.263 279.507 284.015 280.435 284.015Z" stroke="#263238" stroke-miterlimit="10" stroke-linecap="round"/>
<path d="M150.402 228.092C151.33 228.092 152.082 227.339 152.082 226.411C152.082 225.483 151.33 224.731 150.402 224.731C149.474 224.731 148.722 225.483 148.722 226.411C148.722 227.339 149.474 228.092 150.402 228.092Z" stroke="#263238" stroke-miterlimit="10" stroke-linecap="round"/>
<path d="M164.84 228.092C165.768 228.092 166.52 227.339 166.52 226.411C166.52 225.483 165.768 224.731 164.84 224.731C163.912 224.731 163.16 225.483 163.16 226.411C163.16 227.339 163.912 228.092 164.84 228.092Z" stroke="#263238" stroke-miterlimit="10" stroke-linecap="round"/>
<path d="M179.272 228.092C180.2 228.092 180.952 227.339 180.952 226.411C180.952 225.483 180.2 224.731 179.272 224.731C178.344 224.731 177.591 225.483 177.591 226.411C177.591 227.339 178.344 228.092 179.272 228.092Z" stroke="#263238" stroke-miterlimit="10" stroke-linecap="round"/>
<path d="M193.71 228.092C194.638 228.092 195.39 227.339 195.39 226.411C195.39 225.483 194.638 224.731 193.71 224.731C192.782 224.731 192.029 225.483 192.029 226.411C192.029 227.339 192.782 228.092 193.71 228.092Z" stroke="#263238" stroke-miterlimit="10" stroke-linecap="round"/>
<path d="M208.148 228.092C209.076 228.092 209.828 227.339 209.828 226.411C209.828 225.483 209.076 224.731 208.148 224.731C207.22 224.731 206.467 225.483 206.467 226.411C206.467 227.339 207.22 228.092 208.148 228.092Z" stroke="#263238" stroke-miterlimit="10" stroke-linecap="round"/>
<path d="M150.402 239.279C151.33 239.279 152.082 238.527 152.082 237.599C152.082 236.671 151.33 235.918 150.402 235.918C149.474 235.918 148.722 236.671 148.722 237.599C148.722 238.527 149.474 239.279 150.402 239.279Z" stroke="#263238" stroke-miterlimit="10" stroke-linecap="round"/>
<path d="M164.84 239.279C165.768 239.279 166.52 238.527 166.52 237.599C166.52 236.671 165.768 235.918 164.84 235.918C163.912 235.918 163.16 236.671 163.16 237.599C163.16 238.527 163.912 239.279 164.84 239.279Z" stroke="#263238" stroke-miterlimit="10" stroke-linecap="round"/>
<path d="M179.272 239.279C180.2 239.279 180.952 238.527 180.952 237.599C180.952 236.671 180.2 235.918 179.272 235.918C178.344 235.918 177.591 236.671 177.591 237.599C177.591 238.527 178.344 239.279 179.272 239.279Z" stroke="#263238" stroke-miterlimit="10" stroke-linecap="round"/>
<path d="M193.71 239.279C194.638 239.279 195.39 238.527 195.39 237.599C195.39 236.671 194.638 235.918 193.71 235.918C192.782 235.918 192.029 236.671 192.029 237.599C192.029 238.527 192.782 239.279 193.71 239.279Z" stroke="#263238" stroke-miterlimit="10" stroke-linecap="round"/>
<path d="M208.148 239.279C209.076 239.279 209.828 238.527 209.828 237.599C209.828 236.671 209.076 235.918 208.148 235.918C207.22 235.918 206.467 236.671 206.467 237.599C206.467 238.527 207.22 239.279 208.148 239.279Z" stroke="#263238" stroke-miterlimit="10" stroke-linecap="round"/>
<path d="M150.402 250.46C151.33 250.46 152.082 249.707 152.082 248.779C152.082 247.851 151.33 247.099 150.402 247.099C149.474 247.099 148.722 247.851 148.722 248.779C148.722 249.707 149.474 250.46 150.402 250.46Z" stroke="#263238" stroke-miterlimit="10" stroke-linecap="round"/>
<path d="M164.84 250.46C165.768 250.46 166.52 249.707 166.52 248.779C166.52 247.851 165.768 247.099 164.84 247.099C163.912 247.099 163.16 247.851 163.16 248.779C163.16 249.707 163.912 250.46 164.84 250.46Z" stroke="#263238" stroke-miterlimit="10" stroke-linecap="round"/>
<path d="M179.272 250.46C180.2 250.46 180.952 249.707 180.952 248.779C180.952 247.851 180.2 247.099 179.272 247.099C178.344 247.099 177.591 247.851 177.591 248.779C177.591 249.707 178.344 250.46 179.272 250.46Z" stroke="#263238" stroke-miterlimit="10" stroke-linecap="round"/>
<path d="M193.71 250.46C194.638 250.46 195.39 249.707 195.39 248.779C195.39 247.851 194.638 247.099 193.71 247.099C192.782 247.099 192.029 247.851 192.029 248.779C192.029 249.707 192.782 250.46 193.71 250.46Z" stroke="#263238" stroke-miterlimit="10" stroke-linecap="round"/>
<path d="M208.148 250.46C209.076 250.46 209.828 249.707 209.828 248.779C209.828 247.851 209.076 247.099 208.148 247.099C207.22 247.099 206.467 247.851 206.467 248.779C206.467 249.707 207.22 250.46 208.148 250.46Z" stroke="#263238" stroke-miterlimit="10" stroke-linecap="round"/>
<path d="M150.402 261.647C151.33 261.647 152.082 260.895 152.082 259.966C152.082 259.038 151.33 258.286 150.402 258.286C149.474 258.286 148.722 259.038 148.722 259.966C148.722 260.895 149.474 261.647 150.402 261.647Z" stroke="#263238" stroke-miterlimit="10" stroke-linecap="round"/>
<path d="M164.84 261.647C165.768 261.647 166.52 260.895 166.52 259.966C166.52 259.038 165.768 258.286 164.84 258.286C163.912 258.286 163.16 259.038 163.16 259.966C163.16 260.895 163.912 261.647 164.84 261.647Z" stroke="#263238" stroke-miterlimit="10" stroke-linecap="round"/>
<path d="M179.272 261.647C180.2 261.647 180.952 260.895 180.952 259.966C180.952 259.038 180.2 258.286 179.272 258.286C178.344 258.286 177.591 259.038 177.591 259.966C177.591 260.895 178.344 261.647 179.272 261.647Z" stroke="#263238" stroke-miterlimit="10" stroke-linecap="round"/>
<path d="M193.71 261.647C194.638 261.647 195.39 260.895 195.39 259.966C195.39 259.038 194.638 258.286 193.71 258.286C192.782 258.286 192.029 259.038 192.029 259.966C192.029 260.895 192.782 261.647 193.71 261.647Z" stroke="#263238" stroke-miterlimit="10" stroke-linecap="round"/>
<path d="M208.148 261.647C209.076 261.647 209.828 260.895 209.828 259.966C209.828 259.038 209.076 258.286 208.148 258.286C207.22 258.286 206.467 259.038 206.467 259.966C206.467 260.895 207.22 261.647 208.148 261.647Z" stroke="#263238" stroke-miterlimit="10" stroke-linecap="round"/>
<path d="M150.402 272.828C151.33 272.828 152.082 272.075 152.082 271.147C152.082 270.219 151.33 269.467 150.402 269.467C149.474 269.467 148.722 270.219 148.722 271.147C148.722 272.075 149.474 272.828 150.402 272.828Z" stroke="#263238" stroke-miterlimit="10" stroke-linecap="round"/>
<path d="M164.84 272.828C165.768 272.828 166.52 272.075 166.52 271.147C166.52 270.219 165.768 269.467 164.84 269.467C163.912 269.467 163.16 270.219 163.16 271.147C163.16 272.075 163.912 272.828 164.84 272.828Z" stroke="#263238" stroke-miterlimit="10" stroke-linecap="round"/>
<path d="M179.272 272.828C180.2 272.828 180.952 272.075 180.952 271.147C180.952 270.219 180.2 269.467 179.272 269.467C178.344 269.467 177.591 270.219 177.591 271.147C177.591 272.075 178.344 272.828 179.272 272.828Z" stroke="#263238" stroke-miterlimit="10" stroke-linecap="round"/>
<path d="M193.71 272.828C194.638 272.828 195.39 272.075 195.39 271.147C195.39 270.219 194.638 269.467 193.71 269.467C192.782 269.467 192.029 270.219 192.029 271.147C192.029 272.075 192.782 272.828 193.71 272.828Z" stroke="#263238" stroke-miterlimit="10" stroke-linecap="round"/>
<path d="M208.148 272.828C209.076 272.828 209.828 272.075 209.828 271.147C209.828 270.219 209.076 269.467 208.148 269.467C207.22 269.467 206.467 270.219 206.467 271.147C206.467 272.075 207.22 272.828 208.148 272.828Z" stroke="#263238" stroke-miterlimit="10" stroke-linecap="round"/>
<path d="M150.402 284.015C151.33 284.015 152.082 283.263 152.082 282.335C152.082 281.407 151.33 280.654 150.402 280.654C149.474 280.654 148.722 281.407 148.722 282.335C148.722 283.263 149.474 284.015 150.402 284.015Z" stroke="#263238" stroke-miterlimit="10" stroke-linecap="round"/>
<path d="M164.84 284.015C165.768 284.015 166.52 283.263 166.52 282.335C166.52 281.407 165.768 280.654 164.84 280.654C163.912 280.654 163.16 281.407 163.16 282.335C163.16 283.263 163.912 284.015 164.84 284.015Z" stroke="#263238" stroke-miterlimit="10" stroke-linecap="round"/>
<path d="M179.272 284.015C180.2 284.015 180.952 283.263 180.952 282.335C180.952 281.407 180.2 280.654 179.272 280.654C178.344 280.654 177.591 281.407 177.591 282.335C177.591 283.263 178.344 284.015 179.272 284.015Z" stroke="#263238" stroke-miterlimit="10" stroke-linecap="round"/>
<path d="M193.71 284.015C194.638 284.015 195.39 283.263 195.39 282.335C195.39 281.407 194.638 280.654 193.71 280.654C192.782 280.654 192.029 281.407 192.029 282.335C192.029 283.263 192.782 284.015 193.71 284.015Z" stroke="#263238" stroke-miterlimit="10" stroke-linecap="round"/>
<path d="M208.148 284.015C209.076 284.015 209.828 283.263 209.828 282.335C209.828 281.407 209.076 280.654 208.148 280.654C207.22 280.654 206.467 281.407 206.467 282.335C206.467 283.263 207.22 284.015 208.148 284.015Z" stroke="#263238" stroke-miterlimit="10" stroke-linecap="round"/>
<path d="M78.114 228.092C79.042 228.092 79.7943 227.339 79.7943 226.411C79.7943 225.483 79.042 224.731 78.114 224.731C77.1859 224.731 76.4336 225.483 76.4336 226.411C76.4336 227.339 77.1859 228.092 78.114 228.092Z" stroke="#263238" stroke-miterlimit="10" stroke-linecap="round"/>
<path d="M92.5461 228.092C93.4741 228.092 94.2264 227.339 94.2264 226.411C94.2264 225.483 93.4741 224.731 92.5461 224.731C91.618 224.731 90.8657 225.483 90.8657 226.411C90.8657 227.339 91.618 228.092 92.5461 228.092Z" stroke="#263238" stroke-miterlimit="10" stroke-linecap="round"/>
<path d="M106.984 228.092C107.912 228.092 108.664 227.339 108.664 226.411C108.664 225.483 107.912 224.731 106.984 224.731C106.056 224.731 105.304 225.483 105.304 226.411C105.304 227.339 106.056 228.092 106.984 228.092Z" stroke="#263238" stroke-miterlimit="10" stroke-linecap="round"/>
<path d="M121.422 228.092C122.35 228.092 123.102 227.339 123.102 226.411C123.102 225.483 122.35 224.731 121.422 224.731C120.494 224.731 119.742 225.483 119.742 226.411C119.742 227.339 120.494 228.092 121.422 228.092Z" stroke="#263238" stroke-miterlimit="10" stroke-linecap="round"/>
<path d="M135.854 228.092C136.782 228.092 137.534 227.339 137.534 226.411C137.534 225.483 136.782 224.731 135.854 224.731C134.926 224.731 134.173 225.483 134.173 226.411C134.173 227.339 134.926 228.092 135.854 228.092Z" stroke="#263238" stroke-miterlimit="10" stroke-linecap="round"/>
<path d="M78.114 239.279C79.042 239.279 79.7943 238.527 79.7943 237.599C79.7943 236.671 79.042 235.918 78.114 235.918C77.1859 235.918 76.4336 236.671 76.4336 237.599C76.4336 238.527 77.1859 239.279 78.114 239.279Z" stroke="#263238" stroke-miterlimit="10" stroke-linecap="round"/>
<path d="M92.5461 239.279C93.4741 239.279 94.2264 238.527 94.2264 237.599C94.2264 236.671 93.4741 235.918 92.5461 235.918C91.618 235.918 90.8657 236.671 90.8657 237.599C90.8657 238.527 91.618 239.279 92.5461 239.279Z" stroke="#263238" stroke-miterlimit="10" stroke-linecap="round"/>
<path d="M106.984 239.279C107.912 239.279 108.664 238.527 108.664 237.599C108.664 236.671 107.912 235.918 106.984 235.918C106.056 235.918 105.304 236.671 105.304 237.599C105.304 238.527 106.056 239.279 106.984 239.279Z" stroke="#263238" stroke-miterlimit="10" stroke-linecap="round"/>
<path d="M121.422 239.279C122.35 239.279 123.102 238.527 123.102 237.599C123.102 236.671 122.35 235.918 121.422 235.918C120.494 235.918 119.742 236.671 119.742 237.599C119.742 238.527 120.494 239.279 121.422 239.279Z" stroke="#263238" stroke-miterlimit="10" stroke-linecap="round"/>
<path d="M135.854 239.279C136.782 239.279 137.534 238.527 137.534 237.599C137.534 236.671 136.782 235.918 135.854 235.918C134.926 235.918 134.173 236.671 134.173 237.599C134.173 238.527 134.926 239.279 135.854 239.279Z" stroke="#263238" stroke-miterlimit="10" stroke-linecap="round"/>
<path d="M78.114 250.46C79.042 250.46 79.7943 249.707 79.7943 248.779C79.7943 247.851 79.042 247.099 78.114 247.099C77.1859 247.099 76.4336 247.851 76.4336 248.779C76.4336 249.707 77.1859 250.46 78.114 250.46Z" stroke="#263238" stroke-miterlimit="10" stroke-linecap="round"/>
<path d="M92.5461 250.46C93.4741 250.46 94.2264 249.707 94.2264 248.779C94.2264 247.851 93.4741 247.099 92.5461 247.099C91.618 247.099 90.8657 247.851 90.8657 248.779C90.8657 249.707 91.618 250.46 92.5461 250.46Z" stroke="#263238" stroke-miterlimit="10" stroke-linecap="round"/>
<path d="M106.984 250.46C107.912 250.46 108.664 249.707 108.664 248.779C108.664 247.851 107.912 247.099 106.984 247.099C106.056 247.099 105.304 247.851 105.304 248.779C105.304 249.707 106.056 250.46 106.984 250.46Z" stroke="#263238" stroke-miterlimit="10" stroke-linecap="round"/>
<path d="M121.422 250.46C122.35 250.46 123.102 249.707 123.102 248.779C123.102 247.851 122.35 247.099 121.422 247.099C120.494 247.099 119.742 247.851 119.742 248.779C119.742 249.707 120.494 250.46 121.422 250.46Z" stroke="#263238" stroke-miterlimit="10" stroke-linecap="round"/>
<path d="M135.854 250.46C136.782 250.46 137.534 249.707 137.534 248.779C137.534 247.851 136.782 247.099 135.854 247.099C134.926 247.099 134.173 247.851 134.173 248.779C134.173 249.707 134.926 250.46 135.854 250.46Z" stroke="#263238" stroke-miterlimit="10" stroke-linecap="round"/>
<path d="M78.114 261.647C79.042 261.647 79.7943 260.895 79.7943 259.966C79.7943 259.038 79.042 258.286 78.114 258.286C77.1859 258.286 76.4336 259.038 76.4336 259.966C76.4336 260.895 77.1859 261.647 78.114 261.647Z" stroke="#263238" stroke-miterlimit="10" stroke-linecap="round"/>
<path d="M92.5461 261.647C93.4741 261.647 94.2264 260.895 94.2264 259.966C94.2264 259.038 93.4741 258.286 92.5461 258.286C91.618 258.286 90.8657 259.038 90.8657 259.966C90.8657 260.895 91.618 261.647 92.5461 261.647Z" stroke="#263238" stroke-miterlimit="10" stroke-linecap="round"/>
<path d="M106.984 261.647C107.912 261.647 108.664 260.895 108.664 259.966C108.664 259.038 107.912 258.286 106.984 258.286C106.056 258.286 105.304 259.038 105.304 259.966C105.304 260.895 106.056 261.647 106.984 261.647Z" stroke="#263238" stroke-miterlimit="10" stroke-linecap="round"/>
<path d="M121.422 261.647C122.35 261.647 123.102 260.895 123.102 259.966C123.102 259.038 122.35 258.286 121.422 258.286C120.494 258.286 119.742 259.038 119.742 259.966C119.742 260.895 120.494 261.647 121.422 261.647Z" stroke="#263238" stroke-miterlimit="10" stroke-linecap="round"/>
<path d="M135.854 261.647C136.782 261.647 137.534 260.895 137.534 259.966C137.534 259.038 136.782 258.286 135.854 258.286C134.926 258.286 134.173 259.038 134.173 259.966C134.173 260.895 134.926 261.647 135.854 261.647Z" stroke="#263238" stroke-miterlimit="10" stroke-linecap="round"/>
<path d="M78.114 272.828C79.042 272.828 79.7943 272.075 79.7943 271.147C79.7943 270.219 79.042 269.467 78.114 269.467C77.1859 269.467 76.4336 270.219 76.4336 271.147C76.4336 272.075 77.1859 272.828 78.114 272.828Z" stroke="#263238" stroke-miterlimit="10" stroke-linecap="round"/>
<path d="M92.5461 272.828C93.4741 272.828 94.2264 272.075 94.2264 271.147C94.2264 270.219 93.4741 269.467 92.5461 269.467C91.618 269.467 90.8657 270.219 90.8657 271.147C90.8657 272.075 91.618 272.828 92.5461 272.828Z" stroke="#263238" stroke-miterlimit="10" stroke-linecap="round"/>
<path d="M106.984 272.828C107.912 272.828 108.664 272.075 108.664 271.147C108.664 270.219 107.912 269.467 106.984 269.467C106.056 269.467 105.304 270.219 105.304 271.147C105.304 272.075 106.056 272.828 106.984 272.828Z" stroke="#263238" stroke-miterlimit="10" stroke-linecap="round"/>
<path d="M121.422 272.828C122.35 272.828 123.102 272.075 123.102 271.147C123.102 270.219 122.35 269.467 121.422 269.467C120.494 269.467 119.742 270.219 119.742 271.147C119.742 272.075 120.494 272.828 121.422 272.828Z" stroke="#263238" stroke-miterlimit="10" stroke-linecap="round"/>
<path d="M135.854 272.828C136.782 272.828 137.534 272.075 137.534 271.147C137.534 270.219 136.782 269.467 135.854 269.467C134.926 269.467 134.173 270.219 134.173 271.147C134.173 272.075 134.926 272.828 135.854 272.828Z" stroke="#263238" stroke-miterlimit="10" stroke-linecap="round"/>
<path d="M78.114 284.015C79.042 284.015 79.7943 283.263 79.7943 282.335C79.7943 281.407 79.042 280.654 78.114 280.654C77.1859 280.654 76.4336 281.407 76.4336 282.335C76.4336 283.263 77.1859 284.015 78.114 284.015Z" stroke="#263238" stroke-miterlimit="10" stroke-linecap="round"/>
<path d="M92.5461 284.015C93.4741 284.015 94.2264 283.263 94.2264 282.335C94.2264 281.407 93.4741 280.654 92.5461 280.654C91.618 280.654 90.8657 281.407 90.8657 282.335C90.8657 283.263 91.618 284.015 92.5461 284.015Z" stroke="#263238" stroke-miterlimit="10" stroke-linecap="round"/>
<path d="M106.984 284.015C107.912 284.015 108.664 283.263 108.664 282.335C108.664 281.407 107.912 280.654 106.984 280.654C106.056 280.654 105.304 281.407 105.304 282.335C105.304 283.263 106.056 284.015 106.984 284.015Z" stroke="#263238" stroke-miterlimit="10" stroke-linecap="round"/>
<path d="M121.422 284.015C122.35 284.015 123.102 283.263 123.102 282.335C123.102 281.407 122.35 280.654 121.422 280.654C120.494 280.654 119.742 281.407 119.742 282.335C119.742 283.263 120.494 284.015 121.422 284.015Z" stroke="#263238" stroke-miterlimit="10" stroke-linecap="round"/>
<path d="M135.854 284.015C136.782 284.015 137.534 283.263 137.534 282.335C137.534 281.407 136.782 280.654 135.854 280.654C134.926 280.654 134.173 281.407 134.173 282.335C134.173 283.263 134.926 284.015 135.854 284.015Z" stroke="#263238" stroke-miterlimit="10" stroke-linecap="round"/>
<path d="M263.664 214.158L262.462 178.437C259.813 177.707 257.116 177.167 254.39 176.821C252.197 176.689 249.997 176.733 247.811 176.951L242.815 180.673L239.454 214.158H263.664Z" fill="#263238" stroke="#263238" stroke-miterlimit="10" stroke-linecap="round"/>
<path d="M287.235 214.157C285.942 208.761 280.849 188.093 280.093 186.264C279.227 184.15 258.914 176.356 258.914 176.356L261.868 214.157H287.235Z" fill="#2BA9E0" stroke="#263238" stroke-miterlimit="10" stroke-linecap="round"/>
<path d="M259.89 188.881C259.89 188.881 260.181 186.994 261.797 187.737C263.412 188.48 266.12 192.261 266.741 190.885C267.361 189.508 264.143 184.053 263.012 181.468C261.881 178.883 263.58 178.088 262.708 177.222C261.835 176.356 258.914 176.382 258.914 176.382L259.89 188.881Z" fill="#2BA9E0" stroke="#263238" stroke-miterlimit="10" stroke-linecap="round"/>
<path d="M246.195 175.335C246.195 175.335 245.82 186.755 247.681 189.611C249.543 192.468 255.508 194.207 257.744 188.623C259.132 184.925 259.888 181.021 259.98 177.073C259.98 177.073 246.046 174.585 246.195 175.335Z" fill="white" stroke="#263238" stroke-miterlimit="10" stroke-linecap="round"/>
<path d="M243.623 214.157L246.693 177.59C246.693 177.59 239.616 180.447 233.528 182.185C227.44 183.924 224.092 186.529 223.471 187.769C222.851 189.01 216.886 204.411 215.399 206.648C213.913 208.884 213.661 210.125 212.665 211.113C211.399 212.202 210.076 213.225 208.704 214.177L243.623 214.157Z" fill="#2BA9E0" stroke="#263238" stroke-miterlimit="10" stroke-linecap="round"/>
<path d="M228.558 213.983C229.32 208.612 230.406 201.704 231.175 196.313" stroke="#263238" stroke-miterlimit="10" stroke-linecap="round"/>
<path d="M246.317 176.453C246.317 176.453 243.215 179.038 242.84 180.673C242.466 182.308 242.097 186.012 240.604 187.627C239.111 189.243 237.373 190.981 238.497 190.859C239.792 190.632 240.972 189.974 241.845 188.991C242.963 187.873 245.82 187.873 245.82 187.873L246.692 177.59L246.317 176.453Z" fill="#2BA9E0" stroke="#263238" stroke-miterlimit="10" stroke-linecap="round"/>
<path d="M245.484 146.116C245.484 146.116 241.994 150.64 242.194 153.316C242.395 155.991 243.228 168.736 244.456 171.612C245.684 174.488 246.104 178.191 249.394 179.633C252.684 181.074 259.056 180.66 260.29 177.985C261.525 175.309 263.166 167.709 263.373 165.854C263.58 163.999 264.608 154.97 264.608 154.97C264.608 154.97 267.077 153.535 267.077 152.708C267.077 151.881 262.552 149.011 262.552 149.011C262.552 149.011 264.401 146.749 263.373 145.308C262.346 143.867 253.097 144.281 253.097 144.281C253.097 144.281 254.532 142.225 251.242 142.225C247.953 142.225 245.484 146.116 245.484 146.116Z" fill="white" stroke="#263238" stroke-miterlimit="10" stroke-linecap="round"/>
<path d="M246.195 157.471C246.195 157.471 247.959 156.366 250.389 157.911" stroke="#263238" stroke-width="2" stroke-miterlimit="10" stroke-linecap="round"/>
<path d="M253.485 157.471C254.201 157.032 255.041 156.837 255.878 156.916C256.715 156.995 257.504 157.345 258.125 157.911" stroke="#263238" stroke-width="2" stroke-miterlimit="10" stroke-linecap="round"/>
<path d="M262.552 148.998C262.552 148.998 264.401 146.736 263.373 145.295C262.346 143.854 253.097 144.268 253.097 144.268C253.097 144.268 254.532 142.212 251.242 142.212C247.953 142.212 245.484 146.09 245.484 146.09C245.484 146.09 241.994 150.614 242.194 153.29C242.291 154.473 242.505 157.652 242.841 161.045C242.886 160.735 243.261 158.234 243.448 155.726C243.655 153.057 245.096 151.002 246.331 150.588C247.565 150.175 247.765 152.644 251.469 152.85C255.172 153.057 256.813 149.561 259.075 151.002C261.337 152.443 260.517 156.76 260.517 157.988C260.517 159.216 262.979 159.43 262.979 160.25C262.979 160.897 263.515 163.178 263.509 164.774C263.845 161.789 264.627 154.893 264.627 154.893C264.627 154.893 267.096 153.458 267.096 152.631C267.096 151.803 262.552 148.998 262.552 148.998Z" fill="#263238" stroke="#263238" stroke-miterlimit="10" stroke-linecap="round"/>
<path d="M263.373 165.854C263.283 166.183 263.283 166.132 263.373 165.854Z" stroke="#263238" stroke-miterlimit="10" stroke-linecap="round"/>
<path d="M248.961 161.052C248.961 161.737 248.657 162.293 248.282 162.293C247.907 162.293 247.597 161.737 247.597 161.052C247.597 160.367 247.901 159.811 248.282 159.811C248.664 159.811 248.961 160.367 248.961 161.052Z" fill="#263238"/>
<path d="M256.167 161.304C256.167 161.989 255.857 162.545 255.482 162.545C255.107 162.545 254.797 161.989 254.797 161.304C254.797 160.619 255.107 160.057 255.482 160.057C255.857 160.057 256.167 160.612 256.167 161.304Z" fill="#263238"/>
<path d="M242.963 160.677C242.963 160.677 240.979 158.816 240.727 161.672C240.475 164.529 243.312 166.39 243.312 166.39L242.963 160.677Z" stroke="#263238" stroke-miterlimit="10" stroke-linecap="round"/>
<path d="M263.825 161.052C263.825 161.052 266.411 159.436 266.411 161.795C266.411 164.154 263.179 168.006 263.179 168.006L263.825 161.052Z" stroke="#263238" stroke-miterlimit="10" stroke-linecap="round"/>
<path d="M250.913 159.811C250.776 160.86 250.56 161.897 250.266 162.913C249.892 164.031 247.287 165.149 249.026 166.022C250.285 166.536 251.668 166.664 253 166.39" stroke="#263238" stroke-miterlimit="10" stroke-linecap="round"/>
<path d="M258.241 169.001C256.005 167.14 252.276 166.022 249.549 167.14C246.822 168.258 244.954 172.226 244.954 172.226L244.753 172.42C245.768 175.154 246.376 178.34 249.374 179.652C252.664 181.087 259.036 180.68 260.271 178.004C260.878 176.514 261.373 174.98 261.751 173.415C260.9 171.716 259.705 170.213 258.241 169.001Z" fill="#263238" stroke="#263238" stroke-miterlimit="10" stroke-linecap="round"/>
<path d="M257.123 175.755C256.626 176.13 256.128 181.223 256.477 181.966C256.826 182.709 259.211 185.32 259.709 184.202C259.885 183.683 260.182 183.214 260.575 182.832L261.693 183.329C261.693 183.329 261.447 186.561 263.929 187.802L266.411 189.043C266.411 189.043 272.744 205.31 275.601 209.537C276.704 211.264 278.054 212.821 279.608 214.157H287.654C288.947 212.219 288.488 208.923 285.909 205.807C282.309 201.464 274.36 193.14 272.001 190.161C270.565 188.358 269.269 186.448 268.123 184.448L267.755 183.95C267.755 183.95 265.887 177.745 265.021 174.514C264.155 171.283 263.283 170.539 261.667 170.171C260.051 169.803 256.703 168.555 256.703 170.042C256.703 171.528 260.303 172.155 260.801 172.401C261.298 172.646 262.164 175.878 262.164 175.878C262.164 175.878 257.621 175.387 257.123 175.755Z" fill="white" stroke="#263238" stroke-miterlimit="10" stroke-linecap="round"/>
<path d="M161.382 34.1138C161.382 34.1138 160.406 21.9894 165.26 16.664C170.85 10.479 182.535 5.39916 191.796 16.412C201.058 27.4247 198.55 46.7036 198.802 55.1894C198.97 60.9091 201.555 66.2086 211.082 67.9601" stroke="#263238" stroke-width="2" stroke-miterlimit="10" stroke-linecap="round"/>
<path d="M140.972 102.873C150.078 102.873 157.459 94.1748 157.459 83.4453C157.459 72.7158 150.078 64.0178 140.972 64.0178C131.867 64.0178 124.485 72.7158 124.485 83.4453C124.485 94.1748 131.867 102.873 140.972 102.873Z" fill="#263238" stroke="#263238" stroke-miterlimit="10" stroke-linecap="round"/>
<path d="M164.82 42.5222H158.047V51.9451H164.82V42.5222Z" fill="#696969" stroke="#263238" stroke-miterlimit="10" stroke-linecap="round"/>
<path d="M164.82 42.5223H158.047L160.419 33.0994H162.449L164.82 42.5223Z" fill="#263238" stroke="#263238" stroke-miterlimit="10" stroke-linecap="round"/>
<path d="M170.12 48.7007H152.748V74.0223H170.12V48.7007Z" fill="#263238" stroke="#263238" stroke-miterlimit="10" stroke-linecap="round"/>
<path d="M167.515 99.0468H155.359L152.748 73.7251H170.12L167.515 99.0468Z" fill="white" stroke="#263238" stroke-miterlimit="10" stroke-linecap="round"/>
<path d="M173.655 59.8945H150.395L144.372 67.1912" stroke="#263238" stroke-width="5" stroke-linecap="round" stroke-linejoin="round"/>
<path d="M177.772 59.888C177.772 59.3048 177.599 58.7348 177.275 58.25C176.951 57.7652 176.49 57.3875 175.951 57.1646C175.412 56.9418 174.82 56.8838 174.248 56.998C173.676 57.1123 173.151 57.3936 172.739 57.8064C172.327 58.2192 172.047 58.7449 171.934 59.317C171.821 59.8891 171.88 60.4819 172.104 61.0203C172.328 61.5587 172.707 62.0185 173.192 62.3416C173.678 62.6646 174.248 62.8364 174.831 62.8351C175.218 62.8351 175.601 62.7588 175.958 62.6106C176.315 62.4624 176.64 62.2453 176.913 61.9715C177.186 61.6978 177.403 61.3728 177.55 61.0153C177.698 60.6578 177.773 60.2747 177.772 59.888Z" fill="#263238"/>
<path d="M241.16 74.5071L279.052 82.8572" stroke="#263238" stroke-width="5" stroke-linecap="round" stroke-linejoin="round"/>
<path d="M210.196 67.6824L241.16 74.5072" stroke="#263238" stroke-width="9" stroke-linecap="round" stroke-linejoin="round"/>
<path d="M174.832 59.8879L210.197 67.6822" stroke="#263238" stroke-width="5" stroke-linecap="round" stroke-linejoin="round"/>
<path d="M221.642 70.1963H230.47V90.018C230.47 91.0842 230.047 92.1067 229.293 92.8605C228.539 93.6144 227.517 94.0379 226.45 94.0379H225.662C224.596 94.0379 223.573 93.6144 222.82 92.8605C222.066 92.1067 221.642 91.0842 221.642 90.018V70.1963Z" fill="#263238"/>
<path d="M225.869 88.9258V288.688" stroke="#263238" stroke-width="6" stroke-linejoin="round"/>
<path d="M97.6903 69.4465C98.3365 69.4465 108.225 71.1656 111.443 64.0758C114.662 56.986 103.927 57.8456 103.281 51.6089C102.634 45.3722 112.09 43.4462 107.365 36.783C102.641 30.1197 91.0335 33.5515 87.3755 36.1367C83.7175 38.7219 80.7187 35.9234 75.5613 32.9052C70.4039 29.8871 55.7912 40.2083 55.7912 40.2083C50.0997 40.1694 44.5128 41.7375 39.6728 44.7324C31.9173 49.6765 33.2099 58.0589 32.1499 61.2839C31.09 64.5088 14.7453 62.5764 10.8741 68.3931C7.00278 74.2097 12.1666 80.0263 11.7336 84.0785C11.3006 88.1308 0.992275 88.6026 1.6321 97.6183C2.27193 106.634 14.3123 110.544 12.1666 114.163C10.021 117.783 6.7895 121.273 10.4475 126.197C14.1055 131.122 25.2734 135.013 33.6558 133.953C42.0382 132.893 52.5663 118.481 58.3699 118.481C64.1736 118.481 79.6394 124.943 85.6563 119.56C91.6733 114.176 88.4548 104.088 85.01 99.3568C81.5653 94.626 81.1323 79.8001 85.2233 74.6427C89.3143 69.4853 97.6903 69.4465 97.6903 69.4465Z" fill="#263238" stroke="#263238" stroke-miterlimit="10" stroke-linecap="round"/>
<path d="M31.5811 197.283C31.5811 206.745 28.996 223.781 27.0571 230.399C25.1182 237.017 25.6417 255.468 25.4026 266.591C25.2152 275.536 25.7904 285.23 26.0489 288.694H123.529C122.883 285.598 121.726 279.136 119.813 266.591C116.736 246.485 109.64 216.917 108.69 213.847C107.74 210.777 100.631 191.369 100.411 174.359C100.235 164.73 100.552 155.098 101.361 145.502C101.361 145.502 125.959 154.964 134.71 155.675C143.46 156.386 150.085 155.914 152.929 150.705C155.772 145.496 152.929 139.117 145.354 135.569C137.78 132.02 118.152 124.452 110.584 119.482C103.016 114.512 101.594 110.971 93.3148 109.788C85.0358 108.605 77.9395 109.31 69.402 108.366C60.8645 107.423 55.4422 107.423 55.4422 107.423C46.59 111.49 37.2011 114.269 27.5612 115.676C19.2564 116.897 13.3428 127.955 15.0232 140.034C16.7035 152.114 31.5811 187.821 31.5811 197.283Z" fill="#263238" stroke="#263238" stroke-miterlimit="10" stroke-linecap="round"/>
<path d="M134.71 155.649C143.467 156.36 150.085 155.888 152.929 150.679C155.772 145.47 152.929 139.091 145.354 135.543C137.78 131.995 118.152 124.426 110.584 119.457C103.016 114.487 101.594 110.945 93.3148 109.762C85.0358 108.579 77.9395 109.284 69.402 108.34C60.8645 107.397 55.4422 107.397 55.4422 107.397C46.5914 111.473 37.2024 114.261 27.5612 115.676C19.2564 116.897 13.3428 127.955 15.0232 140.034C16.7035 152.114 31.5811 187.821 31.5811 197.283C31.5811 206.744 28.996 223.781 27.0571 230.399C26.3886 233.295 26.0012 236.25 25.9002 239.221C37.7015 244.817 67.0819 253.736 113.893 235.931C111.43 224.666 109.175 215.482 108.664 213.841C107.74 210.764 100.631 191.369 100.411 174.359C100.235 164.73 100.552 155.098 101.361 145.502C101.361 145.502 125.959 154.97 134.71 155.649Z" fill="white" stroke="#263238" stroke-miterlimit="10" stroke-linecap="round"/>
<path d="M113.919 235.931C113.305 233.133 112.704 230.463 112.141 228.008C105.181 230.884 94.4007 234.083 78.0173 236.409C49.6257 240.462 33.1518 235.181 26.663 232.267C26.2916 234.565 26.0457 236.882 25.9263 239.208C37.7275 244.805 67.1079 253.736 113.919 235.931Z" fill="white" stroke="#263238" stroke-miterlimit="10" stroke-linecap="round"/>
<path d="M101.361 145.476L103.029 134.483L107.689 147.48L101.361 145.476Z" fill="#263238" stroke="#263238" stroke-miterlimit="10" stroke-linecap="round"/>
<path d="M21.0596 157.025C21.0596 157.025 33.6493 188.855 44.0093 189.986C54.3694 191.117 46.2326 147.402 44.4036 143.337C42.863 140.153 41.1366 137.063 39.2333 134.082" stroke="#263238" stroke-miterlimit="10" stroke-linecap="round"/>
<path d="M50.6148 188.054L47.7646 224.421C47.7646 224.421 51.4873 225.067 58.0601 225.713C62.155 226.099 66.2827 225.951 70.3396 225.274L70.7726 222.643L67.9289 184.745L50.6148 188.054Z" fill="#263238" stroke="#263238" stroke-miterlimit="10" stroke-linecap="round"/>
<path d="M61.1491 116.839C61.1491 116.839 72.2653 146.64 72.2653 164.38C72.2653 182.121 72.0261 223.516 72.0261 223.516C72.0261 223.516 64.6972 224.699 58.5445 223.755C52.3918 222.811 48.611 222.333 48.611 222.333C48.611 222.333 54.0528 177.649 49.7937 147.861C45.5347 118.074 43.6411 112.147 43.6411 112.147C43.2819 110.39 43.5349 108.563 44.3579 106.97C45.1809 105.377 46.5244 104.114 48.1651 103.39C54.0528 100.533 61.1491 116.839 61.1491 116.839Z" fill="#2BA9E0" stroke="#263238" stroke-miterlimit="10" stroke-linecap="round"/>
<path d="M61.1491 116.839C61.1491 116.839 60.3219 114.939 59.0034 112.554C56.3084 110.673 53.9365 109.148 53.3096 109.09C51.7068 108.941 48.0747 108.941 47.493 108.941L43.4989 110.376C43.478 110.959 43.5257 111.543 43.6411 112.115C43.6411 112.115 44.0935 113.517 45.0371 118.351C51.5 121.382 59.5915 124.956 64.4258 126.391C62.5709 120.678 61.1491 116.839 61.1491 116.839Z" fill="#263238" stroke="#263238" stroke-miterlimit="10" stroke-linecap="round"/>
<path d="M88.0737 159.132C88.0737 159.132 87.4274 175.567 87.2012 190.025C86.975 204.482 88.4938 222.889 88.4938 222.889L106.9 216.536V209.304L97.2575 157.381L88.0737 159.132Z" fill="#263238" stroke="#263238" stroke-miterlimit="10" stroke-linecap="round"/>
<path d="M76.2852 119.224C76.2852 119.224 88.5647 146.898 88.5647 168.659C88.5647 190.419 90.4583 221.17 90.4583 221.17L110.325 213.602C110.325 213.602 105.594 163.689 97.5481 144.533C89.5018 125.377 82.412 113.543 82.412 113.543L76.2852 119.224Z" fill="#2BA9E0" stroke="#263238" stroke-miterlimit="10" stroke-linecap="round"/>
<path d="M77.7069 101.483C77.7069 101.483 82.9095 108.592 83.8531 110.945C84.7967 113.297 84.564 114.965 82.9095 117.091C81.255 119.217 76.7569 126.553 72.9761 127.264C69.1953 127.975 58.4345 122.261 52.9928 117.531C47.551 112.8 46.2455 104.792 48.1391 100.081C50.0327 95.3693 53.3094 89.1972 56.179 88.9646C59.0485 88.7319 77.7069 101.483 77.7069 101.483Z" fill="#2BA9E0" stroke="#263238" stroke-miterlimit="10" stroke-linecap="round"/>
<path d="M73.9199 113.071C76.3168 113.664 78.7736 113.981 81.2424 114.015L73.9199 113.071Z" fill="white"/>
<path d="M73.9199 113.071C76.3168 113.664 78.7736 113.981 81.2424 114.015" stroke="#263238" stroke-miterlimit="10" stroke-linecap="round"/>
<path d="M81.4877 99.5896C79.3619 101.542 77.6098 103.866 76.3173 106.447C74.1911 110.706 73.9519 113.071 73.9519 113.071C73.9519 113.071 67.489 111.449 63.0749 108.34C59.2528 105.755 56.4743 101.895 55.2354 97.4504C55.2354 97.4504 56.6507 86.5733 61.3816 82.7861C66.1124 78.9988 81.4877 99.5896 81.4877 99.5896Z" fill="white" stroke="#263238" stroke-miterlimit="10" stroke-linecap="round"/>
<path d="M76.5178 106.007C77.794 103.599 79.4752 101.428 81.4877 99.5896C81.4877 99.5896 66.1125 79.0117 61.3816 82.786C60.5855 83.4522 59.8967 84.2369 59.3394 85.1127C60.4704 88.9387 64.6842 100.107 76.5178 106.007Z" fill="#263238"/>
<path d="M144.41 154.466C148.902 154.466 153.633 153.044 154.583 147.131C155.533 141.217 151.268 127.975 141.101 118.985C130.935 109.995 112.949 97.6961 110.584 93.9088C108.218 90.1216 103.959 82.5858 103.255 78.3009C102.55 74.016 97.8129 67.6565 97.8129 67.6565C97.8129 67.6565 96.1584 86.5799 94.9757 89.178C93.793 91.7761 96.6302 92.7261 100.178 95.5698C103.727 98.4135 110.325 113.543 115.554 122.294C120.782 131.045 130.929 146.207 134.71 148.553" fill="white"/>
<path d="M144.41 154.466C148.902 154.466 153.633 153.044 154.583 147.131C155.533 141.217 151.268 127.975 141.101 118.985C130.935 109.995 112.949 97.6961 110.584 93.9088C108.218 90.1216 103.959 82.5858 103.255 78.3009C102.55 74.016 97.8129 67.6565 97.8129 67.6565C97.8129 67.6565 96.1584 86.5799 94.9757 89.178C93.793 91.7761 96.6302 92.7261 100.178 95.5698C103.727 98.4135 110.325 113.543 115.554 122.294C120.782 131.045 130.929 146.207 134.71 148.553" stroke="#263238" stroke-miterlimit="10" stroke-linecap="round"/>
<path d="M137.256 115.728C126.948 107.242 112.697 97.2566 110.584 93.9088C108.218 90.128 103.959 82.5599 103.255 78.3009C102.55 74.0418 97.8129 67.6565 97.8129 67.6565C97.8129 67.6565 96.1584 86.5799 94.9757 89.178C93.793 91.7761 96.6302 92.7261 100.178 95.5698C103.727 98.4135 110.325 113.543 115.554 122.294C116.73 124.278 118.139 126.585 119.716 128.996C120.595 128.64 121.558 128.227 122.65 127.736C127.917 125.357 134.16 119.075 137.256 115.728Z" fill="white" stroke="#263238" stroke-miterlimit="10" stroke-linecap="round"/>
<path d="M85.4044 53.6577C85.4044 53.6577 95.2086 59.4743 97.0376 63.4619C98.8666 67.4496 100.101 80.3172 97.9553 87.9757C95.8097 95.6343 93.0565 103.293 89.0688 102.989C85.0812 102.685 72.2653 98.8787 68.5427 96.2483C64.9557 93.7019 59.9664 87.9757 59.3524 84.9123C58.7384 81.8489 61.8018 76.9436 65.169 75.1081C68.5362 73.2726 72.2136 71.1205 72.8276 67.7533C73.4415 64.3861 74.0555 61.6265 77.4227 61.6265C80.7899 61.6265 85.7081 61.0125 85.4044 53.6577Z" fill="white" stroke="#263238" stroke-miterlimit="10" stroke-linecap="round"/>
<path d="M87.1689 72.3872C87.1689 72.3872 83.8534 74.0417 80.5444 73.0981" stroke="#263238" stroke-miterlimit="10" stroke-linecap="round"/>
<path d="M88.5843 65.0518C88.5843 65.0518 83.3816 63.1582 79.8335 67.4173" stroke="#263238" stroke-width="2" stroke-miterlimit="10" stroke-linecap="round"/>
<path d="M94.0259 65.5238C94.0259 65.5238 95.6804 63.1583 97.1022 65.052" stroke="#263238" stroke-width="2" stroke-miterlimit="10" stroke-linecap="round"/>
<path d="M93.3147 81.138C93.3147 81.138 96.391 80.6662 97.8387 78.5528C99.2864 76.4394 95.2536 73.822 93.8188 71.2239C92.384 68.6258 94.0515 65.543 94.0515 65.543" stroke="#263238" stroke-miterlimit="10" stroke-linecap="round"/>
<path d="M98.2846 71.6763C97.2284 72.07 96.0997 72.2309 94.9756 72.1481" stroke="#263238" stroke-miterlimit="10" stroke-linecap="round"/>
<path d="M93.5539 85.8689C93.5539 85.8689 84.564 88.4541 84.564 89.8888C84.564 91.3236 89.2948 92.9652 90.7167 92.0216C92.1385 91.078 91.1884 88.2343 93.5539 85.8689Z" stroke="#263238" stroke-miterlimit="10" stroke-linecap="round"/>
<path d="M55.6686 40.2409C53.2972 39.8132 50.8574 39.9685 48.5594 40.6933C46.8014 47.7314 44.6816 62.2794 50.5822 80.1687L56.9676 78.0941C50.9183 59.6619 54.2467 44.9911 55.6686 40.2409Z" fill="white" stroke="#263238" stroke-miterlimit="10" stroke-linecap="round"/>
<path d="M60.3711 90.5455C66.2469 87.4396 68.3802 79.9462 65.1359 73.8085C61.8916 67.6708 54.4983 65.2129 48.6225 68.3188C42.7467 71.4246 40.6134 78.918 43.8577 85.0557C47.102 91.1935 54.4953 93.6513 60.3711 90.5455Z" fill="white" stroke="#263238" stroke-miterlimit="10" stroke-linecap="round"/>
<path d="M58.7007 87.3921C62.904 85.1703 64.4292 79.8083 62.1073 75.4156C59.7855 71.023 54.4957 69.2631 50.2924 71.4849C46.0891 73.7067 44.5639 79.0688 46.8858 83.4614C49.2076 87.8541 54.4973 89.6139 58.7007 87.3921Z" stroke="#263238" stroke-miterlimit="10" stroke-linecap="round"/>
<path d="M49.7937 102.188C49.7937 102.188 51.2155 105.736 52.6309 108.34C54.0463 110.945 53.1027 114.015 53.1027 114.015C53.1027 114.015 53.1027 114.726 54.5246 121.35C56.4634 130.321 57.1743 139.685 58.0727 148.798C59.152 159.714 61.6337 183.019 49.7937 189.708C40.0993 195.176 34.0113 180.576 34.2052 173.616C34.4834 167.297 35.7933 161.066 38.0829 155.171C41.1593 147.131 43.6346 121.563 43.4019 119.224C43.1692 116.884 38.4384 104.559 36.5447 100.3C34.6511 96.0414 33.4749 93.676 35.1294 90.8388C36.7839 88.0015 43.1692 81.1444 43.1692 81.1444C43.1692 81.1444 47.9001 74.5199 47.9001 81.3835C47.197 83.1921 46.3317 84.9334 45.3149 86.5862L41.9994 91.5497C41.9994 91.5497 47.4412 88.7125 48.863 85.8752C50.2849 83.038 52.1591 80.8988 52.87 82.5856C53.581 84.2724 52.87 86.3664 51.4482 89.4428C50.0264 92.5191 46.9888 97.4503 46.9888 97.4503L49.7937 102.188Z" fill="white" stroke="#263238" stroke-miterlimit="10" stroke-linecap="round"/>
<path d="M42.4585 81.8489L36.5449 91.5432" stroke="#263238" stroke-miterlimit="10" stroke-linecap="round"/>
<path d="M58.9582 160.011C49.057 161.071 42.1546 158.027 38.0507 155.281C35.7709 161.141 34.4612 167.334 34.1729 173.616C33.979 180.576 40.0994 195.176 49.7615 189.708C58.3765 184.861 59.4364 171.276 58.9582 160.011Z" stroke="#263238" stroke-miterlimit="10" stroke-linecap="round"/>
</svg>
