<svg width="21" height="21" viewBox="0 0 21 21" fill="none" xmlns="http://www.w3.org/2000/svg">
<path d="M18.3209 15.6035L17.9139 18.8594L17.9136 18.8615C17.8688 19.2325 17.689 19.574 17.4084 19.8208C17.1279 20.0677 16.7663 20.2026 16.3927 20.1999H16.389L4.04083 20.1999L4.03722 20.1999C3.66354 20.2026 3.30195 20.0677 3.02143 19.8208C2.7409 19.574 2.56106 19.2325 2.51624 18.8615L2.51598 18.8594L2.10906 15.6041L5.58068 16.7585L5.58157 16.7588C7.07308 17.2517 8.63391 17.5024 10.2047 17.5015L18.3209 15.6035ZM18.3209 15.6035L14.8387 16.7586L14.8376 16.759C13.3427 17.2511 11.7789 17.5018 10.2051 17.5015L18.3209 15.6035ZM0.620118 11.8788V11.8783V5.53244C0.620118 5.39705 0.673902 5.2672 0.769637 5.17147L0.419729 4.82156L0.769638 5.17147C0.865374 5.07573 0.995219 5.02195 1.13061 5.02195H19.3195C19.4549 5.02195 19.5847 5.07573 19.6804 5.17147C19.7762 5.26721 19.83 5.39705 19.83 5.53244V11.878C19.8297 12.1946 19.7307 12.5033 19.5467 12.7609L19.9535 13.0516L19.5466 12.7609C19.363 13.0181 19.1038 13.2116 18.8051 13.3147C18.8045 13.3149 18.8039 13.3151 18.8033 13.3153L14.2217 14.8492C14.2213 14.8494 14.2209 14.8495 14.2205 14.8496C11.6254 15.7047 8.82445 15.7046 6.22937 14.8495C6.22906 14.8494 6.22874 14.8493 6.22843 14.8492L1.66292 13.324L1.66199 13.3237C1.35847 13.223 1.09443 13.0291 0.907387 12.7697C0.720346 12.5103 0.619827 12.1986 0.620118 11.8788ZM15.4468 3.01146H14.2623C14.0587 2.7394 13.8015 2.51045 13.5056 2.33936C13.1228 2.11812 12.6886 2.00142 12.2465 2.00096H12.246L8.20405 2.00096L8.20354 2.00096C7.76146 2.00142 7.32726 2.11812 6.94452 2.33936C6.64853 2.51045 6.39137 2.7394 6.18777 3.01146H5.00332C5.24015 2.50915 5.59321 2.06662 6.03702 1.72259C6.65722 1.24181 7.41952 0.980609 8.20424 0.97998H12.2458C13.0306 0.980609 13.7929 1.24181 14.4131 1.72259C14.8569 2.06662 15.2099 2.50915 15.4468 3.01146ZM9.21455 12.0954H11.2355C11.6361 12.0954 12.0203 11.9363 12.3036 11.653C12.5869 11.3697 12.746 10.9855 12.746 10.5849C12.746 10.1843 12.5869 9.80009 12.3036 9.51682C12.0203 9.23355 11.6361 9.07441 11.2355 9.07441H9.21455C8.81394 9.07441 8.42974 9.23355 8.14647 9.51682C7.8632 9.80009 7.70405 10.1843 7.70405 10.5849C7.70405 10.9855 7.8632 11.3697 8.14647 11.653C8.42974 11.9363 8.81394 12.0954 9.21455 12.0954Z" stroke="#EE811D"/>
</svg>
