<svg width="170" height="152" viewBox="0 0 170 152" fill="none" xmlns="http://www.w3.org/2000/svg">
<path d="M0.523438 49.4443C14.2564 46.7811 28.16 45.0882 42.1308 44.3784C43.8792 44.2847 45.6236 44.2236 47.372 44.1461C49.1204 44.0687 50.8688 44.0565 52.6132 44.0075C54.3575 43.9586 56.11 43.979 57.8584 43.9668C58.7346 43.9668 59.6068 43.9668 60.4831 43.9668C61.3593 43.9668 62.2396 44.0279 63.1118 44.0972C66.6046 44.3703 70.0728 44.8797 73.5208 45.4544C76.9687 46.029 80.4085 46.677 83.8319 47.3862C97.5258 50.2391 111.097 53.6259 124.628 57.1431C131.388 58.9119 138.14 60.7241 144.884 62.5799C151.628 64.4356 158.351 66.3484 165.054 68.3183C158.326 66.4163 151.585 64.566 144.831 62.7673C138.076 60.9687 131.319 59.1809 124.559 57.4039C111.02 53.9315 97.4484 50.5814 83.7545 47.7815C80.331 47.0928 76.9035 46.4121 73.4596 45.8334C70.0158 45.2547 66.5597 44.7289 63.0833 44.4477C62.2165 44.3743 61.3484 44.3282 60.479 44.3091C59.6068 44.3091 58.7306 44.3091 57.8584 44.3091C56.1141 44.3091 54.3656 44.2806 52.6213 44.3336C50.877 44.3866 49.1286 44.3825 47.3801 44.4518C45.6317 44.5211 43.8915 44.5781 42.1471 44.6637C35.167 45.0115 28.2046 45.5889 21.2599 46.3958C14.307 47.1743 7.37853 48.1361 0.523438 49.4443Z" fill="#1D1D1D"/>
<path d="M1.64062 40.3907C8.56908 40.2155 15.4975 40.1014 22.426 40.0117C29.3544 39.922 36.2829 39.918 43.2113 39.918L53.6081 39.9546L58.8044 39.9913C59.6725 39.9913 60.5365 39.9913 61.4046 40.028C62.2727 40.0647 63.1408 40.081 64.0048 40.1462C67.4691 40.3744 70.9333 40.7535 74.3567 41.1977C77.7802 41.6419 81.2281 42.1228 84.6516 42.6649C98.3414 44.829 111.958 47.4088 125.562 50.0702C132.355 51.4124 139.147 52.7872 145.94 54.1946C152.732 55.6021 159.507 57.0584 166.265 58.5636C159.472 57.1372 152.679 55.7447 145.887 54.3862C139.094 53.0277 132.302 51.6773 125.509 50.3351C111.905 47.7267 98.264 45.1836 84.5864 43.0684C81.167 42.5345 77.7395 42.0291 74.3078 41.5767C70.8762 41.1243 67.4324 40.7372 63.9844 40.4967C63.1204 40.4274 62.2605 40.3989 61.3965 40.3704C60.5324 40.3418 59.6644 40.3418 58.8003 40.3255L53.604 40.2685L43.2113 40.1992C36.2829 40.1747 29.3544 40.1829 22.426 40.2236C15.4975 40.244 8.56908 40.2888 1.64062 40.3907Z" fill="#1D1D1D"/>
<path d="M2.93359 29.9502L23.5804 31.5804L44.219 33.2718L54.5383 34.1154C57.9781 34.4007 61.4219 34.6534 64.8576 35.0161C66.5775 35.171 68.2893 35.3951 70.0051 35.5826C71.7209 35.7701 73.4367 35.9902 75.1484 36.194C78.5746 36.6151 81.9981 37.0525 85.4188 37.5063C99.1046 39.3444 112.77 41.3169 126.431 43.314L146.915 46.3502L167.382 49.5047L126.386 43.5707C112.721 41.6185 99.0516 39.6908 85.3618 37.8975C78.523 36.9968 71.676 36.0921 64.8169 35.3544C61.3893 34.9835 57.9455 34.7145 54.5098 34.417L44.1905 33.5367L23.56 31.776L2.93359 29.9502Z" fill="#1D1D1D"/>
<path d="M4.73047 15.415C11.3696 17.3632 18.0657 19.1116 24.7781 20.7744C31.4906 22.4372 38.2275 24.0348 44.997 25.4531L50.0751 26.5046L55.1655 27.5072C56.8609 27.8455 58.5645 28.1389 60.264 28.4609C61.9635 28.7829 63.6671 29.0722 65.3748 29.329C72.2095 30.356 79.0891 31.11 85.9645 31.8599C99.7195 33.3516 113.499 34.615 127.283 35.8254L147.962 37.5698L168.649 39.2693L147.946 37.7654C141.05 37.222 134.154 36.6636 127.258 36.0903C113.47 34.9288 99.6869 33.7061 85.9238 32.2593C82.4813 31.8952 79.0429 31.4999 75.6085 31.0733C72.1728 30.6658 68.7412 30.2012 65.3218 29.6713C63.6101 29.4105 61.9024 29.1089 60.2029 28.7829C58.5034 28.4568 56.7998 28.1593 55.1044 27.8129L50.0181 26.794L44.9359 25.7181C31.4254 22.7959 17.976 19.4172 4.73047 15.415Z" fill="#1D1D1D"/>
<path d="M6.42383 1.67383C12.6431 4.93427 18.9521 7.99774 25.3507 10.8642C31.733 13.766 38.1969 16.5048 44.7789 18.9175C51.3609 21.3302 58.0815 23.4006 65.0059 24.501C71.9303 25.6014 78.8954 26.4002 85.8728 27.0646C99.8384 28.3606 113.831 29.2151 127.851 29.6281C131.356 29.7585 134.861 29.7952 138.366 29.8685L143.628 29.8971H146.256L148.885 29.8726C155.899 29.8156 162.917 29.6566 169.899 28.9515C162.925 29.7218 155.903 29.946 148.889 30.0682L146.26 30.109H143.628H138.366C134.857 30.0479 131.348 30.0193 127.843 29.9052C113.815 29.5303 99.8071 28.7152 85.8198 27.4599C78.8343 26.7711 71.8569 25.9886 64.9325 24.823C58.0082 23.6574 51.2509 21.5626 44.6689 19.158C31.5293 14.2673 18.8176 8.2477 6.42383 1.67383Z" fill="#1D1D1D"/>
<path d="M77.2575 32.8892C77.086 33.2524 76.811 33.5568 76.4671 33.7643C76.1231 33.9717 75.7256 34.0728 75.3243 34.055C74.9231 34.0372 74.5361 33.9012 74.2119 33.6641C73.8877 33.4271 73.6408 33.0995 73.5022 32.7225C73.3635 32.3456 73.3394 31.936 73.4328 31.5454C73.5262 31.1548 73.7329 30.8005 74.027 30.527C74.3212 30.2535 74.6895 30.073 75.0859 30.0082C75.4823 29.9433 75.889 29.9971 76.2549 30.1627C76.5012 30.2742 76.7229 30.4335 76.907 30.6315C77.0911 30.8295 77.234 31.0622 77.3273 31.3159C77.4206 31.5697 77.4625 31.8395 77.4505 32.1096C77.4385 32.3797 77.3729 32.6447 77.2575 32.8892Z" fill="#1D1D1D"/>
<path d="M81.6255 23.5091L80.2031 22.8467L75.8452 32.2051L77.2676 32.8675L81.6255 23.5091Z" fill="#1D1D1D"/>
<path d="M84.5412 32.9851C84.369 33.3481 84.0934 33.6522 83.7489 33.859C83.4044 34.0659 83.0065 34.1663 82.6051 34.1476C82.2038 34.1289 81.8169 33.992 81.4931 33.754C81.1693 33.5161 80.9231 33.1877 80.7855 32.8102C80.6478 32.4328 80.6248 32.023 80.7193 31.6325C80.8139 31.242 81.0218 30.8881 81.3169 30.6154C81.612 30.3427 81.9811 30.1633 82.3778 30.0998C82.7746 30.0363 83.1813 30.0915 83.5467 30.2585C83.7923 30.3707 84.0132 30.5307 84.1965 30.729C84.3798 30.9273 84.5218 31.1601 84.6143 31.4138C84.7068 31.6675 84.748 31.937 84.7355 32.2068C84.7229 32.4765 84.6569 32.7411 84.5412 32.9851Z" fill="#1D1D1D"/>
<path d="M88.9107 23.6067L87.4883 22.9443L83.1303 32.3028L84.5528 32.9652L88.9107 23.6067Z" fill="#1D1D1D"/>
<path d="M88.9013 23.6291L79.6172 24.0978L80.2 22.8466L89.4841 22.3779L88.9013 23.6291Z" fill="#1D1D1D"/>
<path d="M87.7976 25.9846L78.5176 26.4574L79.1004 25.2062L88.3804 24.7334L87.7976 25.9846Z" fill="#1D1D1D"/>
<path d="M20.5253 141.152C20.2839 141.671 19.894 142.107 19.405 142.404C18.9159 142.702 18.3496 142.847 17.7778 142.823C17.2059 142.798 16.6542 142.605 16.1923 142.267C15.7304 141.929 15.3792 141.461 15.183 140.923C14.9869 140.386 14.9546 139.802 15.0903 139.246C15.226 138.69 15.5235 138.186 15.9453 137.799C16.3671 137.412 16.8942 137.159 17.4598 137.072C18.0255 136.985 18.6044 137.067 19.1233 137.309C19.8172 137.634 20.354 138.221 20.6167 138.941C20.8794 139.661 20.8465 140.456 20.5253 141.152Z" fill="#1D1D1D"/>
<path d="M26.6626 127.936L24.6602 127.004L18.5215 140.186L20.524 141.119L26.6626 127.936Z" fill="#1D1D1D"/>
<path d="M30.7831 141.29C30.5417 141.809 30.1518 142.244 29.6628 142.542C29.1737 142.839 28.6075 142.985 28.0356 142.96C27.4637 142.936 26.912 142.742 26.4501 142.404C25.9882 142.066 25.637 141.599 25.4409 141.061C25.2447 140.523 25.2124 139.94 25.3481 139.383C25.4838 138.827 25.7813 138.324 26.2031 137.937C26.6249 137.55 27.152 137.297 27.7177 137.21C28.2833 137.122 28.8622 137.205 29.3811 137.446C30.0765 137.77 30.6148 138.357 30.8777 139.078C31.1406 139.798 31.1066 140.594 30.7831 141.29Z" fill="#1D1D1D"/>
<path d="M36.94 128.077L34.9375 127.145L28.7989 140.327L30.8013 141.259L36.94 128.077Z" fill="#1D1D1D"/>
<path d="M36.9261 128.107L23.8477 128.771L24.6709 127.006L37.7494 126.342L36.9261 128.107Z" fill="#1D1D1D"/>
<path d="M35.3792 131.429L22.3008 132.093L23.12 130.328L36.1984 129.668L35.3792 131.429Z" fill="#1D1D1D"/>
<path d="M153.109 56.5306C152.965 56.8419 152.731 57.1033 152.438 57.2818C152.144 57.4603 151.805 57.5478 151.462 57.5333C151.119 57.5188 150.788 57.4029 150.51 57.2003C150.233 56.9977 150.022 56.7175 149.904 56.395C149.787 56.0726 149.767 55.7224 149.848 55.3888C149.929 55.0552 150.107 54.7531 150.36 54.5207C150.613 54.2883 150.929 54.136 151.268 54.0832C151.607 54.0303 151.954 54.0793 152.266 54.2238C152.683 54.4185 153.006 54.7706 153.164 55.2029C153.322 55.6353 153.302 56.1126 153.109 56.5306Z" fill="#1D1D1D"/>
<path d="M156.802 48.5963L155.602 48.0371L151.916 55.951L153.117 56.5101L156.802 48.5963Z" fill="#1D1D1D"/>
<path d="M159.265 56.618C159.12 56.9293 158.886 57.1906 158.592 57.3688C158.299 57.547 157.959 57.6341 157.616 57.6192C157.273 57.6042 156.942 57.4879 156.665 57.2848C156.388 57.0818 156.177 56.8011 156.06 56.4784C155.942 56.1557 155.923 55.8054 156.005 55.4718C156.087 55.1383 156.265 54.8364 156.518 54.6044C156.772 54.3725 157.088 54.2208 157.427 54.1686C157.767 54.1164 158.114 54.1661 158.425 54.3113C158.843 54.5059 159.165 54.8583 159.323 55.2908C159.48 55.7234 159.459 56.2008 159.265 56.618Z" fill="#1D1D1D"/>
<path d="M162.957 48.6802L161.756 48.1211L158.071 56.035L159.271 56.5941L162.957 48.6802Z" fill="#1D1D1D"/>
<path d="M162.955 48.7003L155.105 49.0956L155.599 48.04L163.448 47.6406L162.955 48.7003Z" fill="#1D1D1D"/>
<path d="M37.086 24.219C36.9413 24.5304 36.7075 24.7918 36.4142 24.9703C36.1209 25.1488 35.7813 25.2363 35.4382 25.2218C35.0952 25.2073 34.7642 25.0914 34.487 24.8888C34.2098 24.6862 33.9989 24.4059 33.881 24.0835C33.7631 23.7611 33.7434 23.4109 33.8245 23.0773C33.9055 22.7436 34.0837 22.4415 34.3364 22.2091C34.5892 21.9767 34.9051 21.8245 35.2444 21.7717C35.5836 21.7188 35.9309 21.7677 36.2423 21.9123C36.6595 22.107 36.9824 22.4591 37.1406 22.8914C37.2987 23.3237 37.2791 23.8011 37.086 24.219Z" fill="#1D1D1D"/>
<path d="M40.7769 16.2896L39.5762 15.7305L35.8909 23.6443L37.0917 24.2035L40.7769 16.2896Z" fill="#1D1D1D"/>
<path d="M43.2415 24.3055C43.0964 24.6168 42.8623 24.8781 42.5687 25.0563C42.2752 25.2345 41.9354 25.3216 41.5923 25.3067C41.2492 25.2917 40.9182 25.1754 40.6413 24.9723C40.3643 24.7693 40.1538 24.4886 40.0363 24.1659C39.9189 23.8432 39.8998 23.4929 39.9814 23.1593C40.0631 22.8258 40.2418 22.5239 40.495 22.2919C40.7483 22.06 41.0646 21.9083 41.404 21.8561C41.7434 21.8039 42.0907 21.8536 42.4019 21.9988C42.6089 22.0947 42.7948 22.2306 42.9491 22.3986C43.1033 22.5666 43.2229 22.7634 43.3009 22.9778C43.3789 23.1921 43.4138 23.4197 43.4036 23.6476C43.3934 23.8754 43.3383 24.099 43.2415 24.3055Z" fill="#1D1D1D"/>
<path d="M46.939 16.3736L45.7383 15.8145L42.053 23.7283L43.2538 24.2875L46.939 16.3736Z" fill="#1D1D1D"/>
<path d="M46.9296 16.3887L39.0801 16.7881L39.5732 15.7285L47.4227 15.3291L46.9296 16.3887Z" fill="#1D1D1D"/>
<path d="M130.378 148.307C130.233 148.618 129.999 148.879 129.705 149.057C129.412 149.235 129.072 149.323 128.729 149.308C128.386 149.293 128.055 149.176 127.778 148.973C127.501 148.77 127.291 148.49 127.173 148.167C127.056 147.844 127.036 147.494 127.118 147.16C127.2 146.827 127.379 146.525 127.632 146.293C127.885 146.061 128.201 145.909 128.541 145.857C128.88 145.805 129.227 145.855 129.539 146C129.746 146.096 129.932 146.232 130.086 146.4C130.24 146.568 130.36 146.764 130.438 146.979C130.516 147.193 130.551 147.421 130.54 147.649C130.53 147.876 130.475 148.1 130.378 148.307Z" fill="#1D1D1D"/>
<path d="M134.076 140.374L132.875 139.814L129.19 147.728L130.391 148.287L134.076 140.374Z" fill="#1D1D1D"/>
<path d="M136.543 148.393C136.397 148.704 136.163 148.964 135.869 149.142C135.575 149.319 135.236 149.406 134.893 149.391C134.55 149.375 134.219 149.259 133.943 149.055C133.666 148.852 133.456 148.572 133.339 148.249C133.222 147.926 133.203 147.576 133.284 147.243C133.366 146.91 133.544 146.608 133.797 146.376C134.05 146.144 134.367 145.993 134.706 145.94C135.045 145.888 135.392 145.937 135.703 146.082C135.91 146.178 136.096 146.315 136.251 146.483C136.405 146.651 136.524 146.849 136.602 147.063C136.68 147.278 136.715 147.506 136.705 147.734C136.695 147.962 136.64 148.186 136.543 148.393Z" fill="#1D1D1D"/>
<path d="M140.24 140.461L139.039 139.902L135.354 147.816L136.555 148.375L140.24 140.461Z" fill="#1D1D1D"/>
<path d="M140.23 140.474L132.381 140.873L132.874 139.817L140.724 139.418L140.23 140.474Z" fill="#1D1D1D"/>
<path d="M116.967 48.4128C116.795 48.7758 116.519 49.0799 116.175 49.2868C115.83 49.4936 115.432 49.594 115.031 49.5753C114.63 49.5566 114.243 49.4197 113.919 49.1817C113.595 48.9438 113.349 48.6154 113.211 48.238C113.074 47.8605 113.051 47.4507 113.145 47.0602C113.24 46.6697 113.448 46.3158 113.743 46.0431C114.038 45.7704 114.407 45.5911 114.804 45.5276C115.2 45.4641 115.607 45.5193 115.973 45.6862C116.218 45.7985 116.439 45.9584 116.622 46.1567C116.806 46.355 116.948 46.5878 117.04 46.8415C117.133 47.0952 117.174 47.3647 117.161 47.6345C117.149 47.9042 117.083 48.1688 116.967 48.4128Z" fill="#1D1D1D"/>
<path d="M121.338 39.0374L119.916 38.375L115.558 47.7335L116.98 48.3958L121.338 39.0374Z" fill="#1D1D1D"/>
<path d="M127.29 38.8714L125.867 38.209L124.608 40.9134L126.03 41.5758L127.29 38.8714Z" fill="#1D1D1D"/>
<path d="M127.118 39.2326L119.33 39.6239L119.913 38.3727L127.701 37.9814L127.118 39.2326Z" fill="#1D1D1D"/>
<path d="M126.017 41.592L118.229 41.9792L118.811 40.728L126.6 40.3408L126.017 41.592Z" fill="#1D1D1D"/>
<path d="M99.2692 130.248C99.4142 131.016 99.3285 131.809 99.0229 132.527C98.7172 133.246 98.2054 133.858 97.5521 134.286C96.8988 134.713 96.1333 134.938 95.3524 134.931C94.5715 134.924 93.8103 134.685 93.1649 134.245C92.5196 133.806 92.0191 133.184 91.7267 132.46C91.4343 131.736 91.3632 130.942 91.5223 130.177C91.6814 129.413 92.0636 128.712 92.6206 128.165C93.1776 127.618 93.8844 127.248 94.6516 127.102C95.6811 126.907 96.7457 127.13 97.6115 127.72C98.4773 128.309 99.0735 129.219 99.2692 130.248Z" fill="#1D1D1D"/>
<path d="M95.5805 110.687L92.6172 111.248L96.3099 130.754L99.2731 130.193L95.5805 110.687Z" fill="#1D1D1D"/>
<path d="M104.674 103.779L101.711 104.34L102.777 109.978L105.741 109.418L104.674 103.779Z" fill="#1D1D1D"/>
<path d="M104.83 104.519L93.1006 113.865L92.6074 111.256L104.337 101.911L104.83 104.519Z" fill="#1D1D1D"/>
<path d="M105.76 109.435L94.0302 118.78L93.5371 116.171L105.267 106.826L105.76 109.435Z" fill="#1D1D1D"/>
<path d="M141.465 30.56C141.368 30.7958 141.204 30.9978 140.993 31.1403C140.782 31.2829 140.533 31.3596 140.279 31.3609C140.024 31.3621 139.774 31.2878 139.562 31.1473C139.349 31.0069 139.183 30.8065 139.085 30.5716C138.986 30.3368 138.959 30.0779 139.008 29.8279C139.056 29.5778 139.178 29.3477 139.357 29.1667C139.536 28.9858 139.765 28.862 140.015 28.8111C140.265 28.7602 140.524 28.7845 140.759 28.8809C141.075 29.0109 141.326 29.2605 141.458 29.5751C141.59 29.8897 141.593 30.2437 141.465 30.56Z" fill="#1D1D1D"/>
<path d="M143.93 24.5662L143.021 24.1934L140.563 30.1846L141.472 30.5575L143.93 24.5662Z" fill="#1D1D1D"/>
<path d="M147.659 24.2869L146.75 23.9141L146.04 25.6447L146.949 26.0176L147.659 24.2869Z" fill="#1D1D1D"/>
<path d="M147.571 24.5128L142.701 24.9815L143.031 24.1827L147.902 23.71L147.571 24.5128Z" fill="#1D1D1D"/>
<path d="M146.948 26.0195L142.078 26.4923L142.408 25.6894L147.279 25.2207L146.948 26.0195Z" fill="#1D1D1D"/>
<path d="M39.4643 149.86C39.4441 150.114 39.3489 150.356 39.1909 150.556C39.0328 150.756 38.819 150.905 38.5764 150.983C38.3339 151.061 38.0736 151.066 37.8284 150.996C37.5832 150.927 37.3642 150.786 37.1992 150.592C37.0341 150.397 36.9304 150.159 36.9011 149.905C36.8718 149.652 36.9184 149.396 37.0348 149.169C37.1512 148.943 37.3323 148.756 37.5551 148.632C37.7779 148.508 38.0324 148.453 38.2864 148.474C38.6262 148.502 38.941 148.664 39.1617 148.924C39.3825 149.183 39.4913 149.52 39.4643 149.86Z" fill="#1D1D1D"/>
<path d="M40.2693 143.885L39.2871 143.807L38.769 150.283L39.7512 150.361L40.2693 143.885Z" fill="#1D1D1D"/>
<path d="M43.4653 141.999L42.4863 141.92L42.3357 143.785L43.3147 143.864L43.4653 141.999Z" fill="#1D1D1D"/>
<path d="M43.4348 142.246L38.9395 144.174L39.0087 143.31L43.5041 141.382L43.4348 142.246Z" fill="#1D1D1D"/>
<path d="M43.302 143.875L38.8066 145.803L38.8759 144.938L43.3713 143.011L43.302 143.875Z" fill="#1D1D1D"/>
<path d="M29.8233 45.5868C29.7267 45.8226 29.5623 46.0244 29.3509 46.1667C29.1395 46.3091 28.8907 46.3855 28.6358 46.3863C28.381 46.3871 28.1317 46.3123 27.9194 46.1714C27.7071 46.0305 27.5413 45.8297 27.4432 45.5946C27.345 45.3594 27.3188 45.1004 27.3679 44.8504C27.4169 44.6003 27.5391 44.3705 27.7189 44.1899C27.8986 44.0093 28.1279 43.886 28.3778 43.8358C28.6276 43.7856 28.8867 43.8106 29.1223 43.9077C29.4377 44.0377 29.6887 44.2875 29.8201 44.6023C29.9515 44.9171 29.9527 45.2712 29.8233 45.5868Z" fill="#1D1D1D"/>
<path d="M32.2778 39.5809L31.3691 39.208L28.9107 45.1993L29.8194 45.5722L32.2778 39.5809Z" fill="#1D1D1D"/>
<path d="M36.0122 39.3065L35.1035 38.9336L34.3934 40.6642L35.3021 41.0371L36.0122 39.3065Z" fill="#1D1D1D"/>
<path d="M35.9172 39.5402L31.0469 40.0089L31.377 39.2101L36.2473 38.7373L35.9172 39.5402Z" fill="#1D1D1D"/>
<path d="M35.2961 41.0478L30.4258 41.5206L30.7518 40.7177L35.6221 40.249L35.2961 41.0478Z" fill="#1D1D1D"/>
<path d="M85.467 48.6797C85.3701 48.915 85.2056 49.1164 84.9943 49.2583C84.7831 49.4002 84.5345 49.4764 84.28 49.4771C84.0255 49.4779 83.7765 49.4032 83.5644 49.2626C83.3523 49.1219 83.1866 48.9216 83.0883 48.6868C82.99 48.4521 82.9634 48.1935 83.0119 47.9436C83.0604 47.6938 83.1819 47.464 83.361 47.2831C83.54 47.1023 83.7687 46.9785 84.018 46.9275C84.2674 46.8765 84.5262 46.9005 84.7619 46.9965C84.9189 47.0604 85.0618 47.1548 85.1823 47.2741C85.3028 47.3934 85.3985 47.5353 85.464 47.6917C85.5295 47.8481 85.5635 48.0158 85.564 48.1854C85.5645 48.3549 85.5316 48.5229 85.467 48.6797Z" fill="#1D1D1D"/>
<path d="M87.9204 42.6785L87.0117 42.3057L84.5533 48.297L85.462 48.6698L87.9204 42.6785Z" fill="#1D1D1D"/>
<path d="M91.6489 42.4051L90.7402 42.0322L90.0301 43.7629L90.9388 44.1357L91.6489 42.4051Z" fill="#1D1D1D"/>
<path d="M91.5597 42.6289L86.6895 43.1017L87.0196 42.3028L91.8899 41.8301L91.5597 42.6289Z" fill="#1D1D1D"/>
<path d="M90.9406 44.1418L86.0703 44.6145L86.4004 43.8116L91.2707 43.3389L90.9406 44.1418Z" fill="#1D1D1D"/>
<path d="M20.5061 26.0653C20.2823 26.2835 20.0107 26.4465 19.7128 26.5413C19.415 26.6361 19.0991 26.6601 18.7903 26.6114C18.167 26.5591 17.5677 26.3471 17.05 25.996C16.5249 25.6419 16.1187 25.1377 15.8844 24.5492C15.6607 23.9536 15.603 23.3084 15.7173 22.6826C15.9067 21.4162 16.5877 20.2754 17.6125 19.5077C18.6867 18.7795 20.0031 18.5001 21.2805 18.7293C22.5478 18.9287 23.7208 19.5202 24.6347 20.4206C25.5635 21.3321 26.1335 22.5472 26.2404 23.8441C26.3026 25.118 26.0985 26.3908 25.6413 27.5814C25.1985 28.7911 24.4552 29.8682 23.4813 30.7114C22.4812 31.5475 21.2616 32.0781 19.9681 32.2398C18.6927 32.3886 17.4002 32.2776 16.1688 31.9134C14.9374 31.5491 13.7926 30.9392 12.8033 30.1205C11.8156 29.2882 11.0249 28.2469 10.4884 27.072C9.95282 25.8936 9.69487 24.608 9.73442 23.3143C9.7848 22.0276 10.0997 20.7651 10.6596 19.6055C11.2168 18.4588 11.9543 17.4089 12.8441 16.4959C13.7169 15.5999 14.654 14.769 15.6481 14.0098C17.6043 12.4896 19.6584 11.1569 21.4883 9.5552C22.4033 8.77999 23.2376 7.91429 23.9785 6.9713C24.7091 6.06551 25.1922 4.98561 25.3805 3.83719C25.4515 3.29455 25.3755 2.74281 25.1604 2.23957C25.0597 2.00489 24.9118 1.79338 24.7261 1.61812C24.5403 1.44286 24.3205 1.30759 24.0804 1.22068C23.842 1.14585 23.5894 1.12826 23.343 1.16933C23.0966 1.2104 22.8633 1.30898 22.6621 1.45707C22.225 1.78604 21.8867 2.22871 21.684 2.73679C21.3017 3.87117 21.0434 5.04362 20.9137 6.23362C20.7384 7.45629 20.5917 8.65858 20.4531 9.87717C19.9152 14.7678 19.5158 19.6585 19.0104 24.5492C18.7455 26.9945 18.4643 29.4399 18.1015 31.8852C17.9181 33.1079 17.694 34.3305 17.4454 35.5206C17.3218 36.1252 17.1515 36.7193 16.9359 37.2975C16.7999 37.5764 16.6099 37.8255 16.3769 38.0305C16.144 38.2354 15.8727 38.3922 15.5788 38.4917C15.8651 38.384 16.1271 38.2204 16.3496 38.0105C16.5721 37.8006 16.7506 37.5485 16.8748 37.269C17.0682 36.6876 17.2167 36.0921 17.319 35.488C17.5513 34.2653 17.7266 33.0712 17.8733 31.8526C18.1708 29.4072 18.3868 26.9619 18.5865 24.5166C18.9941 19.6259 19.3364 14.7352 19.8092 9.81604C19.9274 8.59337 20.0537 7.3707 20.2168 6.14803C20.2983 5.5367 20.3961 4.92537 20.5102 4.30996C20.6133 3.67674 20.7841 3.05642 21.0196 2.45965C21.2674 1.81295 21.6908 1.24832 22.2423 0.829429C22.5394 0.613702 22.8828 0.4704 23.2451 0.41096C23.6074 0.35152 23.9786 0.377588 24.329 0.487082C24.6707 0.605688 24.9844 0.793105 25.2508 1.03775C25.5171 1.2824 25.7305 1.57908 25.8777 1.90945C26.1567 2.53853 26.2582 3.23198 26.1711 3.91463C25.9805 5.20762 25.4503 6.42692 24.6347 7.44814C23.8687 8.44161 23.0029 9.35388 22.0508 10.1706C20.176 11.8008 18.1178 13.1865 16.1983 14.6823C14.2787 16.178 12.4161 17.8123 11.3972 19.952C10.881 21.01 10.5869 22.1627 10.5332 23.3387C10.4927 24.5106 10.7213 25.6762 11.2016 26.7459C11.6842 27.8191 12.4015 28.7703 13.3005 29.5295C14.2021 30.2911 15.2509 30.8585 16.3817 31.1964C17.5141 31.5358 18.7028 31.6467 19.8785 31.5225C21.0431 31.4 22.1472 30.9428 23.0574 30.2061C24.8751 28.7266 25.7717 26.2283 25.7106 23.8889C25.6284 22.7101 25.1267 21.5997 24.2964 20.7589C23.458 19.9118 22.3796 19.3427 21.2071 19.1287C20.6231 18.9927 20.0173 18.9794 19.4279 19.0896C18.8385 19.1999 18.2785 19.4313 17.7831 19.7691C17.2878 20.107 16.868 20.5441 16.5503 21.0526C16.2326 21.5611 16.0239 22.13 15.9374 22.7233C15.8147 23.3143 15.857 23.9277 16.0597 24.4962C16.269 25.0612 16.644 25.5499 17.1356 25.8982C17.6297 26.2512 18.2068 26.4702 18.8107 26.534C19.1103 26.5914 19.4191 26.579 19.7132 26.4977C20.0072 26.4164 20.2785 26.2685 20.5061 26.0653Z" fill="#1D1D1D"/>
<path d="M16.7516 37.5376C16.5436 37.8811 16.2388 38.1555 15.8754 38.3263C15.5119 38.4971 15.1062 38.5568 14.7089 38.4978C14.3117 38.4387 13.9408 38.2637 13.6428 37.9945C13.3448 37.7254 13.1329 37.3742 13.0338 36.9851C12.9346 36.5959 12.9527 36.1862 13.0857 35.8073C13.2187 35.4284 13.4606 35.0972 13.7812 34.8554C14.1018 34.6135 14.4867 34.4718 14.8875 34.4479C15.2884 34.4241 15.6873 34.5192 16.0343 34.7214C16.268 34.8576 16.4723 35.0389 16.6352 35.2548C16.7982 35.4708 16.9164 35.717 16.9832 35.9792C17.05 36.2413 17.0639 36.5141 17.0241 36.7817C16.9844 37.0492 16.8917 37.3062 16.7516 37.5376Z" fill="#1D1D1D"/>
<path d="M0.597185 84.0914C1.74242 84.9066 38.292 96.2529 39.9549 95.8046C40.1383 95.7516 40.5214 94.1092 42.172 90.0295C42.2494 89.8339 43.3009 89.2715 44.9067 88.5134C50.9385 85.6605 64.8443 79.9548 64.8443 79.9548L50.5798 59.0879L28.0909 71.983L22.2425 75.3371C22.2425 75.3371 5.25147 78.5609 3.47453 79.2456C1.69759 79.9303 -0.548047 83.2723 0.597185 84.0914Z" fill="#F7A9A0"/>
<path d="M0.599243 84.0952C1.74448 84.9103 38.2941 96.2526 39.9569 95.8043C40.1403 95.7513 40.5234 94.1088 42.174 90.0292C36.672 89.4464 8.09419 83.5083 7.98415 79.9462C7.9434 78.5402 12.7607 77.2523 13.6288 77.0322C9.14569 77.9248 4.38136 78.9111 3.48881 79.2575C1.72002 79.9503 -0.545989 83.2719 0.599243 84.0952Z" fill="#263238"/>
<path d="M36.7754 65.4995L38.7724 69.4935L48.7249 89.4271C48.7249 89.4271 71.9964 80.3345 78.9656 77.1515C79.1897 77.0496 97.5787 98.9272 113.278 106.333C125.309 112.01 135.168 109.491 143.217 98.9965L124.73 84.2634C109.463 71.03 93.3156 52.1031 80.9952 50.4362C67.6111 48.5941 36.7754 65.4995 36.7754 65.4995Z" fill="#263238"/>
<path d="M41.553 65.4894C43.6396 69.406 43.0935 68.2526 45.1394 72.1937C46.142 74.1214 51.1998 83.805 51.8356 85.7571C51.8356 85.802 51.7826 85.8346 51.7581 85.7979C50.5355 84.131 45.7059 74.3415 44.74 72.3975C42.7675 68.4197 43.3747 69.5446 41.4429 65.5424C41.439 65.5351 41.4366 65.5271 41.4358 65.5189C41.435 65.5106 41.436 65.5023 41.4385 65.4945C41.4411 65.4866 41.4452 65.4793 41.4506 65.4731C41.4561 65.4669 41.4627 65.4618 41.4702 65.4582C41.4776 65.4546 41.4857 65.4526 41.494 65.4522C41.5022 65.4518 41.5105 65.4532 41.5182 65.4561C41.526 65.459 41.533 65.4634 41.539 65.4692C41.545 65.4749 41.5497 65.4818 41.553 65.4894Z" fill="#37474F"/>
<path d="M40.3555 72.666L48.7226 89.4288C48.7226 89.4288 72.0022 80.3403 78.9673 77.1532C79.1915 77.0513 97.5804 98.9289 113.275 106.334C125.31 112.011 135.173 109.493 143.214 98.9982L124.732 84.261C122.694 82.5085 120.656 80.6582 118.618 78.763C99.3899 77.2958 57.2487 73.9946 40.3555 72.666Z" fill="#37474F"/>
<path d="M9.718 129.084C11.0752 129.459 49.2917 127.454 50.6977 126.476C50.8485 126.362 50.6407 124.687 50.7793 120.289C50.7793 120.081 51.5944 119.189 52.817 117.921C57.4958 113.165 68.5813 103.013 68.5813 103.013L47.9916 88.3408L31.3511 108.225L27.0187 113.393C27.0187 113.393 12.1878 122.311 10.7573 123.533C9.32674 124.756 8.35676 128.705 9.718 129.084Z" fill="#F7A9A0"/>
<path d="M9.71249 129.082C11.0737 129.457 49.2902 127.452 50.6963 126.474C50.8471 126.36 50.6393 124.685 50.7819 120.287C45.4185 121.64 16.5472 125.96 15.2145 122.639C14.6888 121.335 18.7643 118.461 19.502 117.956C15.5895 120.344 11.4609 122.912 10.7558 123.531C9.33754 124.807 8.35941 128.703 9.71249 129.082Z" fill="#263238"/>
<path d="M148.02 82.9048C148.02 82.9048 152.295 97.9151 144.939 105.219C139.64 110.48 132.129 111.678 125.498 111.385C107.179 110.57 89.7515 90.2205 83.63 89.6377C80.4878 89.3401 58.5653 115.668 58.5653 115.668L37.9512 99.2601C42.3365 94.6343 68.1103 62.9876 82.5296 61.5856C92.3966 60.6278 119.409 78.7029 119.988 78.4095C120.938 77.9204 125.111 75.3936 125.111 75.3936L148.02 82.9048Z" fill="#263238"/>
<path d="M41.5932 96.9603C44.1405 98.7169 46.5532 100.665 48.9863 102.56C51.4194 104.455 53.8199 106.354 56.2 108.29C57.5531 109.391 58.8981 110.495 60.2063 111.64C60.2389 111.669 60.2063 111.714 60.1615 111.689C57.6387 109.896 55.2015 107.993 52.7643 106.094C50.3272 104.194 47.9307 102.299 45.5424 100.388C44.1934 99.2915 42.824 98.1993 41.5321 97.0418C41.4913 96.9888 41.5443 96.9277 41.5932 96.9603Z" fill="#37474F"/>
<path d="M132.818 81.9981C132.843 81.9125 132.973 81.9614 132.961 82.0429C132.641 84.3863 133.158 86.7674 134.42 88.7676C135.867 90.9847 138.247 92.4356 140.383 93.915C140.591 94.0536 140.383 94.3755 140.154 94.2777C138.805 93.6514 137.527 92.8807 136.344 91.9791C135.253 91.1904 134.333 90.1878 133.642 89.0325C133.023 87.9814 132.631 86.8131 132.489 85.602C132.347 84.3908 132.46 83.1635 132.818 81.9981Z" fill="#37474F"/>
<path d="M119.807 79.9811C120.32 79.5165 120.871 79.0845 121.4 78.6362C122.656 77.5765 123.919 76.5128 125.215 75.5062C125.341 75.4124 125.513 75.608 125.399 75.714C124.498 76.5495 123.556 77.3442 122.631 78.1593C122.156 78.5723 121.678 78.9799 121.197 79.382C120.71 79.7456 120.26 80.1551 119.852 80.6047C119.477 81.0856 119.77 81.6073 120.312 81.7621C120.8 81.8609 121.306 81.7674 121.726 81.5013C122.705 80.9919 123.544 80.1645 124.4 79.4635C124.926 79.056 125.447 78.6484 125.977 78.2164C126.507 77.7844 127.131 77.3768 127.693 76.9448C127.73 76.9163 127.779 76.9734 127.746 77.0019C127.237 77.4991 126.752 78.0249 126.238 78.518C125.725 79.0111 125.211 79.5002 124.689 79.9852C124.168 80.4702 123.687 80.8859 123.169 81.3138C122.734 81.6989 122.239 82.0088 121.702 82.2308C120.834 82.561 119.444 82.4224 119.2 81.3261C119.172 81.0681 119.214 80.8076 119.321 80.5712C119.427 80.3348 119.595 80.1311 119.807 79.9811Z" fill="#37474F"/>
<path d="M58.9379 109.311C64.2117 103.222 78.5699 87.6332 81.8996 84.9352C82.2372 84.6688 82.6259 84.4746 83.0416 84.3645C83.4574 84.2545 83.8912 84.2309 84.3164 84.2953C85.2538 84.4298 86.0567 85.0411 86.8351 85.5424L89.6187 87.3357L95.3245 91.0322C98.8988 93.343 102.453 95.6824 106.055 97.9607C109.239 100.032 112.574 101.861 116.032 103.43C122.684 106.324 130.872 107.791 137.531 104.094C140.547 102.379 142.838 99.6278 143.979 96.3508C145.177 93.0904 145.47 89.5365 145.523 86.0722C145.523 85.2327 145.523 84.3945 145.523 83.5576C145.523 83.5128 145.588 83.5087 145.588 83.5576C145.894 90.0541 145.588 97.6468 140.535 102.427C135.163 107.506 126.91 107.514 120.23 105.496C112.748 103.234 106.21 98.6576 99.7139 94.4516L88.3675 87.0585C87.4505 86.4635 86.5458 85.8359 85.6084 85.2775C84.671 84.7192 83.591 84.332 82.6454 85.0126C79.4991 87.2745 59.7856 108.692 59.0887 109.437C59.0031 109.527 58.8564 109.405 58.9379 109.311Z" fill="#37474F"/>
<path d="M105.348 70.0787C100.156 67.0791 94.776 64.3362 89.0458 62.4329C87.6089 61.9454 86.1299 61.592 84.6279 61.3774C83.8652 61.2666 83.0916 61.2515 82.3252 61.3325C81.5638 61.4217 80.8122 61.5799 80.0795 61.8053C77.1574 62.706 74.5164 64.2506 71.9896 65.8808C69.4937 67.5647 67.0898 69.3809 64.788 71.3217C62.4854 73.2576 60.2397 75.2587 58.0837 77.3495C53.7561 81.5172 49.6465 85.9056 45.7715 90.4972C47.8093 88.2883 49.847 86.0956 51.9623 83.9763C54.0775 81.857 56.2008 79.7337 58.3935 77.6918C62.7869 73.6163 67.3271 69.6793 72.3156 66.3821C74.8017 64.7519 77.41 63.2236 80.2344 62.3351C81.6277 61.8675 83.1085 61.7198 84.5667 61.9031C86.0391 62.1103 87.4921 62.4374 88.9113 62.8812C91.765 63.7904 94.5583 64.8793 97.2743 66.1417C100.013 67.3317 102.699 68.6685 105.348 70.0787Z" fill="#37474F"/>
<path d="M124.988 55.41C124.981 55.4769 124.999 55.5439 125.038 55.5986C125.077 55.6534 125.134 55.6921 125.2 55.7075L126.288 55.7809C127.307 53.0543 128.395 50.8902 128.106 51.7339C127.667 53.0647 127.416 54.4501 127.36 55.8502C127.841 55.8787 128.953 55.9317 129.512 55.9561C130.437 51.1633 131.578 47.6053 131.496 48.7016C131.15 53.1277 131.374 54.5501 131.635 56.0662C136.831 56.3148 143.646 56.5593 148.577 56.6245C149.188 53.9713 149.73 51.1022 149.8 51.3019C150.448 52.8017 150.594 54.9699 150.582 56.6449C152.155 56.6449 153.411 56.6449 154.177 56.5756C154.177 56.5756 154.584 54.3463 154.642 53.6127C154.814 51.7389 154.658 49.8494 154.181 48.0292C153.688 46.1748 152.812 44.5323 151.98 42.8532C151.976 42.8398 151.969 42.8273 151.96 42.8165C151.412 41.7154 150.989 40.5561 150.7 39.3605C150.702 39.351 150.702 39.3414 150.7 39.3319C150.506 38.4592 150.384 37.5717 150.338 36.6788C150.162 33.4183 148.483 30.5654 145.622 29.7177C140.279 24.2564 134.806 26.5673 133.094 30.7692C132.931 31.1767 132.768 31.6454 132.613 32.159C132.026 34.05 131.488 36.5076 130.983 38.4027C130.983 38.4027 130.983 38.4027 130.983 38.4231C130.801 39.1671 130.573 39.8993 130.302 40.6157C128.88 44.0596 125.717 45.9996 124.988 55.41Z" fill="#263238"/>
<path d="M146.87 30.6088C147.796 31.086 148.583 31.7946 149.155 32.6659C149.726 33.5371 150.062 34.5413 150.131 35.5809C150.277 36.9748 150.343 38.3319 150.823 39.6565C151.35 40.9454 152.061 42.1508 152.935 43.2348C154.243 44.9955 155.144 46.752 155.315 49.0996C155.486 51.4471 155.335 54.2878 154.549 56.513H154.528C155.176 54.2592 155.241 51.1414 154.903 48.7695C154.532 46.1774 153.187 44.5513 151.814 42.5828C150.706 41.0184 150.025 39.1923 149.837 37.2845C149.715 36.1067 149.752 34.8759 149.324 33.7632C148.814 32.4387 147.771 31.595 146.736 30.8451C146.711 30.8242 146.695 30.7954 146.69 30.7638C146.684 30.7321 146.69 30.6995 146.706 30.6716C146.722 30.6437 146.747 30.6221 146.777 30.6107C146.807 30.5992 146.84 30.5985 146.87 30.6088Z" fill="#263238"/>
<path d="M127.094 44.301C128.455 42.4425 129.865 40.8612 130.685 38.5544C131.426 36.4555 131.871 34.2384 132.625 32.1436C132.625 32.1371 132.627 32.1309 132.632 32.1263C132.636 32.1217 132.643 32.1191 132.649 32.1191C132.656 32.1191 132.662 32.1217 132.666 32.1263C132.671 32.1309 132.674 32.1371 132.674 32.1436C131.5 35.8646 131.223 39.6182 128.928 42.74C127.681 44.4436 126.434 46.0005 125.598 48.0383C124.745 50.1833 124.281 52.4632 124.229 54.7711C124.229 54.8526 124.127 54.8485 124.119 54.7711C123.859 51.0408 124.911 47.337 127.094 44.301Z" fill="#263238"/>
<path d="M145.308 29.5871C145.598 30.4022 150.089 31.2173 152.261 28.2707C154.434 25.324 152.025 21.5215 148.324 23.0743C145.985 24.0565 144.689 27.8794 145.308 29.5871Z" fill="#263238"/>
<path d="M152.577 24.1364C151.85 23.2516 150.844 22.6407 149.724 22.4043C149.206 22.2811 148.665 22.2965 148.154 22.4489C147.644 22.6013 147.183 22.8853 146.818 23.2724C146.072 24.0951 145.565 25.1053 145.351 26.1945C145.225 26.749 145.15 27.3137 145.126 27.8818C145.077 28.4554 145.135 29.0331 145.298 29.5854C145.014 29.0624 144.849 28.4837 144.813 27.89C144.756 27.2953 144.771 26.696 144.857 26.1049C145.008 24.889 145.532 23.7498 146.357 22.8444C146.804 22.3832 147.367 22.0521 147.988 21.8867C148.602 21.7405 149.245 21.7588 149.85 21.9396C150.43 22.1022 150.97 22.3807 151.439 22.7583C151.907 23.1359 152.294 23.6047 152.577 24.1364Z" fill="#263238"/>
<path d="M133.879 56.1193C124.171 58.638 108.472 61.4827 105.517 58.8458C104.111 57.5865 101.327 55.6465 100.969 52.3779C100.19 45.2498 102.974 35.5418 105.794 31.1076C106.797 29.5304 116.089 32.6441 116.048 34.6411C115.958 39.3198 113.953 46.827 114.385 47.1653C115.983 48.4246 126.412 48.9096 133.361 49.6962C142.079 50.6866 138.301 54.97 133.879 56.1193Z" fill="#F7A9A0"/>
<path d="M123.35 59.4237L124.727 47.3193C124.727 47.3193 133.172 48.4646 137.855 50.5798C142.537 52.695 140.707 55.1892 135.943 56.6931C131.179 58.197 123.35 59.4237 123.35 59.4237Z" fill="#B2B2B2"/>
<path d="M127.383 48.3695C127.334 50.2606 127.04 55.3795 126.392 58.6847H126.307C126.409 55.8563 127.04 50.2443 127.264 48.3695C127.268 48.3247 127.387 48.3328 127.383 48.3695Z" fill="#263238"/>
<path opacity="0.1" d="M135.943 56.6569C131.171 58.1526 123.35 59.4242 123.35 59.4242L124.055 53.2334L140.581 53.1152C140.659 54.4602 138.857 55.744 135.943 56.6569Z" fill="black"/>
<path d="M118.607 77.7383C118.607 77.7383 148.098 90.1809 149.268 90.0098C149.268 90.0098 149.883 74.2781 148.306 61.326C146.623 47.4487 139.026 49.0463 136.12 50.4239C132.676 52.0541 124.753 59.5328 123.893 61.1589C122.459 63.8488 123.999 67.7409 123.999 67.7409L118.607 77.7383Z" fill="#B2B2B2"/>
<path opacity="0.1" d="M149.011 69.4002C149.133 71.2302 149.211 73.0397 149.264 74.7922C149.064 74.7922 148.856 74.7922 148.669 74.7922C147.315 74.7922 145.938 74.9471 144.499 75.049C143.061 75.1509 141.573 75.2527 140.016 75.3261C139.246 75.3628 138.455 75.3913 137.656 75.3995H137.049C136.849 75.3995 136.642 75.3995 136.442 75.375C136.032 75.358 135.624 75.3172 135.219 75.2527L134.905 75.2038C134.8 75.1866 134.695 75.1635 134.592 75.1346C134.384 75.0938 134.184 75.0327 133.972 74.9715C133.76 74.9104 133.565 74.8289 133.365 74.7596C133.165 74.6903 132.978 74.5844 132.79 74.4906C132.076 74.1129 131.395 73.6766 130.752 73.1864C129.481 72.2287 128.307 71.1976 127.109 70.1991C125.984 69.2372 124.88 68.2876 123.885 67.4114C123.551 66.4047 122.724 63.3847 123.905 61.1798C123.905 61.1472 123.946 61.1146 123.963 61.082C124.155 61.185 124.342 61.2993 124.521 61.4244C124.892 61.6847 125.246 61.9693 125.581 62.2762C126.209 62.8581 126.769 63.5088 127.252 64.2161C128.09 65.5104 128.838 66.8613 129.489 68.2591C130.093 69.559 130.902 70.7534 131.885 71.7967C132.363 72.2699 132.913 72.6634 133.516 72.9623C133.671 73.0275 133.817 73.0927 133.968 73.1457L134.188 73.2109L134.302 73.2435L134.412 73.272C134.567 73.3031 134.724 73.3262 134.881 73.3413C134.962 73.3413 135.04 73.3617 135.121 73.3617H135.362C135.692 73.3575 136.022 73.3289 136.348 73.2761C136.682 73.2163 137.017 73.1389 137.351 73.0438C138.036 72.8444 138.708 72.6035 139.364 72.3224C140.717 71.7641 142.099 71.0998 143.57 70.627C145.075 70.1164 146.623 69.7439 148.196 69.5144C148.469 69.4736 148.742 69.4369 149.011 69.4002Z" fill="black"/>
<path opacity="0.1" d="M149.372 80.2461C149.372 80.7963 149.372 81.3424 149.372 81.8763C149.254 81.75 149.131 81.6236 149.009 81.5014C148.09 80.542 146.937 79.8395 145.663 79.4636C144.412 79.1335 143.059 79.2639 141.702 79.4636C141.021 79.5614 140.332 79.6837 139.627 79.7937C138.922 79.9038 138.213 80.0179 137.487 80.0831C136.762 80.1483 136.028 80.2013 135.291 80.2094C134.553 80.2176 133.807 80.2094 133.057 80.1442C131.56 80.0459 130.072 79.8251 128.611 79.484C128.248 79.3943 127.881 79.3046 127.523 79.1946C127.164 79.0846 126.805 78.9786 126.459 78.8563C126.113 78.7341 125.758 78.6077 125.403 78.4814C125.049 78.355 124.719 78.2002 124.38 78.0494C122.781 77.3437 121.243 76.5053 119.783 75.5429L121.454 72.4414L122.208 72.796L123.137 73.2035L123.59 73.4114L124.058 73.607C124.368 73.7334 124.678 73.8638 124.984 74.0146C125.134 74.0839 125.293 74.1368 125.448 74.198L125.913 74.3773C126.227 74.4955 126.528 74.6341 126.846 74.7441C127.164 74.8541 127.466 74.9601 127.771 75.0824C128.077 75.2046 128.391 75.3147 128.705 75.4084L129.169 75.5714L129.638 75.7222C130.89 76.1123 132.165 76.4227 133.457 76.6515C134.761 76.8675 136.085 76.9775 137.443 77.0916L139.521 77.2506C140.226 77.2995 140.935 77.3525 141.661 77.4258C142.386 77.4992 143.112 77.5848 143.853 77.707C144.6 77.8324 145.333 78.0233 146.046 78.2776L146.311 78.3836L146.572 78.4977C146.747 78.571 146.918 78.6566 147.089 78.7422C147.261 78.8278 147.407 78.9378 147.574 79.0275L148.051 79.3169C148.345 79.5329 148.654 79.7244 148.948 79.9527C149.099 80.0342 149.217 80.1361 149.372 80.2461Z" fill="black"/>
<path opacity="0.1" d="M148.131 60.0916C148.176 60.4014 148.225 60.7193 148.266 61.0535H147.691L146.827 61.0209C146.538 61.0209 146.244 60.9801 145.955 60.9516C144.758 60.8665 143.579 60.6056 142.458 60.1772C141.359 59.6881 140.344 59.0293 139.45 58.225C138.574 57.4588 137.775 56.6356 136.964 55.8449C136.17 55.0383 135.308 54.3007 134.388 53.64C133.862 53.2664 133.296 52.9521 132.701 52.7027L133.109 52.3848C133.641 52.6364 134.157 52.9208 134.653 53.2366C135.636 53.8601 136.573 54.5285 137.506 55.2173C138.44 55.9061 139.336 56.5948 140.241 57.2551C141.098 57.9171 142.019 58.4906 142.992 58.9668C143.11 59.0157 143.22 59.0687 143.347 59.1176L143.726 59.2439C143.974 59.3377 144.243 59.3947 144.504 59.464C144.765 59.5333 145.038 59.5904 145.319 59.6556C145.6 59.7208 145.861 59.7575 146.134 59.8145C146.77 59.9164 147.447 60.0142 148.131 60.0916Z" fill="black"/>
<path opacity="0.1" d="M147.719 57.9515C147.797 58.298 147.874 58.6485 147.939 59.0275C147.218 58.95 146.493 58.8767 145.755 58.783C144.583 58.6779 143.433 58.4033 142.34 57.9678C141.285 57.445 140.338 56.7289 139.548 55.8567C138.733 55.0416 137.995 54.145 137.257 53.2687C136.589 52.4536 135.941 51.667 135.293 50.8886C135.582 50.7093 135.868 50.5585 136.108 50.4362L136.357 50.3262C136.911 51.1413 137.412 51.9564 137.918 52.7715C138.5 53.7396 139.161 54.6583 139.894 55.5184C140.605 56.3756 141.508 57.0516 142.531 57.491C142.787 57.5858 143.049 57.6661 143.314 57.7315C143.583 57.7932 143.855 57.8408 144.129 57.8741C144.684 57.9375 145.241 57.9702 145.8 57.9719C146.436 57.9801 147.079 57.9638 147.719 57.9515Z" fill="black"/>
<path d="M129.222 67.6169C130.505 68.1356 131.747 68.75 132.938 69.455C133.529 69.8096 134.096 70.1927 134.658 70.5921C134.94 70.7877 135.225 70.9752 135.51 71.1627C135.805 71.3665 136.124 71.5335 136.46 71.6599C136.463 71.6582 136.468 71.6576 136.472 71.6579C136.476 71.6583 136.48 71.6596 136.483 71.6618C136.486 71.6641 136.489 71.6671 136.491 71.6707C136.493 71.6742 136.494 71.6782 136.494 71.6823C136.494 71.6863 136.493 71.6903 136.491 71.6939C136.489 71.6975 136.486 71.7005 136.483 71.7027C136.48 71.705 136.476 71.7063 136.472 71.7067C136.468 71.707 136.463 71.7063 136.46 71.7047C135.807 71.552 135.185 71.2917 134.618 70.9344C134.018 70.5798 133.436 70.1927 132.841 69.8299C131.618 69.0963 130.436 68.3668 129.173 67.7229C129.111 67.6984 129.16 67.5925 129.222 67.6169Z" fill="#263238"/>
<path d="M125.607 67.7903C126.728 68.0086 127.837 68.2888 128.928 68.6298C129.474 68.8051 130.004 69.0048 130.53 69.2248C130.782 69.3308 131.035 69.4368 131.284 69.5509C131.532 69.665 131.814 69.8321 132.099 69.9585C132.127 69.9585 132.099 70.0196 132.099 70.0074C131.834 69.9014 131.553 69.8403 131.284 69.7506L130.469 69.4816C129.927 69.3023 129.385 69.1311 128.838 68.9436C127.758 68.5768 126.678 68.2182 125.578 67.8881C125.521 67.8636 125.549 67.778 125.607 67.7903Z" fill="#263238"/>
<path d="M141.817 57.0151C143.145 63.6175 144.927 77.6659 150.009 80.3476C155.959 83.4899 156.937 74.9068 156.562 70.3177C156.252 66.5315 150.64 58.5556 147.559 54.5045C144.295 50.213 140.109 48.5175 141.817 57.0151Z" fill="#F7A9A0"/>
<path d="M154.845 63.3226L143.352 67.3982C143.352 67.3982 140.675 59.3123 140.499 54.1771C140.324 49.0419 143.385 49.5799 146.825 53.2153C150.264 56.8507 154.845 63.3226 154.845 63.3226Z" fill="#B2B2B2"/>
<path d="M143.205 65.1309C144.946 64.3933 149.726 62.5307 152.987 61.7441C153.007 61.7441 153.036 61.8175 153.019 61.8257C150.403 62.9057 145.035 64.6785 143.238 65.245C143.214 65.2532 143.173 65.1432 143.205 65.1309Z" fill="#263238"/>
<path d="M140.251 58.7642C140.585 59.2532 141.253 60.0358 141.306 60.1295C141.229 59.8768 141.045 58.9435 140.874 58.0387C140.873 58.0302 140.875 58.0216 140.88 58.0144C140.885 58.0072 140.892 58.002 140.9 57.9995C140.909 57.9971 140.917 57.9977 140.925 58.0011C140.933 58.0045 140.94 58.0106 140.944 58.0184C141.371 58.8864 143.095 66.4955 143.389 67.3921C143.736 67.238 144.091 67.102 144.453 66.9846C144.563 66.9561 144.497 67.0661 144.485 67.0702C144.261 67.2087 143.263 67.7712 143.193 67.653C143.022 67.2903 141.624 61.3399 141.506 60.9609C141.449 60.8712 140.495 59.2859 140.234 58.7601L140.251 58.7642Z" fill="#263238"/>
<path d="M135.765 53.5748L135.594 53.4607C135.59 53.474 135.59 53.4881 135.594 53.5014C135.565 53.265 134.18 51.4636 133.063 49.9924C131.669 48.1706 130.349 46.4466 130.21 46.0228C129.97 45.2077 130.487 40.4596 130.508 40.2559L130.711 40.2803C130.711 40.3292 130.177 45.171 130.406 45.9861C130.516 46.3733 131.946 48.2399 133.21 49.8905C135.504 52.8493 135.883 53.4036 135.765 53.5748Z" fill="#263238"/>
<path d="M135.717 38.3102C135.265 40.4621 133.37 41.8804 131.483 41.485C129.596 41.0897 128.434 39.0397 128.887 36.8715C129.339 34.7033 131.238 33.3013 133.125 33.7007C135.012 34.1001 136.178 36.1623 135.717 38.3102Z" fill="#B2B2B2"/>
<path d="M136.769 38.7009C136.264 41.0932 134.157 42.6746 132.058 42.2303C129.959 41.7861 128.667 39.4916 129.169 37.0992C129.67 34.7068 131.785 33.1296 133.88 33.5698C135.975 34.0099 137.275 36.3167 136.769 38.7009Z" fill="#1D1D1D"/>
<path d="M142.836 51.9948C142.616 52.545 139.315 55.8381 136.723 55.3124C135.879 55.1412 136.613 50.4869 136.613 50.4869L136.588 50.1323L136.25 45.1479L142.469 42.3888L143.358 42.0342C143.358 42.0342 143.358 43.4036 143.358 45.1072V45.3476C143.358 45.4454 143.358 45.5392 143.358 45.6288C143.358 45.8815 143.358 46.1423 143.358 46.3991C143.358 46.6559 143.358 46.8067 143.358 46.9982C143.358 47.1898 143.358 47.4058 143.337 47.6136C143.271 49.0838 143.104 50.5477 142.836 51.9948Z" fill="#F7A9A0"/>
<path d="M143.344 45.1072C142.65 46.3858 141.685 47.4978 140.517 48.3657C139.35 49.2335 138.007 49.8364 136.582 50.1323L136.244 45.1479L142.463 42.3888L143.352 42.0342C143.352 42.0342 143.36 43.4036 143.344 45.1072Z" fill="#263238"/>
<path d="M131.409 35.597C128.772 43.956 133.484 46.4747 135.285 47.0412C136.915 47.5547 142.564 49.079 146.044 41.0542C149.525 33.0294 146.472 29.1454 142.784 27.772C139.096 26.3985 134.042 27.234 131.409 35.597Z" fill="#F7A9A0"/>
<path d="M133.16 34.809C133.362 34.8192 133.565 34.8192 133.767 34.809C133.979 34.8417 134.196 34.806 134.387 34.7071C134.44 34.6638 134.478 34.6039 134.494 34.5369C134.511 34.4699 134.504 34.3993 134.476 34.3363C134.401 34.2206 134.297 34.1269 134.174 34.0646C134.05 34.0024 133.913 33.9738 133.775 33.9817C133.495 33.9578 133.215 34.0375 132.989 34.2058C132.934 34.2461 132.892 34.3023 132.87 34.3669C132.848 34.4315 132.846 34.5013 132.864 34.5671C132.883 34.6328 132.921 34.6912 132.974 34.7345C133.027 34.7777 133.092 34.8038 133.16 34.809Z" fill="#263238"/>
<path d="M138.915 36.3149C138.729 36.2385 138.547 36.1528 138.369 36.0582C138.165 35.9928 137.987 35.8626 137.864 35.6873C137.835 35.6243 137.828 35.5536 137.845 35.4864C137.861 35.4192 137.899 35.3593 137.953 35.3164C138.072 35.2473 138.207 35.2109 138.345 35.2109C138.482 35.2109 138.617 35.2473 138.736 35.3164C138.998 35.4223 139.211 35.6212 139.335 35.8748C139.359 35.9343 139.365 35.9994 139.353 36.0623C139.341 36.1253 139.311 36.1835 139.267 36.2299C139.222 36.2763 139.166 36.309 139.103 36.324C139.041 36.3391 138.976 36.336 138.915 36.3149Z" fill="#263238"/>
<path d="M136.601 42.4526C136.467 42.5993 136.332 42.799 136.116 42.8275C135.894 42.8321 135.673 42.7904 135.468 42.7053C135.464 42.702 135.458 42.7006 135.453 42.7014C135.448 42.7022 135.443 42.705 135.44 42.7093C135.436 42.7137 135.435 42.7191 135.436 42.7245C135.437 42.7298 135.439 42.7346 135.444 42.7379C135.535 42.8501 135.654 42.936 135.79 42.9869C135.925 43.0377 136.071 43.0517 136.214 43.0272C136.334 42.9903 136.441 42.9182 136.52 42.8201C136.599 42.7221 136.647 42.6026 136.658 42.477C136.666 42.4281 136.622 42.4281 136.601 42.4526Z" fill="#263238"/>
<path d="M134.379 40.0359C134.379 40.0359 134.09 40.8877 134.009 41.2993C134.009 41.336 134.098 41.3767 134.237 41.4093C134.577 41.5414 134.946 41.5777 135.306 41.5145C135.665 41.4513 136 41.2909 136.275 41.0507C136.28 41.0431 136.283 41.034 136.283 41.0247C136.283 41.0153 136.28 41.0062 136.275 40.9986C136.269 40.9909 136.262 40.9852 136.253 40.9821C136.244 40.979 136.235 40.9788 136.226 40.9814C135.629 41.2376 134.966 41.2947 134.335 41.1444C134.335 41.0222 134.881 39.7017 134.815 39.6854C134.49 39.6509 134.161 39.6604 133.837 39.7139C134.396 37.9247 135.231 36.2374 135.761 34.4442C135.764 34.4372 135.765 34.4298 135.766 34.4222C135.766 34.4147 135.764 34.4072 135.761 34.4002C135.758 34.3932 135.754 34.3868 135.749 34.3814C135.744 34.376 135.737 34.3717 135.73 34.3688C135.723 34.3659 135.716 34.3643 135.708 34.3643C135.701 34.3642 135.693 34.3656 135.686 34.3685C135.679 34.3713 135.673 34.3755 135.668 34.3808C135.662 34.3861 135.658 34.3924 135.655 34.3994C134.652 36.103 133.968 38.1489 133.348 39.9829C133.291 40.2152 134.2 40.0725 134.379 40.0359Z" fill="#263238"/>
<path d="M134.682 41.3918C134.837 41.6945 135.067 41.9526 135.35 42.1417C135.507 42.2388 135.691 42.2844 135.876 42.2721C136.283 42.2436 136.353 41.8931 136.336 41.5792C136.329 41.4106 136.3 41.2435 136.251 41.082C135.775 41.3522 135.224 41.4608 134.682 41.3918Z" fill="#263238"/>
<path d="M135.361 42.1395C135.519 42.2366 135.703 42.2822 135.887 42.2699C136.295 42.2414 136.364 41.8909 136.348 41.577C136.144 41.5457 135.935 41.5842 135.756 41.6863C135.577 41.7884 135.438 41.9481 135.361 42.1395Z" fill="#FF9BBC"/>
<path d="M133.906 37.3157C133.906 37.2912 133.857 37.3157 133.849 37.3442C133.674 37.87 133.385 38.4405 132.851 38.4365C132.851 38.4365 132.826 38.465 132.851 38.4691C133.446 38.5995 133.825 37.8374 133.906 37.3157Z" fill="#263238"/>
<path d="M132.958 36.7219C132.914 36.8161 132.88 36.9144 132.856 37.0153C132.798 37.0738 132.732 37.1245 132.661 37.1661C132.593 37.208 132.514 37.2301 132.434 37.2301C132.354 37.2301 132.276 37.208 132.208 37.1661C131.931 36.9827 131.964 36.6078 132.102 36.3021C132.102 36.2777 132.131 36.2736 132.135 36.3021C132.176 36.5222 132.237 36.7586 132.424 36.8197C132.612 36.8809 132.775 36.7667 132.946 36.7341L132.958 36.7219Z" fill="#263238"/>
<path d="M133.731 37.881C133.655 38.0124 133.545 38.1208 133.413 38.1948C133.339 38.2329 133.258 38.2548 133.175 38.259C133.092 38.2632 133.009 38.2497 132.932 38.2192C132.853 38.188 132.782 38.1386 132.725 38.0748C132.669 38.0111 132.628 37.9349 132.606 37.8524C132.571 37.7078 132.571 37.557 132.606 37.4123C132.627 37.3266 132.653 37.2423 132.683 37.1596C132.748 36.9854 132.853 36.829 132.989 36.7031C132.933 36.8244 132.891 36.9515 132.863 37.0822C132.835 37.1987 132.818 37.3173 132.81 37.4367C132.81 37.6853 132.855 37.9176 133.034 37.9706C133.213 38.0236 133.409 37.9502 133.568 37.7587C133.724 37.556 133.86 37.339 133.975 37.1107C133.956 37.3832 133.872 37.6473 133.731 37.881Z" fill="#263238"/>
<path d="M137.139 38.2836C137.139 38.2632 137.172 38.3203 137.168 38.3407C136.993 38.8664 136.878 39.4941 137.306 39.812C137.306 39.812 137.306 39.8486 137.306 39.8405C136.732 39.5756 136.891 38.7605 137.139 38.2836Z" fill="#263238"/>
<path d="M138.258 38.3535C138.236 38.4551 138.206 38.5546 138.168 38.651C138.178 38.7322 138.198 38.8117 138.229 38.8874C138.258 38.9624 138.307 39.0277 138.371 39.076C138.435 39.1243 138.512 39.1536 138.592 39.1605C138.926 39.1809 139.122 38.863 139.199 38.5328C139.199 38.5084 139.199 38.4921 139.175 38.5043C139.012 38.6551 138.824 38.8059 138.637 38.7448C138.449 38.6836 138.384 38.4921 138.27 38.3617L138.258 38.3535Z" fill="#263238"/>
<path d="M136.953 38.8489C136.935 39.0001 136.958 39.1534 137.018 39.2931C137.056 39.3672 137.108 39.4329 137.172 39.4862C137.236 39.5394 137.31 39.5791 137.389 39.6029C137.472 39.6252 137.558 39.628 137.641 39.611C137.725 39.594 137.803 39.5577 137.87 39.505C137.986 39.4109 138.078 39.2908 138.139 39.1545C138.175 39.074 138.205 38.9909 138.229 38.9059C138.282 38.7289 138.293 38.5419 138.261 38.3598C138.233 38.4894 138.189 38.6153 138.131 38.7348C138.084 38.8457 138.027 38.9521 137.96 39.0527C137.821 39.2564 137.638 39.4072 137.459 39.3461C137.279 39.285 137.173 39.1016 137.161 38.8529C137.159 38.5974 137.181 38.3423 137.226 38.0908C137.077 38.3188 136.984 38.5784 136.953 38.8489Z" fill="#263238"/>
<path d="M145.658 41.206C144.231 41.0186 144.525 38.0027 144.525 38.0027C144.525 38.0027 141.672 37.4117 141.586 33.112C141.409 34.3621 141.6 35.6368 142.136 36.78C142.136 36.78 137.213 35.1905 135.974 30.5281C135.974 30.5281 136.382 32.8552 137.005 33.7885C137.005 33.7885 135.016 32.7533 134.344 30.8215C134.344 30.8215 132.954 33.0712 132.131 33.601C132.131 33.601 134.189 24.8304 142.161 27.4877C142.161 27.4877 147.202 28.9019 148.189 33.3321C149.175 37.7622 145.658 41.206 145.658 41.206Z" fill="#263238"/>
<path d="M144.515 41.2778C144.515 41.2778 146.961 39.02 148.041 39.9573C149.121 40.8947 146.838 44.4405 145.298 44.6646C145.101 44.7051 144.899 44.7053 144.702 44.6651C144.505 44.625 144.319 44.5453 144.154 44.431C143.989 44.3167 143.849 44.1701 143.742 44.0001C143.635 43.8301 143.564 43.6402 143.533 43.4419L144.515 41.2778Z" fill="#F7A9A0"/>
<path d="M147.36 40.9591C147.365 40.9591 147.371 40.9613 147.374 40.9651C147.378 40.9689 147.38 40.9741 147.38 40.9795C147.38 40.9849 147.378 40.9901 147.374 40.9939C147.371 40.9977 147.365 40.9999 147.36 40.9999C146.272 41.1833 145.542 41.9903 144.959 42.8665C145.039 42.7792 145.138 42.7104 145.247 42.6649C145.356 42.6194 145.474 42.5982 145.592 42.6029C145.711 42.6075 145.827 42.6379 145.932 42.6919C146.037 42.7458 146.13 42.8221 146.203 42.9154C146.227 42.9399 146.203 42.9725 146.166 42.9602C146.003 42.8665 145.815 42.8253 145.627 42.842C145.44 42.8588 145.262 42.9328 145.118 43.054C144.878 43.2592 144.661 43.4902 144.47 43.7427C144.405 43.8202 144.254 43.7427 144.311 43.6449V43.6205C144.58 42.3448 145.954 40.7961 147.36 40.9591Z" fill="#263238"/>
<path d="M114.003 64.8919C112.622 64.8919 111.46 64.3131 110.539 62.4751C109.504 60.4128 112.854 50.2484 115.067 43.5196C115.801 41.2944 116.38 39.5378 116.632 38.5841C117.06 36.9539 117.252 32.9558 117.252 32.915H117.455C117.455 33.0821 117.264 36.9906 116.828 38.6208C116.575 39.5827 116.013 41.3433 115.263 43.5726C113.192 49.8612 109.724 60.3843 110.723 62.3732C112.263 65.4543 114.444 64.8185 117.46 64.0034C118.491 63.6926 119.538 63.4396 120.598 63.2453C123.748 62.7196 125.358 63.1027 126.654 63.4124C128.284 63.7996 129.336 64.0564 132.38 61.9982C133.921 60.959 135.388 53.8471 135.404 53.7778C135.673 53.0279 138.233 51.5892 140.702 50.1995C142.435 49.2254 144.073 48.3043 144.611 47.7908C145.353 47.0817 146.368 44.4652 146.376 44.4407L146.567 44.5141C146.526 44.6241 145.524 47.1958 144.749 47.9375C144.195 48.4714 142.549 49.3966 140.8 50.3829C138.473 51.6911 135.832 53.1746 135.596 53.843C135.539 54.1242 134.1 61.0894 132.49 62.1735C129.372 64.2805 128.268 64.0197 126.601 63.6203C125.325 63.3146 123.748 62.9356 120.626 63.4573C119.575 63.6493 118.536 63.8996 117.513 64.2072C116.377 64.586 115.198 64.8161 114.003 64.8919Z" fill="#263238"/>
<path d="M117.687 35.963L117.963 32.8574L117.074 32.7785L116.798 35.8841L117.687 35.963Z" fill="#B2B2B2"/>
<path d="M147.681 39.694C147.681 39.694 149.176 35.0682 148.447 32.1257C147.632 28.8652 143.988 25.454 139.338 26.481C139.338 26.481 144.355 27.4754 146.535 31.8648C147.534 33.9026 146.079 39.4291 146.079 39.4291L147.681 39.694Z" fill="#1D1D1D"/>
<path d="M142.698 40.9506C142.07 43.3429 143.269 45.7271 145.368 46.2732C147.466 46.8194 149.671 45.3277 150.299 42.9354C150.927 40.543 149.728 38.1588 147.63 37.6127C145.531 37.0665 143.322 38.5582 142.698 40.9506Z" fill="#1D1D1D"/>
<path d="M143.833 41.1044C143.27 43.2563 144.346 45.4001 146.233 45.8932C148.12 46.3863 150.105 45.0414 150.668 42.8936C151.23 40.7458 150.154 38.598 148.267 38.1048C146.38 37.6117 144.395 38.9566 143.833 41.1044Z" fill="#B2B2B2"/>
<path d="M149.151 78.1253C151.755 81.9849 155.117 80.2854 155.961 77.1472C157.942 69.7745 154.718 56.7694 153.198 53.3744C152.986 52.8935 140.368 55.9665 140.808 58.2977C141.424 61.5582 143.869 70.2921 149.151 78.1253Z" fill="#F7A9A0"/>
<path d="M148.205 76.5836C147.751 75.976 147.329 75.3447 146.941 74.6925C146.534 74.0404 146.183 73.3598 145.833 72.6547C145.482 71.9497 145.173 71.2446 144.891 70.5069C144.6 69.7627 144.358 69.0003 144.166 68.2246C144.337 68.5751 144.476 68.9419 144.647 69.2883C144.818 69.6348 144.965 69.9975 145.132 70.3439C145.466 71.0408 145.792 71.7418 146.139 72.4306L148.205 76.5836Z" fill="#263238"/>
<path d="M152.841 55.192C152.841 55.192 153.819 50.3706 154.308 47.1835C154.581 45.4066 154.781 42.3173 154.386 40.9194C153.791 38.8286 149.98 30.4656 147.93 31.3459C146.075 32.161 150.265 38.9142 150.265 38.9142C150.265 38.9142 146.642 31.7086 144.588 33.078C142.534 34.4474 148.28 41.4696 148.28 41.4696C148.28 41.4696 144.392 34.1336 142.497 35.8983C141.067 37.2188 145.912 43.8701 145.912 43.8701C145.912 43.8701 142.53 37.6019 140.997 38.8979C139.302 40.3284 143.394 46.7515 143.394 46.7515C140.052 50.7007 139.269 54.7845 140.806 57.9919C141.067 58.5014 152.841 55.192 152.841 55.192Z" fill="#F7A9A0"/>
<path d="M151.661 41.3284C151.253 40.4644 150.87 39.5922 150.401 38.769C149.932 37.9457 149.431 37.1388 148.885 36.3603C148.194 35.3315 147.387 34.3852 146.48 33.54C147.98 35.1703 149.708 38.0802 150.177 38.9035C150.646 39.7267 151.159 40.5337 151.628 41.3488L151.661 41.3284Z" fill="#263238"/>
<path d="M148.731 43.0775C148.181 42.0016 147.671 40.9093 147.072 39.8538C146.473 38.7982 145.817 37.8649 145.153 36.8582C145.1 36.7808 145.075 36.8338 145.124 36.9112C145.752 37.9423 146.249 38.949 146.864 39.9842C147.48 41.0194 148.136 42.022 148.707 43.0938L148.731 43.0775Z" fill="#263238"/>
<path d="M146.482 45.0376C145.675 43.3635 144.698 41.7766 143.568 40.3018C143.511 40.2284 143.486 40.3018 143.539 40.3792C144.538 41.932 145.332 43.1465 146.421 45.062C146.441 45.0946 146.498 45.0702 146.482 45.0376Z" fill="#263238"/>
<path d="M142.696 35.749C142.52 35.8293 142.382 35.9757 142.313 36.1566C142.253 36.342 142.23 36.537 142.243 36.7312C142.275 37.1228 142.36 37.5082 142.496 37.8765C142.764 38.617 143.095 39.333 143.486 40.0161L144.012 40.9576L143.291 40.1425C142.986 39.7901 142.641 39.4742 142.264 39.201C142.083 39.0744 141.882 38.9806 141.669 38.9239C141.474 38.876 141.268 38.9052 141.094 39.0054C140.956 39.1395 140.867 39.316 140.841 39.5067C140.8 39.7256 140.788 39.9489 140.805 40.171C140.844 40.6319 140.935 41.087 141.074 41.5282C141.362 42.4275 141.727 43.3002 142.166 44.1365C142.378 44.5441 142.614 44.972 142.834 45.3918L143.548 46.6145L143.621 46.7449L143.519 46.8508C142.827 47.5731 142.229 48.3796 141.738 49.2514C141.237 50.1192 140.845 51.046 140.572 52.0105C140.31 52.9808 140.194 53.9851 140.23 54.9897C140.272 56.0012 140.463 57.0009 140.797 57.9567C140.398 57.0163 140.149 56.0193 140.059 55.002C139.978 53.975 140.062 52.9417 140.307 51.9412C140.55 50.9431 140.928 49.9831 141.432 49.0883C141.931 48.1825 142.542 47.3432 143.25 46.59L143.222 46.8264L142.484 45.6037C142.26 45.1962 142.015 44.7642 141.807 44.3322C141.368 43.4714 141.004 42.5741 140.719 41.6504C140.574 41.1802 140.483 40.6947 140.45 40.2036C140.434 39.9497 140.451 39.6947 140.503 39.4456C140.522 39.3039 140.57 39.1676 140.644 39.045C140.717 38.9224 140.815 38.816 140.931 38.7323C141.181 38.5976 141.473 38.564 141.746 38.6386C141.993 38.7119 142.224 38.8278 142.431 38.9809C142.821 39.2774 143.173 39.621 143.478 40.0039L143.279 40.1425C142.903 39.4423 142.599 38.7064 142.37 37.9457C142.252 37.5609 142.186 37.162 142.174 36.7598C142.168 36.5558 142.205 36.3529 142.284 36.1647C142.321 36.0714 142.377 35.9865 142.448 35.9151C142.518 35.8437 142.603 35.7872 142.696 35.749Z" fill="#263238"/>
<path d="M121.755 19.2619L122.326 34.3089C122.391 34.7613 122.11 35.0547 121.698 34.9691L114.326 33.4082C114.105 33.3427 113.907 33.2162 113.755 33.0431C113.603 32.8701 113.502 32.6575 113.466 32.43L112.891 17.3831C112.83 16.9307 113.111 16.6372 113.523 16.7228L120.891 18.2838C121.113 18.3486 121.312 18.4748 121.465 18.6479C121.618 18.821 121.719 19.0339 121.755 19.2619Z" fill="#37474F"/>
<path d="M120.885 19.0715L121.456 34.1184C121.521 34.5668 121.236 34.8643 120.824 34.7787L113.456 33.2137C113.234 33.1492 113.036 33.0235 112.883 32.8512C112.73 32.6789 112.629 32.4669 112.592 32.2396L112.021 17.1926C111.956 16.7403 112.241 16.4468 112.653 16.5324L120.021 18.0933C120.243 18.1581 120.442 18.2844 120.595 18.4575C120.748 18.6306 120.848 18.8435 120.885 19.0715Z" fill="#455A64"/>
<path d="M118.723 19.2969C118.698 19.4214 118.711 19.5505 118.76 19.6677C118.809 19.7849 118.892 19.8849 118.998 19.9549C119.104 20.0249 119.228 20.0619 119.355 20.061C119.482 20.0601 119.606 20.0214 119.711 19.9499C119.816 19.8784 119.897 19.7773 119.945 19.6594C119.992 19.5416 120.003 19.4123 119.977 19.2881C119.95 19.1639 119.888 19.0503 119.796 18.9619C119.705 18.8735 119.59 18.8141 119.465 18.7915C119.3 18.7616 119.129 18.7978 118.991 18.8923C118.852 18.9869 118.756 19.1322 118.723 19.2969Z" fill="#263238"/>
<path d="M105.246 27.9042C106.917 24.4318 107.879 23.796 107.732 20.1158C107.634 17.703 109.134 16.6026 110.394 18.779C112.431 22.341 111.233 27.2725 110.32 28.8619L105.246 27.9042Z" fill="#F7A9A0"/>
<path d="M103.687 38.9243C103.687 38.9243 103.087 33.4916 104.502 29.6158C105.476 26.9341 108.255 21.3383 116.631 19.7855C118.615 19.4146 121.709 20.299 118.668 22.0801C116.516 23.3435 114.772 23.4984 113.655 24.4602C113.655 24.4602 117.454 26.0497 117.731 28.0548C117.986 29.8094 118.115 31.58 118.118 33.3531C117.795 33.4281 117.467 33.4812 117.136 33.512C117.136 33.512 117.23 35.4112 115.408 37.6568L103.687 38.9243Z" fill="#F7A9A0"/>
<path d="M105.84 27.2035C107.148 26.4821 109.952 24.9986 112.666 24.5829C115.682 24.1224 121.612 24.045 121.93 26.2743C122.167 27.9045 119.892 28.1368 119.892 28.1368C119.892 28.1368 122.338 28.6218 122.24 30.1461C122.138 31.5318 120.377 31.6051 120.377 31.6051C120.377 31.6051 121.82 32.1553 121.461 33.4717C121.034 35.0571 118.083 33.6429 116.265 34.8737C115.862 35.1509 105.84 27.2035 105.84 27.2035Z" fill="#F7A9A0"/>
<path d="M112.624 27.8476C115.005 27.1871 117.532 27.2696 119.866 28.084C119.923 28.1084 119.939 28.1614 119.866 28.1533C117.468 27.7679 115.032 27.6748 112.611 27.8761C112.611 27.8761 112.611 27.8517 112.624 27.8476Z" fill="#263238"/>
<path d="M113.175 30.8791C114.377 30.5897 117.821 30.4349 120.389 31.5475C120.45 31.572 120.458 31.629 120.389 31.6209C118.016 31.1115 115.593 30.8723 113.167 30.9076C113.167 30.9076 113.163 30.8832 113.175 30.8791Z" fill="#263238"/>
<path d="M50.7317 29.6426C50.8749 30.0439 50.9439 30.4678 50.9355 30.8938C50.9453 31.3198 50.8762 31.744 50.7317 32.145C50.5892 31.7435 50.5201 31.3197 50.5279 30.8938C50.5215 30.468 50.5905 30.0444 50.7317 29.6426Z" fill="#263238"/>
<path d="M47.4141 33.0542C48.2269 32.7879 49.1036 32.7879 49.9165 33.0542C49.1045 33.3261 48.226 33.3261 47.4141 33.0542Z" fill="#263238"/>
<path d="M50.8172 36.3655C50.5453 35.5549 50.5453 34.6778 50.8172 33.8672C51.089 34.6778 51.089 35.5549 50.8172 36.3655Z" fill="#263238"/>
<path d="M54.1352 32.9636C53.3232 33.2354 52.4448 33.2354 51.6328 32.9636C52.0336 32.8185 52.4579 32.7494 52.884 32.7598C53.3099 32.752 53.7338 32.8211 54.1352 32.9636Z" fill="#263238"/>
<path d="M162.016 115.019C162.288 115.831 162.288 116.709 162.016 117.521C161.745 116.709 161.745 115.831 162.016 115.019Z" fill="#263238"/>
<path d="M158.699 118.421C159.101 118.278 159.524 118.209 159.95 118.217C160.377 118.206 160.801 118.275 161.202 118.421C160.39 118.692 159.511 118.692 158.699 118.421Z" fill="#263238"/>
<path d="M162.103 121.742C161.96 121.34 161.891 120.916 161.899 120.49C161.889 120.064 161.958 119.64 162.103 119.239C162.246 119.641 162.315 120.065 162.307 120.49C162.313 120.916 162.244 121.34 162.103 121.742Z" fill="#263238"/>
<path d="M165.42 118.34C165.019 118.482 164.595 118.551 164.169 118.543C163.743 118.553 163.319 118.484 162.918 118.34C163.73 118.068 164.608 118.068 165.42 118.34Z" fill="#263238"/>
<path d="M8.8777 131.359C9.02053 131.759 9.08958 132.182 9.08148 132.606C9.09194 133.033 9.02283 133.457 8.8777 133.858C8.60587 133.047 8.60587 132.17 8.8777 131.359Z" fill="#263238"/>
<path d="M5.56055 134.76C6.37253 134.488 7.25096 134.488 8.06294 134.76C7.66208 134.904 7.23782 134.973 6.81174 134.963C6.38582 134.971 5.96198 134.902 5.56055 134.76Z" fill="#263238"/>
<path d="M8.96446 138.082C8.82131 137.68 8.75226 137.256 8.76068 136.83C8.75088 136.404 8.81997 135.98 8.96446 135.579C9.23631 136.391 9.23631 137.27 8.96446 138.082Z" fill="#263238"/>
<path d="M12.2661 134.681C11.4541 134.953 10.5757 134.953 9.76367 134.681C10.5757 134.41 11.4541 134.41 12.2661 134.681Z" fill="#263238"/>
<path d="M156.261 60.3086C156.397 60.5584 156.467 60.8391 156.465 61.1237C156.469 61.4085 156.399 61.6896 156.261 61.9388C156.121 61.6902 156.051 61.4087 156.057 61.1237C156.053 60.8389 156.123 60.5578 156.261 60.3086Z" fill="#263238"/>
<path d="M154.053 62.5574C154.309 62.4235 154.593 62.3535 154.882 62.3535C155.171 62.3535 155.456 62.4235 155.711 62.5574C155.456 62.6913 155.171 62.7612 154.882 62.7612C154.593 62.7612 154.309 62.6913 154.053 62.5574Z" fill="#263238"/>
<path d="M156.31 64.7582C156.172 64.5089 156.101 64.2279 156.106 63.943C156.099 63.658 156.17 63.3764 156.31 63.1279C156.448 63.3772 156.518 63.6582 156.513 63.943C156.516 64.2277 156.446 64.5083 156.31 64.7582Z" fill="#263238"/>
<path d="M158.512 62.5036C158.256 62.6375 157.972 62.7075 157.683 62.7075C157.394 62.7075 157.109 62.6375 156.854 62.5036C157.109 62.3697 157.394 62.2998 157.683 62.2998C157.972 62.2998 158.256 62.3697 158.512 62.5036Z" fill="#263238"/>
<path d="M100.798 18.1289C100.936 18.3781 101.006 18.6592 101.002 18.944C101.008 19.2291 100.938 19.5107 100.798 19.7591C100.66 19.5099 100.589 19.2289 100.594 18.944C100.591 18.6594 100.661 18.3788 100.798 18.1289Z" fill="#263238"/>
<path d="M98.5977 20.3835C98.8536 20.2496 99.1382 20.1797 99.427 20.1797C99.7159 20.1797 100 20.2496 100.256 20.3835C100 20.5174 99.7159 20.5874 99.427 20.5874C99.1382 20.5874 98.8536 20.5174 98.5977 20.3835Z" fill="#263238"/>
<path d="M100.85 22.5824C100.715 22.3321 100.645 22.0518 100.647 21.7673C100.642 21.4824 100.712 21.2014 100.85 20.9521C100.99 21.2007 101.06 21.4822 101.054 21.7673C101.059 22.0521 100.988 22.3331 100.85 22.5824Z" fill="#263238"/>
<path d="M103.053 20.3298C102.797 20.4637 102.513 20.5337 102.224 20.5337C101.935 20.5337 101.65 20.4637 101.395 20.3298C101.65 20.1959 101.935 20.126 102.224 20.126C102.513 20.126 102.797 20.1959 103.053 20.3298Z" fill="#263238"/>
<path d="M21.8367 140.759C21.9706 141.015 22.0405 141.299 22.0405 141.588C22.0405 141.877 21.9706 142.162 21.8367 142.418C21.7028 142.162 21.6328 141.877 21.6328 141.588C21.6328 141.299 21.7028 141.015 21.8367 140.759Z" fill="#263238"/>
<path d="M19.6328 143.014C19.8888 142.88 20.1733 142.811 20.4622 142.811C20.751 142.811 21.0356 142.88 21.2916 143.014C21.0356 143.148 20.751 143.218 20.4622 143.218C20.1733 143.218 19.8888 143.148 19.6328 143.014Z" fill="#263238"/>
<path d="M21.8933 145.214C21.7594 144.959 21.6895 144.675 21.6895 144.387C21.6895 144.099 21.7594 143.815 21.8933 143.56C22.0272 143.815 22.0971 144.099 22.0971 144.387C22.0971 144.675 22.0272 144.959 21.8933 145.214Z" fill="#263238"/>
<path d="M24.0826 142.959C23.8266 143.093 23.5421 143.163 23.2532 143.163C22.9643 143.163 22.6798 143.093 22.4238 142.959C22.6798 142.825 22.9643 142.755 23.2532 142.755C23.5421 142.755 23.8266 142.825 24.0826 142.959Z" fill="#263238"/>
<path d="M83.4382 96.9043C83.7101 97.7149 83.7101 98.592 83.4382 99.4026C83.1664 98.592 83.1664 97.7149 83.4382 96.9043Z" fill="#263238"/>
<path d="M80.123 100.301C80.935 100.029 81.8135 100.029 82.6254 100.301C82.2246 100.445 81.8003 100.514 81.3742 100.504C80.9483 100.512 80.5245 100.443 80.123 100.301Z" fill="#263238"/>
<path d="M83.5231 103.623C83.3799 103.221 83.3109 102.797 83.3193 102.371C83.3095 101.945 83.3786 101.521 83.5231 101.12C83.6656 101.522 83.7346 101.945 83.7268 102.371C83.7332 102.797 83.6642 103.221 83.5231 103.623Z" fill="#263238"/>
<path d="M86.852 100.224C86.0391 100.491 85.1625 100.491 84.3496 100.224C85.1616 99.9525 86.04 99.9525 86.852 100.224Z" fill="#263238"/>
<path d="M168.407 11.7909C168.237 13.4509 167.609 15.0308 166.592 16.3541C165.576 17.6773 164.211 18.6917 162.651 19.2838C161.091 19.8758 159.397 20.0222 157.758 19.7066C156.12 19.391 154.601 18.6259 153.373 17.4967L148.869 18.161L151.123 14.2688C150.607 13.0015 150.388 11.6333 150.48 10.2683C150.573 8.90322 150.976 7.57728 151.658 6.39127C152.34 5.20526 153.283 4.1904 154.417 3.42386C155.55 2.65732 156.843 2.15929 158.198 1.96764C159.552 1.77598 160.933 1.89574 162.234 2.31783C163.536 2.73991 164.724 3.45319 165.708 4.40344C166.693 5.35368 167.447 6.51587 167.915 7.80163C168.383 9.0874 168.551 10.4629 168.407 11.8235V11.7909Z" fill="white"/>
<path d="M168.41 11.7911C168.232 13.4463 167.603 15.0209 166.592 16.3435C166.098 17.013 165.502 17.6014 164.827 18.0878C163.488 19.0912 161.899 19.7085 160.234 19.8729C159.818 19.9116 159.4 19.9198 158.983 19.8974C158.564 19.8885 158.147 19.8448 157.736 19.767C156.077 19.4613 154.535 18.6991 153.285 17.5662L153.391 17.5988L148.908 18.2875L148.582 18.3405L148.745 18.0512L150.987 14.1508V14.3057C150.459 13.0156 150.234 11.6215 150.33 10.2308C150.426 8.84019 150.84 7.4902 151.541 6.28502C152.237 5.09326 153.193 4.0736 154.337 3.30171C155.489 2.5313 156.802 2.03625 158.176 1.85488C159.541 1.6652 160.931 1.79266 162.239 2.22735C163.546 2.66205 164.736 3.39228 165.716 4.36135C166.697 5.31582 167.449 6.48019 167.915 7.767C168.382 9.05382 168.551 10.4296 168.41 11.7911ZM168.41 11.7911C168.542 10.4322 168.365 9.06099 167.891 7.78047C167.418 6.49994 166.66 5.34348 165.675 4.39803C164.685 3.46946 163.5 2.77331 162.207 2.36025C160.912 1.95898 159.544 1.85724 158.204 2.06274C156.87 2.26141 155.598 2.76332 154.488 3.52994C153.388 4.30144 152.468 5.30266 151.794 6.46434C151.13 7.6321 150.74 8.9349 150.652 10.275C150.569 11.6113 150.784 12.9494 151.284 14.1916L151.317 14.2731L151.276 14.3465L149.01 18.2305L148.847 17.9941L153.355 17.3624H153.416L153.46 17.4031C154.665 18.5212 156.156 19.2831 157.768 19.6039C158.171 19.6854 158.58 19.7345 158.991 19.7507C159.398 19.7788 159.807 19.7788 160.214 19.7507C161.036 19.685 161.845 19.5067 162.618 19.2208C163.394 18.939 164.125 18.5449 164.786 18.0512C165.121 17.8 165.44 17.5277 165.74 17.236C166.03 16.9428 166.302 16.6325 166.555 16.3068C167.577 15.0005 168.218 13.4381 168.41 11.7911Z" fill="#263238"/>
<path d="M163.275 12.5539C162.262 13.8989 160.973 15.0108 159.493 15.8143C158.015 15.01 156.727 13.8982 155.715 12.5539C154.386 10.7892 154.452 8.03411 156.355 7.43908C158.458 6.77884 159.493 9.94555 159.493 9.94555C159.493 9.94555 160.545 6.75846 162.635 7.43908C164.531 8.05449 164.604 10.7892 163.275 12.5539Z" fill="#B2B2B2"/>
</svg>
