<svg width="12" height="12" viewBox="0 0 12 12" fill="none" xmlns="http://www.w3.org/2000/svg">
<path fill-rule="evenodd" clip-rule="evenodd" d="M0 6C0 2.68629 2.68629 0 6 0C9.31368 0 12 2.68629 12 6C12 9.31368 9.31368 12 6 12C2.68629 12 0 9.31368 0 6ZM8.29926 7.53282C8.11542 7.80852 7.74288 7.88304 7.46718 7.69926L5.90706 6.65916C5.59026 6.44796 5.4 6.09246 5.4 5.71176V5.7V3C5.4 2.66863 5.66862 2.4 6 2.4C6.33138 2.4 6.6 2.66863 6.6 3V5.67888L8.13282 6.70074C8.40852 6.88458 8.48304 7.25712 8.29926 7.53282Z" fill="#84691F"/>
</svg>
