<svg width="30" height="24" viewBox="0 0 30 24" fill="none" xmlns="http://www.w3.org/2000/svg">
<path fill-rule="evenodd" clip-rule="evenodd" d="M29.4123 2.84117C28.3541 3.32308 27.2147 3.64897 26.0196 3.79459C27.2401 3.04572 28.1766 1.85829 28.6178 0.443774C27.4751 1.13717 26.2123 1.6416 24.8633 1.91202C23.7882 0.734993 22.2516 0 20.551 0C17.2902 0 14.6446 2.71289 14.6446 6.0585C14.6446 6.53348 14.6953 6.99459 14.7968 7.43836C9.88605 7.18527 5.53317 4.77573 2.61716 1.10596C2.10834 2.0039 1.81758 3.04572 1.81758 4.15515C1.81758 6.25612 2.86059 8.11095 4.44622 9.19784C3.47929 9.16837 2.56645 8.89275 1.76856 8.44204V8.51657C1.76856 11.4531 3.80554 13.9025 6.51024 14.4572C6.01494 14.5993 5.4926 14.6704 4.95335 14.6704C4.573 14.6704 4.2011 14.634 3.84104 14.5629C4.59329 16.969 6.77394 18.7216 9.36032 18.7684C7.33855 20.3944 4.78937 21.3634 2.02213 21.3634C1.54542 21.3634 1.07379 21.3356 0.612305 21.2802C3.22741 22.9963 6.33444 24 9.66967 24C20.5392 24 26.4811 14.7692 26.4811 6.7623C26.4811 6.49881 26.476 6.23532 26.4659 5.97703C27.6204 5.12243 28.6229 4.05634 29.4123 2.84117Z" fill="#00AAEC"/>
</svg>
