<svg width="16" height="16" viewBox="0 0 16 16" fill="none" xmlns="http://www.w3.org/2000/svg">
<path fill-rule="evenodd" clip-rule="evenodd" d="M1.3913 8C1.3913 6.24726 2.08758 4.56632 3.32695 3.32695C4.56632 2.08758 6.24726 1.3913 8 1.3913C9.75274 1.3913 11.4337 2.08758 12.6731 3.32695C13.9124 4.56632 14.6087 6.24726 14.6087 8C14.6087 9.75274 13.9124 11.4337 12.6731 12.6731C11.4337 13.9124 9.75274 14.6087 8 14.6087C6.24726 14.6087 4.56632 13.9124 3.32695 12.6731C2.08758 11.4337 1.3913 9.75274 1.3913 8ZM8 0C3.58191 0 0 3.58191 0 8C0 12.4181 3.58191 16 8 16C12.4181 16 16 12.4181 16 8C16 3.58191 12.4181 0 8 0ZM7.30435 4.52174C7.30435 4.33724 7.37764 4.1603 7.5081 4.02984C7.63856 3.89938 7.8155 3.82609 8 3.82609C8.1845 3.82609 8.36144 3.89938 8.4919 4.02984C8.62236 4.1603 8.69565 4.33724 8.69565 4.52174V8H11.4783C11.6628 8 11.8397 8.07329 11.9702 8.20375C12.1006 8.33421 12.1739 8.51115 12.1739 8.69565C12.1739 8.88015 12.1006 9.05709 11.9702 9.18755C11.8397 9.31801 11.6628 9.3913 11.4783 9.3913H8C7.8155 9.3913 7.63856 9.31801 7.5081 9.18755C7.37764 9.05709 7.30435 8.88015 7.30435 8.69565V4.52174Z" fill="black"/>
</svg>
