<svg width="146" height="138" viewBox="0 0 146 138" fill="none" xmlns="http://www.w3.org/2000/svg">
<path d="M135.076 76.9433C133.394 68.0432 127.96 61.5422 120.886 56.3143C115.837 52.5802 111.736 47.6967 108.219 42.4959C103.305 35.2249 99.2277 26.1274 91.282 21.6309C79.9806 15.2382 69.115 23.9333 59.9543 30.0667C55.1483 33.2862 50.0222 36.645 44.2056 37.5737C35.9128 38.9049 27.4927 35.252 19.2693 37.4499C17.6723 37.5224 16.1021 37.8883 14.6368 38.5295C14.6368 38.5295 4.22256 42.0122 1.13685 59.8125C-1.94886 77.6128 0.751141 104.313 15.4083 119.792C30.0654 135.27 41.6368 137.205 49.3511 137.592C49.5632 137.592 49.7715 137.592 49.9798 137.592C55.0982 138.366 61.1655 137.979 68.1083 136.044C90.4334 129.822 89.1914 115.512 109.036 112.401C128.881 109.29 138.486 94.9835 135.076 76.9433Z" fill="#EE811D"/>
<path opacity="0.7" d="M135.076 76.9433C133.394 68.0432 127.96 61.5422 120.886 56.3143C115.837 52.5802 111.736 47.6967 108.219 42.4959C103.305 35.2249 99.2277 26.1274 91.282 21.6309C79.9806 15.2382 69.115 23.9333 59.9543 30.0667C55.1483 33.2862 50.0222 36.645 44.2056 37.5737C35.9128 38.9049 27.4927 35.252 19.2693 37.4499C17.6723 37.5224 16.1021 37.8883 14.6368 38.5295C14.6368 38.5295 4.22256 42.0122 1.13685 59.8125C-1.94886 77.6128 0.751141 104.313 15.4083 119.792C30.0654 135.27 41.6368 137.205 49.3511 137.592C49.5632 137.592 49.7715 137.592 49.9798 137.592C55.0982 138.366 61.1655 137.979 68.1083 136.044C90.4334 129.822 89.1914 115.512 109.036 112.401C128.881 109.29 138.486 94.9835 135.076 76.9433Z" fill="white"/>
<path d="M62.8974 7.4332C62.8974 7.4332 64.6639 6.03239 65.1191 5.13464C65.5048 4.36071 65.7825 3.28496 65.3852 2.47233C65.2995 2.27636 65.1734 2.10074 65.0154 1.95698C64.8573 1.81322 64.6708 1.70455 64.468 1.63808C64.2652 1.5716 64.0508 1.54882 63.8386 1.57122C63.6264 1.59362 63.4213 1.66069 63.2368 1.76806C62.1452 2.44912 62.0295 4.76315 62.3072 5.87761C62.3304 5.98596 62.8781 7.44867 62.8974 7.4332Z" fill="#EE811D"/>
<path d="M46.5545 19.1002C46.6278 19.1699 47.8891 20.087 47.893 20.0637C47.8968 20.0405 48.5988 17.9161 48.4831 16.9177C48.3828 16.0664 48.0202 15.0061 47.2411 14.5495C47.0616 14.4346 46.86 14.3589 46.6494 14.3276C46.4388 14.2962 46.2239 14.3099 46.0189 14.3676C45.8139 14.4253 45.6234 14.5258 45.4598 14.6625C45.2962 14.7992 45.1632 14.9691 45.0695 15.1609C44.5334 16.3295 45.7098 18.3263 46.5545 19.1002Z" fill="#EE811D"/>
<path d="M83.5947 9.55383C83.5947 9.55383 77.1224 16.256 77.1571 24.4867C77.1918 32.7174 83.7143 39.3654 83.7143 39.3654C83.7143 39.3654 90.1865 32.6633 90.1518 24.4326C90.1171 16.2019 83.5947 9.55383 83.5947 9.55383Z" fill="#EE811D"/>
<path d="M74.3685 29.4205C74.4521 29.3264 74.5294 29.2268 74.5999 29.1225C75.0705 28.4066 75.4716 27.3657 75.1708 26.5105C75.1069 26.3066 75.0009 26.1185 74.8597 25.9584C74.7185 25.7984 74.5453 25.67 74.3513 25.5817C74.1573 25.4933 73.947 25.447 73.7339 25.4456C73.5209 25.4443 73.31 25.4881 73.1149 25.5741C72.2355 25.992 71.8073 27.4044 71.7148 28.5614C71.3638 28.4801 71.0475 28.4182 70.7736 28.3718C70.6579 28.1125 70.5422 27.8455 70.4226 27.5979C70.3031 27.3502 70.2066 27.0484 70.0948 26.7698C69.9405 26.3596 69.8016 25.9262 69.6589 25.4967C70.1719 25.2645 71.6646 24.568 72.2201 23.9488C72.7755 23.3297 73.3463 22.3429 73.1766 21.4529C73.1443 21.2417 73.068 21.0397 72.9526 20.8601C72.8373 20.6805 72.6855 20.5273 72.5072 20.4104C72.3289 20.2936 72.128 20.2158 71.9177 20.182C71.7074 20.1483 71.4924 20.1594 71.2866 20.2146C70.0562 20.6016 69.3349 22.784 69.3079 23.9333C69.3079 23.972 69.3079 24.2158 69.3542 24.5022C69.2308 24.0765 69.1035 23.6547 68.9955 23.2213C68.6792 21.9869 68.3938 20.7215 68.1045 19.4562C68.0466 19.1892 67.9811 18.9299 67.9193 18.6822C68.3513 18.4926 69.9713 17.7497 70.5538 17.1034C71.1362 16.4572 71.6839 15.4975 71.5142 14.6075C71.4814 14.3962 71.4046 14.1941 71.2889 14.0145C71.1731 13.8349 71.021 13.6817 70.8424 13.5649C70.6638 13.4481 70.4626 13.3703 70.2521 13.3366C70.0416 13.3029 69.8263 13.314 69.6203 13.3692C68.3938 13.7562 67.6725 15.9387 67.6455 17.088C67.6455 17.1267 67.6686 17.4169 67.6995 17.7419C67.5298 17.057 67.3562 16.3759 67.1633 15.7026C66.8358 14.5493 66.4312 13.4194 65.9522 12.3206C66.1065 12.2548 68.0235 11.4228 68.6715 10.7031C69.2462 10.0684 69.7978 9.09717 69.6281 8.20716C69.5957 7.99597 69.5194 7.79398 69.4041 7.61437C69.2887 7.43475 69.1369 7.28153 68.9586 7.1647C68.7803 7.04787 68.5794 6.97005 68.3691 6.93631C68.1588 6.90257 67.9438 6.91367 67.7381 6.96888C66.5115 7.35584 65.7864 9.53831 65.7632 10.6876C65.7632 10.7689 65.8558 11.8175 65.9021 12.1929V12.1542C65.4075 11.0852 64.8175 10.0633 64.1394 9.10104C63.5453 8.23722 62.9013 7.40899 62.2108 6.62061C61.5744 5.88538 60.9456 5.24689 60.3864 4.6858C60.0778 4.38784 59.7924 4.11696 59.5262 3.86931H59.5532C59.5764 3.86931 58.9515 2.43367 58.9014 2.34854C58.3305 1.35405 56.6372 -0.22476 55.3837 0.0267656C55.177 0.0784242 54.9835 0.17308 54.8156 0.304594C54.6478 0.436108 54.5094 0.601544 54.4094 0.790175C54.3094 0.978806 54.25 1.18642 54.2351 1.39955C54.2202 1.61268 54.2501 1.82658 54.3229 2.02736C54.6045 2.89029 55.5534 3.47074 56.3634 3.74935C57.1734 4.02796 58.9978 3.90026 59.4491 3.8577C59.7229 4.12083 60.0122 4.40718 60.3246 4.72449C60.8724 5.29333 61.4818 5.94343 62.1066 6.69027C62.2686 6.88762 62.4384 7.11205 62.6081 7.32101C62.2494 7.02305 61.7556 6.62448 61.7016 6.58965C60.7374 5.97438 58.5079 5.35524 57.5244 6.1756C57.3637 6.31598 57.2344 6.48884 57.145 6.68286C57.0555 6.87687 57.008 7.08766 57.0054 7.3014C57.0029 7.51514 57.0454 7.72701 57.1302 7.92312C57.2149 8.11923 57.3401 8.29514 57.4974 8.43934C58.1415 9.07783 59.2562 9.15135 60.1009 9.02752C60.9456 8.90369 62.5579 7.9092 62.9012 7.68863C63.2676 8.16073 63.6341 8.65604 63.9851 9.19392C64.6302 10.1604 65.1891 11.1821 65.6552 12.2471C65.6822 12.309 65.7015 12.3747 65.7285 12.4367C65.5781 12.2587 64.6755 11.3493 64.6061 11.2758C63.7151 10.556 61.5705 9.6931 60.4982 10.4012C60.3235 10.5235 60.1765 10.6814 60.0666 10.8645C59.9568 11.0476 59.8867 11.2519 59.8609 11.464C59.835 11.6761 59.854 11.8914 59.9167 12.0956C59.9793 12.2999 60.0841 12.4886 60.2244 12.6495C60.7991 13.3538 61.8945 13.5511 62.7469 13.5202C63.7344 13.4853 65.6706 12.5024 65.7439 12.4676C66.181 13.5412 66.5469 14.6426 66.8393 15.7645C67.0592 16.5926 67.2521 17.444 67.4333 18.2953C67.2328 18.0708 66.3958 17.2234 66.3263 17.1692C65.4353 16.4495 63.2908 15.5865 62.2185 16.2947C62.0438 16.417 61.8967 16.5748 61.7869 16.7579C61.6771 16.941 61.607 17.1453 61.5811 17.3575C61.5553 17.5696 61.5743 17.7848 61.637 17.9891C61.6996 18.1933 61.8044 18.3821 61.9446 18.5429C62.5194 19.2472 63.6148 19.4446 64.4672 19.4136C65.4315 19.3788 67.2906 18.4462 67.4488 18.3688C67.5336 18.7558 67.6146 19.1427 67.6956 19.5297C67.9579 20.7989 68.2163 22.0759 68.5056 23.3258C68.6059 23.7592 68.7216 24.181 68.8373 24.6066C68.5211 24.2777 67.9386 23.6895 67.8846 23.6431C66.9936 22.9272 64.8452 22.0643 63.7768 22.7686C63.6021 22.8908 63.455 23.0487 63.3452 23.2318C63.2354 23.4149 63.1653 23.6192 63.1394 23.8313C63.1136 24.0435 63.1326 24.2587 63.1952 24.463C63.2579 24.6672 63.3627 24.8559 63.5029 25.0168C64.0738 25.7211 65.1731 25.9223 66.0255 25.8875C66.8779 25.8527 68.4671 25.1136 68.9106 24.8891C69.1035 25.5934 69.2963 26.2899 69.5509 26.9632C69.6589 27.2535 69.7515 27.5553 69.8711 27.8262L70.0523 28.2557L69.8055 28.2325C69.8055 28.2325 69.8055 28.6194 69.8248 29.2889C68.8836 28.6156 67.5105 28.0351 66.6426 28.4453C66.4518 28.5397 66.283 28.6734 66.1471 28.8376C66.0111 29.0017 65.9112 29.1928 65.8537 29.3983C65.7962 29.6038 65.7825 29.8191 65.8134 30.0303C65.8444 30.2414 65.9192 30.4437 66.0332 30.6239C66.0908 30.721 66.1566 30.8129 66.2299 30.8987C66.4009 31.8906 66.8203 32.8227 67.4488 33.6074C67.4951 33.6654 68.1353 34.2575 68.4709 34.5516C68.1469 34.3775 67.8268 34.2033 67.4951 34.0176C67.0129 33.7467 66.5154 33.4487 66.0294 33.1624L65.2811 32.6864C65.0265 32.5278 64.7989 32.3498 64.5521 32.1795C64.1972 31.9202 63.8424 31.6378 63.4914 31.3553C63.7922 30.8832 64.6485 29.4746 64.7758 28.6465C64.9031 27.8184 64.8298 26.6808 64.2011 26.0307C64.0586 25.8716 63.8843 25.7445 63.6896 25.6574C63.4949 25.5703 63.2841 25.5253 63.0709 25.5253C62.8578 25.5253 62.647 25.5703 62.4523 25.6574C62.2576 25.7445 62.0833 25.8716 61.9408 26.0307C61.1192 27.0174 61.7286 29.2541 62.3265 30.2253C62.3265 30.2563 62.4962 30.4498 62.6775 30.6742C62.3419 30.3879 62.0025 30.1054 61.6708 29.8036C60.7296 28.9522 59.7962 28.0506 58.8589 27.1567L58.2688 26.5995C58.5234 26.2125 59.4684 24.6647 59.5995 23.825C59.7306 22.9853 59.6574 21.8592 59.0248 21.2091C58.8823 21.0507 58.7083 20.9241 58.5139 20.8374C58.3196 20.7507 58.1093 20.7059 57.8966 20.7059C57.6839 20.7059 57.4736 20.7507 57.2792 20.8374C57.0849 20.9241 56.9109 21.0507 56.7684 21.2091C55.9468 22.1959 56.5524 24.4325 57.1541 25.4038C57.1772 25.4386 57.3585 25.6669 57.5591 25.9223C57.0461 25.4425 56.5215 24.9704 55.9931 24.5176C55.0852 23.7374 54.1265 23.0186 53.1234 22.3661C53.2159 22.2268 54.3577 20.47 54.5004 19.5142C54.6315 18.6629 54.5582 17.5484 53.9295 16.8983C53.7851 16.7425 53.6102 16.6181 53.4158 16.5331C53.2213 16.4481 53.0115 16.4042 52.7994 16.4042C52.5873 16.4042 52.3774 16.4481 52.183 16.5331C51.9885 16.6181 51.8136 16.7425 51.6692 16.8983C50.8477 17.8851 51.4571 20.1217 52.0549 21.093C52.0974 21.1627 52.7531 21.983 52.9999 22.2539L52.9652 22.2307C51.9643 21.6149 50.9111 21.0892 49.8178 20.6596C48.8427 20.2714 47.8459 19.9406 46.8324 19.669C45.8951 19.4059 45.0195 19.224 44.2442 19.0692C43.8277 18.9879 43.442 18.9222 43.0871 18.8641H43.1102C43.1102 18.8641 41.822 17.9973 41.7332 17.9548C40.7072 17.444 38.4277 17.0609 37.5328 17.9818C37.3886 18.1391 37.279 18.325 37.2111 18.5275C37.1431 18.7299 37.1183 18.9445 37.1383 19.1572C37.1583 19.3699 37.2227 19.576 37.3272 19.7622C37.4317 19.9484 37.574 20.1104 37.745 20.2378C38.4547 20.8028 39.5655 20.7602 40.3948 20.5474C41.2241 20.3346 42.6744 19.2085 43.0292 18.9299C43.415 18.9957 43.8007 19.0731 44.2365 19.1659C45.008 19.3362 45.872 19.5529 46.8015 19.8199C47.0484 19.8934 47.3107 19.9863 47.5729 20.0676C47.1101 20.0173 46.4775 19.9592 46.4158 19.9592C45.2587 19.9592 43.0717 20.6944 42.7014 21.925C42.6451 22.1311 42.6327 22.3468 42.665 22.558C42.6973 22.7692 42.7737 22.9712 42.889 23.1508C43.0044 23.3304 43.1562 23.4837 43.3345 23.6005C43.5129 23.7173 43.7138 23.7951 43.9241 23.8288C44.8112 24.003 45.7832 23.4419 46.4197 22.8769C47.0561 22.312 47.8545 20.5861 48.0204 20.2107C48.5835 20.4042 49.1775 20.5977 49.7484 20.8686C50.8224 21.3157 51.8549 21.8569 52.8341 22.4861C52.8881 22.5248 52.9421 22.5712 52.9999 22.606C52.7762 22.5441 51.5227 22.281 51.4339 22.2733C50.2768 22.1649 48.0281 22.6331 47.5267 23.8211C47.4486 24.0198 47.4131 24.2327 47.4223 24.4461C47.4316 24.6595 47.4854 24.8685 47.5803 25.0597C47.6752 25.2508 47.8091 25.4199 47.9733 25.5558C48.1375 25.6917 48.3283 25.7916 48.5334 25.8488C49.3974 26.1197 50.4234 25.6747 51.1177 25.1793C51.9199 24.6028 52.9961 22.7105 53.0462 22.6409C53.9991 23.2958 54.9087 24.0119 55.7694 24.7846C56.4135 25.3535 57.0384 25.9455 57.6594 26.5685C57.3662 26.4912 56.2014 26.2474 56.1165 26.2396C54.9594 26.1351 52.7145 26.6034 52.2092 27.7875C52.1312 27.9862 52.0957 28.1991 52.1049 28.4125C52.1141 28.6258 52.168 28.8349 52.2629 29.026C52.3578 29.2172 52.4917 29.3862 52.6558 29.5222C52.82 29.6581 53.0109 29.7579 53.2159 29.8152C54.0799 30.086 55.1059 29.6449 55.8002 29.1457C56.5717 28.5846 57.6246 26.7736 57.7288 26.6227L58.5774 27.4547C59.4954 28.3718 60.4095 29.2928 61.3391 30.1634C61.6631 30.4691 61.9909 30.7594 62.3188 31.0496C61.8791 30.949 61.0691 30.7787 60.9958 30.7748C59.8579 30.6665 57.5938 31.1347 57.0885 32.3227C57.0105 32.5216 56.9751 32.7348 56.9846 32.9484C56.9941 33.162 57.0483 33.3712 57.1436 33.5624C57.2389 33.7536 57.3732 33.9226 57.5378 34.0583C57.7024 34.1941 57.8936 34.2936 58.0991 34.3504C58.9631 34.6174 59.9852 34.1762 60.6795 33.6809C61.3738 33.1856 62.2879 31.6765 62.5386 31.2508C63.0864 31.7306 63.6418 32.195 64.2126 32.6245C64.4634 32.8064 64.7064 33.0115 64.9532 33.1663L65.6899 33.6577C66.2029 33.9789 66.6812 34.2768 67.1672 34.5632L67.8846 34.9773C67.4526 34.807 66.7622 34.5516 66.6966 34.5361C65.5858 34.2575 63.2792 34.3736 62.6004 35.4687C62.4936 35.6533 62.4267 35.8583 62.4038 36.0704C62.381 36.2826 62.4029 36.4972 62.468 36.7004C62.533 36.9035 62.6399 37.0907 62.7816 37.2498C62.9234 37.409 63.0968 37.5365 63.2908 37.6241C64.1046 38.011 65.1846 37.7402 65.9445 37.3532C66.7854 36.9275 68.0505 35.3565 68.2048 35.163C68.7949 35.4996 69.3619 35.8208 69.9135 36.111C71.3676 36.885 72.6135 37.5157 73.6163 37.9762C76.8139 40.7507 81.3306 41.0719 81.3306 41.0719C81.3306 41.0719 81.5698 35.6544 78.3953 32.1099C77.2675 30.926 75.8923 30.0076 74.3685 29.4205ZM68.6599 34.6909C68.7602 34.4665 69.5239 32.7561 69.5779 31.7809C69.7553 31.75 69.9366 31.7113 70.1102 31.6726C70.434 33.3802 71.1092 35.0012 72.0928 36.4322C71.5103 36.1536 70.8816 35.8479 70.2143 35.5074C69.7168 35.252 69.1961 34.9772 68.6599 34.6909Z" fill="#EE811D"/>
<path d="M97.951 28.3834C97.951 28.3834 92.551 28.5498 89.2609 31.9899C85.9708 35.43 85.9939 40.8514 85.9939 40.8514C85.9939 40.8514 91.3939 40.685 94.684 37.2449C97.9742 33.8048 97.951 28.3834 97.951 28.3834Z" fill="#EE811D"/>
<path d="M62.8974 7.4332C62.8974 7.4332 64.6639 6.03239 65.1191 5.13464C65.5048 4.36071 65.7825 3.28496 65.3852 2.47233C65.2995 2.27636 65.1734 2.10074 65.0154 1.95698C64.8573 1.81322 64.6708 1.70455 64.468 1.63808C64.2652 1.5716 64.0508 1.54882 63.8386 1.57122C63.6264 1.59362 63.4213 1.66069 63.2368 1.76806C62.1452 2.44912 62.0295 4.76315 62.3072 5.87761C62.3304 5.98596 62.8781 7.44867 62.8974 7.4332Z" fill="white"/>
<path d="M46.5545 19.1002C46.6278 19.1699 47.8891 20.087 47.893 20.0637C47.8968 20.0405 48.5988 17.9161 48.4831 16.9177C48.3828 16.0664 48.0202 15.0061 47.2411 14.5495C47.0616 14.4346 46.86 14.3589 46.6494 14.3276C46.4388 14.2962 46.2239 14.3099 46.0189 14.3676C45.8139 14.4253 45.6234 14.5258 45.4598 14.6625C45.2962 14.7992 45.1632 14.9691 45.0695 15.1609C44.5334 16.3295 45.7098 18.3263 46.5545 19.1002Z" fill="white"/>
<path d="M83.5947 9.55383C83.5947 9.55383 77.1224 16.256 77.1571 24.4867C77.1918 32.7174 83.7143 39.3654 83.7143 39.3654C83.7143 39.3654 90.1865 32.6633 90.1518 24.4326C90.1171 16.2019 83.5947 9.55383 83.5947 9.55383Z" fill="white"/>
<path d="M74.3685 29.4205C74.4521 29.3264 74.5294 29.2268 74.5999 29.1225C75.0705 28.4066 75.4716 27.3657 75.1708 26.5105C75.1069 26.3066 75.0009 26.1185 74.8597 25.9584C74.7185 25.7984 74.5453 25.67 74.3513 25.5817C74.1573 25.4933 73.947 25.447 73.7339 25.4456C73.5209 25.4443 73.31 25.4881 73.1149 25.5741C72.2355 25.992 71.8073 27.4044 71.7148 28.5614C71.3638 28.4801 71.0475 28.4182 70.7736 28.3718C70.6579 28.1125 70.5422 27.8455 70.4226 27.5979C70.3031 27.3502 70.2066 27.0484 70.0948 26.7698C69.9405 26.3596 69.8016 25.9262 69.6589 25.4967C70.1719 25.2645 71.6646 24.568 72.2201 23.9488C72.7755 23.3297 73.3463 22.3429 73.1766 21.4529C73.1443 21.2417 73.068 21.0397 72.9526 20.8601C72.8373 20.6805 72.6855 20.5273 72.5072 20.4104C72.3289 20.2936 72.128 20.2158 71.9177 20.182C71.7074 20.1483 71.4924 20.1594 71.2866 20.2146C70.0562 20.6016 69.3349 22.784 69.3079 23.9333C69.3079 23.972 69.3079 24.2158 69.3542 24.5022C69.2308 24.0765 69.1035 23.6547 68.9955 23.2213C68.6792 21.9869 68.3938 20.7215 68.1045 19.4562C68.0466 19.1892 67.9811 18.9299 67.9193 18.6822C68.3513 18.4926 69.9713 17.7497 70.5538 17.1034C71.1362 16.4572 71.6839 15.4975 71.5142 14.6075C71.4814 14.3962 71.4046 14.1941 71.2889 14.0145C71.1731 13.8349 71.021 13.6817 70.8424 13.5649C70.6638 13.4481 70.4626 13.3703 70.2521 13.3366C70.0416 13.3029 69.8263 13.314 69.6203 13.3692C68.3938 13.7562 67.6725 15.9387 67.6455 17.088C67.6455 17.1267 67.6686 17.4169 67.6995 17.7419C67.5298 17.057 67.3562 16.3759 67.1633 15.7026C66.8358 14.5493 66.4312 13.4194 65.9522 12.3206C66.1065 12.2548 68.0235 11.4228 68.6715 10.7031C69.2462 10.0684 69.7978 9.09717 69.6281 8.20716C69.5957 7.99597 69.5194 7.79398 69.4041 7.61437C69.2887 7.43475 69.1369 7.28153 68.9586 7.1647C68.7803 7.04787 68.5794 6.97005 68.3691 6.93631C68.1588 6.90257 67.9438 6.91367 67.7381 6.96888C66.5115 7.35584 65.7864 9.53831 65.7632 10.6876C65.7632 10.7689 65.8558 11.8175 65.9021 12.1929V12.1542C65.4075 11.0852 64.8175 10.0633 64.1394 9.10104C63.5453 8.23722 62.9013 7.40899 62.2108 6.62061C61.5744 5.88538 60.9456 5.24689 60.3864 4.6858C60.0778 4.38784 59.7924 4.11696 59.5262 3.86931H59.5532C59.5764 3.86931 58.9515 2.43367 58.9014 2.34854C58.3305 1.35405 56.6372 -0.22476 55.3837 0.0267656C55.177 0.0784242 54.9835 0.17308 54.8156 0.304594C54.6478 0.436108 54.5094 0.601544 54.4094 0.790175C54.3094 0.978806 54.25 1.18642 54.2351 1.39955C54.2202 1.61268 54.2501 1.82658 54.3229 2.02736C54.6045 2.89029 55.5534 3.47074 56.3634 3.74935C57.1734 4.02796 58.9978 3.90026 59.4491 3.8577C59.7229 4.12083 60.0122 4.40718 60.3246 4.72449C60.8724 5.29333 61.4818 5.94343 62.1066 6.69027C62.2686 6.88762 62.4384 7.11205 62.6081 7.32101C62.2494 7.02305 61.7556 6.62448 61.7016 6.58965C60.7374 5.97438 58.5079 5.35524 57.5244 6.1756C57.3637 6.31598 57.2344 6.48884 57.145 6.68286C57.0555 6.87687 57.008 7.08766 57.0054 7.3014C57.0029 7.51514 57.0454 7.72701 57.1302 7.92312C57.2149 8.11923 57.3401 8.29514 57.4974 8.43934C58.1415 9.07783 59.2562 9.15135 60.1009 9.02752C60.9456 8.90369 62.5579 7.9092 62.9012 7.68863C63.2676 8.16073 63.6341 8.65604 63.9851 9.19392C64.6302 10.1604 65.1891 11.1821 65.6552 12.2471C65.6822 12.309 65.7015 12.3747 65.7285 12.4367C65.5781 12.2587 64.6755 11.3493 64.6061 11.2758C63.7151 10.556 61.5705 9.6931 60.4982 10.4012C60.3235 10.5235 60.1765 10.6814 60.0666 10.8645C59.9568 11.0476 59.8867 11.2519 59.8609 11.464C59.835 11.6761 59.854 11.8914 59.9167 12.0956C59.9793 12.2999 60.0841 12.4886 60.2244 12.6495C60.7991 13.3538 61.8945 13.5511 62.7469 13.5202C63.7344 13.4853 65.6706 12.5024 65.7439 12.4676C66.181 13.5412 66.5469 14.6426 66.8393 15.7645C67.0592 16.5926 67.2521 17.444 67.4333 18.2953C67.2328 18.0708 66.3958 17.2234 66.3263 17.1692C65.4353 16.4495 63.2908 15.5865 62.2185 16.2947C62.0438 16.417 61.8967 16.5748 61.7869 16.7579C61.6771 16.941 61.607 17.1453 61.5811 17.3575C61.5553 17.5696 61.5743 17.7848 61.637 17.9891C61.6996 18.1933 61.8044 18.3821 61.9446 18.5429C62.5194 19.2472 63.6148 19.4446 64.4672 19.4136C65.4315 19.3788 67.2906 18.4462 67.4488 18.3688C67.5336 18.7558 67.6146 19.1427 67.6956 19.5297C67.9579 20.7989 68.2163 22.0759 68.5056 23.3258C68.6059 23.7592 68.7216 24.181 68.8373 24.6066C68.5211 24.2777 67.9386 23.6895 67.8846 23.6431C66.9936 22.9272 64.8452 22.0643 63.7768 22.7686C63.6021 22.8908 63.455 23.0487 63.3452 23.2318C63.2354 23.4149 63.1653 23.6192 63.1394 23.8313C63.1136 24.0435 63.1326 24.2587 63.1952 24.463C63.2579 24.6672 63.3627 24.8559 63.5029 25.0168C64.0738 25.7211 65.1731 25.9223 66.0255 25.8875C66.8779 25.8527 68.4671 25.1136 68.9106 24.8891C69.1035 25.5934 69.2963 26.2899 69.5509 26.9632C69.6589 27.2535 69.7515 27.5553 69.8711 27.8262L70.0523 28.2557L69.8055 28.2325C69.8055 28.2325 69.8055 28.6194 69.8248 29.2889C68.8836 28.6156 67.5105 28.0351 66.6426 28.4453C66.4518 28.5397 66.283 28.6734 66.1471 28.8376C66.0111 29.0017 65.9112 29.1928 65.8537 29.3983C65.7962 29.6038 65.7825 29.8191 65.8134 30.0303C65.8444 30.2414 65.9192 30.4437 66.0332 30.6239C66.0908 30.721 66.1566 30.8129 66.2299 30.8987C66.4009 31.8906 66.8203 32.8227 67.4488 33.6074C67.4951 33.6654 68.1353 34.2575 68.4709 34.5516C68.1469 34.3775 67.8268 34.2033 67.4951 34.0176C67.0129 33.7467 66.5154 33.4487 66.0294 33.1624L65.2811 32.6864C65.0265 32.5278 64.7989 32.3498 64.5521 32.1795C64.1972 31.9202 63.8424 31.6378 63.4914 31.3553C63.7922 30.8832 64.6485 29.4746 64.7758 28.6465C64.9031 27.8184 64.8298 26.6808 64.2011 26.0307C64.0586 25.8716 63.8843 25.7445 63.6896 25.6574C63.4949 25.5703 63.2841 25.5253 63.0709 25.5253C62.8578 25.5253 62.647 25.5703 62.4523 25.6574C62.2576 25.7445 62.0833 25.8716 61.9408 26.0307C61.1192 27.0174 61.7286 29.2541 62.3265 30.2253C62.3265 30.2563 62.4962 30.4498 62.6775 30.6742C62.3419 30.3879 62.0025 30.1054 61.6708 29.8036C60.7296 28.9522 59.7962 28.0506 58.8589 27.1567L58.2688 26.5995C58.5234 26.2125 59.4684 24.6647 59.5995 23.825C59.7306 22.9853 59.6574 21.8592 59.0248 21.2091C58.8823 21.0507 58.7083 20.9241 58.5139 20.8374C58.3196 20.7507 58.1093 20.7059 57.8966 20.7059C57.6839 20.7059 57.4736 20.7507 57.2792 20.8374C57.0849 20.9241 56.9109 21.0507 56.7684 21.2091C55.9468 22.1959 56.5524 24.4325 57.1541 25.4038C57.1772 25.4386 57.3585 25.6669 57.5591 25.9223C57.0461 25.4425 56.5215 24.9704 55.9931 24.5176C55.0852 23.7374 54.1265 23.0186 53.1234 22.3661C53.2159 22.2268 54.3577 20.47 54.5004 19.5142C54.6315 18.6629 54.5582 17.5484 53.9295 16.8983C53.7851 16.7425 53.6102 16.6181 53.4158 16.5331C53.2213 16.4481 53.0115 16.4042 52.7994 16.4042C52.5873 16.4042 52.3774 16.4481 52.183 16.5331C51.9885 16.6181 51.8136 16.7425 51.6692 16.8983C50.8477 17.8851 51.4571 20.1217 52.0549 21.093C52.0974 21.1627 52.7531 21.983 52.9999 22.2539L52.9652 22.2307C51.9643 21.6149 50.9111 21.0892 49.8178 20.6596C48.8427 20.2714 47.8459 19.9406 46.8324 19.669C45.8951 19.4059 45.0195 19.224 44.2442 19.0692C43.8277 18.9879 43.442 18.9222 43.0871 18.8641H43.1102C43.1102 18.8641 41.822 17.9973 41.7332 17.9548C40.7072 17.444 38.4277 17.0609 37.5328 17.9818C37.3886 18.1391 37.279 18.325 37.2111 18.5275C37.1431 18.7299 37.1183 18.9445 37.1383 19.1572C37.1583 19.3699 37.2227 19.576 37.3272 19.7622C37.4317 19.9484 37.574 20.1104 37.745 20.2378C38.4547 20.8028 39.5655 20.7602 40.3948 20.5474C41.2241 20.3346 42.6744 19.2085 43.0292 18.9299C43.415 18.9957 43.8007 19.0731 44.2365 19.1659C45.008 19.3362 45.872 19.5529 46.8015 19.8199C47.0484 19.8934 47.3107 19.9863 47.5729 20.0676C47.1101 20.0173 46.4775 19.9592 46.4158 19.9592C45.2587 19.9592 43.0717 20.6944 42.7014 21.925C42.6451 22.1311 42.6327 22.3468 42.665 22.558C42.6973 22.7692 42.7737 22.9712 42.889 23.1508C43.0044 23.3304 43.1562 23.4837 43.3345 23.6005C43.5129 23.7173 43.7138 23.7951 43.9241 23.8288C44.8112 24.003 45.7832 23.4419 46.4197 22.8769C47.0561 22.312 47.8545 20.5861 48.0204 20.2107C48.5835 20.4042 49.1775 20.5977 49.7484 20.8686C50.8224 21.3157 51.8549 21.8569 52.8341 22.4861C52.8881 22.5248 52.9421 22.5712 52.9999 22.606C52.7762 22.5441 51.5227 22.281 51.4339 22.2733C50.2768 22.1649 48.0281 22.6331 47.5267 23.8211C47.4486 24.0198 47.4131 24.2327 47.4223 24.4461C47.4316 24.6595 47.4854 24.8685 47.5803 25.0597C47.6752 25.2508 47.8091 25.4199 47.9733 25.5558C48.1375 25.6917 48.3283 25.7916 48.5334 25.8488C49.3974 26.1197 50.4234 25.6747 51.1177 25.1793C51.9199 24.6028 52.9961 22.7105 53.0462 22.6409C53.9991 23.2958 54.9087 24.0119 55.7694 24.7846C56.4135 25.3535 57.0384 25.9455 57.6594 26.5685C57.3662 26.4912 56.2014 26.2474 56.1165 26.2396C54.9594 26.1351 52.7145 26.6034 52.2092 27.7875C52.1312 27.9862 52.0957 28.1991 52.1049 28.4125C52.1141 28.6258 52.168 28.8349 52.2629 29.026C52.3578 29.2172 52.4917 29.3862 52.6558 29.5222C52.82 29.6581 53.0109 29.7579 53.2159 29.8152C54.0799 30.086 55.1059 29.6449 55.8002 29.1457C56.5717 28.5846 57.6246 26.7736 57.7288 26.6227L58.5774 27.4547C59.4954 28.3718 60.4095 29.2928 61.3391 30.1634C61.6631 30.4691 61.9909 30.7594 62.3188 31.0496C61.8791 30.949 61.0691 30.7787 60.9958 30.7748C59.8579 30.6665 57.5938 31.1347 57.0885 32.3227C57.0105 32.5216 56.9751 32.7348 56.9846 32.9484C56.9941 33.162 57.0483 33.3712 57.1436 33.5624C57.2389 33.7536 57.3732 33.9226 57.5378 34.0583C57.7024 34.1941 57.8936 34.2936 58.0991 34.3504C58.9631 34.6174 59.9852 34.1762 60.6795 33.6809C61.3738 33.1856 62.2879 31.6765 62.5386 31.2508C63.0864 31.7306 63.6418 32.195 64.2126 32.6245C64.4634 32.8064 64.7064 33.0115 64.9532 33.1663L65.6899 33.6577C66.2029 33.9789 66.6812 34.2768 67.1672 34.5632L67.8846 34.9773C67.4526 34.807 66.7622 34.5516 66.6966 34.5361C65.5858 34.2575 63.2792 34.3736 62.6004 35.4687C62.4936 35.6533 62.4267 35.8583 62.4038 36.0704C62.381 36.2826 62.4029 36.4972 62.468 36.7004C62.533 36.9035 62.6399 37.0907 62.7816 37.2498C62.9234 37.409 63.0968 37.5365 63.2908 37.6241C64.1046 38.011 65.1846 37.7402 65.9445 37.3532C66.7854 36.9275 68.0505 35.3565 68.2048 35.163C68.7949 35.4996 69.3619 35.8208 69.9135 36.111C71.3676 36.885 72.6135 37.5157 73.6163 37.9762C76.8139 40.7507 81.3306 41.0719 81.3306 41.0719C81.3306 41.0719 81.5698 35.6544 78.3953 32.1099C77.2675 30.926 75.8923 30.0076 74.3685 29.4205ZM68.6599 34.6909C68.7602 34.4665 69.5239 32.7561 69.5779 31.7809C69.7553 31.75 69.9366 31.7113 70.1102 31.6726C70.434 33.3802 71.1092 35.0012 72.0928 36.4322C71.5103 36.1536 70.8816 35.8479 70.2143 35.5074C69.7168 35.252 69.1961 34.9772 68.6599 34.6909Z" fill="white"/>
<path d="M97.951 28.3834C97.951 28.3834 92.551 28.5498 89.2609 31.9899C85.9708 35.43 85.9939 40.8514 85.9939 40.8514C85.9939 40.8514 91.3939 40.685 94.684 37.2449C97.9742 33.8048 97.951 28.3834 97.951 28.3834Z" fill="white"/>
<path d="M83.861 31.87L89.153 27.0949L88.9293 26.8395L83.8571 31.4134L83.8301 25.1562L83.8571 25.1755L88.3353 18.6049L88.0576 18.4114L83.8263 24.6144L83.7646 9.55383L83.4251 9.5577L83.4676 19.7774L80.0964 16.852L79.8766 17.1073L83.4714 20.2301L83.5023 27.536L78.3916 23.0047L78.1678 23.2562L83.5023 27.9926L83.5331 34.6484L79.6914 31.6262L79.4831 31.8932L83.5331 35.0818L83.5524 39.3654H83.8918L83.8571 31.8661L83.861 31.87Z" fill="#E7E7E7"/>
<path d="M78.9815 33.7119L78.6459 33.6732L78.2178 37.4539L75.9459 34.9076H75.9498L75.3712 30.3299L75.0356 30.3724L75.5525 34.4665L69.9018 28.1281L69.6472 28.3564L73.4812 32.6555L71.0551 32.6865L71.0589 33.027L73.7821 32.9922L76.4705 36.0066L72.6751 36.0105V36.351L76.7752 36.3471L79.2168 39.0868L76.5399 39.2494L76.5631 39.5899L79.5061 39.4119L81.1338 41.2384L81.3883 41.01L78.5225 37.7944L78.9815 33.7119Z" fill="#E7E7E7"/>
<path d="M91.7757 35.0584L96.2808 34.1413L96.2153 33.8085L92.1846 34.6289L98.0628 28.5033L97.816 28.2672L93.8277 32.4232L93.6194 29.9969L93.28 30.0279L93.5153 32.7482L90.7189 35.6621L90.4334 31.866L90.094 31.8931L90.4026 35.991L87.8607 38.6417L87.502 35.9755L87.1664 36.022L87.5599 38.9551L85.8666 40.7197L86.1134 40.9557L89.095 37.8484L93.1874 38.0071L93.2028 37.6665L89.4113 37.5195L91.7757 35.0545V35.0584Z" fill="#E7E7E7"/>
<path d="M39.9319 87.554C40.2367 89.0747 43.8778 89.6861 43.8778 89.6861L46.5778 88.1383C47.7079 97.6576 48.7108 105.428 49.0464 106.105C49.9566 107.931 56.6333 105.497 57.2389 102.452C57.4858 101.221 56.2901 92.9211 54.7819 83.4715L64.2165 78.1005C64.2165 78.1005 64.6292 76.7422 61.6939 77.2685C60.6679 77.4542 57.6748 78.5726 54.2265 80.0198C52.1051 66.9791 49.6519 53.1414 49.6519 53.1414C49.6519 53.1414 81.8127 88.146 83.3325 88.146C84.8522 88.146 86.9736 87.8442 86.0633 85.1045C85.153 82.3648 49.6519 48.2734 49.6519 48.2734C49.6519 48.2734 43.5847 47.9677 42.3735 50.7074C42.3735 50.7074 44.2674 68.3219 46.0571 83.6921C42.5047 85.4295 39.8162 86.9735 39.9319 87.554Z" fill="#263238"/>
<path d="M111.667 78.5802C111.627 77.0049 111.471 75.4347 111.2 73.8824C110.664 70.7769 109.677 67.7667 108.273 64.9475C107.587 63.5502 106.802 62.204 105.924 60.9192C105.065 59.6394 104.124 58.4166 103.108 57.2585C102.109 56.1032 101.041 55.01 99.9104 53.9848C97.6765 51.9647 95.2591 50.1588 92.6898 48.5906C82.4838 42.3721 70.7041 39.5202 59.0402 39.6904C56.1233 39.7716 53.2175 40.0847 50.35 40.6269C47.4792 41.1562 44.6723 41.989 41.9762 43.1112C39.2961 44.2391 36.7658 45.6962 34.4432 47.449C32.1467 49.1737 30.0507 51.1519 28.1946 53.3463C28.1616 53.3821 28.1432 53.4291 28.1432 53.4779C28.1432 53.5267 28.1616 53.5737 28.1946 53.6095C28.2126 53.6276 28.2339 53.642 28.2574 53.6518C28.2809 53.6616 28.3061 53.6667 28.3316 53.6667C28.357 53.6667 28.3822 53.6616 28.4057 53.6518C28.4292 53.642 28.4506 53.6276 28.4685 53.6095C30.4125 51.5661 32.5798 49.7488 34.9292 48.192C37.2596 46.6079 39.7753 45.3173 42.4198 44.3494C47.7156 42.4146 53.3895 41.6833 59.0054 41.7374C64.6459 41.8222 70.2498 42.6629 75.6683 44.2372C81.0932 45.7826 86.2675 48.1051 91.0312 51.1329C95.7485 54.186 100.003 58.0479 103.089 62.7418C103.865 63.9118 104.556 65.1365 105.156 66.4063C106.374 68.9361 107.217 71.6307 107.659 74.4048C107.881 75.7911 108.001 77.1918 108.018 78.5957C108.032 79.9985 107.958 81.4009 107.794 82.7942C107.69 83.4869 107.594 84.1795 107.459 84.8683L107.224 85.8899L107.108 86.4007L106.957 86.9038C106.173 89.5973 104.992 92.1577 103.451 94.4998C100.366 99.1821 95.98 102.932 91.1277 105.722C86.2276 108.498 80.9078 110.451 75.379 111.503C69.8495 112.579 64.2009 112.904 58.585 112.47C57.8792 112.439 57.181 112.343 56.4829 112.281C56.1319 112.242 55.7809 112.211 55.4337 112.169L54.3923 112.01C53.698 111.894 52.9999 111.816 52.3133 111.669L50.269 111.279C49.9242 111.209 49.583 111.123 49.2469 111.019L48.2325 110.737C47.5536 110.547 46.8747 110.369 46.2152 110.125L44.221 109.44L42.2655 108.647C41.9415 108.512 41.6136 108.384 41.2935 108.241L40.3408 107.796C39.7082 107.486 39.064 107.204 38.443 106.875C37.2126 106.19 35.959 105.548 34.7865 104.766L33.8955 104.205L33.4481 103.922L33.0199 103.617L31.3035 102.378C30.7288 101.968 30.2003 101.5 29.6488 101.063L28.8311 100.397C28.5533 100.18 28.3065 99.925 28.0596 99.6929L26.5168 98.2611L25.0511 96.7249C24.8119 96.4656 24.5612 96.2218 24.3336 95.9509L23.6586 95.1383L22.9836 94.3257C22.7638 94.051 22.5246 93.7917 22.3318 93.4976L21.1052 91.7795L20.7966 91.35L20.5228 90.8972L19.9596 89.9956C19.233 88.7904 18.5674 87.5493 17.9655 86.2769C16.788 83.7194 15.9689 81.0108 15.5316 78.228C15.1234 75.4403 15.1377 72.6067 15.5741 69.8232C16.0143 67.0343 16.8278 64.3178 17.9925 61.7473C19.1666 59.1811 20.6137 56.7498 22.3086 54.4956C25.733 49.9927 29.8793 46.0919 34.5782 42.9525C34.6198 42.9255 34.6491 42.8832 34.66 42.8347C34.6708 42.7863 34.6622 42.7354 34.6361 42.6932C34.6097 42.65 34.5674 42.6188 34.5183 42.6065C34.4693 42.5942 34.4173 42.6017 34.3738 42.6275C31.9138 44.0932 29.5706 45.7479 27.3653 47.5767C25.1504 49.4345 23.1092 51.4914 21.2672 53.7217C19.3923 55.9807 17.7811 58.4475 16.4651 61.074C15.1242 63.7458 14.1498 66.5874 13.5684 69.5214C13.0013 72.5068 12.8921 75.5616 13.2444 78.5802C13.6257 81.6064 14.4227 84.565 15.6126 87.372C16.8148 90.1408 18.3083 92.7728 20.0676 95.2235C20.2721 95.5408 20.5189 95.8232 20.7465 96.1212L21.4485 97.0073L22.1466 97.8896C22.3858 98.1798 22.6481 98.4507 22.8949 98.7293L24.4146 100.393L26.0308 101.941C26.3046 102.197 26.5631 102.471 26.8485 102.715L27.7048 103.443C28.2795 103.919 28.8311 104.429 29.4289 104.878L31.2225 106.248L31.6738 106.585L32.1366 106.894L33.0739 107.513C34.3005 108.376 35.6273 109.061 36.931 109.835C37.5868 110.191 38.2656 110.505 38.9329 110.845L39.9396 111.34C40.279 111.499 40.6262 111.638 40.9695 111.785L43.0369 112.66L45.1545 113.434C45.8565 113.705 46.5777 113.906 47.299 114.119L48.379 114.436C48.7377 114.545 49.1003 114.649 49.4706 114.726L51.6692 115.233C52.4059 115.404 53.158 115.5 53.9025 115.62L55.021 115.806C55.4067 115.86 55.7577 115.895 56.1242 115.941C56.8609 116.019 57.5976 116.131 58.3382 116.177C61.2989 116.45 64.2756 116.505 67.2443 116.34C70.2221 116.188 73.186 115.832 76.1157 115.276C82.0602 114.179 87.7847 112.11 93.0601 109.15C98.3251 106.097 103.135 101.945 106.606 96.6513C108.34 93.982 109.665 91.0667 110.537 88.0027L110.703 87.43L110.838 86.8457L111.096 85.6848C111.247 84.9109 111.355 84.106 111.482 83.3205C111.656 81.7468 111.718 80.1627 111.667 78.5802Z" fill="#263238"/>
<path d="M58.5735 53.1413C58.682 53.3718 58.8533 53.5668 59.0676 53.7038C59.2819 53.8408 59.5305 53.9141 59.7846 53.9152C59.9908 53.9166 60.1944 53.8688 60.3786 53.7759L65.7786 51.1175L69.3156 54.1358C69.4494 54.2589 69.6066 54.3537 69.7778 54.4145C69.949 54.4753 70.1306 54.5008 70.3119 54.4895C70.4931 54.4782 70.6702 54.4303 70.8326 54.3488C70.9949 54.2672 71.1392 54.1536 71.2568 54.0148C71.3744 53.876 71.4629 53.7148 71.517 53.5409C71.571 53.367 71.5895 53.1839 71.5714 53.0027C71.5533 52.8214 71.499 52.6457 71.4116 52.486C71.3242 52.3263 71.2056 52.1859 71.0629 52.0733L68.4169 49.8134L71.3984 48.3391C71.5593 48.2588 71.7028 48.1475 71.8207 48.0116C71.9387 47.8757 72.0288 47.7178 72.0859 47.5469C72.143 47.3761 72.1661 47.1956 72.1537 47.0158C72.1413 46.836 72.0937 46.6604 72.0137 46.4991C71.9336 46.3377 71.8227 46.1938 71.6872 46.0754C71.5517 45.9571 71.3944 45.8667 71.224 45.8094C71.0537 45.7521 70.8738 45.729 70.6946 45.7414C70.5154 45.7539 70.3404 45.8016 70.1796 45.8819L66.1489 47.8747L63.3177 45.4562C63.0451 45.2232 62.6914 45.1085 62.3344 45.1371C61.9775 45.1658 61.6465 45.3356 61.4142 45.6091C61.182 45.8826 61.0676 46.2374 61.0962 46.5956C61.1248 46.9537 61.294 47.2858 61.5666 47.5187L63.4952 49.1788L59.1597 51.3187C58.8411 51.4824 58.6004 51.7664 58.4904 52.1082C58.3805 52.45 58.4103 52.8216 58.5735 53.1413Z" fill="#263238"/>
<path opacity="0.3" d="M142.694 134.109L117.318 122.988C114.232 120.353 110.579 117.311 109.989 117.16C108.917 116.89 109.453 115.547 111.331 112.316C113.21 109.085 99.9799 102.897 96.5971 103.226C93.8971 103.493 90.6803 102.947 89.5193 102.723C90.4874 99.84 91.4864 96.9803 91.4864 96.9803L78.3375 91.2068L67.8653 75.1788L64.5945 76.2236C64.5945 76.2236 69.1768 86.7181 74.5498 98.7333C72.5672 98.0986 68.5365 97.2357 68.1353 100.471C67.5992 104.774 70.816 108.005 74.0329 108.005C75.8072 108.005 77.5043 107.924 78.6615 107.85C84.5282 120.802 90.2329 132.945 91.2049 133.564C93.3533 134.91 100.848 136.791 101.129 134.91C101.411 133.03 93.6194 119.304 93.6194 119.304C93.6194 119.304 134.922 135.715 139.222 135.715C143.523 135.715 142.694 134.109 142.694 134.109ZM103.544 110.961C103.544 110.961 102.348 114.409 102.522 116.495L95.4786 113.399L103.544 110.961ZM84.5012 96.7017L83.56 99.2247L81.4077 95.9278L84.5012 96.7017Z" fill="black"/>
<path d="M126.648 50.7382C126.648 50.7382 127.485 48.9505 126.961 47.5806C126.436 46.2108 116.785 44.0012 116.785 44.0012C116.785 44.0012 114.579 44.0012 114.683 45.2627C114.787 46.5242 122.764 51.369 123.393 51.7908C124.021 52.2126 126.436 53.1606 126.648 50.7382Z" fill="white" stroke="#263238" stroke-linecap="round" stroke-linejoin="round"/>
<path d="M119.512 49.6857C119.811 49.1554 120.217 48.6939 120.705 48.3313C121.193 47.9686 121.751 47.7129 122.344 47.5806C124.338 47.1588 126.972 48.5287 127.277 50.7382C127.582 52.9478 125.911 54.0003 124.862 54.0003C123.813 54.0003 122.868 52.526 122.868 52.526C122.868 52.526 119.512 51.2645 119.512 49.6857Z" fill="white" stroke="#263238" stroke-linecap="round" stroke-linejoin="round"/>
<path d="M116.928 60.0757C117.331 61.043 117.945 61.9075 118.725 62.6059C119.504 63.3042 120.43 63.8188 121.433 64.1117C124.974 65.2416 131.57 63.628 135.431 64.1117L138.324 67.1803L133.822 70.0825C130.497 68.9797 127.113 68.0638 123.686 67.339C118.34 66.2361 115 61.2056 115 61.2056L116.928 60.0757Z" fill="#263238"/>
<path d="M66.7352 74.73L64.5984 76.2237L65.6205 76.9666L67.2945 76.4094L66.7352 74.73Z" fill="#263238" stroke="#263238" stroke-linecap="round" stroke-linejoin="round"/>
<path d="M115.281 38.8121C115.281 38.8121 114.363 38.4754 113.53 38.0575C112.697 37.6396 113.611 39.5628 113.947 39.6479C114.282 39.7331 115.104 39.8995 115.104 39.8995L115.281 38.8121Z" fill="white" stroke="#263238" stroke-linecap="round" stroke-linejoin="round"/>
<path d="M70.5113 68.9294L66.3688 74.4514C66.2253 74.6413 66.1378 74.8678 66.116 75.1051C66.0942 75.3424 66.139 75.5811 66.2453 75.7941C66.3682 76.0406 66.5671 76.2408 66.8124 76.3649C67.0576 76.489 67.3363 76.5303 67.6069 76.4829L73.6163 75.4343L138.621 37.9414C139.364 37.507 140.013 36.9272 140.53 36.2365C141.046 35.5457 141.418 34.7581 141.626 33.9202C141.833 33.0823 141.87 32.2112 141.736 31.3585C141.601 30.5058 141.297 29.6889 140.842 28.9562C140.39 28.2301 139.799 27.6016 139.102 27.1073C138.405 26.6131 137.618 26.263 136.785 26.0775C135.952 25.892 135.09 25.8748 134.25 26.0269C133.411 26.179 132.61 26.4973 131.894 26.9633L70.5113 68.9294Z" fill="#EE811D" stroke="#263238" stroke-linecap="round" stroke-linejoin="round"/>
<path d="M131.894 26.9633L114.568 38.9591C114.73 41.9697 116.018 45.9554 121.267 47.7161L138.624 37.9298C139.386 37.5085 140.055 36.9364 140.59 36.2481C141.125 35.5599 141.515 34.7699 141.736 33.926C141.958 33.0821 142.006 32.2018 141.879 31.3386C141.751 30.4753 141.45 29.647 140.994 28.9039C140.538 28.1608 139.936 27.5183 139.225 27.0154C138.514 26.5125 137.709 26.1596 136.858 25.9782C136.007 25.7967 135.129 25.7905 134.275 25.9598C133.422 26.1291 132.612 26.4705 131.894 26.9633Z" fill="#263238" stroke="#263238" stroke-linecap="round" stroke-linejoin="round"/>
<path d="M66.2454 75.7942C66.3683 76.0406 66.5671 76.2408 66.8124 76.3649C67.0577 76.489 67.3363 76.5304 67.6069 76.483L73.6164 75.4343C68.7564 73.5382 70.5307 68.9294 70.5307 68.9294L66.3881 74.4514C66.2416 74.6395 66.1506 74.865 66.1253 75.1023C66.1001 75.3396 66.1417 75.5793 66.2454 75.7942Z" fill="#EE811D" stroke="#263238" stroke-linecap="round" stroke-linejoin="round"/>
<path d="M109.951 40.7352C109.951 40.7352 109.017 40.7352 109.017 41.1609C109.017 41.5865 108.774 43.0957 109.314 43.0531C109.854 43.0106 109.804 42.0586 109.85 41.7259C109.897 41.3931 109.951 40.7352 109.951 40.7352Z" fill="white" stroke="#263238" stroke-linecap="round" stroke-linejoin="round"/>
<path d="M110.973 39.1913C110.973 39.1913 110.136 38.9359 109.947 39.4506C109.758 39.9652 109.561 42.407 110.136 42.345C110.71 42.2831 110.842 40.0774 110.973 39.1913Z" fill="white" stroke="#263238" stroke-linecap="round" stroke-linejoin="round"/>
<path d="M112.253 39.3228C112.253 39.3228 111.293 38.487 110.973 39.1913C110.653 39.8955 110.587 41.9 110.973 41.9C111.358 41.9 111.933 41.0642 112.06 40.6153C112.156 40.1898 112.221 39.7578 112.253 39.3228Z" fill="white" stroke="#263238" stroke-linecap="round" stroke-linejoin="round"/>
<path d="M113.599 39.6904C113.599 39.6904 112.381 38.6611 112.188 38.8545C111.995 39.048 111.227 41.0293 111.802 41.4278C112.377 41.8264 113.11 40.0503 113.11 40.0503L113.599 39.6904Z" fill="white" stroke="#263238" stroke-linecap="round" stroke-linejoin="round"/>
<path d="M98.3019 49.233C98.3019 49.233 98.4369 51.2994 98.9847 51.7793C99.3153 52.0686 99.6152 52.3915 99.8795 52.7428C99.9531 53.2675 99.9982 53.7959 100.015 54.3255C100.015 54.9446 100.427 54.8788 100.786 54.8788C101.145 54.8788 101.746 56.0397 102.09 56.597C102.464 57.1059 102.965 57.5064 103.544 57.7578C104.161 58.0984 105.187 56.7943 105.187 56.7943L106.545 59.058L111.416 55.8927L109.017 51.2143C108.875 49.5912 108.383 48.0185 107.575 46.6056C106.205 44.129 104.35 42.7359 101.264 43.6453C98.1785 44.5547 98.3019 49.233 98.3019 49.233Z" fill="white" stroke="#263238" stroke-linecap="round" stroke-linejoin="round"/>
<path d="M106.051 57.6997L103.964 55.5946" stroke="#263238" stroke-linecap="round" stroke-linejoin="round"/>
<path d="M102.448 51.6476C102.246 51.781 102.01 51.8522 101.768 51.8522C101.526 51.8522 101.289 51.781 101.087 51.6476C100.694 51.3819 100.377 51.0189 100.165 50.5938C99.9535 50.1686 99.8551 49.6958 99.8795 49.2213C99.8795 48.1572 98.5179 48.6138 98.5179 48.6138C98.5179 48.6138 97.0021 50.2816 95.9452 49.674C94.8884 49.0665 94.2789 47.8553 97.3068 44.0592C100.335 40.2631 103.208 40.4179 105.627 41.9348C108.045 43.4517 109.002 51.2219 109.002 51.2219C109.002 51.2219 108.955 52.704 106.988 53.1567C105.021 53.6095 102.448 53.1645 102.448 51.6476Z" fill="#263238" stroke="#263238" stroke-linecap="round" stroke-linejoin="round"/>
<path d="M102.074 52.9517C102.074 52.9517 101.388 50.3358 102.483 50.6802C103.579 51.0246 104.2 53.3618 104.13 53.6366C104.061 53.9113 103.513 54.0506 103.239 53.981" fill="white"/>
<path d="M102.074 52.9517C102.074 52.9517 101.388 50.3358 102.483 50.6802C103.579 51.0246 104.2 53.3618 104.13 53.6366C104.061 53.9113 103.513 54.0506 103.239 53.981" stroke="#263238" stroke-linecap="round" stroke-linejoin="round"/>
<path d="M110.001 53.8997C108.721 54.6192 107.498 55.4369 106.344 56.3453C105.187 57.3785 104.149 60.4742 104.149 60.4742C104.149 60.4742 111.216 55.6566 112.45 54.9678C113.684 54.279 113.958 53.9384 113.958 53.9384C113.958 53.9384 111.374 53.5553 110.001 53.8997Z" fill="white" stroke="#263238" stroke-linecap="round" stroke-linejoin="round"/>
<path d="M92.5934 72.3966C92.5934 72.3966 90.5954 71.4679 88.2889 70.2335C85.9823 68.9991 83.5214 67.6138 83.5214 67.6138C82.8579 67.5321 82.187 67.5321 81.5234 67.6138C80.3609 67.9046 79.1787 68.1102 77.9864 68.229C77.215 68.229 76.756 69.003 77.215 69.3087C77.674 69.6144 80.1387 69.3087 80.1387 69.3087L76.2816 71.1622C76.2816 71.1622 75.8226 72.0871 76.8987 72.0871C77.9749 72.0871 78.4416 71.9323 79.6643 72.0871C80.887 72.2418 83.3556 70.6979 83.3556 70.6979C83.3556 70.6979 89.8664 78.2243 91.3784 78.3172C92.8904 78.41 95.98 74.8654 92.5934 72.3966Z" fill="white" stroke="#263238" stroke-linecap="round" stroke-linejoin="round"/>
<path d="M94.6456 70.9493C94.6456 70.9493 91.286 71.8974 90.6573 73.3717C90.0286 74.8461 90.1327 77.0556 91.3902 78.3171C92.6476 79.5786 93.176 79.8959 94.5376 79.3697C95.8991 78.8434 96.2193 78.0037 96.3234 77.1601C96.4276 76.3165 97.1797 73.4762 94.6456 70.9493Z" fill="white" stroke="#263238" stroke-linecap="round" stroke-linejoin="round"/>
<path d="M139.573 130.193C139.303 130.635 139.058 131.093 138.84 131.563C138.736 131.88 136.426 132.194 136.742 133.246C137.058 134.299 139.469 135.143 140.626 135.247C141.783 135.351 144.098 133.773 144.507 133.351C144.753 133.103 145.124 131.47 144.927 130.193C144.798 129.599 144.507 129.053 144.086 128.614C144.086 128.614 142.092 125.561 139.573 130.193Z" fill="white" stroke="#263238" stroke-linecap="round" stroke-linejoin="round"/>
<path d="M144.927 130.193C144.819 129.66 144.573 129.165 144.214 128.758C143.779 128.76 143.35 128.852 142.952 129.027C142.554 129.202 142.196 129.457 141.899 129.775C140.85 131.037 141.375 133.877 140.113 134.299C139.176 134.612 137.537 133.463 136.765 132.859C136.723 132.985 136.723 133.121 136.765 133.246C137.082 134.299 139.492 135.143 140.65 135.247C141.807 135.352 144.121 133.773 144.53 133.351C144.754 133.103 145.124 131.47 144.927 130.193Z" fill="white" stroke="#263238" stroke-linecap="round" stroke-linejoin="round"/>
<path d="M142.2 130.932C141.779 132.825 142.304 134.09 140.626 135.247C141.783 135.351 144.098 133.773 144.506 133.351C144.753 133.103 145.124 131.47 144.927 130.193C144.882 129.931 144.795 129.677 144.668 129.443H144.506C144.506 129.443 142.616 129.036 142.2 130.932Z" fill="#263238" stroke="#263238" stroke-linecap="round" stroke-linejoin="round"/>
<path d="M135.847 116.193C134.274 113.035 127.906 104.53 127.906 104.53C127.906 104.53 124.97 86.1144 124.862 84.8451C124.662 82.415 123.107 78.7466 123.107 78.7466C123.107 78.7466 118.043 77.6863 108.388 83.3708L108.493 86.5284L115.223 94.8559C115.547 94.5889 115.736 94.4263 115.736 94.4263C115.736 94.4263 120.037 105.261 120.982 107.374C121.927 109.487 126.59 116.967 128.905 118.515C130.193 119.378 139.573 130.193 139.573 130.193C139.573 130.193 141.359 128.614 142.513 128.614H144.086C144.086 128.614 137.421 119.351 135.847 116.193Z" fill="#263238" stroke="#263238" stroke-linecap="round" stroke-linejoin="round"/>
<path d="M137.587 125.747C138.867 127.368 139.712 128.58 139.712 128.58" stroke="white" stroke-linecap="round" stroke-linejoin="round"/>
<path d="M118.425 95.5486C118.425 95.5486 120.087 99.8864 122.251 104.89C124.415 109.893 127.072 115.903 131.065 118.906C132.75 120.171 134.536 122.094 136.079 123.89" stroke="white" stroke-linecap="round" stroke-linejoin="round"/>
<path d="M122.976 91.1604L115.736 94.4225L123.416 94.0471" stroke="white" stroke-linecap="round" stroke-linejoin="round"/>
<path d="M121.715 48.9505C119.933 49.1594 115.316 52.3171 115 52.6344C114.683 52.9517 113.426 53.6869 112.901 54.1087C112.901 54.1087 102.101 60.8457 101.149 61.461C100.196 62.0763 98.3174 63.3532 98.4216 63.7828C98.5257 64.2123 92.8596 73.4568 92.8596 73.4568C92.8596 73.4568 91.1817 75.6664 92.7554 77.667C94.3292 79.6676 95.7987 78.2977 96.5316 77.8798C97.2644 77.4619 103.039 71.9825 103.039 71.9825L108.365 84.7523C108.365 84.7523 115.74 79.7914 123.609 80.1087L118.363 59.4759C118.363 59.4759 125.603 54.0003 125.811 52.1236C126.019 50.2468 123.501 48.7377 121.715 48.9505Z" fill="white"/>
<path d="M121.715 48.9505C121.001 49.0317 119.833 49.589 118.668 50.2507C118.933 50.1995 119.208 50.228 119.458 50.3326C119.708 50.4372 119.921 50.6133 120.072 50.8389C120.94 51.9572 119.08 55.5559 119.08 55.5559C119.08 55.5559 118.309 50.5796 118.34 52.0733C118.371 53.5669 117.954 58.1563 117.954 58.1563C117.954 58.1563 115.478 55.1767 115.601 55.9236C115.725 56.6704 117.333 63.6202 118.324 66.2284C119.316 68.8365 117.58 76.1617 116.593 78.2745C115.605 80.3873 116.207 69.3357 115.108 72.0638C114.008 74.7919 110.294 82.3802 109.426 83.127C108.558 83.8739 109.704 73.0002 110.012 71.5839C109.627 72.7681 107.077 80.2674 107.077 80.2674L103.606 71.3285C103.606 71.3285 97.6656 66.4838 98.2828 67.3544C98.8999 68.2251 100.389 70.9571 100.389 70.9571C100.389 70.9571 96.7978 70.2102 97.4188 70.4579C98.0398 70.7055 100.759 72.0715 100.759 72.0715C100.759 72.0715 95.1932 76.065 93.5848 76.5448C93.1523 76.6726 92.7075 76.7544 92.2579 76.7886C92.374 77.113 92.542 77.4163 92.7555 77.6863C94.3292 79.6869 95.7988 78.3171 96.5316 77.8992C97.2645 77.4812 103.039 72.0019 103.039 72.0019L108.365 84.7523C108.365 84.7523 115.74 79.7914 123.609 80.1087L118.363 59.4759C118.363 59.4759 125.603 54.0003 125.811 52.1236C126.019 50.2468 123.501 48.7377 121.715 48.9505Z" fill="#EE811D"/>
<path opacity="0.5" d="M121.715 48.9505C121.001 49.0317 119.833 49.589 118.668 50.2507C118.933 50.1995 119.208 50.228 119.458 50.3326C119.708 50.4372 119.921 50.6133 120.072 50.8389C120.94 51.9572 119.08 55.5559 119.08 55.5559C119.08 55.5559 118.309 50.5796 118.34 52.0733C118.371 53.5669 117.954 58.1563 117.954 58.1563C117.954 58.1563 115.478 55.1767 115.601 55.9236C115.725 56.6704 117.333 63.6202 118.324 66.2284C119.316 68.8365 117.58 76.1617 116.593 78.2745C115.605 80.3873 116.207 69.3357 115.108 72.0638C114.008 74.7919 110.294 82.3802 109.426 83.127C108.558 83.8739 109.704 73.0002 110.012 71.5839C109.627 72.7681 107.077 80.2674 107.077 80.2674L103.606 71.3285C103.606 71.3285 97.6656 66.4838 98.2828 67.3544C98.8999 68.2251 100.389 70.9571 100.389 70.9571C100.389 70.9571 96.7978 70.2102 97.4188 70.4579C98.0398 70.7055 100.759 72.0715 100.759 72.0715C100.759 72.0715 95.1932 76.065 93.5848 76.5448C93.1523 76.6726 92.7075 76.7544 92.2579 76.7886C92.374 77.113 92.542 77.4163 92.7555 77.6863C94.3292 79.6869 95.7988 78.3171 96.5316 77.8992C97.2645 77.4812 103.039 72.0019 103.039 72.0019L108.365 84.7523C108.365 84.7523 115.74 79.7914 123.609 80.1087L118.363 59.4759C118.363 59.4759 125.603 54.0003 125.811 52.1236C126.019 50.2468 123.501 48.7377 121.715 48.9505Z" fill="white"/>
<path d="M121.715 48.9505C119.933 49.1594 115.316 52.3171 115 52.6344C114.683 52.9517 113.426 53.6869 112.901 54.1087C112.901 54.1087 102.101 60.8457 101.149 61.461C100.196 62.0763 98.3174 63.3532 98.4216 63.7828C98.5257 64.2123 92.8596 73.4568 92.8596 73.4568C92.8596 73.4568 91.1817 75.6664 92.7554 77.667C94.3292 79.6676 95.7987 78.2977 96.5316 77.8798C97.2644 77.4619 103.039 71.9825 103.039 71.9825L108.365 84.7523C108.365 84.7523 115.74 79.7914 123.609 80.1087L118.363 59.4759C118.363 59.4759 125.603 54.0004 125.811 52.1236C126.019 50.2468 123.501 48.7377 121.715 48.9505Z" stroke="#263238" stroke-linecap="round" stroke-linejoin="round"/>
<path d="M108.365 84.7524C108.055 81.8514 108.204 78.9196 108.805 76.0651L108.365 84.7524Z" fill="white"/>
<path d="M108.365 84.7524C108.055 81.8514 108.204 78.9196 108.805 76.0651" stroke="#263238" stroke-linecap="round" stroke-linejoin="round"/>
<path d="M107.366 78.3016C107.366 78.3016 107.366 76.5216 109.36 70.9493L107.366 78.3016Z" fill="white"/>
<path d="M107.366 78.3016C107.366 78.3016 107.366 76.5216 109.36 70.9493" stroke="#263238" stroke-linecap="round" stroke-linejoin="round"/>
<path d="M98.9462 67.3699L103.039 72.0018L98.842 68.9487" fill="white"/>
<path d="M98.9462 67.3699L103.039 72.0018L98.842 68.9487" stroke="#263238" stroke-linecap="round" stroke-linejoin="round"/>
<path d="M118.359 53.5824V59.4759L119.721 51.8953" fill="white"/>
<path d="M118.359 53.5824V59.4759L119.721 51.8953" stroke="#263238" stroke-linecap="round" stroke-linejoin="round"/>
<path d="M110.047 71.4523C110.031 71.4948 110.019 71.5389 110.012 71.5839C110.059 71.4407 110.074 71.3865 110.047 71.4523Z" fill="#263238"/>
<path d="M112.446 46.2185C112.157 46.2207 111.875 46.1295 111.641 45.9585C111.407 45.7875 111.234 45.5457 111.148 45.2687C111.061 44.9918 111.066 44.6943 111.161 44.4201C111.256 44.1459 111.436 43.9095 111.675 43.7458L127.231 33.0424C127.377 32.9408 127.541 32.869 127.715 32.8313C127.889 32.7935 128.068 32.7904 128.243 32.8222C128.418 32.854 128.585 32.92 128.735 33.0166C128.884 33.1131 129.013 33.2383 129.115 33.3849C129.216 33.5315 129.288 33.6967 129.325 33.871C129.363 34.0454 129.366 34.2255 129.334 34.401C129.303 34.5765 129.237 34.7441 129.141 34.8941C129.044 35.0441 128.92 35.1736 128.773 35.2752L113.218 45.9825C112.99 46.1382 112.721 46.2205 112.446 46.2185Z" fill="#263238"/>
<path d="M116.485 43.9587L128.581 35.608" stroke="white" stroke-linecap="round" stroke-linejoin="round"/>
<path d="M115.119 41.4125L127.215 33.0657" stroke="white" stroke-linecap="round" stroke-linejoin="round"/>
<path d="M108.493 86.5129C108.493 86.5129 96.8402 100.107 96.5856 103.203C96.331 106.298 98.6415 109.394 101.469 110.168C104.296 110.942 131.859 111.557 131.859 111.557L131.601 106.399L107.127 102.688L115.227 94.8404" fill="#263238"/>
<path d="M108.493 86.5129C108.493 86.5129 96.8402 100.107 96.5856 103.203C96.331 106.298 98.6415 109.394 101.469 110.168C104.296 110.942 131.859 111.557 131.859 111.557L131.601 106.399L107.127 102.688L115.227 94.8404" stroke="#263238" stroke-linecap="round" stroke-linejoin="round"/>
<path d="M126.706 108.682L128.569 108.895" stroke="white" stroke-linecap="round" stroke-linejoin="round"/>
<path d="M100.501 102.212L99.9683 102.889C99.9683 102.889 103.293 102.723 102.63 103.388C102.189 103.911 101.901 104.546 101.797 105.223L103.791 104.723C103.791 104.723 102.634 107.045 103.459 106.894C104.091 106.738 104.704 106.514 105.287 106.225L124.573 108.434" stroke="white" stroke-linecap="round" stroke-linejoin="round"/>
<path d="M111.609 84.1912C111.609 84.1912 108.446 86.362 109.947 86.6948C111.447 87.0276 113.271 86.5284 112.77 87.194C112.042 88.0107 111.27 88.7858 110.456 89.5158L103.031 98.9731" stroke="white" stroke-linecap="round" stroke-linejoin="round"/>
<path d="M109.947 86.7064C109.947 86.7064 111.775 84.0364 115.933 83.87" stroke="white" stroke-linecap="round" stroke-linejoin="round"/>
<path d="M131.068 106.353C131.068 106.353 133.965 105.691 134.494 106.616C135.022 107.541 135.284 109.785 135.284 110.841C135.284 111.898 136.056 113.616 135.94 115.202C135.824 116.789 133.441 118.503 132.65 118.503C131.859 118.503 131.878 113.747 131.068 111.898C130.258 110.048 130.15 107.409 131.068 106.353Z" fill="white" stroke="#263238" stroke-linecap="round" stroke-linejoin="round"/>
<path d="M132.897 118.461C133.846 118.198 135.82 116.646 135.94 115.202C136.075 113.616 135.284 111.898 135.284 110.841C135.284 109.785 135.018 107.541 134.493 106.616C134.258 106.202 133.549 106.105 132.835 106.124C132.644 106.321 132.5 106.559 132.416 106.82C132.332 107.081 132.309 107.358 132.349 107.63C132.534 109.143 134.042 115.288 133.479 116.99C133.313 117.491 133.119 117.982 132.897 118.461Z" fill="white" stroke="#263238" stroke-linecap="round" stroke-linejoin="round"/>
<path d="M134.493 106.635C134.351 106.432 134.135 106.293 133.892 106.248C133.394 106.931 133.153 107.769 133.213 108.612C133.379 111.132 133.884 113.151 134.05 115.334C134.17 116.293 134.022 117.268 133.622 118.147C134.609 117.555 135.847 116.359 135.936 115.226C136.071 113.639 135.28 111.921 135.28 110.865C135.28 109.808 135.018 107.541 134.493 106.635Z" fill="#263238" stroke="#263238" stroke-linecap="round" stroke-linejoin="round"/>
</svg>
